
<svg width="588" height="360" viewBox="0 0 588 360" fill="none" xmlns="http://www.w3.org/2000/svg">
<g clip-path="url(#clip0_12518_267)">
<rect width="588" height="360" fill="#1B443D"/>
<g clip-path="url(#clip1_12518_267)">
<path d="M483.751 262.435L352.051 -46.3736L-415.967 -23.0573L453.958 304.69" fill="#336D64"/>
</g>
<g clip-path="url(#clip2_12518_267)">
<path d="M596.372 389.993L504.426 325.378L521.13 301.61L613.076 366.225L596.372 389.993Z" fill="#96B5C8"/>
<path d="M504.297 273.321L521.131 301.61L504.428 325.378L472.108 319.126L504.297 273.321Z" fill="#96B5C8"/>
<path d="M472.106 319.124L447.528 301.854L479.715 256.049L504.293 273.321L472.106 319.124ZM527.709 349.694L524.935 347.747C524.236 347.256 523.64 346.631 523.182 345.91C522.724 345.188 522.413 344.384 522.266 343.542C522.119 342.7 522.139 341.838 522.326 341.004C522.512 340.17 522.861 339.381 523.352 338.682L536.773 348.113C536.281 348.812 535.657 349.407 534.936 349.865C534.214 350.323 533.409 350.634 532.568 350.781C531.726 350.928 530.863 350.907 530.03 350.721C529.196 350.534 528.409 350.185 527.709 349.694ZM596.372 389.993L585.09 382.065L601.795 358.297L613.076 366.225L596.372 389.993Z" fill="#3A3A3A"/>
</g>
</g>
<defs>
<clipPath id="clip0_12518_267">
<rect width="588" height="360" fill="white"/>
</clipPath>
<clipPath id="clip1_12518_267">
<rect width="572.306" height="350.515" fill="white" transform="translate(485.005 303.748) rotate(178.261)"/>
</clipPath>
<clipPath id="clip2_12518_267">
<rect width="163.516" height="137.423" fill="white" transform="translate(613.781 389.465) rotate(178.261)"/>
</clipPath>
</defs>
</svg>
