
<svg width="549" height="652" viewBox="0 0 549 652" fill="none" xmlns="http://www.w3.org/2000/svg">
<path d="M487.35 277.237C487.508 277.336 487.732 277.394 487.831 277.236C487.93 277.077 487.881 276.866 487.723 276.767C487.564 276.668 487.352 276.717 487.253 276.875C487.154 277.034 487.191 277.138 487.35 277.237Z" fill="#409797"/>
<path d="M486.991 277.879C486.794 278.194 486.89 278.608 487.205 278.804C487.519 279 487.933 278.904 488.129 278.59C488.326 278.276 488.143 277.887 487.829 277.691C487.515 277.495 487.187 277.565 486.991 277.879Z" fill="#409797"/>
<path d="M487.175 280.077C487.775 280.452 488.471 280.548 489.111 280.4C489.75 280.252 490.333 279.86 490.708 279.26C491.083 278.659 491.178 277.963 491.031 277.324C490.883 276.685 490.491 276.102 489.89 275.727C489.29 275.352 488.594 275.256 487.955 275.404C487.315 275.552 486.732 275.944 486.358 276.544C485.983 277.145 485.887 277.84 486.035 278.48C486.183 279.119 486.575 279.702 487.175 280.077ZM488.039 275.767C488.586 275.641 489.18 275.724 489.692 276.044C490.205 276.364 490.54 276.861 490.667 277.408C490.794 277.956 490.711 278.549 490.391 279.062C490.071 279.574 489.574 279.91 489.027 280.036C488.479 280.163 487.663 279.999 487.15 279.679C486.637 279.359 486.525 278.943 486.398 278.396C486.272 277.848 486.355 277.255 486.675 276.742C486.995 276.23 487.491 275.894 488.039 275.767Z" fill="#409797"/>
<path d="M474.706 248.998C475.001 249.431 475.509 249.832 475.941 249.537C476.373 249.242 476.486 248.645 476.191 248.213C475.896 247.781 475.298 247.668 474.866 247.963C474.434 248.258 474.411 248.566 474.706 248.998Z" fill="#409797"/>
<path d="M473.067 250.231C472.21 250.816 471.99 251.984 472.574 252.841C473.159 253.697 474.328 253.918 475.184 253.333C476.041 252.748 476.011 251.548 475.426 250.692C474.842 249.835 473.923 249.646 473.067 250.231Z" fill="#409797"/>
<path d="M471.063 256.077C472.18 257.713 473.855 258.742 475.66 259.082C477.465 259.422 479.399 259.075 481.035 257.958C482.671 256.841 483.7 255.166 484.04 253.361C484.381 251.556 484.033 249.622 482.916 247.986C481.799 246.35 480.124 245.321 478.319 244.981C476.515 244.64 474.58 244.988 472.944 246.105C471.308 247.222 470.279 248.897 469.939 250.702C469.599 252.506 469.946 254.441 471.063 256.077ZM478.126 246.007C479.671 246.298 481.098 247.179 482.052 248.576C483.005 249.972 483.306 251.623 483.014 253.168C482.723 254.713 481.842 256.14 480.445 257.093C479.049 258.047 477.399 258.348 475.853 258.056C474.308 257.765 472.401 256.425 471.447 255.029C470.494 253.632 470.673 252.44 470.965 250.895C471.256 249.35 472.137 247.923 473.534 246.969C474.931 246.016 476.581 245.715 478.126 246.007Z" fill="#409797"/>
<path d="M478.644 222.153C478.658 222.459 478.789 222.815 479.095 222.8C479.401 222.786 479.641 222.522 479.626 222.216C479.611 221.91 479.348 221.67 479.041 221.685C478.735 221.699 478.629 221.846 478.644 222.153Z" fill="#409797"/>
<path d="M477.44 222.264C476.833 222.293 476.365 222.809 476.394 223.416C476.423 224.023 476.939 224.492 477.546 224.463C478.153 224.434 478.506 223.825 478.477 223.218C478.448 222.611 478.047 222.235 477.44 222.264Z" fill="#409797"/>
<path d="M474.645 224.571C474.7 225.731 475.221 226.758 476.018 227.482C476.815 228.206 477.887 228.626 479.047 228.57C480.206 228.515 481.234 227.994 481.958 227.197C482.682 226.401 483.102 225.328 483.046 224.169C482.991 223.009 482.47 221.981 481.673 221.258C480.876 220.534 479.804 220.114 478.644 220.169C477.485 220.225 476.457 220.745 475.733 221.542C475.009 222.339 474.589 223.412 474.645 224.571ZM481.262 221.71C481.944 222.33 482.386 223.208 482.434 224.198C482.481 225.188 482.125 226.104 481.505 226.786C480.885 227.468 480.007 227.91 479.017 227.958C478.027 228.005 477.111 227.649 476.429 227.029C475.747 226.41 475.206 225.155 475.158 224.165C475.111 223.175 475.566 222.636 476.186 221.954C476.806 221.271 477.684 220.829 478.674 220.782C479.664 220.734 480.58 221.091 481.262 221.71Z" fill="#409797"/>
<path fill-rule="evenodd" clip-rule="evenodd" d="M532.638 304.568C532.638 304.568 535.345 300.268 540.76 291.667C517.423 281.233 501.299 281.796 492.401 293.324C484.654 295.373 483.075 297.872 487.663 300.79C488.94 308.222 499.816 316.396 520.292 325.312C526.318 328.694 529.646 324.785 530.307 313.568C533.961 317.456 535.796 319.416 535.796 319.416C539.133 318.272 541.891 315.83 543.423 312.637C544.955 309.443 545.141 305.785 543.952 302.448C543.952 302.448 540.175 303.155 532.623 304.568L532.638 304.568Z" fill="#62B9B9"/>
<path d="M285.27 380.199C290.619 383.24 297.275 383.266 302.656 380.258L455.149 295.012C463.374 290.418 466.163 280.235 461.218 272.346L310.033 31.1777C303.412 20.6161 287.436 20.5352 280.707 31.0747L127.447 271.129C122.424 278.996 125.148 289.197 133.32 293.841L285.27 380.199ZM279.398 533.347C286.192 542.533 300.419 542.6 307.302 533.44L428.036 372.797C433.471 365.557 431.744 357.278 426.753 352.075C421.793 346.892 413.442 344.564 405.503 348.99L300.384 407.61C296.361 409.853 291.356 409.837 287.344 407.56L182.697 348.175C174.804 343.696 166.434 345.955 161.416 351.112C156.378 356.29 154.588 364.557 159.963 371.828L279.398 533.347Z" stroke="#075A5A" stroke-width="4.40416"/>
<mask id="mask0_640_176" style="mask-type:alpha" maskUnits="userSpaceOnUse" x="127" y="25" width="335" height="514">
<path d="M301.585 378.341C296.881 380.972 291.046 380.951 286.362 378.289L134.412 291.929C127.283 287.877 124.988 279.068 129.302 272.311L282.562 32.2574C288.411 23.0966 302.392 23.1505 308.163 32.3557L459.347 273.524C463.61 280.309 461.249 289.096 454.086 293.095L301.585 378.341Z" fill="#D9D9D9"/>
<path d="M305.542 532.127C299.552 540.096 287.096 540.05 281.171 532.037L161.735 370.517C152.447 357.958 167.748 342.232 181.603 350.095L286.249 409.479C290.927 412.135 296.751 412.155 301.451 409.534L406.579 350.915C420.492 343.154 435.657 358.992 426.276 371.483L305.542 532.127Z" fill="#D9D9D9"/>
</mask>
<g mask="url(#mask0_640_176)">
<g filter="url(#filter0_di_640_176)">
<path d="M771.681 1100.74C483.973 1117.9 103.763 839.022 82.4509 541.392C61.1407 243.762 188.654 -73.3103 476.367 -90.4767C764.058 -107.641 1202.51 51.225 1223.83 348.854C1245.14 646.484 1059.39 1083.56 771.681 1100.74Z" fill="url(#paint0_linear_640_176)"/>
<mask id="mask1_640_176" style="mask-type:alpha" maskUnits="userSpaceOnUse" x="80" y="-92" width="1146" height="1194">
<path d="M771.681 1100.74C483.973 1117.9 103.763 839.022 82.4509 541.392C61.1407 243.762 188.654 -73.3103 476.367 -90.4767C764.058 -107.641 1202.51 51.225 1223.83 348.854C1245.14 646.484 1059.39 1083.56 771.681 1100.74Z" fill="url(#paint1_linear_640_176)"/>
</mask>
<g mask="url(#mask1_640_176)">
<path fill-rule="evenodd" clip-rule="evenodd" d="M-229.352 450.795C-205.272 461.92 -188.612 484.595 -185.304 510.753C-158.056 489.593 -120.644 486.661 -90.1904 503.302C-59.7225 519.942 -42.0634 552.971 -45.2691 587.27C-23.1586 567.223 8.5976 561.566 36.5047 572.701C64.4102 583.836 83.5432 609.799 85.7807 639.554C117.488 618.576 158.327 616.656 192.107 634.556C225.885 652.467 247.156 687.297 247.476 725.262C262.962 713.737 283.026 710.111 301.701 715.463C320.363 720.812 335.502 734.515 342.595 752.501C361.185 725.915 394.437 713.618 426.133 721.594C457.826 729.571 481.373 756.161 485.303 788.408C513.732 760.63 555.455 750.979 593.518 763.403C631.565 775.826 659.598 808.248 666.221 847.484C699.23 821.274 744.582 816.377 782.74 834.886C820.882 853.41 845.048 892.012 844.826 934.132C861.354 897.384 901.144 876.831 941.03 884.453C980.931 892.076 1010.53 925.876 1012.58 966.173C1024.03 943.925 1048.39 931.359 1073.38 934.782C1098.35 938.204 1118.54 956.903 1123.77 981.433C1135.96 965.841 1155.26 957.458 1175.11 959.106C1194.97 960.754 1212.72 972.242 1222.3 989.658C1229.75 978.106 1243.06 971.688 1256.85 972.971C1270.62 974.271 1282.58 983.066 1287.88 995.79C1299.03 978.359 1319.54 969.184 1340.12 972.401C1360.72 975.602 1377.55 990.608 1383.02 1010.61L868.628 988.057C168.382 853.743 -222.928 691.07 -305.291 500.06L-303.591 456.06C-281.498 441.643 -253.404 439.642 -229.325 450.769L-229.352 450.795Z" fill="#2BB386"/>
<path fill-rule="evenodd" clip-rule="evenodd" d="M-253.484 497.422C-236.814 505.308 -225.246 521.015 -222.72 539.161C-196.33 526.364 -164.898 529.133 -141.015 546.36C-117.131 563.587 -104.685 592.451 -108.644 621.416C-85.389 603.513 -53.4664 601.455 -27.8856 616.198C-2.30634 630.942 11.8445 659.549 7.90826 688.583C35.4398 657.668 79.5546 647.226 118.386 662.417C157.216 677.624 182.526 715.24 181.754 756.637C196.328 745.275 215.564 741.646 233.39 746.907C251.215 752.152 265.442 765.638 271.569 783.1C290.936 762.96 320.46 756.066 346.978 765.511C373.497 774.924 392.066 798.899 394.418 826.757C412.903 803.542 442.9 792.577 472.247 798.313C501.579 804.034 525.349 825.505 533.906 853.997C563.634 824.095 608.019 813.779 648.222 827.439C688.44 841.082 717.391 876.309 722.842 918.143C734.521 908.113 749.987 903.612 765.311 905.783C780.618 907.954 794.294 916.575 802.819 929.442C823.879 904.341 857.648 893.597 889.61 901.869C921.556 910.125 945.976 935.907 952.33 968.107C967.368 948.331 991.978 938.157 1016.78 941.469C1041.59 944.781 1062.76 961.056 1072.26 984.112C1086.17 973.59 1103.93 969.422 1121.16 972.639C1138.4 975.84 1153.52 986.14 1162.79 1000.97L820.377 985.966C229.5 929.03 -146.694 792.386 -308.223 576.067L-305.286 500.081C-289.624 490.536 -270.13 489.536 -253.458 497.423L-253.484 497.422Z" fill="#1F9970"/>
<path fill-rule="evenodd" clip-rule="evenodd" d="M53.1209 625.144C50.0578 619.51 46.4417 613.733 42.4801 607.53C29.8695 587.749 20.6105 566.818 48.096 521.908C64.0233 495.891 79.9884 471.652 47.7806 437.589C127.677 503.692 26.3373 527.341 71.2143 597.618C85.8501 620.536 105.965 644.516 97.1707 686.812C90.7324 717.817 69.2304 744.182 38.8655 758.364C19.319 740.363 9.54492 731.362 9.54492 731.362C54.4853 714.425 75.6577 666.536 53.1352 625.145L53.1209 625.144Z" fill="#0A4F38"/>
<path fill-rule="evenodd" clip-rule="evenodd" d="M-219.927 551.562C-193.156 568.28 -178.262 598.681 -181.599 629.835C-158.683 625.194 -134.804 630.442 -115.868 644.259C-96.9474 658.074 -84.7473 679.175 -82.2958 702.339C-54.6011 681.344 -16.7076 679.415 13.2263 697.45C43.1586 715.499 59.0477 749.838 53.2717 784.035C70.0325 768.204 93.9558 762.309 116.318 768.537C138.681 774.749 156.199 792.132 162.46 814.365C182.978 785.509 219.18 772.103 253.846 780.501C288.513 788.9 314.669 817.392 319.873 852.476C338.521 835.773 364.554 829.847 388.769 836.788C412.982 843.744 431.966 862.585 438.986 886.64C465.18 861.619 503.275 853.284 537.82 864.963C572.349 876.657 597.577 906.448 603.265 942.245C618.636 925.622 641.645 918.19 664.005 922.627C686.364 927.064 704.857 942.737 712.843 964.003C733.142 938.965 765.358 926.637 797.431 931.597C829.52 936.556 856.602 958.06 868.613 988.089L539.531 973.669C95.748 914.72 -188.029 812.812 -311.794 667.935L-308.02 570.253L-307.291 551.375C-280.633 534.787 -246.685 534.871 -219.901 551.576L-219.927 551.562Z" fill="#0D805A"/>
<path fill-rule="evenodd" clip-rule="evenodd" d="M313.427 367.857C317.646 367.405 320.65 371.101 320.138 376.087C319.625 381.074 315.801 385.492 311.583 385.93C307.365 386.381 304.36 382.684 304.874 377.697C305.387 372.71 309.211 368.294 313.427 367.857Z" fill="#2B9C76"/>
<path fill-rule="evenodd" clip-rule="evenodd" d="M325.552 359.047C328.029 358.786 329.797 360.957 329.498 363.885C329.198 366.814 326.951 369.404 324.474 369.667C321.998 369.93 320.228 367.758 320.527 364.83C320.827 361.901 323.074 359.31 325.552 359.047Z" fill="#2B9C76"/>
<path fill-rule="evenodd" clip-rule="evenodd" d="M303.54 387.736C306.017 387.473 307.787 389.644 307.488 392.572C307.187 395.502 304.94 398.093 302.463 398.356C299.986 398.618 298.216 396.447 298.515 393.518C298.817 390.59 301.064 387.997 303.54 387.736Z" fill="#2B9C76"/>
<path fill-rule="evenodd" clip-rule="evenodd" d="M314.223 388.324C316.7 388.061 318.47 390.232 318.171 393.162C317.871 396.09 315.624 398.681 313.146 398.944C310.669 399.206 308.899 397.035 309.2 394.106C309.499 391.178 311.746 388.586 314.223 388.324Z" fill="#2B9C76"/>
<path fill-rule="evenodd" clip-rule="evenodd" d="M326.393 377.237C328.361 377.031 329.762 378.749 329.526 381.072C329.29 383.394 327.504 385.449 325.534 385.668C323.566 385.872 322.166 384.154 322.403 381.833C322.639 379.511 324.425 377.456 326.393 377.237Z" fill="#2B9C76"/>
<path fill-rule="evenodd" clip-rule="evenodd" d="M295.144 404.34C297.068 403.907 298.662 405.449 298.691 407.796C298.721 410.129 297.193 412.38 295.269 412.813C293.346 413.246 291.753 411.705 291.723 409.359C291.693 407.024 293.221 404.773 295.144 404.34Z" fill="#2B9C76"/>
<path fill-rule="evenodd" clip-rule="evenodd" d="M198.991 497.878C190.002 489.435 176.445 491.053 158.326 502.73C164.012 509.19 166.855 512.421 166.855 512.421C160.356 512.223 157.104 512.111 157.104 512.111C156.558 515.035 157.212 518.06 158.92 520.509C160.629 522.959 163.253 524.641 166.205 525.16C166.205 525.16 167.474 523.306 170.011 519.586C172.07 528.832 175.374 531.657 179.966 528.07C195.903 518.009 203.902 509.816 203.961 503.467C207.415 500.438 205.758 498.572 199.002 497.862L198.991 497.878Z" fill="#1C966D"/>
<path fill-rule="evenodd" clip-rule="evenodd" d="M136.796 317.917C130.964 309.776 119.873 308.959 103.555 315.426C107.069 321.463 108.833 324.484 108.833 324.484C103.678 323.303 101.087 322.712 101.087 322.712C100.187 324.953 100.222 327.471 101.205 329.688C102.186 331.904 104.011 333.654 106.283 334.535C106.283 334.535 107.588 333.255 110.207 330.692C110.375 338.386 112.576 341.144 116.806 338.999C131.115 333.476 138.8 328.195 139.86 323.154C143.093 321.281 142.068 319.527 136.783 317.904L136.796 317.917Z" fill="#1C966D"/>
<path fill-rule="evenodd" clip-rule="evenodd" d="M221.561 222.122C220.06 215.753 213.533 212.519 201.995 212.383C202.613 216.904 202.925 219.157 202.925 219.157C200.083 217.167 198.664 216.165 198.664 216.165C197.555 217.3 196.953 218.827 196.985 220.415C197.018 222.003 197.69 223.505 198.856 224.61C198.856 224.61 199.972 224.161 202.193 223.261C200.368 227.955 201.019 230.175 204.115 229.925C214.195 230.134 220.182 228.839 222.098 226.052C224.53 225.714 224.353 224.41 221.548 222.116L221.561 222.122Z" fill="#1C966D"/>
<path d="M206.508 417.166C206.609 414.561 208.82 412.55 211.43 412.666C214.038 412.78 216.087 414.976 215.987 417.583C215.886 420.188 213.675 422.199 211.065 422.085C208.455 421.969 206.408 419.76 206.508 417.166Z" fill="white"/>
<path d="M216.344 405.146C221.362 405.367 225.825 407.59 228.986 411.002C232.148 414.413 234.011 419.014 233.818 424C233.626 428.987 231.414 433.41 228.001 436.519C224.586 439.63 219.968 441.468 214.95 441.248C209.931 441.027 205.469 438.804 202.307 435.394C199.146 431.982 197.282 427.38 197.476 422.408C197.667 417.434 199.88 412.998 203.293 409.875C206.708 406.752 211.325 404.926 216.344 405.146ZM204.271 433.597C206.971 436.513 210.779 438.402 215.053 438.589C219.325 438.776 223.266 437.226 226.183 434.559C229.099 431.89 230.978 428.116 231.143 423.87C231.306 419.624 229.725 415.698 227.024 412.783C224.323 409.869 220.515 407.98 216.243 407.793C211.969 407.604 208.028 409.154 205.112 411.822C202.195 414.491 200.315 418.264 200.152 422.511C199.987 426.758 201.569 430.683 204.271 433.597Z" fill="white"/>
<path d="M206.553 421.771C207.884 421.829 208.921 422.948 208.87 424.271C208.819 425.594 207.699 426.618 206.368 426.559C205.037 426.501 203.999 425.382 204.05 424.059C204.102 422.736 205.221 421.712 206.553 421.771Z" fill="white"/>
<path d="M269.74 399.302C269.797 397.833 271.041 396.695 272.52 396.76C273.997 396.825 275.149 398.068 275.093 399.537C275.036 401.006 273.791 402.143 272.314 402.08C270.835 402.015 269.683 400.771 269.74 399.302Z" fill="white"/>
<path d="M269.778 401.902C270.522 401.936 271.112 402.571 271.083 403.313C271.055 404.053 270.419 404.634 269.673 404.603C268.927 404.569 268.339 403.934 268.367 403.194C268.396 402.452 269.031 401.871 269.778 401.902Z" fill="white"/>
<path d="M275.284 392.536C278.107 392.659 280.62 393.91 282.398 395.829C284.177 397.749 285.225 400.34 285.116 403.143C285.008 405.948 283.765 408.437 281.843 410.196C279.923 411.954 277.322 412.979 274.5 412.856C271.678 412.732 269.166 411.482 267.387 409.563C265.607 407.642 264.56 405.051 264.669 402.248C264.777 399.443 266.019 396.954 267.941 395.195C269.863 393.437 272.462 392.412 275.284 392.536ZM268.478 408.563C270.001 410.206 272.147 411.268 274.557 411.374C276.967 411.48 279.187 410.61 280.832 409.105C282.477 407.599 283.533 405.473 283.626 403.078C283.718 400.684 282.831 398.472 281.306 396.828C279.783 395.185 277.638 394.123 275.227 394.017C272.819 393.911 270.597 394.781 268.952 396.287C267.307 397.792 266.252 399.918 266.16 402.313C266.067 404.707 266.956 406.919 268.478 408.563Z" fill="white"/>
<path d="M150.594 453.908C150.651 452.439 151.895 451.301 153.374 451.366C154.852 451.431 156.004 452.673 155.947 454.142C155.89 455.611 154.646 456.749 153.168 456.684C151.691 456.62 150.537 455.377 150.594 453.908Z" fill="white"/>
<path d="M156.127 447.141C158.949 447.264 161.461 448.515 163.241 450.434C165.02 452.354 166.068 454.945 165.958 457.748C165.85 460.553 164.607 463.043 162.686 464.802C160.764 466.559 158.163 467.584 155.343 467.461C152.52 467.337 150.007 466.087 148.228 464.168C146.45 462.247 145.402 459.656 145.51 456.853C145.619 454.048 146.862 451.559 148.784 449.8C150.704 448.042 153.305 447.017 156.127 447.141ZM149.321 463.168C150.844 464.811 152.989 465.873 155.4 465.979C157.808 466.085 160.03 465.215 161.675 463.71C163.32 462.204 164.375 460.078 164.467 457.683C164.56 455.289 163.672 453.077 162.149 451.434C160.626 449.79 158.479 448.729 156.07 448.622C153.66 448.516 151.44 449.386 149.795 450.892C148.15 452.397 147.095 454.524 147.001 456.918C146.909 459.312 147.797 461.525 149.321 463.168Z" fill="white"/>
<path d="M150.621 456.503C151.366 456.534 151.955 457.17 151.927 457.911C151.898 458.651 151.261 459.233 150.516 459.201C149.77 459.168 149.18 458.533 149.211 457.793C149.239 457.051 149.875 456.469 150.621 456.503Z" fill="white"/>
<path d="M277.456 353.122C277.929 353.143 278.301 353.545 278.282 354.015C278.264 354.484 277.862 354.851 277.39 354.831C276.919 354.81 276.545 354.407 276.564 353.938C276.582 353.471 276.984 353.102 277.456 353.122Z" fill="white"/>
<path d="M277.437 351.489C277.473 350.56 278.261 349.839 279.196 349.88C280.131 349.922 280.861 350.708 280.825 351.638C280.788 352.568 280.001 353.287 279.066 353.246C278.131 353.205 277.4 352.419 277.437 351.489Z" fill="white"/>
<path d="M280.944 347.204C282.73 347.282 284.319 348.074 285.446 349.288C286.573 350.503 287.235 352.143 287.167 353.918C287.097 355.693 286.311 357.27 285.094 358.382C283.879 359.495 282.232 360.144 280.446 360.065C278.661 359.987 277.07 359.197 275.944 357.981C274.818 356.766 274.155 355.126 274.224 353.351C274.292 351.576 275.079 349.999 276.295 348.887C277.512 347.775 279.157 347.126 280.944 347.204ZM276.635 357.349C277.599 358.388 278.957 359.06 280.483 359.127C282.007 359.195 283.413 358.644 284.454 357.691C285.495 356.739 286.164 355.392 286.222 353.877C286.281 352.362 285.719 350.961 284.755 349.922C283.79 348.881 282.432 348.209 280.908 348.142C279.382 348.076 277.976 348.626 276.935 349.578C275.894 350.53 275.227 351.877 275.168 353.392C275.109 354.909 275.67 356.308 276.635 357.349Z" fill="white"/>
<path d="M313.286 320.568C314.205 320.609 314.932 321.392 314.897 322.306C314.861 323.22 314.076 323.937 313.157 323.897C312.238 323.857 311.511 323.073 311.547 322.159C311.582 321.246 312.366 320.528 313.286 320.568Z" fill="white"/>
<path d="M313.258 317.383C313.328 315.572 314.864 314.169 316.686 314.248C318.508 314.328 319.93 315.861 319.86 317.673C319.79 319.484 318.255 320.888 316.432 320.809C314.61 320.728 313.189 319.194 313.258 317.383Z" fill="white"/>
<path d="M320.081 309.033C323.561 309.187 326.659 310.727 328.853 313.095C331.048 315.464 332.338 318.657 332.205 322.116C332.072 325.575 330.538 328.646 328.169 330.813C325.798 332.98 322.592 334.246 319.113 334.093C315.631 333.941 312.533 332.399 310.338 330.031C308.144 327.664 306.854 324.469 306.987 321.01C307.12 317.552 308.654 314.481 311.023 312.314C313.394 310.146 316.599 308.881 320.081 309.033ZM311.685 328.8C313.565 330.827 316.211 332.136 319.182 332.266C322.153 332.396 324.893 331.323 326.922 329.467C328.95 327.612 330.253 324.989 330.367 322.035C330.481 319.083 329.386 316.354 327.506 314.328C325.627 312.301 322.981 310.992 320.009 310.86C317.038 310.73 314.3 311.803 312.27 313.659C310.242 315.515 308.939 318.139 308.825 321.091C308.711 324.045 309.808 326.773 311.685 328.8Z" fill="white"/>
<path d="M330.456 273.325C330.893 273.344 331.239 273.716 331.222 274.151C331.204 274.585 330.832 274.925 330.396 274.906C329.958 274.887 329.613 274.515 329.631 274.081C329.646 273.647 330.019 273.306 330.456 273.325Z" fill="white"/>
<path d="M330.456 271.81C330.49 270.95 331.218 270.281 332.085 270.319C332.952 270.357 333.627 271.086 333.594 271.948C333.561 272.808 332.832 273.476 331.965 273.438C331.098 273.399 330.423 272.671 330.456 271.81Z" fill="white"/>
<path d="M333.689 267.843C335.343 267.916 336.817 268.65 337.86 269.775C338.902 270.9 339.517 272.42 339.452 274.063C339.389 275.708 338.66 277.167 337.535 278.197C336.408 279.229 334.884 279.83 333.229 279.757C331.573 279.685 330.101 278.952 329.059 277.827C328.014 276.702 327.401 275.182 327.464 273.539C327.528 271.894 328.257 270.434 329.383 269.403C330.51 268.373 332.035 267.772 333.689 267.843ZM329.699 277.24C330.591 278.204 331.849 278.827 333.263 278.888C334.675 278.95 335.977 278.44 336.941 277.559C337.906 276.676 338.525 275.429 338.579 274.025C338.633 272.621 338.113 271.325 337.219 270.361C336.326 269.396 335.068 268.775 333.656 268.713C332.242 268.652 330.941 269.16 329.976 270.043C329.011 270.925 328.393 272.173 328.339 273.577C328.284 274.981 328.805 276.277 329.699 277.24Z" fill="white"/>
<path d="M296.635 238.192C297.521 238.23 298.22 238.984 298.185 239.864C298.152 240.743 297.396 241.432 296.512 241.394C295.628 241.355 294.929 240.602 294.962 239.723C294.997 238.843 295.751 238.152 296.635 238.192Z" fill="white"/>
<path d="M296.627 235.129C296.694 233.385 298.171 232.035 299.925 232.111C301.678 232.189 303.045 233.664 302.979 235.407C302.911 237.151 301.435 238.501 299.681 238.423C297.927 238.347 296.559 236.872 296.627 235.129Z" fill="white"/>
<path d="M303.175 227.099C306.523 227.245 309.504 228.728 311.616 231.007C313.727 233.286 314.969 236.358 314.841 239.686C314.713 243.014 313.237 245.969 310.957 248.054C308.677 250.14 305.591 251.357 302.243 251.211C298.895 251.064 295.914 249.58 293.802 247.302C291.691 245.025 290.449 241.95 290.577 238.623C290.705 235.295 292.181 232.34 294.461 230.254C296.741 228.169 299.826 226.952 303.175 227.099ZM295.098 246.116C296.906 248.067 299.451 249.327 302.311 249.452C305.17 249.577 307.805 248.546 309.757 246.76C311.71 244.974 312.962 242.45 313.071 239.608C313.182 236.767 312.128 234.143 310.32 232.192C308.512 230.241 305.965 228.982 303.107 228.857C300.248 228.731 297.613 229.765 295.66 231.549C293.708 233.335 292.456 235.859 292.345 238.7C292.236 241.542 293.29 244.166 295.098 246.116Z" fill="white"/>
<path d="M271.352 213.254C271.75 213.272 272.064 213.609 272.048 214.005C272.032 214.4 271.693 214.711 271.297 214.693C270.899 214.676 270.584 214.337 270.6 213.942C270.616 213.546 270.955 213.237 271.352 213.254Z" fill="white"/>
<path d="M271.345 211.874C271.375 211.09 272.039 210.483 272.828 210.518C273.616 210.553 274.23 211.215 274.2 211.999C274.17 212.782 273.506 213.389 272.719 213.356C271.93 213.321 271.315 212.657 271.345 211.874Z" fill="white"/>
<path d="M274.286 208.264C275.791 208.331 277.132 208.997 278.081 210.022C279.03 211.046 279.588 212.427 279.529 213.923C279.472 215.419 278.808 216.747 277.785 217.685C276.759 218.623 275.373 219.17 273.867 219.103C272.362 219.038 271.021 218.371 270.072 217.348C269.123 216.322 268.565 214.941 268.622 213.445C268.681 211.949 269.343 210.621 270.368 209.683C271.394 208.746 272.78 208.198 274.286 208.264ZM270.655 216.814C271.467 217.691 272.612 218.257 273.897 218.314C275.183 218.37 276.366 217.905 277.244 217.104C278.122 216.3 278.685 215.166 278.734 213.888C278.784 212.611 278.311 211.431 277.498 210.554C276.685 209.678 275.541 209.111 274.256 209.055C272.969 208.998 271.785 209.462 270.907 210.266C270.029 211.068 269.467 212.202 269.418 213.48C269.369 214.757 269.842 215.937 270.655 216.814Z" fill="white"/>
<path d="M242.796 179.454C243.579 179.487 244.197 180.154 244.167 180.932C244.137 181.71 243.47 182.32 242.687 182.287C241.904 182.252 241.286 181.585 241.316 180.807C241.346 180.029 242.013 179.419 242.796 179.454Z" fill="white"/>
<path d="M242.791 176.741C242.85 175.199 244.156 174.004 245.709 174.072C247.26 174.14 248.469 175.445 248.409 176.986C248.35 178.528 247.043 179.723 245.492 179.655C243.94 179.589 242.731 178.283 242.791 176.741Z" fill="white"/>
<path d="M248.58 169.637C251.543 169.767 254.18 171.077 256.047 173.093C257.915 175.109 259.015 177.828 258.901 180.772C258.787 183.716 257.483 186.329 255.465 188.176C253.448 190.02 250.719 191.096 247.756 190.966C244.793 190.836 242.156 189.526 240.288 187.51C238.421 185.494 237.321 182.775 237.435 179.831C237.549 176.887 238.854 174.274 240.871 172.427C242.888 170.583 245.617 169.507 248.58 169.637ZM241.435 186.461C243.034 188.187 245.287 189.301 247.816 189.412C250.345 189.522 252.676 188.61 254.404 187.03C256.131 185.45 257.239 183.217 257.335 180.704C257.432 178.189 256.5 175.868 254.901 174.142C253.302 172.416 251.049 171.302 248.52 171.191C245.991 171.08 243.66 171.993 241.932 173.573C240.205 175.153 239.098 177.386 239.001 179.899C238.903 182.414 239.836 184.735 241.435 186.461Z" fill="white"/>
<path d="M201.798 152.802C202.164 152.818 202.452 153.128 202.438 153.491C202.424 153.854 202.111 154.139 201.747 154.123C201.383 154.107 201.094 153.795 201.107 153.432C201.121 153.069 201.433 152.786 201.798 152.802Z" fill="white"/>
<path d="M201.797 151.539C201.825 150.82 202.434 150.262 203.158 150.294C203.882 150.327 204.446 150.935 204.419 151.655C204.391 152.374 203.782 152.932 203.058 152.9C202.334 152.869 201.77 152.258 201.797 151.539Z" fill="white"/>
<path d="M204.5 148.222C205.881 148.283 207.113 148.896 207.984 149.836C208.856 150.777 209.368 152.046 209.315 153.42C209.261 154.794 208.653 156.013 207.712 156.875C206.77 157.735 205.496 158.237 204.115 158.177C202.731 158.117 201.501 157.504 200.63 156.564C199.758 155.623 199.245 154.353 199.299 152.98C199.351 151.606 199.96 150.387 200.901 149.525C201.842 148.665 203.116 148.162 204.5 148.222ZM201.164 156.074C201.91 156.879 202.962 157.399 204.143 157.451C205.322 157.502 206.411 157.076 207.216 156.339C208.022 155.602 208.539 154.561 208.585 153.387C208.631 152.214 208.195 151.13 207.449 150.325C206.702 149.52 205.652 149 204.471 148.948C203.291 148.896 202.203 149.322 201.397 150.061C200.59 150.797 200.074 151.839 200.028 153.013C199.983 154.185 200.418 155.269 201.164 156.074Z" fill="white"/>
<path d="M181.321 126.266C181.687 126.281 181.976 126.592 181.961 126.955C181.947 127.318 181.636 127.603 181.27 127.587C180.906 127.571 180.618 127.259 180.632 126.896C180.645 126.533 180.957 126.25 181.321 126.266Z" fill="white"/>
<path d="M181.32 125.003C181.348 124.283 181.957 123.725 182.681 123.757C183.405 123.789 183.969 124.399 183.942 125.118C183.914 125.838 183.305 126.396 182.581 126.364C181.857 126.332 181.293 125.722 181.32 125.003Z" fill="white"/>
<path d="M184.023 121.686C185.405 121.746 186.636 122.36 187.508 123.299C188.379 124.241 188.893 125.508 188.839 126.882C188.786 128.256 188.176 129.476 187.235 130.337C186.294 131.199 185.02 131.701 183.638 131.641C182.256 131.579 181.025 130.967 180.153 130.028C179.282 129.086 178.768 127.817 178.822 126.443C178.875 125.069 179.483 123.851 180.424 122.989C181.366 122.128 182.64 121.626 184.023 121.686ZM180.687 129.538C181.434 130.343 182.486 130.863 183.666 130.915C184.847 130.966 185.934 130.54 186.741 129.803C187.546 129.066 188.062 128.023 188.108 126.851C188.154 125.678 187.718 124.594 186.972 123.789C186.226 122.984 185.175 122.464 183.995 122.412C182.814 122.36 181.727 122.786 180.92 123.524C180.115 124.261 179.597 125.302 179.553 126.475C179.507 127.649 179.943 128.733 180.687 129.538Z" fill="white"/>
<path d="M139.659 99.8334C140.841 99.8857 141.776 100.894 141.73 102.068C141.686 103.244 140.676 104.167 139.494 104.115C138.31 104.063 137.377 103.055 137.421 101.879C137.467 100.705 138.477 99.7811 139.659 99.8334Z" fill="white"/>
<path d="M139.636 95.7362C139.726 93.4068 141.701 91.6019 144.044 91.7049C146.388 91.8079 148.215 93.7792 148.126 96.1086C148.036 98.438 146.062 100.243 143.718 100.14C141.374 100.037 139.547 98.0656 139.636 95.7362Z" fill="white"/>
<path d="M148.398 84.9952C152.876 85.1917 156.86 87.1741 159.684 90.2198C162.506 93.2655 164.167 97.3745 163.994 101.823C163.823 106.272 161.85 110.221 158.803 113.01C155.754 115.797 151.631 117.425 147.154 117.228C142.676 117.032 138.692 115.05 135.868 112.004C133.046 108.958 131.385 104.849 131.558 100.401C131.729 95.9515 133.702 92.0025 136.749 89.2152C139.798 86.4262 143.922 84.7987 148.398 84.9952ZM137.602 110.419C140.019 113.028 143.422 114.71 147.245 114.878C151.067 115.046 154.589 113.666 157.199 111.278C159.807 108.892 161.482 105.518 161.63 101.72C161.776 97.9212 160.367 94.4112 157.95 91.8044C155.534 89.1977 152.13 87.5133 148.308 87.3453C144.486 87.1789 140.963 88.5575 138.353 90.9456C135.745 93.332 134.07 96.7058 133.922 100.504C133.777 104.303 135.185 107.812 137.602 110.419Z" fill="white"/>
<g style="mix-blend-mode:hue">
<path d="M-207.764 3969.53C-1164.22 4026.59 -2428.2 3099.48 -2499.05 2110.05C-2569.89 1120.6 -2145.99 66.5215 -1189.54 9.45541C-233.083 -47.6106 1224.51 480.526 1295.34 1469.96C1366.19 2459.41 748.687 3912.46 -207.764 3969.53Z" fill="#075A5A"/>
</g>
</g>
</g>
</g>
<path d="M28.2646 23.7378L167.523 124.47" stroke="url(#paint2_linear_640_176)" stroke-width="3.85364" stroke-linecap="round"/>
<path d="M437.48 1.99976L330 97.7406" stroke="url(#paint3_linear_640_176)" stroke-width="3.85364" stroke-linecap="round"/>
<path d="M464.118 130.956L363.356 156.367" stroke="url(#paint4_linear_640_176)" stroke-width="3.85364" stroke-linecap="round"/>
<path d="M2.11816 227.78L93.6945 216.778" stroke="url(#paint5_linear_640_176)" stroke-width="3.85364" stroke-linecap="round"/>
<path d="M22.6694 157.548L135.066 162.196" stroke="url(#paint6_linear_640_176)" stroke-width="3.85364" stroke-linecap="round"/>
<path d="M58.1748 499.171L154.087 452.567" stroke="url(#paint7_linear_640_176)" stroke-width="3.85364" stroke-linecap="round"/>
<path d="M446.862 317.736L386.207 353.871" stroke="url(#paint8_linear_640_176)" stroke-width="3.85364" stroke-linecap="round"/>
<path d="M410.827 473.678L366.363 418.405" stroke="url(#paint9_linear_640_176)" stroke-width="3.85364" stroke-linecap="round"/>
<path d="M386.678 596.246L329.988 478.926" stroke="url(#paint10_linear_640_176)" stroke-width="3.85364" stroke-linecap="round"/>
<path d="M124.829 571.578L184.513 489.605" stroke="url(#paint11_linear_640_176)" stroke-width="3.85364" stroke-linecap="round"/>
<path d="M190.111 563.498C189.872 563.683 189.522 563.813 189.337 563.574C189.152 563.336 189.196 562.988 189.435 562.803C189.674 562.618 190.022 562.662 190.207 562.901C190.392 563.14 190.35 563.313 190.111 563.498Z" fill="#409797"/>
<path d="M190.792 564.472C191.158 564.946 191.071 565.627 190.598 565.993C190.124 566.36 189.443 566.273 189.077 565.799C188.71 565.326 188.94 564.672 189.414 564.306C189.887 563.939 190.425 563.999 190.792 564.472Z" fill="#409797"/>
<path d="M190.852 568.035C189.947 568.735 188.845 569.002 187.793 568.868C186.741 568.734 185.74 568.198 185.041 567.294C184.341 566.39 184.074 565.287 184.208 564.235C184.342 563.183 184.877 562.183 185.781 561.483C186.686 560.783 187.789 560.516 188.84 560.65C189.892 560.784 190.893 561.32 191.593 562.224C192.292 563.128 192.559 564.231 192.425 565.283C192.291 566.335 191.756 567.335 190.852 568.035ZM188.764 561.248C187.864 561.133 186.923 561.363 186.151 561.961C185.379 562.558 184.92 563.411 184.806 564.311C184.691 565.212 184.921 566.152 185.518 566.924C186.116 567.697 186.969 568.155 187.869 568.27C188.769 568.385 190.055 567.988 190.827 567.391C191.599 566.794 191.713 566.107 191.828 565.207C191.942 564.306 191.712 563.366 191.115 562.594C190.517 561.822 189.665 561.363 188.764 561.248Z" fill="#409797"/>
<path d="M205.854 516.058C205.45 516.8 204.7 517.528 203.957 517.124C203.215 516.72 202.937 515.778 203.341 515.036C203.745 514.293 204.687 514.015 205.429 514.42C206.172 514.824 206.259 515.315 205.854 516.058Z" fill="#409797"/>
<path d="M208.689 517.773C210.161 518.574 210.704 520.417 209.903 521.888C209.103 523.36 207.26 523.904 205.788 523.103C204.317 522.302 204.17 520.368 204.971 518.896C205.772 517.425 207.217 516.972 208.689 517.773Z" fill="#409797"/>
<path d="M212.858 526.845C211.328 529.655 208.803 531.58 205.957 532.42C203.111 533.26 199.945 533.015 197.134 531.485C194.324 529.955 192.399 527.43 191.559 524.584C190.719 521.738 190.964 518.572 192.494 515.761C194.024 512.951 196.549 511.026 199.395 510.186C202.241 509.346 205.407 509.591 208.218 511.121C211.028 512.651 212.953 515.176 213.793 518.022C214.633 520.868 214.388 524.034 212.858 526.845ZM199.873 511.803C197.436 512.522 195.285 514.17 193.979 516.57C192.673 518.969 192.457 521.67 193.176 524.107C193.895 526.543 195.543 528.694 197.943 530C200.342 531.306 203.043 531.522 205.48 530.803C207.916 530.084 210.765 527.621 212.071 525.222C213.377 522.822 212.895 520.936 212.176 518.5C211.457 516.063 209.809 513.912 207.41 512.606C205.01 511.3 202.309 511.084 199.873 511.803Z" fill="#409797"/>
<path d="M195.171 473.546C195.197 474.041 195.046 474.635 194.551 474.661C194.056 474.687 193.629 474.302 193.602 473.807C193.576 473.313 193.961 472.885 194.456 472.859C194.951 472.833 195.145 473.051 195.171 473.546Z" fill="#409797"/>
<path d="M197.124 473.529C198.104 473.478 198.941 474.231 198.993 475.212C199.045 476.192 198.291 477.029 197.311 477.081C196.33 477.133 195.663 476.212 195.612 475.231C195.56 474.251 196.143 473.581 197.124 473.529Z" fill="#409797"/>
<path d="M201.991 476.785C202.09 478.657 201.42 480.394 200.257 481.686C199.093 482.979 197.437 483.828 195.565 483.927C193.692 484.026 191.956 483.355 190.663 482.192C189.37 481.029 188.521 479.373 188.422 477.5C188.324 475.627 188.994 473.891 190.157 472.598C191.32 471.306 192.976 470.457 194.849 470.358C196.722 470.259 198.458 470.929 199.751 472.093C201.043 473.256 201.893 474.912 201.991 476.785ZM190.892 473.26C189.896 474.366 189.327 475.849 189.412 477.448C189.496 479.047 190.217 480.462 191.324 481.458C192.431 482.453 193.913 483.022 195.512 482.938C197.111 482.853 198.526 482.132 199.522 481.025C200.518 479.919 201.185 477.815 201.1 476.216C201.016 474.617 200.196 473.823 199.09 472.827C197.983 471.831 196.5 471.263 194.901 471.347C193.302 471.432 191.888 472.153 190.892 473.26Z" fill="#409797"/>
<path fill-rule="evenodd" clip-rule="evenodd" d="M121.75 614.775C121.75 614.775 116.7 608.301 106.601 595.355C142.42 574.799 168.43 573.088 184.601 590.176C197.385 592.212 200.329 595.972 193.428 601.407C192.581 613.56 176.424 628.463 144.958 646.114C135.821 652.528 129.837 646.784 126.955 628.863C121.712 635.705 119.081 639.152 119.081 639.152C113.532 637.855 108.702 634.378 105.722 629.493C102.742 624.608 101.85 618.758 103.22 613.202C103.22 613.202 109.405 613.726 121.774 614.772L121.75 614.775Z" fill="#62B9B9"/>
<defs>
<filter id="filter0_di_640_176" x="-382.333" y="-451.458" width="2070.32" height="2118.23" filterUnits="userSpaceOnUse" color-interpolation-filters="sRGB">
<feFlood flood-opacity="0" result="BackgroundImageFix"/>
<feColorMatrix in="SourceAlpha" type="matrix" values="0 0 0 0 0 0 0 0 0 0 0 0 0 0 0 0 0 0 127 0" result="hardAlpha"/>
<feOffset dy="102.778"/>
<feGaussianBlur stdDeviation="231.25"/>
<feComposite in2="hardAlpha" operator="out"/>
<feColorMatrix type="matrix" values="0 0 0 0 0.566667 0 0 0 0 0.566667 0 0 0 0 0.566667 0 0 0 0.25 0"/>
<feBlend mode="normal" in2="BackgroundImageFix" result="effect1_dropShadow_640_176"/>
<feBlend mode="normal" in="SourceGraphic" in2="effect1_dropShadow_640_176" result="shape"/>
<feColorMatrix in="SourceAlpha" type="matrix" values="0 0 0 0 0 0 0 0 0 0 0 0 0 0 0 0 0 0 127 0" result="hardAlpha"/>
<feOffset dy="73.4127"/>
<feGaussianBlur stdDeviation="44.0476"/>
<feComposite in2="hardAlpha" operator="arithmetic" k2="-1" k3="1"/>
<feColorMatrix type="matrix" values="0 0 0 0 1 0 0 0 0 1 0 0 0 0 1 0 0 0 0.25 0"/>
<feBlend mode="normal" in2="shape" result="effect2_innerShadow_640_176"/>
</filter>
<linearGradient id="paint0_linear_640_176" x1="1135.1" y1="469.698" x2="82.7124" y2="545.051" gradientUnits="userSpaceOnUse">
<stop stop-color="#075A5A"/>
<stop offset="1" stop-color="#136969"/>
</linearGradient>
<linearGradient id="paint1_linear_640_176" x1="1135.1" y1="469.698" x2="82.7124" y2="545.051" gradientUnits="userSpaceOnUse">
<stop stop-color="#075A5A"/>
<stop offset="1" stop-color="#136969"/>
</linearGradient>
<linearGradient id="paint2_linear_640_176" x1="221.174" y1="158.472" x2="68.1025" y2="51.2471" gradientUnits="userSpaceOnUse">
<stop stop-color="#075A5A"/>
<stop offset="1" stop-color="#0B5C5C" stop-opacity="0"/>
</linearGradient>
<linearGradient id="paint3_linear_640_176" x1="292.944" y1="135.964" x2="408.497" y2="30.3775" gradientUnits="userSpaceOnUse">
<stop stop-color="#075A5A"/>
<stop offset="1" stop-color="#0B5C5C" stop-opacity="0"/>
</linearGradient>
<linearGradient id="paint4_linear_640_176" x1="327.141" y1="169.517" x2="436.451" y2="140.879" gradientUnits="userSpaceOnUse">
<stop stop-color="#075A5A"/>
<stop offset="1" stop-color="#0B5C5C" stop-opacity="0"/>
</linearGradient>
<linearGradient id="paint5_linear_640_176" x1="127.01" y1="208.853" x2="27.5247" y2="221.627" gradientUnits="userSpaceOnUse">
<stop stop-color="#075A5A"/>
<stop offset="1" stop-color="#0B5C5C" stop-opacity="0"/>
</linearGradient>
<linearGradient id="paint6_linear_640_176" x1="176.689" y1="160.018" x2="54.4161" y2="156.177" gradientUnits="userSpaceOnUse">
<stop stop-color="#075A5A"/>
<stop offset="1" stop-color="#0B5C5C" stop-opacity="0"/>
</linearGradient>
<linearGradient id="paint7_linear_640_176" x1="187.763" y1="431.873" x2="83.9443" y2="483.532" gradientUnits="userSpaceOnUse">
<stop stop-color="#075A5A"/>
<stop offset="1" stop-color="#0B5C5C" stop-opacity="0"/>
</linearGradient>
<linearGradient id="paint8_linear_640_176" x1="365.827" y1="370.546" x2="431.538" y2="330.84" gradientUnits="userSpaceOnUse">
<stop stop-color="#075A5A"/>
<stop offset="1" stop-color="#0B5C5C" stop-opacity="0"/>
</linearGradient>
<linearGradient id="paint9_linear_640_176" x1="346.926" y1="400.459" x2="395.662" y2="460.262" gradientUnits="userSpaceOnUse">
<stop stop-color="#075A5A"/>
<stop offset="1" stop-color="#0B5C5C" stop-opacity="0"/>
</linearGradient>
<linearGradient id="paint10_linear_640_176" x1="305.568" y1="437.345" x2="368.68" y2="564.205" gradientUnits="userSpaceOnUse">
<stop stop-color="#075A5A"/>
<stop offset="1" stop-color="#0B5C5C" stop-opacity="0"/>
</linearGradient>
<linearGradient id="paint11_linear_640_176" x1="203.381" y1="457.074" x2="139.276" y2="546.795" gradientUnits="userSpaceOnUse">
<stop stop-color="#075A5A"/>
<stop offset="1" stop-color="#0B5C5C" stop-opacity="0"/>
</linearGradient>
</defs>
</svg>
