
<svg width="24" height="24" viewBox="0 0 24 24" fill="none" xmlns="http://www.w3.org/2000/svg">
<path d="M21.4571 2.45526C21.3409 2.35492 21.1995 2.28819 21.0482 2.26225C20.8969 2.23631 20.7414 2.25216 20.5984 2.30807L1.599 9.74339C1.32974 9.84809 1.10177 10.0374 0.949431 10.2829C0.797088 10.5284 0.728611 10.8167 0.754309 11.1045C0.780008 11.3922 0.898491 11.6638 1.09192 11.8784C1.28535 12.093 1.54326 12.239 1.82681 12.2943L6.74963 13.2609V18.75C6.74866 19.0489 6.83751 19.3413 7.00467 19.5892C7.17182 19.8371 7.40958 20.0291 7.68713 20.1403C7.96424 20.2534 8.269 20.2806 8.56176 20.2182C8.85452 20.1559 9.12175 20.0068 9.32869 19.7906L11.7024 17.3287L15.4684 20.625C15.7401 20.866 16.0905 20.9993 16.4537 21C16.6128 20.9998 16.771 20.9748 16.9224 20.9259C17.1699 20.8474 17.3925 20.7054 17.568 20.5141C17.7435 20.3228 17.8658 20.0889 17.9228 19.8356L21.7281 3.2812C21.7621 3.1319 21.7549 2.97616 21.7071 2.83066C21.6594 2.68516 21.573 2.55539 21.4571 2.45526ZM15.7253 5.83026L7.32619 11.8453L2.67619 10.9331L15.7253 5.83026ZM8.24963 18.75V14.2987L10.5737 16.3368L8.24963 18.75ZM16.4556 19.5L8.70431 12.7031L19.8606 4.70714L16.4556 19.5Z" fill="#3F6870"/>
</svg>
