
<svg width="190" height="121" viewBox="0 0 190 121" fill="none" xmlns="http://www.w3.org/2000/svg">
<rect y="0.189209" width="190" height="120" rx="24" fill="#F5F5F7"/>
<path d="M106.175 63.79C105.987 63.6025 105.912 63.34 105.912 63.04V50.14H107V63.04H114.537V64.0525H106.925C106.587 64.015 106.325 63.94 106.175 63.79Z" fill="#075A5A"/>
<path d="M124.55 59.9635H118.325L116.825 64.0135H115.625L120.913 50.101H121.4C121.7 50.101 121.963 50.2885 122.113 50.701L127.137 63.9385H125.975L124.55 59.9635ZM118.625 59.0635H124.212L121.438 51.6385L118.625 59.0635Z" fill="#075A5A"/>
<path d="M128.974 63.715C128.786 63.5275 128.674 63.265 128.674 62.965V50.14H134.449C135.536 50.14 136.399 50.4025 137.111 50.9275C137.749 51.49 138.124 52.165 138.124 53.1025V54.265C138.124 54.8275 138.011 55.315 137.786 55.765C137.561 56.215 137.224 56.5525 136.849 56.815C137.486 56.965 138.049 57.3025 138.461 57.8275C138.874 58.315 139.061 58.8775 139.061 59.59V60.64C139.061 61.69 138.724 62.515 138.049 63.1525C137.411 63.79 136.511 64.09 135.349 64.09H129.761C129.424 64.015 129.161 63.94 128.974 63.715ZM134.899 56.5525C135.536 56.5525 136.061 56.365 136.436 55.915C136.849 55.5025 137.036 54.9025 137.036 54.19V53.0275C137.036 52.4275 136.774 51.9775 136.324 51.64C135.874 51.3025 135.236 51.0775 134.449 51.0775H129.799V56.515H134.861V56.5525H134.899ZM135.199 63.04C135.986 63.04 136.661 62.8525 137.149 62.4025C137.636 61.9525 137.899 61.3525 137.899 60.64V59.59C137.899 58.99 137.711 58.5025 137.261 58.1275C136.811 57.715 136.249 57.565 135.536 57.565H129.761V63.1525H135.199V63.04Z" fill="#075A5A"/>
<path d="M141.612 63.1166C140.9 62.4041 140.562 61.4666 140.562 60.2666H141.612C141.612 61.1666 141.875 61.8791 142.362 62.3666C142.85 62.8541 143.562 63.1541 144.425 63.1541H146.638C147.5 63.1541 148.138 62.9666 148.663 62.5916C149.15 62.1791 149.413 61.6916 149.413 61.0916V59.7416C149.413 59.2541 149.225 58.8041 148.85 58.4291C148.513 58.0916 147.95 57.8291 147.312 57.7166L143.75 57.1166C142.812 56.9666 142.025 56.6291 141.538 56.0666C140.975 55.5041 140.75 54.8666 140.75 54.0416V52.8791C140.75 51.9791 141.087 51.2291 141.8 50.6666C142.512 50.1041 143.412 49.8041 144.5 49.8041H146.75C147.8 49.8041 148.7 50.1041 149.375 50.7416C150.05 51.3791 150.388 52.2416 150.388 53.2916H149.3C149.3 52.5416 149.037 51.9041 148.587 51.4166C148.137 50.9291 147.5 50.8166 146.75 50.8166H144.5C143.713 50.8166 143.037 51.0041 142.55 51.3791C142.062 51.7916 141.837 52.2416 141.837 52.8791V54.1916C141.837 54.7541 142.025 55.1291 142.4 55.5041C142.737 55.8416 143.262 56.1041 143.9 56.2166L147.425 56.8166C148.362 56.9666 149.188 57.3041 149.75 57.8666C150.312 58.3541 150.538 59.0291 150.538 59.7791V61.1291C150.538 62.0291 150.2 62.7791 149.487 63.3416C148.775 63.9041 147.837 64.2041 146.675 64.2041H144.425C143.3 64.1666 142.325 63.8291 141.612 63.1166Z" fill="#075A5A"/>
<path d="M59.7873 50.6658C58.6248 50.1783 57.2748 49.9158 55.7748 49.9158H45.2373V69.0408C45.2373 69.9408 45.5373 70.6533 46.0998 71.2158C46.6623 71.7783 47.4123 72.0033 48.3123 72.0033H55.9248C58.6998 72.0033 60.7623 71.2908 62.1498 69.9033C62.5998 69.4533 63.0123 68.8908 63.3498 68.2908L59.7873 50.6658ZM59.8998 63.5658C59.8998 65.0658 59.5623 66.2283 58.8498 67.0158C58.1373 67.8033 57.1248 68.1783 55.7748 68.1783H49.6248V53.7783H55.6998C56.9373 53.7783 57.9498 54.1158 58.7748 54.8658C59.5623 55.5783 59.9373 56.5908 59.9373 57.7908C59.8998 57.7908 59.8998 63.5658 59.8998 63.5658Z" fill="#075A5A"/>
<path d="M102.874 53.7009V49.9509H89.9365L89.899 50.2884L86.374 67.8384V72.0384H90.724V63.4134H101.787V59.6634H90.724V53.7009H102.874Z" fill="#075A5A"/>
<path d="M88.098 49.9158L86.298 58.8408L84.1605 69.5658C84.0105 70.4283 83.673 71.0283 83.223 71.4408C82.773 71.8533 82.173 72.0408 81.348 72.0408H79.548L74.823 56.8533H74.748L69.948 72.0033H68.148C67.4355 72.0033 66.8355 71.8158 66.348 71.4408C65.8605 71.0658 65.5605 70.4283 65.3355 69.5283L64.248 63.9033L61.848 51.9033L61.4355 49.8408H65.8605L68.5605 65.5533H68.598L73.173 51.0408H74.7105C75.198 51.0408 75.723 51.1908 76.0605 51.4533C76.398 51.7158 76.773 52.2033 76.9605 52.9533L80.823 65.5533H80.973L83.673 49.8783C83.7105 49.9158 88.098 49.9158 88.098 49.9158Z" fill="#075A5A"/>
<path d="M116.373 66.3776C117.386 66.3776 118.323 66.6776 119.073 67.2401C119.673 67.6526 120.086 68.1776 120.461 68.6276C120.761 68.9651 121.061 69.3776 121.398 69.6401C121.586 69.7901 121.811 69.9026 122.111 69.9026C122.411 69.9026 122.598 69.7901 122.823 69.6401C123.123 69.3776 123.461 69.0401 123.761 68.6276C124.173 68.1776 124.548 67.6151 125.148 67.2401C125.898 66.6776 126.873 66.3776 127.848 66.3776C128.823 66.3776 129.798 66.6776 130.548 67.2401C131.148 67.6526 131.561 68.1776 131.936 68.6276C132.236 68.9651 132.536 69.3776 132.873 69.6401C133.061 69.7901 133.286 69.9026 133.586 69.9026C133.886 69.9026 134.073 69.7901 134.298 69.6401C134.598 69.3776 134.936 69.0401 135.236 68.6276C135.648 68.1776 136.023 67.6151 136.623 67.2401C137.373 66.6776 138.348 66.3776 139.323 66.3776C140.298 66.3776 141.273 66.6776 142.023 67.2401C142.623 67.6526 143.036 68.1776 143.411 68.6276C143.711 68.9651 144.011 69.3776 144.348 69.6401C144.536 69.7901 144.761 69.9026 145.061 69.9026C145.361 69.9026 145.548 69.7901 145.773 69.6401C146.073 69.3776 146.411 69.0401 146.711 68.6276C147.123 68.1776 147.498 67.6151 148.098 67.2401C148.698 66.7901 149.336 66.5276 150.123 66.4526V68.8151C149.823 69.0776 149.486 69.4151 149.186 69.8276C148.773 70.2776 148.398 70.8401 147.798 71.2151C147.048 71.7776 146.073 72.0776 145.098 72.0776C144.086 72.0776 143.148 71.7776 142.398 71.2151C141.798 70.8026 141.386 70.2776 141.011 69.8276C140.711 69.4901 140.411 69.0776 140.073 68.8151C139.886 68.6651 139.661 68.5526 139.361 68.5526C139.061 68.5526 138.873 68.6651 138.648 68.8151C138.348 69.0776 138.011 69.4151 137.711 69.8276C137.298 70.2776 136.923 70.8401 136.323 71.2151C135.573 71.7776 134.598 72.0776 133.623 72.0776C132.648 72.0776 131.673 71.7776 130.923 71.2151C130.323 70.8026 129.911 70.2776 129.536 69.8276C129.236 69.4901 128.936 69.0776 128.598 68.8151C128.411 68.6651 128.186 68.5526 127.886 68.5526C127.586 68.5526 127.398 68.6651 127.173 68.8151C126.873 69.0776 126.536 69.4151 126.236 69.8276C125.823 70.2776 125.448 70.8401 124.848 71.2151C124.098 71.7776 123.123 72.0776 122.148 72.0776C121.173 72.0776 120.198 71.7776 119.448 71.2151C118.848 70.8026 118.436 70.2776 118.061 69.8276C117.761 69.4901 117.461 69.0776 117.123 68.8151C116.936 68.6651 116.711 68.5526 116.411 68.5526C116.111 68.5526 115.923 68.6651 115.698 68.8151C115.398 69.0776 115.061 69.4151 114.761 69.8276C114.348 70.2776 113.973 70.8401 113.373 71.2151C112.623 71.7776 111.648 72.0776 110.673 72.0776C109.698 72.0776 108.723 71.7776 107.973 71.2151C107.373 70.8026 106.961 70.2776 106.586 69.8276C106.286 69.4901 105.986 69.0776 105.648 68.8151V66.4526C106.398 66.5651 107.036 66.7901 107.673 67.2401C108.273 67.6526 108.686 68.1776 109.061 68.6276C109.361 68.9651 109.661 69.3776 109.998 69.6401C110.186 69.7901 110.411 69.9026 110.711 69.9026C111.011 69.9026 111.198 69.7901 111.423 69.6401C111.723 69.3776 112.061 69.0401 112.361 68.6276C112.773 68.1776 113.148 67.6151 113.748 67.2401C114.461 66.6776 115.361 66.3776 116.373 66.3776Z" fill="#075A5A"/>
</svg>
