
<svg width="190" height="121" viewBox="0 0 190 121" fill="none" xmlns="http://www.w3.org/2000/svg">
<rect y="0.189209" width="190" height="120" rx="24" fill="#F5F5F7"/>
<g clip-path="url(#clip0_1035_3388)">
<path d="M45.0208 73.6386H23.3031C21.8838 73.6386 20.7295 72.4879 20.7295 71.065V49.3473C20.7295 47.928 21.8802 46.7737 23.3031 46.7737H45.0208C46.4401 46.7737 47.5945 47.9244 47.5945 49.3473V71.065C47.5908 72.4879 46.4401 73.6386 45.0208 73.6386Z" fill="#075A5A"/>
<path opacity="0.3" fill-rule="evenodd" clip-rule="evenodd" d="M39.6485 64.8859C40.7593 63.5828 41.3727 61.9384 41.3691 60.2105C41.3691 58.4864 40.7593 56.8384 39.6522 55.5389L40.7048 54.4862C42.0915 56.0688 42.8538 58.0907 42.8573 60.2105C42.8573 62.3304 42.0915 64.3523 40.7048 65.9386L39.6485 64.8859ZM35.8662 61.1036C36.0078 60.8277 36.0876 60.5263 36.084 60.2105C36.084 59.8984 36.0114 59.5935 35.8662 59.3249L36.9442 58.2468C37.3508 58.8167 37.565 59.4992 37.5686 60.2105C37.5686 60.9257 37.3472 61.6081 36.9406 62.178L35.8662 61.1036ZM37.7718 63.0092C38.389 62.2106 38.7265 61.2305 38.7265 60.2105C38.7265 59.1905 38.389 58.2141 37.7755 57.4155L38.8318 56.3592C39.7211 57.4409 40.2148 58.7949 40.2148 60.2105C40.2148 61.6262 39.7247 62.9802 38.8318 64.0655L37.7718 63.0092Z" fill="white"/>
<path d="M39.3437 66.2124L38.8319 65.7005L38.0114 64.8802L36.9552 63.8239C36.1784 64.4191 35.2091 64.7786 34.1566 64.7786C31.6374 64.7786 29.5901 62.7313 29.5901 60.2121C29.5901 57.6857 31.6337 55.6384 34.1601 55.6421C35.2128 55.6421 36.1784 55.9978 36.9516 56.5968L38.0114 55.5368L38.8319 54.7164L39.3437 54.2046L39.8845 53.6638C38.3563 52.328 36.3526 51.5149 34.1601 51.5112C31.9641 51.5112 29.964 52.3243 28.4322 53.6638L29.4848 54.7164C30.7444 53.642 32.3742 52.9922 34.1601 52.9959C35.4016 52.9922 36.5668 53.308 37.5868 53.8562L36.7265 54.7164C35.946 54.3534 35.0785 54.1502 34.1601 54.1502C30.817 54.1502 28.1055 56.8581 28.1055 60.2049C28.1055 63.548 30.8134 66.2595 34.1601 66.2595C35.0785 66.2595 35.946 66.0562 36.7265 65.6933L37.5868 66.5536C36.5705 67.1053 35.4016 67.4174 34.1566 67.4174C32.3742 67.4174 30.7444 66.7714 29.4885 65.6969L28.4358 66.7496C29.9603 68.089 31.9641 68.8985 34.1601 68.9021C36.3526 68.9057 38.3563 68.089 39.8845 66.7496L39.3437 66.2124Z" fill="white"/>
<path d="M26.9485 60.2142C26.9485 58.4282 27.5982 56.7984 28.6691 55.5389L27.6164 54.4862C26.2806 56.0144 25.4639 58.0181 25.4639 60.2105C25.4639 62.4067 26.2733 64.4104 27.6164 65.9349L28.6691 64.8822C27.5982 63.6263 26.9521 61.9928 26.9485 60.2142Z" fill="white"/>
<path opacity="0.3" d="M34.1606 60.9877C34.5852 60.984 34.9301 60.6392 34.9337 60.2145C34.9337 59.7862 34.5853 59.4377 34.1569 59.4377C33.7323 59.4414 33.3874 59.7862 33.3838 60.2109C33.3874 60.6393 33.7323 60.9877 34.1606 60.9877Z" fill="white"/>
<path d="M56.423 66.456C55.6866 65.8438 55.3184 64.972 55.3184 63.8407V61.4745C55.3184 60.3398 55.6866 59.468 56.423 58.8592C57.1594 58.2469 58.2104 57.9425 59.5795 57.9425C61.2882 57.9425 62.5143 58.4441 63.2507 59.4507L61.4954 60.8276C61.1809 60.4713 60.8914 60.2187 60.6268 60.0734C60.3623 59.9281 60.0155 59.8555 59.5795 59.8555C59.0397 59.8555 58.6214 59.9974 58.3247 60.2741C58.028 60.5543 57.8814 60.9556 57.8814 61.478V63.8442C57.8814 64.3665 58.028 64.7679 58.3247 65.048C58.6214 65.3283 59.0397 65.4666 59.5795 65.4666C60.012 65.4666 60.3623 65.394 60.6268 65.2487C60.8914 65.1034 61.1809 64.8509 61.4954 64.4946L63.2507 65.8714C62.8824 66.3799 62.407 66.7605 61.8315 67.0061C61.2524 67.2552 60.5017 67.3797 59.583 67.3797C58.2139 67.3727 57.1594 67.0684 56.423 66.456Z" fill="#075A5A"/>
<path d="M65.6387 66.4559C64.9023 65.8436 64.5342 64.9719 64.5342 63.8406V61.4744C64.5342 60.3397 64.9023 59.4679 65.6387 58.8591C66.3751 58.2467 67.4261 57.9424 68.7952 57.9424C70.1643 57.9424 71.2153 58.2467 71.9517 58.8591C72.688 59.4714 73.0563 60.3431 73.0563 61.4744V63.8406C73.0563 64.9753 72.688 65.8471 71.9517 66.4559C71.2153 67.0682 70.1643 67.3726 68.7952 67.3726C67.4261 67.3726 66.3751 67.0682 65.6387 66.4559ZM70.05 65.0445C70.3466 64.7643 70.4931 64.3629 70.4931 63.8406V61.4744C70.4931 60.952 70.3466 60.5507 70.05 60.2705C69.7532 59.9903 69.3349 59.852 68.7952 59.852C68.2554 59.852 67.8372 59.9938 67.5405 60.2705C67.2438 60.5507 67.0972 60.952 67.0972 61.4744V63.8406C67.0972 64.3629 67.2438 64.7643 67.5405 65.0445C67.8372 65.3247 68.2554 65.463 68.7952 65.463C69.3349 65.463 69.7532 65.3247 70.05 65.0445Z" fill="#075A5A"/>
<path d="M75.6034 56.5436C75.3139 56.2633 75.1709 55.9278 75.1709 55.53C75.1709 55.1494 75.3139 54.8139 75.6034 54.5267C75.8929 54.2396 76.2397 54.0978 76.6508 54.0978C77.044 54.0978 77.3908 54.2396 77.6875 54.5267C77.9841 54.8139 78.1307 55.146 78.1307 55.53C78.1307 55.9243 77.9841 56.2633 77.6875 56.5436C77.3908 56.8237 77.0476 56.9621 76.6508 56.9621C76.2397 56.9656 75.8929 56.8237 75.6034 56.5436ZM75.7607 66.2367C75.4961 65.8113 75.3674 65.2162 75.3674 64.4517V58.1694H77.9341V64.3757C77.9341 64.7181 78.002 64.9983 78.1415 65.2162C78.2809 65.4342 78.5275 65.6694 78.8814 65.9219L77.1655 67.3749C76.4899 67.0428 76.0216 66.6623 75.7607 66.2367Z" fill="#075A5A"/>
<path d="M88.3408 58.7372C88.8877 59.2733 89.1594 60.0344 89.1594 61.0273V67.1365H86.5928V61.2556C86.5928 60.8231 86.4712 60.4807 86.2282 60.2246C85.9851 59.9687 85.6598 59.8441 85.2522 59.8441C84.3836 59.8441 83.758 60.3423 83.3791 61.3352V67.14H80.8125V60.9338C80.8125 60.5914 80.7446 60.3111 80.6052 60.0932C80.4657 59.8752 80.2191 59.64 79.8652 59.3875L81.581 57.9346C82.0028 58.1387 82.3353 58.3531 82.5784 58.5849C82.8214 58.8132 83.0073 59.083 83.1397 59.3875C83.4149 58.9551 83.7866 58.6057 84.2549 58.3358C84.7232 58.0694 85.3023 57.9346 86.0029 57.9346C87.0146 57.9346 87.7939 58.201 88.3408 58.7372Z" fill="#075A5A"/>
<path d="M92.8697 67.1711C92.4086 67.0362 92.0404 66.8563 91.7651 66.628C91.4899 66.3997 91.2003 66.0883 90.8965 65.6905L92.4944 64.3724C92.8375 64.7807 93.1557 65.0644 93.4524 65.2235C93.7491 65.3826 94.1531 65.4622 94.6678 65.4622C95.2326 65.4622 95.6437 65.3965 95.9011 65.2615C96.1584 65.1267 96.2871 64.9157 96.2871 64.6215C96.2871 64.3414 96.1263 64.1234 95.8046 63.9712C95.4828 63.819 94.8536 63.6667 93.9207 63.5111C92.0797 63.1686 91.1574 62.2 91.1574 60.6087C91.1574 59.7957 91.4935 59.1453 92.1656 58.661C92.8376 58.1768 93.7312 57.9346 94.8501 57.9346C95.7831 57.9346 96.5231 58.066 97.07 58.3255C97.617 58.5849 98.0602 58.9655 98.4034 59.4636L96.8234 60.7609C96.4802 60.4288 96.1727 60.1936 95.8975 60.0551C95.6222 59.9168 95.2719 59.8441 94.8501 59.8441C94.01 59.8441 93.5882 60.1313 93.5882 60.702C93.5882 60.9684 93.7276 61.1725 94.0137 61.3144C94.2961 61.4562 94.6535 61.5635 95.0897 61.6396C95.9046 61.8194 96.5517 61.9994 97.0343 62.1827C97.5133 62.3661 97.9136 62.6567 98.2389 63.051C98.5606 63.4454 98.7215 63.9885 98.7215 64.6735C98.7215 65.5902 98.3854 66.2683 97.7134 66.7076C97.0413 67.1469 96.0298 67.3649 94.6749 67.3649C93.9278 67.3718 93.3308 67.3061 92.8697 67.1711Z" fill="#075A5A"/>
<path d="M105.5 65.3169C105.804 65.1958 106.133 64.9814 106.486 64.6769L108.006 66.0122C107.244 66.9151 106.011 67.3683 104.317 67.3683C102.805 67.3683 101.711 67.0915 101.042 66.5381C100.374 65.9846 100.034 65.0851 100.034 63.8362V61.1068C100.034 60.1278 100.399 59.3529 101.128 58.7856C101.857 58.2183 102.855 57.9346 104.116 57.9346C105.418 57.9346 106.436 58.2355 107.176 58.841C107.913 59.4463 108.281 60.3284 108.281 61.4873C108.281 62.0478 108.231 62.4802 108.134 62.7846C108.034 63.089 107.841 63.3173 107.552 63.4626C107.262 63.6079 106.84 63.6841 106.29 63.6841H102.579V63.857C102.579 64.9536 103.158 65.5003 104.317 65.5003C104.803 65.4967 105.196 65.438 105.5 65.3169ZM102.983 60.2178C102.715 60.491 102.579 60.8508 102.579 61.2971V61.9855H104.828C105.171 61.9855 105.407 61.9336 105.539 61.8333C105.671 61.733 105.736 61.553 105.736 61.3005C105.736 60.8162 105.596 60.4461 105.321 60.1936C105.046 59.9375 104.642 59.813 104.116 59.813C103.63 59.8061 103.251 59.9445 102.983 60.2178Z" fill="#075A5A"/>
<path d="M115.226 65.3169C115.53 65.1958 115.859 64.9814 116.213 64.6769L117.732 66.0122C116.971 66.9151 115.738 67.3683 114.043 67.3683C112.531 67.3683 111.437 67.0915 110.769 66.5381C110.097 65.9846 109.761 65.0851 109.761 63.8362V61.1068C109.761 60.1278 110.125 59.3529 110.855 58.7856C111.584 58.2183 112.581 57.9346 113.843 57.9346C115.144 57.9346 116.163 58.2355 116.903 58.841C117.639 59.4463 118.008 60.3284 118.008 61.4873C118.008 62.0478 117.958 62.4802 117.861 62.7846C117.761 63.089 117.568 63.3173 117.278 63.4626C116.989 63.6079 116.567 63.6841 116.016 63.6841H112.306V63.857C112.306 64.9536 112.885 65.5003 114.043 65.5003C114.529 65.4967 114.923 65.438 115.226 65.3169ZM112.71 60.2178C112.442 60.491 112.306 60.8508 112.306 61.2971V61.9855H114.554C114.898 61.9855 115.133 61.9336 115.266 61.8333C115.398 61.733 115.462 61.553 115.462 61.3005C115.462 60.8162 115.323 60.4461 115.048 60.1936C114.772 59.9375 114.369 59.813 113.843 59.813C113.357 59.8061 112.982 59.9445 112.71 60.2178Z" fill="#075A5A"/>
<path d="M128.724 67.1384H126.1L125.231 64.1218C125.128 63.7654 124.967 63.5026 124.756 63.3296C124.545 63.1566 124.192 63.046 123.69 62.994L122.408 64.2533V67.1384H119.841V55.8158C119.841 55.4733 119.773 55.1931 119.633 54.9752C119.494 54.7572 119.247 54.522 118.894 54.2695L120.609 52.8165C121.281 53.1486 121.746 53.5257 122.011 53.9512C122.275 54.3767 122.403 54.9717 122.403 55.7363V61.2367L125.481 58.1613H128.599L125.46 61.2367C126.093 61.3889 126.583 61.6898 126.929 62.1361C127.277 62.5823 127.583 63.2431 127.848 64.1218L128.724 67.1384Z" fill="#075A5A"/>
<path d="M135.273 65.3169C135.578 65.1958 135.906 64.9814 136.26 64.6769L137.779 66.0122C137.018 66.9151 135.784 67.3683 134.09 67.3683C132.578 67.3683 131.484 67.0915 130.816 66.5381C130.144 65.9846 129.808 65.0851 129.808 63.8362V61.1068C129.808 60.1278 130.172 59.3529 130.902 58.7856C131.631 58.2183 132.628 57.9346 133.89 57.9346C135.191 57.9346 136.21 58.2355 136.95 58.841C137.687 59.4463 138.054 60.3284 138.054 61.4873C138.054 62.0478 138.005 62.4802 137.908 62.7846C137.808 63.089 137.615 63.3173 137.325 63.4626C137.036 63.6079 136.614 63.6841 136.064 63.6841H132.353V63.857C132.353 64.9536 132.932 65.5003 134.09 65.5003C134.576 65.4967 134.973 65.438 135.273 65.3169ZM132.76 60.2178C132.493 60.491 132.356 60.8508 132.356 61.2971V61.9855H134.605C134.948 61.9855 135.184 61.9336 135.317 61.8333C135.448 61.733 135.513 61.553 135.513 61.3005C135.513 60.8162 135.373 60.4461 135.098 60.1936C134.824 59.9375 134.42 59.813 133.894 59.813C133.407 59.8061 133.028 59.9445 132.76 60.2178Z" fill="#075A5A"/>
<path d="M146.781 58.4752L146.149 60.537C145.874 60.3571 145.609 60.2326 145.359 60.1565C145.109 60.0803 144.801 60.0423 144.433 60.0423C143.565 60.0423 142.939 60.6027 142.56 61.7235V67.1479H139.994V60.9418C139.994 60.5992 139.926 60.3191 139.786 60.1011C139.646 59.8832 139.4 59.6479 139.046 59.3954L140.762 57.9424C141.209 58.1708 141.563 58.4129 141.827 58.6689C142.092 58.925 142.281 59.2293 142.399 59.5856C142.664 59.091 143.011 58.6897 143.446 58.3922C143.88 58.0947 144.412 57.9424 145.045 57.9424C145.727 57.939 146.307 58.1189 146.781 58.4752Z" fill="#075A5A"/>
<path d="M146.741 66.9389C146.437 66.6517 146.287 66.3057 146.287 65.8976C146.287 65.4894 146.437 65.1365 146.741 64.839C147.045 64.5415 147.413 64.3893 147.845 64.3893C148.253 64.3893 148.607 64.538 148.911 64.839C149.215 65.14 149.365 65.4928 149.365 65.8976C149.365 66.3057 149.218 66.6517 148.922 66.9389C148.625 67.226 148.268 67.3679 147.845 67.3679C147.41 67.3679 147.041 67.226 146.741 66.9389Z" fill="#075A5A"/>
<path d="M151.85 66.4559C151.113 65.8436 150.745 64.9719 150.745 63.8406V61.4744C150.745 60.3397 151.113 59.4679 151.85 58.8591C152.586 58.2467 153.637 57.9424 155.006 57.9424C156.715 57.9424 157.941 58.444 158.677 59.4506L156.921 60.8275C156.607 60.4712 156.318 60.2186 156.054 60.0733C155.788 59.928 155.442 59.8554 155.006 59.8554C154.466 59.8554 154.048 59.9973 153.751 60.274C153.455 60.5542 153.308 60.9555 153.308 61.4778V63.844C153.308 64.3664 153.455 64.7677 153.751 65.0479C154.048 65.3282 154.466 65.4665 155.006 65.4665C155.442 65.4665 155.788 65.3939 156.054 65.2486C156.318 65.1033 156.603 64.8508 156.921 64.4945L158.677 65.8713C158.308 66.3797 157.837 66.7603 157.258 67.006C156.678 67.2551 155.928 67.3796 155.01 67.3796C153.64 67.3726 152.586 67.0682 151.85 66.4559Z" fill="#075A5A"/>
<path d="M161.065 66.4559C160.328 65.8436 159.96 64.9719 159.96 63.8406V61.4744C159.96 60.3397 160.328 59.4679 161.065 58.8591C161.801 58.2467 162.852 57.9424 164.222 57.9424C165.59 57.9424 166.641 58.2467 167.378 58.8591C168.114 59.4714 168.482 60.3431 168.482 61.4744V63.8406C168.482 64.9753 168.114 65.8471 167.378 66.4559C166.641 67.0682 165.59 67.3726 164.222 67.3726C162.856 67.3726 161.801 67.0682 161.065 66.4559ZM165.476 65.0445C165.773 64.7643 165.92 64.3629 165.92 63.8406V61.4744C165.92 60.952 165.773 60.5507 165.476 60.2705C165.179 59.9903 164.761 59.852 164.222 59.852C163.682 59.852 163.263 59.9938 162.966 60.2705C162.669 60.5507 162.524 60.952 162.524 61.4744V63.8406C162.524 64.3629 162.669 64.7643 162.966 65.0445C163.263 65.3247 163.682 65.463 164.222 65.463C164.761 65.463 165.179 65.3247 165.476 65.0445Z" fill="#075A5A"/>
</g>
<defs>
<clipPath id="clip0_1035_3388">
<rect width="148.837" height="28.35" fill="white" transform="translate(20.5811 46.0142)"/>
</clipPath>
</defs>
</svg>
