
<svg width="190" height="121" viewBox="0 0 190 121" fill="none" xmlns="http://www.w3.org/2000/svg">
<rect y="0.189209" width="190" height="120" rx="24" fill="#F5F5F7"/>
<g clip-path="url(#clip0_1035_3392)">
<mask id="mask0_1035_3392" style="mask-type:luminance" maskUnits="userSpaceOnUse" x="20" y="41" width="150" height="38">
<path d="M169.582 41.6267H20.5732V78.7517H169.582V41.6267Z" fill="white"/>
</mask>
<g mask="url(#mask0_1035_3392)">
<path d="M30.8843 68.3733C34.2181 68.3733 37.3551 68.3897 40.4922 68.3632C41.749 68.3533 42.9125 68.6156 43.9126 69.3732C45.7196 70.7419 46.3696 72.5858 45.9029 74.7784C45.4662 76.8313 43.8161 78.4891 41.6624 78.6254C38.9554 78.798 36.2117 78.8113 33.5113 78.5822C31.001 78.373 29.3108 76.2267 29.2474 73.6986C29.2241 72.7253 29.2208 71.7485 29.2474 70.7752C29.2641 70.2404 29.0674 70.0376 28.5273 70.0509C27.5506 70.0775 26.5738 70.0676 25.5936 70.0509C22.8133 70.001 20.593 67.7852 20.5863 65.0145C20.5763 58.9915 20.5697 52.9684 20.5863 46.9487C20.593 43.8624 22.7366 41.7163 25.7403 41.7196C28.7674 41.7229 30.8676 43.8391 30.8776 46.9553C30.8977 52.593 30.881 58.2307 30.881 63.8717C30.881 65.3401 30.881 66.8118 30.881 68.3733H30.8843ZM29.2441 57.2307C29.2441 53.8056 29.2441 50.3804 29.2441 46.9586C29.2441 45.4936 28.584 44.384 27.3005 43.7195C24.9035 42.4737 22.2732 44.1581 22.1399 47.0085C22.0899 48.0383 22.1299 49.0748 22.1299 50.108C22.1299 54.8022 22.1565 59.4964 22.1132 64.1906C22.0899 66.8748 23.8201 68.639 26.3071 68.4163C26.9538 68.3598 27.6139 68.3533 28.2606 68.4163C29.0507 68.4894 29.2708 68.1938 29.2608 67.4198C29.2241 64.0245 29.2441 60.6293 29.2441 57.234V57.2307ZM30.891 70.0709C30.891 71.2601 30.8476 72.3731 30.901 73.4826C31.001 75.6687 32.4245 77.0241 34.6181 77.0439C36.6317 77.0606 38.6453 77.0574 40.6556 77.0275C42.7458 76.9976 44.2827 75.5191 44.2926 73.5789C44.3027 71.6057 42.7292 70.104 40.6022 70.0874C37.9986 70.0709 35.3916 70.0741 32.7879 70.0676C32.2011 70.0676 31.6111 70.0676 30.891 70.0676V70.0709Z" fill="#075A5A"/>
<path d="M46.3927 50.2595C47.5728 50.2595 48.6296 50.2595 49.6896 50.2595C52.7433 50.2695 54.9537 52.296 55.0403 55.3457C55.1303 58.5616 55.1337 61.7807 55.0403 64.9966C54.9537 68.0962 52.6601 70.1759 49.6298 70.0994C46.7693 70.0262 44.6489 67.754 44.6424 64.7374C44.6323 60.8705 44.6424 57.0035 44.6424 53.1365V52.007C42.4788 52.007 40.4385 52.0269 38.4016 52.0003C35.8679 51.9671 33.8076 50.2927 33.2942 47.8908C32.6208 44.7282 34.9211 41.7748 38.1749 41.6552C39.1817 41.6186 40.1885 41.6286 41.1953 41.6452C44.1456 41.695 46.3292 43.871 46.3893 46.8244C46.4127 47.9374 46.3927 49.0469 46.3927 50.2595ZM46.5059 52.0502C46.4525 52.2063 46.4159 52.2595 46.4159 52.3159C46.4127 56.6214 46.3625 60.9236 46.4294 65.2292C46.4559 67.0364 48.1227 68.3984 49.9697 68.352C51.7832 68.3054 53.2534 66.8272 53.2635 64.9766C53.2802 61.794 53.2768 58.6081 53.2635 55.4255C53.2568 53.6647 51.9968 52.2163 50.2499 52.0734C49.0229 51.9738 47.7794 52.0535 46.5059 52.0535V52.0502ZM44.5324 50.233C44.5758 50.0436 44.6323 49.9041 44.6323 49.7645C44.6323 48.6749 44.6825 47.5819 44.5956 46.4989C44.4557 44.778 43.0555 43.4458 41.322 43.3495C40.2918 43.293 39.2517 43.2897 38.2215 43.3428C36.418 43.4325 34.9745 44.8909 34.8878 46.6384C34.8044 48.3526 36.0813 50.0834 37.7948 50.1964C40.0251 50.3393 42.2687 50.233 44.5324 50.233Z" fill="#075A5A"/>
<path d="M117.837 60.9805C117.837 56.4624 117.837 51.9775 117.837 47.4926C117.837 47.3464 117.857 47.2036 117.868 47.0807C117.934 47.0209 117.981 46.9478 118.021 46.9511C120.058 46.9843 122.115 46.8514 124.122 47.1106C126.175 47.3763 127.429 48.9975 127.505 51.0706C127.572 52.9841 127.572 54.9076 127.505 56.8212C127.432 58.9706 126.065 60.6849 123.928 60.9307C121.951 61.1566 119.928 60.9772 117.834 60.9772L117.837 60.9805ZM125.985 53.9343C125.935 52.9742 125.948 51.9077 125.808 50.8613C125.628 49.5324 124.675 48.5989 123.345 48.4494C122.291 48.3331 121.225 48.363 120.161 48.3231C119.678 48.3065 119.484 48.5158 119.484 49.0108C119.498 52.3097 119.498 55.6086 119.484 58.9075C119.484 59.3826 119.634 59.6317 120.134 59.6184C121.168 59.5885 122.208 59.6384 123.232 59.5188C124.732 59.346 125.638 58.4324 125.832 56.9408C125.955 55.9807 125.935 55.004 125.985 53.9343Z" fill="#075A5A"/>
<path d="M143.646 50.4842V51.6469H141.852C142.139 52.5539 142.559 53.3545 142.622 54.1817C142.769 56.1916 141.475 57.5172 139.425 57.6401C138.922 57.67 138.418 57.6434 137.915 57.66C137.332 57.6799 136.785 57.8693 136.798 58.5304C136.808 59.1317 137.325 59.3377 137.878 59.351C138.678 59.3676 139.479 59.3344 140.279 59.3709C140.809 59.3942 141.345 59.4473 141.855 59.5835C142.846 59.8493 143.543 60.4606 143.686 61.5204C143.842 62.6665 143.653 63.7229 142.589 64.4006C141.196 65.2909 139.622 65.3474 138.045 65.2113C137.378 65.1548 136.685 65.0119 136.075 64.7428C134.228 63.9356 134.008 61.6665 135.615 60.4407C135.751 60.3343 135.891 60.2314 136.025 60.1317C135.175 58.5271 135.215 58.1915 136.395 57.2015C136.315 57.0953 136.251 56.969 136.152 56.8826C134.925 55.8063 134.521 54.2415 135.078 52.7034C135.581 51.3147 136.725 50.524 138.385 50.4941C140.125 50.4642 141.866 50.4875 143.649 50.4875L143.646 50.4842ZM136.355 54.0621C136.355 55.6069 137.265 56.5238 138.818 56.5371C140.342 56.5504 141.266 55.6568 141.275 54.1618C141.286 52.5738 140.339 51.6237 138.765 51.637C137.262 51.6503 136.355 52.5605 136.355 54.0621ZM139.099 60.6499C139.099 60.6499 139.099 60.6499 139.099 60.6466C138.595 60.6466 138.092 60.6167 137.592 60.6533C136.802 60.7098 136.238 61.125 136.058 61.8957C135.868 62.7064 136.188 63.4106 136.938 63.7362C138.412 64.3774 139.935 64.3873 141.385 63.6498C142.089 63.2911 142.356 62.6166 142.179 61.8426C142.006 61.0851 141.429 60.7297 140.699 60.6566C140.172 60.6034 139.635 60.6466 139.102 60.6466L139.099 60.6499Z" fill="#075A5A"/>
<path d="M96.3978 56.3865C96.2711 58.3366 96.7346 59.2867 97.9548 59.7286C99.4016 60.2535 100.492 59.8382 101.679 58.2701C102.122 58.4263 102.582 58.5891 103.099 58.7718C102.742 60.1073 101.909 60.9644 100.695 61.1903C99.6216 61.3897 98.4482 61.393 97.3748 61.1837C95.831 60.8847 94.7378 59.4429 94.6644 57.8515C94.601 56.4695 94.5942 55.0809 94.6644 53.6989C94.7609 51.885 95.9978 50.5694 97.7847 50.2372C101.069 49.6259 103.142 51.3468 103.145 54.6822C103.145 55.8184 102.563 56.3865 101.398 56.3865C99.7483 56.3865 98.0981 56.3865 96.3978 56.3865ZM101.482 55.051C101.542 53.8284 101.465 52.7421 100.368 52.0345C99.5282 51.4897 98.1614 51.5096 97.3514 52.0976C96.3346 52.8351 96.2878 53.8982 96.3978 55.051H101.485H101.482Z" fill="#075A5A"/>
<path d="M81.1376 59.7239C80.0074 61.1192 78.7139 61.6241 77.1637 61.3849C75.667 61.1557 74.6801 60.0793 74.5433 58.5711C74.4034 57.0363 75.1335 55.7938 76.607 55.3586C77.5005 55.0928 78.4606 55.0363 79.3975 54.9366C79.9208 54.8802 80.4541 54.9267 80.9641 54.9267C81.3442 53.3055 80.9842 52.1826 80.0041 51.7939C78.6439 51.2524 77.5304 51.7142 76.5004 53.2822C76.0202 53.146 75.5236 53.0032 74.9701 52.847C75.1868 51.5713 75.9469 50.8272 77.0305 50.4684C77.7172 50.2424 78.484 50.1528 79.2107 50.1627C81.7276 50.1959 82.8712 51.3919 82.8744 53.9068C82.8744 56.033 82.8645 58.1591 82.8811 60.2853C82.8845 60.8634 82.9045 61.2986 82.0711 61.272C81.3509 61.2487 81.0076 61.0826 81.1309 60.3285C81.1509 60.2156 81.1309 60.0926 81.1309 59.7239H81.1376ZM81.0076 56.0529C79.7975 56.1924 78.6172 56.2157 77.4971 56.4881C76.5004 56.7306 76.1802 57.4548 76.317 58.4615C76.427 59.2687 77.0271 59.8003 77.9606 59.9199C79.9609 60.1757 81.3176 58.5777 81.0076 56.0529Z" fill="#075A5A"/>
<path d="M158.824 53.1581C158.358 53.0186 157.941 52.8923 157.527 52.7694C157.741 51.3974 158.814 50.4672 160.388 50.321C161.034 50.2612 161.694 50.2579 162.338 50.321C163.942 50.4838 164.902 51.4406 165.065 52.9688C165.095 53.2611 165.098 53.5568 165.098 53.8524C165.098 56.2378 165.098 58.623 165.098 61.0449H163.728C163.678 60.5698 163.635 60.1479 163.575 59.5898C163.318 59.819 163.165 59.9386 163.035 60.0781C161.955 61.2376 160.281 61.6396 158.811 61.0814C157.681 60.6562 157.017 59.5732 157.03 58.1879C157.044 56.8058 157.691 55.756 158.988 55.4703C160.214 55.2012 161.494 55.1448 162.755 55.0816C163.365 55.0517 163.571 54.8889 163.568 54.2677C163.561 52.6498 163.248 51.9588 162.268 51.6499C160.848 51.2047 159.768 51.6598 158.821 53.1614L158.824 53.1581ZM161.968 56.055C161.968 56.055 161.968 56.0384 161.968 56.0318C161.468 56.065 160.964 56.0716 160.468 56.1381C160.211 56.1713 159.961 56.2942 159.721 56.4038C158.841 56.7992 158.427 57.5002 158.551 58.3639C158.677 59.2476 159.338 59.8888 160.258 60.025C161.524 60.2144 162.845 59.5566 163.338 58.2942C163.578 57.6796 163.538 56.9155 163.441 56.2477C163.425 56.1215 162.545 56.1181 162.061 56.0584C162.031 56.055 162.001 56.0584 161.971 56.0584L161.968 56.055Z" fill="#075A5A"/>
<path d="M86.0187 58.1269C86.9954 59.7713 88.2423 60.3428 89.8158 59.8478C90.5025 59.6318 91.0359 59.2398 91.116 58.4524C91.1993 57.6286 90.6993 57.1933 90.0192 56.9409C89.1057 56.602 88.1656 56.3396 87.2521 56.004C85.3718 55.313 84.6117 53.9742 85.1319 52.3231C85.1853 52.1537 85.242 51.9809 85.3351 51.8347C86.3253 50.2567 87.8722 50.0308 89.5359 50.1903C91.2927 50.3597 92.3628 51.2567 92.7628 52.8613C92.3295 53.0307 91.8826 53.2035 91.3494 53.4094C90.8726 51.838 89.739 51.4859 88.3323 51.6587C87.5822 51.7517 86.9421 52.0407 86.7855 52.8746C86.6187 53.7549 87.1889 54.1835 87.899 54.4459C88.7556 54.7615 89.649 54.9874 90.5058 55.3064C92.3427 55.9874 93.0429 57.0173 92.8562 58.6783C92.7027 60.0504 91.5559 61.1102 89.8457 61.3494C88.1789 61.5819 86.5654 61.449 85.3551 60.0803C84.335 58.9275 84.4851 58.5388 86.022 58.1302L86.0187 58.1269Z" fill="#075A5A"/>
<path d="M66.909 59.4863C68.7927 59.4863 70.5394 59.5195 72.2797 59.4697C72.9898 59.4498 73.1165 59.7355 73.1032 60.3501C73.0897 60.9281 73.0497 61.277 72.3029 61.2603C70.1427 61.2138 67.9825 61.2238 65.8222 61.257C65.192 61.267 65.012 61.0544 65.0154 60.4431C65.0354 56.1376 65.0455 51.8321 65.0089 47.5266C65.0021 46.6761 65.4755 46.7691 66.0256 46.7392C66.6289 46.7093 66.9324 46.8123 66.9256 47.5366C66.889 51.1643 66.909 54.7921 66.909 58.4199C66.909 58.7388 66.909 59.0578 66.909 59.4863Z" fill="#075A5A"/>
<path d="M155.412 59.7677V60.9005C153.215 61.7277 151.409 60.5417 151.395 58.2661C151.385 56.5253 151.395 54.7845 151.395 53.0436C151.395 52.1755 150.972 51.7192 150.125 51.6749C150.008 51.6683 149.895 51.6417 149.722 51.6151V50.6152C150.182 50.1335 151.295 51.0603 151.382 49.8411C151.429 49.1667 151.392 48.489 151.392 47.7349H152.949C152.949 48.3694 152.986 49.0072 152.939 49.6418C152.892 50.3128 153.169 50.5421 153.816 50.4889C154.312 50.4491 154.812 50.4823 155.379 50.4823V51.6882C154.789 51.6882 154.206 51.6982 153.622 51.6882C153.139 51.6782 152.939 51.8842 152.942 52.3792C152.959 54.3559 152.942 56.3326 152.952 58.3093C152.955 59.163 153.452 59.5949 154.266 59.7012C154.612 59.7477 154.966 59.7444 155.416 59.771L155.412 59.7677Z" fill="#075A5A"/>
<path d="M105.598 50.4159H107.245C107.268 50.871 107.288 51.3029 107.318 51.9308C108.272 50.8112 109.328 50.1103 110.815 50.2598V51.8776C110.285 51.974 109.759 52.0305 109.255 52.1733C107.992 52.5388 107.312 53.4723 107.312 54.7646C107.312 56.7081 107.288 58.6548 107.322 60.5983C107.332 61.2959 106.922 61.266 106.458 61.2428C106.015 61.2229 105.485 61.4089 105.491 60.6116C105.515 57.3426 105.501 54.0703 105.508 50.8013C105.508 50.6883 105.558 50.5787 105.595 50.4192L105.598 50.4159Z" fill="#075A5A"/>
<path d="M168.18 46.4194H169.587V61.0269C169.14 61.0535 168.69 61.0834 168.18 61.1133V46.4194Z" fill="#075A5A"/>
<path d="M94.5712 69.5918V74.9504H93.0576V68.7613C94.2411 68.7613 95.3879 68.7048 96.5314 68.7813C97.2982 68.8344 97.8449 69.3359 98.0216 70.1C98.2551 71.1134 97.795 71.8078 96.7949 72.2562C97.2782 73.1598 97.7383 74.0236 98.2117 74.9074C97.1893 75.0602 96.458 74.7357 96.0182 73.9338C95.6813 73.316 95.3513 72.6947 95.0446 72.1232C95.5214 71.8244 96.0114 71.615 96.3514 71.2628C96.5215 71.0869 96.5181 70.625 96.4281 70.3394C96.1514 69.4523 95.4314 69.5022 94.5678 69.5886L94.5712 69.5918Z" fill="#075A5A"/>
<path d="M71.6719 71.8378C71.6618 69.7948 72.8419 68.5057 74.7423 68.4857C76.7126 68.4659 77.9193 69.7149 77.9461 71.8045C77.9692 73.9208 76.8058 75.2197 74.8656 75.2398C72.8453 75.2596 71.6852 74.0239 71.6719 71.8378ZM76.5324 71.9408C76.3425 71.2696 76.2691 70.6351 75.989 70.1102C75.3856 68.9773 74.1755 69.0073 73.5853 70.1602C72.9655 71.3693 72.9853 72.6185 73.7055 73.7813C74.2723 74.6914 75.3156 74.7148 75.8691 73.8011C76.2057 73.2465 76.3191 72.5587 76.5324 71.9408Z" fill="#075A5A"/>
<path d="M66.5866 74.9782H65.5664V68.809C66.4498 68.5997 67.1333 68.7158 67.69 69.553C68.27 70.4267 69.01 71.1976 69.8502 72.2175V68.7991H70.8337V75.2041C70.3171 74.915 69.8437 74.7854 69.5768 74.4799C68.5933 73.3436 67.6767 72.1511 66.5897 70.7955V74.9814L66.5866 74.9782Z" fill="#075A5A"/>
<path d="M105.127 74.943C103.51 75.0958 103.533 75.0859 102.886 73.8003C102.763 73.5577 102.4 73.3982 102.113 73.2852C101.906 73.2056 101.64 73.3053 101.409 73.2621C100.559 73.1091 100.066 73.4747 99.8792 74.282C99.7159 74.9928 99.2992 75.1557 98.5859 74.8998C99.3793 72.9498 100.146 71.013 100.97 69.1027C101.056 68.9034 101.476 68.7472 101.736 68.7537C102.066 68.7639 102.596 68.8701 102.693 69.0861C103.536 70.9896 104.303 72.9297 105.127 74.9397V74.943ZM102.25 72.365C102.196 72.1458 102.176 71.9697 102.113 71.8169C101.936 71.3916 101.743 70.9729 101.48 70.3717C101.18 71.1259 100.946 71.7073 100.683 72.365H102.25Z" fill="#075A5A"/>
<path d="M90.739 68.7701H91.7425C91.7425 70.431 91.8525 72.1021 91.7024 73.75C91.6057 74.8064 90.4555 75.3081 88.9354 75.2449C87.6686 75.1918 86.7616 74.6037 86.6917 73.5408C86.5884 71.966 86.6651 70.3813 86.6651 68.7667H88.1452C88.1452 69.8199 88.1452 70.8664 88.1452 71.9095C88.1452 72.3215 88.122 72.7366 88.1719 73.1452C88.2619 73.8929 88.6753 74.3114 89.4688 74.3015C90.2656 74.2914 90.689 73.8663 90.7156 73.1054C90.7556 71.9592 90.7356 70.8099 90.739 69.6604C90.739 69.3978 90.739 69.1355 90.739 68.7667V68.7701Z" fill="#075A5A"/>
<path d="M130.505 50.5306H131.928V61.0552H130.505V50.5306Z" fill="#075A5A"/>
<path d="M145.973 50.5281H147.4V61.0626H145.973V50.5281Z" fill="#075A5A"/>
<path d="M83.7803 74.9193C82.1866 75.1418 82.19 75.1418 81.6734 73.7664C81.3132 72.8063 80.9365 71.8528 80.4899 70.6902C79.9931 71.9957 79.5298 73.0986 79.1597 74.2315C78.9298 74.9391 78.5596 75.1884 77.8027 74.9159C78.5196 72.9924 79.2164 71.0621 79.9731 69.1519C80.0532 68.946 80.4566 68.7698 80.7199 68.7566C80.98 68.7467 81.4099 68.8961 81.49 69.0889C82.2834 71.0124 83.0203 72.9591 83.7803 74.9193Z" fill="#075A5A"/>
<path d="M113.763 70.5246C113.567 70.3552 113.323 70.2123 113.177 70.0064C112.3 68.7739 110.663 68.6942 109.69 69.8537C108.496 71.2788 108.966 73.6906 110.573 74.3982C111.713 74.9 113.157 74.1957 113.467 72.9996C113.604 72.4682 113.447 72.2157 112.877 72.2189C112.417 72.2189 111.957 72.1824 111.497 72.1592C111.497 72.0562 111.503 71.9565 111.507 71.8535H113.993V74.9531C113.74 74.6574 113.59 74.4812 113.463 74.3318C110.813 75.6274 108.853 75.2753 108.446 72.0195C108.206 70.096 109.386 68.7008 110.96 68.5545C112.623 68.4017 113.624 69.0131 113.77 70.5147L113.763 70.5246Z" fill="#075A5A"/>
<path d="M86.3102 74.8936C85.2011 75.0907 84.4755 74.7143 84.1333 73.7641C83.8633 73.0167 83.6232 72.2526 83.2832 71.5317C83.0564 71.0533 82.5965 70.6778 82.3965 70.1961C81.9996 69.2394 82.5799 68.5583 83.5832 68.741C83.7499 68.7709 83.9767 68.9104 84.0334 69.0567C84.8033 70.9901 85.5501 72.9368 86.307 74.8936H86.3102Z" fill="#075A5A"/>
<path d="M129.131 74.4467C129.007 75.8043 128.791 76.523 128.485 76.6026C128.485 74.6692 128.481 72.7623 128.495 70.8555C128.495 70.7425 128.618 70.6296 128.681 70.5166C128.875 70.6395 129.065 70.7623 129.272 70.8919C130.298 70.1544 131.358 70.1676 132.112 70.945C132.809 71.6628 132.895 73.4169 132.275 74.264C131.615 75.1676 130.635 75.2373 129.135 74.4467H129.131ZM132.069 72.7423C132.085 71.6328 131.452 70.8123 130.572 70.8055C129.725 70.799 129.041 71.5962 129.011 72.6327C128.982 73.6727 129.682 74.543 130.562 74.563C131.442 74.5828 132.055 73.8421 132.069 72.7423Z" fill="#075A5A"/>
<path d="M122.333 72.679C122.337 74.1275 121.503 75.0278 120.166 75.0179C118.879 75.008 118.033 74.1109 118.016 72.7388C117.999 71.3004 118.839 70.3635 120.15 70.3502C121.493 70.337 122.33 71.2273 122.333 72.679ZM118.626 72.699C118.633 73.7489 119.353 74.5926 120.22 74.5627C121.053 74.5328 121.733 73.7122 121.743 72.7157C121.753 71.6757 121.056 70.8187 120.19 70.8086C119.319 70.7987 118.619 71.6458 118.626 72.699Z" fill="#075A5A"/>
<path d="M126.859 70.4675C126.949 70.6734 127.109 70.8761 127.112 71.0854C127.139 72.1451 127.135 73.2049 127.112 74.2646C127.109 74.464 126.982 74.66 126.909 74.8593C126.765 74.6899 126.619 74.5205 126.445 74.3146C126.235 74.4707 126.022 74.6701 125.775 74.8096C124.648 75.4441 123.515 74.8229 123.485 73.5404C123.462 72.5405 123.482 71.5372 123.482 70.5339C123.582 70.5206 123.682 70.5107 123.785 70.4975C123.848 70.6502 123.958 70.8064 123.962 70.9625C123.982 71.6967 123.972 72.4343 123.978 73.1716C123.985 73.8893 124.212 74.4674 125.028 74.5571C125.752 74.6368 126.445 74.0322 126.495 73.2148C126.549 72.3377 126.509 71.4575 126.509 70.5805L126.859 70.4707V70.4675Z" fill="#075A5A"/>
<path d="M130.324 46.2745C131.034 46.4074 131.825 46.4008 131.878 46.5935C132.038 47.1782 131.964 47.8526 131.841 48.4638C131.821 48.5668 130.781 48.63 130.751 48.5403C130.544 47.8924 130.474 47.1981 130.324 46.2712V46.2745Z" fill="#075A5A"/>
<path d="M146.014 46.4433C147.584 46.234 147.717 46.4366 147.381 48.4665C145.89 48.8352 145.71 48.5761 146.014 46.4433Z" fill="#075A5A"/>
<path d="M115.461 74.8222V70.5533C115.525 70.5202 115.588 70.4903 115.651 70.457C115.791 70.6928 115.935 70.9254 116.071 71.1547C116.491 70.8723 116.935 70.5767 117.378 70.281C117.455 70.3341 117.528 70.3906 117.605 70.4437C117.528 70.6199 117.485 70.922 117.372 70.952C116.138 71.271 115.905 72.1679 115.945 73.2575C115.958 73.6661 115.971 74.0815 115.928 74.4867C115.911 74.6363 115.738 74.7691 115.635 74.9086C115.575 74.8787 115.518 74.8456 115.458 74.8157L115.461 74.8222Z" fill="#075A5A"/>
<path d="M80.2246 74.8383C80.4348 74.267 80.6413 73.6955 80.8515 73.124L81.1014 73.0941C81.1615 73.6159 81.3048 74.1473 81.2349 74.6556C81.2115 74.8383 80.6814 74.9513 80.3814 75.0975C80.3279 75.0111 80.2746 74.9247 80.2246 74.8383Z" fill="#075A5A"/>
</g>
</g>
<defs>
<clipPath id="clip0_1035_3392">
<rect width="149.175" height="37.125" fill="white" transform="translate(20.4121 41.6267)"/>
</clipPath>
</defs>
</svg>
