
<svg width="190" height="121" viewBox="0 0 190 121" fill="none" xmlns="http://www.w3.org/2000/svg">
<rect y="0.189209" width="190" height="120" rx="24" fill="#F5F5F7"/>
<g clip-path="url(#clip0_1035_3355)">
<path d="M123.195 56.2821C123.195 56.1415 123.308 56.0149 123.462 56.0149H127.677C129.369 56.0149 130.75 57.3818 130.75 59.0594C130.75 60.356 129.89 61.3994 128.664 61.893L130.595 65.4733C130.693 65.6561 130.595 65.8826 130.356 65.8826H128.48C128.368 65.8826 128.283 65.8122 128.255 65.756L126.38 62.021H125.407V65.6154C125.407 65.756 125.281 65.8826 125.14 65.8826H123.462C123.308 65.8826 123.195 65.756 123.195 65.6154V56.2821ZM127.494 60.228C128.072 60.228 128.566 59.6922 128.566 59.1002C128.566 58.5082 128.072 58.0286 127.494 58.0286H125.409V60.228H127.494Z" fill="#075A5A"/>
<path d="M131.705 65.514L136.116 56.0288C136.159 55.9445 136.257 55.8741 136.355 55.8741H136.496C136.594 55.8741 136.693 55.9445 136.735 56.0288L141.146 65.514C141.231 65.6968 141.118 65.881 140.907 65.881H139.344C139.091 65.881 138.977 65.7966 138.85 65.5281L138.342 64.4143H134.51L134.003 65.5421C133.932 65.7109 133.778 65.881 133.495 65.881H131.944C131.733 65.881 131.621 65.6982 131.705 65.514ZM137.497 62.499L136.426 60.1731H136.412L135.354 62.499H137.497Z" fill="#075A5A"/>
<path d="M146.909 55.8827C148.093 55.8827 149.39 56.3763 150.349 57.2074C150.476 57.3058 150.49 57.4746 150.377 57.5885L149.263 58.7725C149.151 58.871 148.996 58.871 148.882 58.7866C148.346 58.293 147.726 58.1102 147.036 58.1102C145.499 58.1102 144.259 59.4068 144.259 60.9578C144.259 62.4949 145.513 63.7633 147.05 63.7633C147.459 63.7633 147.881 63.7071 148.304 63.5383V62.7213H147.417C147.262 62.7213 147.15 62.6088 147.15 62.4682V61.0732C147.15 60.9185 147.262 60.806 147.417 60.806H150.251C150.391 60.806 150.504 60.9325 150.504 61.0732L150.518 64.8644C150.518 64.9347 150.461 65.0472 150.405 65.0894C150.405 65.0894 148.954 66.0049 146.909 66.0049C144.104 66.0049 141.85 63.7774 141.85 60.9593C141.85 58.1411 144.105 55.8827 146.909 55.8827Z" fill="#075A5A"/>
<path d="M157.14 55.8741C159.959 55.8741 162.214 58.1438 162.214 60.962C162.214 63.7801 159.958 66.0216 157.14 66.0216C154.32 66.0216 152.08 63.7801 152.08 60.962C152.08 58.1438 154.322 55.8741 157.14 55.8741ZM157.14 63.7674C158.691 63.7674 159.959 62.499 159.959 60.962C159.959 59.4123 158.691 58.1284 157.14 58.1284C155.604 58.1284 154.334 59.4109 154.334 60.962C154.336 62.499 155.604 63.7674 157.14 63.7674Z" fill="#075A5A"/>
<path d="M164.24 56.1273C164.24 55.9866 164.367 55.8741 164.507 55.8741H164.86L170.484 61.2868H170.498V56.2834C170.498 56.1427 170.611 56.0162 170.765 56.0162H172.457C172.598 56.0162 172.724 56.1427 172.724 56.2834V65.7685C172.724 65.9091 172.598 66.0216 172.457 66.0216H172.232C172.19 66.0216 172.077 65.9795 172.049 65.9513L166.482 60.3559H166.468V65.6124C166.468 65.7531 166.355 65.8796 166.201 65.8796H164.523C164.382 65.8796 164.256 65.7531 164.256 65.6124L164.24 56.1273Z" fill="#075A5A"/>
<path d="M110.636 53.921C110.636 53.7466 110.775 53.5891 110.949 53.5891H115.085C118.453 53.5891 121.211 56.3285 121.211 59.6796C121.211 63.0644 118.453 65.8052 115.085 65.8052H110.949C110.775 65.8052 110.636 65.6477 110.636 65.4733V53.921ZM114.876 63.6761C117.144 63.6761 118.802 61.9661 118.802 59.6796C118.802 57.4113 117.144 55.7013 114.876 55.7013H112.886V63.6761H114.876Z" fill="#075A5A"/>
<path d="M59.2998 56.2821C59.2998 56.1415 59.4123 56.0149 59.567 56.0149H63.7815C65.4732 56.0149 66.8542 57.3818 66.8542 59.0594C66.8542 60.356 65.995 61.3994 64.7687 61.893L66.6995 65.4733C66.7979 65.6561 66.6995 65.8826 66.4604 65.8826H64.5859C64.4734 65.8826 64.389 65.8122 64.3609 65.756L62.4864 62.021H61.5132V65.6154C61.5132 65.756 61.3867 65.8826 61.2461 65.8826H59.5684C59.4137 65.8826 59.3012 65.756 59.3012 65.6154V56.2821H59.2998ZM63.5987 60.228C64.1767 60.228 64.6703 59.6922 64.6703 59.1002C64.6703 58.5082 64.1767 58.0286 63.5987 58.0286H61.5132V60.228H63.5987Z" fill="#075A5A"/>
<path d="M67.8095 65.514L72.2209 56.0288C72.2631 55.9445 72.3615 55.8741 72.4599 55.8741H72.6006C72.699 55.8741 72.7974 55.9445 72.8396 56.0288L77.251 65.514C77.3354 65.6968 77.2229 65.881 77.012 65.881H75.4468C75.1937 65.881 75.0798 65.7966 74.9532 65.5281L74.4455 64.4143H70.6121L70.1045 65.5421C70.0341 65.7109 69.8795 65.881 69.5968 65.881H68.0457C67.8376 65.881 67.7251 65.6982 67.8095 65.514ZM73.6018 62.499L72.5302 60.1731H72.5162L71.4587 62.499H73.6018Z" fill="#075A5A"/>
<path d="M78.7461 56.282C78.7461 56.1413 78.8586 56.0148 79.0133 56.0148H82.4108C84.1447 56.0148 85.5678 57.4238 85.5678 59.1296C85.5678 60.8776 84.1447 62.3007 82.4248 62.3007H80.9455V65.6124C80.9455 65.7531 80.8189 65.8796 80.6783 65.8796H79.0147C78.86 65.8796 78.7475 65.7531 78.7475 65.6124V56.282H78.7461ZM82.2842 60.242C82.8903 60.242 83.398 59.7624 83.398 59.1282C83.398 58.5362 82.8903 58.0848 82.2842 58.0848H80.9455V60.2406H82.2842V60.242Z" fill="#075A5A"/>
<path d="M87.3496 56.282C87.3496 56.1413 87.4621 56.0148 87.6168 56.0148H93.4513C93.606 56.0148 93.7185 56.1413 93.7185 56.282V57.8176C93.7185 57.9582 93.606 58.0848 93.4513 58.0848H89.5476V59.8327H92.7609C92.9015 59.8327 93.028 59.9593 93.028 60.0999V61.637C93.028 61.7916 92.9015 61.9041 92.7609 61.9041H89.5476V63.8068H93.4513C93.606 63.8068 93.7185 63.9334 93.7185 64.074V65.6096C93.7185 65.7502 93.606 65.8768 93.4513 65.8768H87.6168C87.4621 65.8768 87.3496 65.7502 87.3496 65.6096V56.282Z" fill="#075A5A"/>
<path d="M95.9375 56.282C95.9375 56.1413 96.05 56.0148 96.2047 56.0148H100.419C102.111 56.0148 103.492 57.3816 103.492 59.0593C103.492 60.3559 102.633 61.3993 101.406 61.8929L103.337 65.4732C103.436 65.656 103.337 65.8824 103.098 65.8824H101.224C101.111 65.8824 101.027 65.8121 100.999 65.7559L99.1241 62.0209H98.1509V65.6152C98.1509 65.7559 98.0244 65.8824 97.8838 65.8824H96.2061C96.0514 65.8824 95.9389 65.7559 95.9389 65.6152V56.282H95.9375ZM100.235 60.2279C100.813 60.2279 101.307 59.6921 101.307 59.1001C101.307 58.5081 100.813 58.0285 100.235 58.0285H98.1495V60.2279H100.235Z" fill="#075A5A"/>
<path d="M46.7373 53.921C46.7373 53.7466 46.8765 53.5891 47.0509 53.5891H51.1867C54.5546 53.5891 57.3123 56.3285 57.3123 59.6796C57.3123 63.0644 54.5546 65.8052 51.1867 65.8052H47.0509C46.8765 65.8052 46.7373 65.6477 46.7373 65.4733V53.921ZM50.9786 63.6761C53.2468 63.6761 54.9048 61.9661 54.9048 59.6796C54.9048 57.4113 53.2468 55.7013 50.9786 55.7013H48.9887V63.6761H50.9786Z" fill="#075A5A"/>
<path d="M24.0664 67.1228C23.2283 66.7037 22.6222 65.6026 22.5842 63.5776C22.573 62.942 22.6869 62.2192 22.701 61.5835C22.7277 60.3376 22.5842 58.8807 22.2411 58.2901C21.9697 57.8232 21.4972 57.549 21.0824 57.7909C20.5325 58.1115 20.5213 58.3689 20.2583 58.525C19.8702 58.7556 19.3625 58.7471 18.9182 58.7893C18.3852 58.8385 17.8367 58.8301 17.3122 58.7106C16.6794 58.5657 16.5838 58.051 16.6499 57.4787C16.6738 57.2692 16.7216 57.0906 16.73 56.9134C16.7427 56.6856 16.7722 56.4479 16.6878 56.1681C16.6203 55.9473 16.3166 55.6126 16.4122 55.531C16.4839 55.4706 16.7877 55.7167 16.7877 55.7167C16.7877 55.7167 17.4908 56.424 18.1939 55.8348C18.9266 55.2203 19.1924 54.7323 20.0952 54.4623C21.0978 54.1628 22.2172 54.4187 22.2172 54.4187C22.2172 54.4187 21.6702 54.5706 21.6702 54.8364C21.6702 55.0937 22.0007 55.1528 22.4014 55.4185C23.1425 55.9093 23.795 56.8178 24.0833 57.3353C24.3111 57.7445 24.4588 58.1903 24.5713 58.6403C24.7189 59.2267 24.8272 59.7934 24.861 60.3896V47.8417L13.8247 50.9298C13.8247 50.9298 13.5561 55.9937 14.9399 60.2139C16.5894 65.2412 20.091 69.3179 24.5417 72.1192C24.6486 72.1867 24.7555 72.2528 24.8624 72.3189V67.3267V67.1917C24.5432 67.2718 24.2971 67.2381 24.0664 67.1228Z" fill="#075A5A"/>
<path d="M24.8667 60.6616C24.8752 61.1707 24.8766 62.5896 24.8822 62.9805C24.885 63.1605 24.8681 63.6822 24.9905 63.8243C25.1044 63.9579 25.5347 63.1647 25.6177 63.0171C25.8933 62.5235 26.2659 61.8907 27.2897 59.216C28.3922 56.336 29.3808 54.4361 30.3595 52.9061C31.102 51.746 32.4816 50.3988 32.8261 50.0711L24.8555 47.8408V60.3888C24.8611 60.4788 24.8653 60.5688 24.8667 60.6616Z" fill="#075A5A"/>
<path d="M35.8931 50.9258C34.9172 51.5642 33.345 52.7961 32.5153 54.1292C31.9359 55.0602 31.7841 55.7127 31.7461 56.1908C31.7081 56.6689 31.732 56.787 31.2525 57.1513C30.7716 57.5155 30.1219 58.5477 29.4567 60.0875C28.9392 61.2842 28.7255 61.7694 28.3359 63.3092C28.0603 64.3962 27.9844 64.7534 27.3473 65.4566C26.588 66.2961 25.9411 66.7109 25.38 66.9866C25.1845 67.0836 25.0116 67.1483 24.8569 67.1877V67.3227H24.8555V67.4689V67.5069V67.6784V72.3148C24.9623 72.2488 25.0706 72.1827 25.1761 72.1152C29.6269 69.3139 33.1284 65.2372 34.778 60.2098C36.1617 55.9897 35.8931 50.9258 35.8931 50.9258Z" fill="#075A5A"/>
<path d="M24.0664 67.1228C23.2283 66.7037 22.6222 65.6026 22.5842 63.5776C22.573 62.942 22.6869 62.2192 22.701 61.5835C22.7277 60.3376 22.5842 58.8807 22.2411 58.2901C21.9697 57.8232 21.4972 57.549 21.0824 57.7909C20.5325 58.1115 20.5213 58.3689 20.2583 58.525C19.8702 58.7556 19.3625 58.7471 18.9182 58.7893C18.3852 58.8385 17.8367 58.8301 17.3122 58.7106C16.6794 58.5657 16.5838 58.051 16.6499 57.4787C16.6738 57.2692 16.7216 57.0906 16.73 56.9134C16.7427 56.6856 16.7722 56.4479 16.6878 56.1681C16.6203 55.9473 16.3166 55.6126 16.4122 55.531C16.4839 55.4706 16.7877 55.7167 16.7877 55.7167C16.7877 55.7167 17.4908 56.424 18.1939 55.8348C18.9266 55.2203 19.1924 54.7323 20.0952 54.4623C21.0978 54.1628 22.2172 54.4187 22.2172 54.4187C22.2172 54.4187 21.6702 54.5706 21.6702 54.8364C21.6702 55.0937 22.0007 55.1528 22.4014 55.4185C23.1425 55.9093 23.795 56.8178 24.0833 57.3353C24.3111 57.7445 24.4588 58.1903 24.5713 58.6403C24.7189 59.2267 24.8272 59.7934 24.861 60.3896V47.8417L13.8247 50.9298C13.8247 50.9298 13.5561 55.9937 14.9399 60.2139C16.5894 65.2412 20.091 69.3179 24.5417 72.1192C24.6486 72.1867 24.7555 72.2528 24.8624 72.3189V67.3267V67.1917C24.5432 67.2718 24.2971 67.2381 24.0664 67.1228Z" fill="#075A5A"/>
<path d="M24.8667 60.6616C24.8752 61.1707 24.8766 62.5896 24.8822 62.9805C24.885 63.1605 24.8681 63.6822 24.9905 63.8243C25.1044 63.9579 25.5347 63.1647 25.6177 63.0171C25.8933 62.5235 26.2659 61.8907 27.2897 59.216C28.3922 56.336 29.3808 54.4361 30.3595 52.9061C31.102 51.746 32.4816 50.3988 32.8261 50.0711L24.8555 47.8408V60.3888C24.8611 60.4788 24.8653 60.5688 24.8667 60.6616Z" fill="#075A5A"/>
<path d="M35.8931 50.9258C34.9172 51.5642 33.345 52.7961 32.5153 54.1292C31.9359 55.0602 31.7841 55.7127 31.7461 56.1908C31.7081 56.6689 31.732 56.787 31.2525 57.1513C30.7716 57.5155 30.1219 58.5477 29.4567 60.0875C28.9392 61.2842 28.7255 61.7694 28.3359 63.3092C28.0603 64.3962 27.9844 64.7534 27.3473 65.4566C26.588 66.2961 25.9411 66.7109 25.38 66.9866C25.1845 67.0836 25.0116 67.1483 24.8569 67.1877V67.3227H24.8555V67.4689V67.5069V67.6784V72.3148C24.9623 72.2488 25.0706 72.1827 25.1761 72.1152C29.6269 69.3139 33.1284 65.2372 34.778 60.2098C36.1617 55.9897 35.8931 50.9258 35.8931 50.9258Z" fill="#075A5A"/>
</g>
<defs>
<clipPath id="clip0_1035_3355">
<rect width="158.906" height="24.4758" fill="white" transform="translate(13.8027 47.8268)"/>
</clipPath>
</defs>
</svg>
