<?xml version="1.0" encoding="utf-8"?>
<!-- Generator: Adobe Illustrator 28.4.1, SVG Export Plug-In . SVG Version: 6.00 Build 0)  -->
<svg version="1.1" id="Layer_1" xmlns="http://www.w3.org/2000/svg" xmlns:xlink="http://www.w3.org/1999/xlink" x="0px" y="0px"
	 viewBox="0 0 670 616" style="enable-background:new 0 0 670 616;" xml:space="preserve">
<style type="text/css">
	.st0{fill-rule:evenodd;clip-rule:evenodd;fill:#FFFFFF;}
	.st1{fill:#FFFFFF;}
</style>
<path class="st0" d="M0,93.1v93.1h45.8h45.8v-22.8v-22.8h9.4h9.4v22.8v22.8H156h45.8V93.1V0H156h-45.8v23.8v23.8h-9.4h-9.4V23.8V0
	H45.8H0V93.1z M492.2,3.1c-9.7,3.4-14.9,7.6-19.6,15.7c-3,5.2-3.5,16.2-4.1,86.6l-0.6,80.7h45.8h45.8l0.6-22.3l0.6-22.3h8.3h8.3
	l0.6,22.3l0.6,22.3h45.7h45.7v-79.8c0-78.8-0.1-79.9-4.7-88.5c-3.2-5.9-7.3-10-13-12.8C644.4,1.2,640,1,572.1,0.6
	C513.4,0.3,498.9,0.7,492.2,3.1z M578.4,63.4v13.9H569h-9.4V64.7c0-6.9,0.6-13.1,1.4-13.9c0.8-0.7,5-1.3,9.4-1.3h8V63.4z
	 M501.2,215.9c-13.6,2.2-21.5,6.7-27.2,15.3c-4.9,7.5-4.9,7.5-4.9,76.8c0,76.5,0.1,77,13.4,86c10.5,7.1,24.8,8.1,107.4,7.6l79-0.5
	l0.6-42.1l0.6-42.1h-45.8h-45.8v13.9v13.9H569h-9.4V309v-35.6h9.4h9.4v12.9V299h45.8H670l-0.6-42.1l-0.6-42.1l-79.1-0.3
	C546.3,214.5,506.5,215,501.2,215.9z M0,309v93.1l45.3-0.5l45.3-0.5l0.6-22.3l0.6-22.3h9.3h9.3v22.8v22.8l45.3-0.5l45.3-0.5V370
	c0-28.4-0.4-31.5-4.4-36.6c-6.2-7.9-16.2-13.9-25.9-15.5c-8.2-1.3-8.3-1.4-8.3-10.1V299h20h20l-0.7-29.2c-0.8-34.7-3.5-42-18.4-49.4
	c-9-4.5-9.3-4.5-96.1-4.5H0V309z M235.1,257.5V299h27h27l0.6,51l0.6,51l45.2,0.5l45.2,0.5l0.6-51l0.6-51l27.6-0.6l27.6-0.6v-41.5
	v-41.5H336H235.1V257.5z M110.3,278.3v12.9h-9.4h-9.4v-12.9v-12.9h9.4h9.4V278.3z M24.2,432.7c-10.6,3.6-19.6,12-22.1,20.8
	c-1.2,4-2.1,35.1-2.1,71.3c0,60.9,0.2,64.7,4.3,72.7c2.5,5,7.5,10.3,12,13c7.6,4.5,8,4.5,84.6,4.5c107.5,0,99.6,6.9,100.5-87.5
	c0.7-68.2-0.1-75.4-9.2-85.6c-9.6-10.9-18.5-12-93.3-11.9C47.8,429.9,30.4,430.6,24.2,432.7z M235.1,522.9V616l45.2-0.5l45.3-0.5
	l0.6-21.3l0.6-21.3h9.3h9.3v21.8V616l45.3-0.5l45.3-0.5v-29.7c0-26.2-0.5-30.5-4.2-36.6c-4.7-7.7-19.3-15.8-28.5-15.8
	c-5.5,0-5.8-0.5-5.8-8.8v-8.8l19.2-0.6l19.2-0.6l0.6-22.6c0.8-29.6-2.1-42.8-11.1-50.9c-11.1-10-17.9-10.7-108-10.7h-82.3V522.9z
	 M468.5,510.5c0.6,70.6,1.1,81.4,4.1,86.6c5.2,9,12.9,15,21.8,17c4.4,1,45.7,1.8,91.7,1.8l83.7,0v-26.7v-26.7H624h-45.9l0.6-8.4
	l0.6-8.4l45.2-0.5l45.3-0.5v-21.7v-21.7l-45.3-0.5l-45.2-0.5v-7.9v-7.9l45.2-0.5l45.3-0.5v-26.7v-26.7h-101h-101L468.5,510.5z
	 M344.9,493.6l0.6,13.4h-9.5h-9.5v-14v-14l8.8,0.6l8.8,0.6L344.9,493.6z M110.3,523.8v22.8h-9.4h-9.4v-22.8v-22.8h9.4h9.4V523.8z"/>
<path class="st1" d="M472.6,597.1c-3-5.2-3.5-16-4.1-86.6l-0.6-80.7h101h101v26.7v26.7l-45.3,0.5l-45.2,0.5v7.9v7.9l45.2,0.5
	l45.3,0.5v21.7v21.7l-45.3,0.5l-45.2,0.5l-0.6,8.4l-0.6,8.4H624h45.9v26.7v26.7l-83.7,0c-46.1,0-87.3-0.8-91.7-1.8
	C485.5,612.1,477.8,606.1,472.6,597.1z"/>
<path class="st1" d="M239.8,167.7c-3-5.2-3.5-16-4.1-86.6l-0.6-80.7h101h101V27v26.7l-45.3,0.5l-45.2,0.5v7.9v7.9l45.2,0.5l45.3,0.5
	v21.7v21.7l-45.3,0.5l-45.2,0.5l-0.6,8.4l-0.6,8.4h45.9h45.9v26.7v26.7l-83.7,0c-46.1,0-87.3-0.8-91.7-1.8
	C252.7,182.7,245,176.7,239.8,167.7z"/>
</svg>
