<svg width="436" height="436" viewBox="0 0 436 436" fill="none" xmlns="http://www.w3.org/2000/svg">
<g clip-path="url(#clip0_5662_2005)">
<path d="M161.972 202.317C164.523 199.766 164.523 195.631 161.972 193.08C159.421 190.53 155.286 190.53 152.735 193.08C150.185 195.631 150.185 199.766 152.735 202.317C155.286 204.868 159.421 204.868 161.972 202.317Z" fill="#6C44FC"/>
<path d="M184.567 184.362C188.399 180.53 188.399 174.317 184.567 170.485C180.735 166.653 174.522 166.653 170.69 170.485C166.858 174.317 166.858 180.53 170.69 184.362C174.522 188.195 180.735 188.195 184.567 184.362Z" fill="#6C44FC"/>
<path d="M202.523 161.766C205.073 159.216 205.073 155.08 202.523 152.53C199.972 149.979 195.837 149.979 193.286 152.53C190.736 155.08 190.736 159.216 193.286 161.766C195.837 164.317 199.972 164.317 202.523 161.766Z" fill="#6C44FC"/>
<path d="M161.972 242.867C164.523 240.317 164.523 236.181 161.972 233.631C159.421 231.08 155.286 231.08 152.735 233.631C150.185 236.181 150.185 240.317 152.735 242.867C155.286 245.418 159.421 245.418 161.972 242.867Z" fill="#6C44FC"/>
<path d="M184.567 224.913C188.399 221.081 188.399 214.868 184.567 211.035C180.735 207.203 174.522 207.203 170.69 211.035C166.858 214.868 166.858 221.081 170.69 224.913C174.522 228.745 180.735 228.745 184.567 224.913Z" fill="#6C44FC"/>
<path d="M204.842 204.638C208.674 200.806 208.674 194.593 204.842 190.761C201.01 186.928 194.797 186.928 190.965 190.761C187.133 194.593 187.133 200.806 190.965 204.638C194.797 208.47 201.01 208.47 204.842 204.638Z" fill="#6C44FC"/>
<path d="M225.118 184.362C228.95 180.53 228.95 174.317 225.118 170.485C221.286 166.653 215.073 166.653 211.24 170.485C207.408 174.317 207.408 180.53 211.24 184.362C215.072 188.195 221.286 188.195 225.118 184.362Z" fill="#6C44FC"/>
<path d="M243.073 161.766C245.624 159.216 245.624 155.08 243.073 152.53C240.522 149.979 236.387 149.979 233.837 152.53C231.286 155.08 231.286 159.216 233.837 161.766C236.387 164.317 240.522 164.317 243.073 161.766Z" fill="#6C44FC"/>
<path d="M184.568 265.464C188.4 261.631 188.4 255.418 184.568 251.586C180.736 247.754 174.523 247.754 170.691 251.586C166.858 255.418 166.858 261.631 170.691 265.464C174.523 269.296 180.736 269.296 184.568 265.464Z" fill="#6C44FC"/>
<path d="M204.842 245.188C208.674 241.356 208.674 235.143 204.842 231.311C201.01 227.479 194.797 227.479 190.965 231.311C187.133 235.143 187.133 241.356 190.965 245.188C194.797 249.02 201.01 249.02 204.842 245.188Z" fill="#6C44FC"/>
<path d="M227.416 227.211C232.517 222.109 232.517 213.839 227.416 208.738C222.315 203.636 214.044 203.636 208.943 208.738C203.842 213.839 203.842 222.109 208.943 227.211C214.044 232.312 222.315 232.312 227.416 227.211Z" fill="#6C44FC"/>
<path d="M245.393 204.638C249.225 200.806 249.225 194.593 245.393 190.761C241.561 186.928 235.348 186.928 231.516 190.761C227.684 194.593 227.684 200.806 231.516 204.638C235.348 208.47 241.561 208.47 245.393 204.638Z" fill="#6C44FC"/>
<path d="M265.668 184.363C269.501 180.531 269.501 174.318 265.668 170.486C261.836 166.654 255.623 166.654 251.791 170.486C247.959 174.318 247.959 180.531 251.791 184.363C255.623 188.195 261.836 188.195 265.668 184.363Z" fill="#6C44FC"/>
<path d="M202.523 283.418C205.073 280.867 205.073 276.732 202.523 274.182C199.972 271.631 195.837 271.631 193.286 274.182C190.736 276.732 190.736 280.867 193.286 283.418C195.837 285.969 199.972 285.969 202.523 283.418Z" fill="#6C44FC"/>
<path d="M225.118 265.464C228.95 261.631 228.95 255.418 225.118 251.586C221.286 247.754 215.073 247.754 211.24 251.586C207.408 255.418 207.408 261.631 211.24 265.464C215.072 269.296 221.286 269.296 225.118 265.464Z" fill="#6C44FC"/>
<path d="M245.393 245.189C249.225 241.357 249.225 235.143 245.393 231.311C241.561 227.479 235.348 227.479 231.516 231.311C227.684 235.143 227.684 241.357 231.516 245.189C235.348 249.021 241.561 249.021 245.393 245.189Z" fill="#6C44FC"/>
<path d="M265.668 224.913C269.501 221.081 269.501 214.868 265.668 211.035C261.836 207.203 255.623 207.203 251.791 211.035C247.959 214.868 247.959 221.081 251.791 224.913C255.623 228.745 261.836 228.745 265.668 224.913Z" fill="#6C44FC"/>
<path d="M283.624 202.317C286.174 199.766 286.174 195.631 283.624 193.08C281.073 190.53 276.938 190.53 274.387 193.08C271.837 195.631 271.837 199.766 274.387 202.317C276.938 204.868 281.073 204.868 283.624 202.317Z" fill="#6C44FC"/>
<path d="M243.073 283.418C245.623 280.867 245.623 276.732 243.073 274.181C240.522 271.63 236.387 271.63 233.836 274.181C231.285 276.732 231.285 280.867 233.836 283.418C236.387 285.968 240.522 285.968 243.073 283.418Z" fill="#6C44FC"/>
<path d="M265.668 265.464C269.501 261.631 269.501 255.418 265.668 251.586C261.836 247.754 255.623 247.754 251.791 251.586C247.959 255.418 247.959 261.631 251.791 265.464C255.623 269.296 261.836 269.296 265.668 265.464Z" fill="#6C44FC"/>
<path d="M283.623 242.867C286.174 240.316 286.174 236.181 283.623 233.63C281.073 231.08 276.937 231.08 274.387 233.63C271.836 236.181 271.836 240.316 274.387 242.867C276.937 245.417 281.073 245.417 283.623 242.867Z" fill="#6C44FC"/>
<path d="M27.9302 226.016C33.0314 220.915 33.0314 212.644 27.9302 207.543C22.829 202.442 14.5584 202.442 9.4572 207.543C4.35602 212.644 4.35602 220.915 9.4572 226.016C14.5584 231.117 22.829 231.117 27.9302 226.016Z" fill="#6C44FC"/>
<path d="M48.2056 205.741C53.3068 200.64 53.3068 192.37 48.2056 187.268C43.1044 182.167 34.8338 182.167 29.7326 187.268C24.6314 192.37 24.6314 200.64 29.7326 205.741C34.8338 210.843 43.1044 210.843 48.2056 205.741Z" fill="#6C44FC"/>
<path d="M66.1831 183.168C70.0152 179.336 70.0152 173.122 66.1831 169.29C62.351 165.458 56.1379 165.458 52.3058 169.29C48.4737 173.122 48.4737 179.336 52.3058 183.168C56.1379 187 62.351 187 66.1831 183.168Z" fill="#6C44FC"/>
<path d="M86.4575 162.892C90.2896 159.06 90.2896 152.847 86.4575 149.015C82.6254 145.183 76.4123 145.183 72.5802 149.015C68.7481 152.847 68.7481 159.06 72.5802 162.892C76.4123 166.724 82.6254 166.724 86.4575 162.892Z" fill="#6C44FC"/>
<path d="M48.2056 246.292C53.3068 241.19 53.3068 232.92 48.2056 227.819C43.1044 222.718 34.8338 222.718 29.7326 227.819C24.6314 232.92 24.6314 241.19 29.7326 246.292C34.8338 251.393 43.1044 251.393 48.2056 246.292Z" fill="#6C44FC"/>
<path d="M66.1826 223.718C70.0147 219.886 70.0147 213.673 66.1826 209.841C62.3505 206.009 56.1374 206.009 52.3053 209.841C48.4732 213.673 48.4732 219.886 52.3053 223.718C56.1374 227.55 62.3505 227.55 66.1826 223.718Z" fill="#6C44FC"/>
<path d="M86.458 203.443C90.2901 199.611 90.2901 193.398 86.458 189.566C82.6259 185.734 76.4128 185.734 72.5807 189.566C68.7486 193.398 68.7486 199.611 72.5807 203.443C76.4128 207.275 82.6259 207.275 86.458 203.443Z" fill="#6C44FC"/>
<path d="M104.412 180.848C106.963 178.298 106.963 174.162 104.412 171.612C101.862 169.061 97.7265 169.061 95.1759 171.612C92.6253 174.162 92.6253 178.298 95.1759 180.848C97.7265 183.399 101.862 183.399 104.412 180.848Z" fill="#6C44FC"/>
<path d="M66.1831 264.268C70.0152 260.436 70.0152 254.223 66.1831 250.391C62.351 246.559 56.1379 246.559 52.3058 250.391C48.4737 254.223 48.4737 260.436 52.3058 264.268C56.1379 268.1 62.351 268.1 66.1831 264.268Z" fill="#6C44FC"/>
<path d="M84.1375 241.674C86.6881 239.123 86.6881 234.988 84.1375 232.437C81.5869 229.887 77.4516 229.887 74.901 232.437C72.3504 234.988 72.3504 239.123 74.901 241.674C77.4516 244.225 81.5869 244.225 84.1375 241.674Z" fill="#6C44FC"/>
<path d="M86.4585 284.544C90.2906 280.712 90.2906 274.498 86.4585 270.666C82.6264 266.834 76.4133 266.834 72.5812 270.666C68.7491 274.498 68.7491 280.712 72.5812 284.544C76.4133 288.376 82.6264 288.376 86.4585 284.544Z" fill="#6C44FC"/>
<path d="M104.413 261.949C106.963 259.399 106.963 255.263 104.413 252.713C101.862 250.162 97.7269 250.162 95.1764 252.713C92.6258 255.263 92.6258 259.399 95.1764 261.949C97.7269 264.5 101.862 264.5 104.413 261.949Z" fill="#6C44FC"/>
<path d="M226.155 27.7917C231.256 22.6905 231.256 14.4198 226.155 9.31867C221.054 4.21749 212.783 4.2175 207.682 9.31868C202.581 14.4199 202.581 22.6905 207.682 27.7917C212.783 32.8929 221.054 32.8929 226.155 27.7917Z" fill="#6C44FC"/>
<path d="M246.43 48.0671C251.531 42.9659 251.531 34.6952 246.43 29.5941C241.329 24.4929 233.058 24.4929 227.957 29.5941C222.856 34.6952 222.856 42.9659 227.957 48.0671C233.058 53.1682 241.329 53.1682 246.43 48.0671Z" fill="#6C44FC"/>
<path d="M264.406 66.0461C268.238 62.214 268.238 56.0009 264.406 52.1688C260.574 48.3367 254.361 48.3367 250.528 52.1688C246.696 56.0009 246.696 62.214 250.528 66.0461C254.361 69.8782 260.574 69.8782 264.406 66.0461Z" fill="#6C44FC"/>
<path d="M284.682 86.321C288.514 82.4889 288.514 76.2758 284.682 72.4437C280.85 68.6116 274.636 68.6116 270.804 72.4437C266.972 76.2758 266.972 82.4889 270.804 86.321C274.636 90.1531 280.85 90.1531 284.682 86.321Z" fill="#6C44FC"/>
<path d="M205.879 48.0671C210.98 42.9659 210.98 34.6952 205.879 29.5941C200.778 24.4929 192.507 24.4929 187.406 29.5941C182.305 34.6952 182.305 42.9659 187.406 48.0671C192.507 53.1682 200.778 53.1682 205.879 48.0671Z" fill="#6C44FC"/>
<path d="M223.855 66.0456C227.688 62.2135 227.688 56.0004 223.855 52.1683C220.023 48.3362 213.81 48.3362 209.978 52.1683C206.146 56.0004 206.146 62.2135 209.978 66.0456C213.81 69.8777 220.023 69.8777 223.855 66.0456Z" fill="#6C44FC"/>
<path d="M241.811 83.9991C244.362 81.4485 244.362 77.3132 241.811 74.7626C239.261 72.212 235.125 72.212 232.575 74.7626C230.024 77.3132 230.024 81.4485 232.575 83.9991C235.125 86.5497 239.261 86.5497 241.811 83.9991Z" fill="#6C44FC"/>
<path d="M262.087 104.274C264.638 101.723 264.638 97.5881 262.087 95.0375C259.537 92.4869 255.401 92.4869 252.851 95.0375C250.3 97.5881 250.3 101.723 252.851 104.274C255.401 106.825 259.537 106.825 262.087 104.274Z" fill="#6C44FC"/>
<path d="M183.306 66.0456C187.138 62.2135 187.138 56.0004 183.306 52.1683C179.474 48.3362 173.26 48.3362 169.428 52.1683C165.596 56.0004 165.596 62.2135 169.428 66.0456C173.26 69.8777 179.474 69.8777 183.306 66.0456Z" fill="#6C44FC"/>
<path d="M203.581 86.321C207.413 82.4889 207.413 76.2758 203.581 72.4437C199.749 68.6116 193.536 68.6116 189.704 72.4437C185.872 76.2758 185.872 82.4889 189.704 86.321C193.536 90.1531 199.749 90.1531 203.581 86.321Z" fill="#6C44FC"/>
<path d="M163.03 86.321C166.862 82.4889 166.862 76.2758 163.03 72.4437C159.198 68.6116 152.985 68.6116 149.153 72.4437C145.321 76.2758 145.321 82.4889 149.153 86.321C152.985 90.1531 159.198 90.1531 163.03 86.321Z" fill="#6C44FC"/>
<path d="M180.986 104.275C183.536 101.725 183.536 97.5896 180.986 95.039C178.435 92.4884 174.3 92.4884 171.749 95.039C169.199 97.5896 169.199 101.725 171.749 104.275C174.3 106.826 178.435 106.826 180.986 104.275Z" fill="#6C44FC"/>
<path d="M426.069 227.706C431.17 222.605 431.17 214.334 426.069 209.233C420.968 204.132 412.697 204.132 407.596 209.233C402.495 214.334 402.495 222.605 407.596 227.706C412.697 232.807 420.968 232.807 426.069 227.706Z" fill="#6C44FC"/>
<path d="M405.793 247.981C410.894 242.88 410.894 234.609 405.793 229.508C400.692 224.407 392.421 224.407 387.32 229.508C382.219 234.609 382.219 242.88 387.32 247.981C392.421 253.082 400.692 253.082 405.793 247.981Z" fill="#6C44FC"/>
<path d="M383.219 265.959C387.051 262.127 387.051 255.914 383.219 252.082C379.387 248.25 373.174 248.25 369.341 252.082C365.509 255.914 365.509 262.127 369.341 265.959C373.174 269.791 379.387 269.791 383.219 265.959Z" fill="#6C44FC"/>
<path d="M362.945 286.234C366.777 282.402 366.777 276.189 362.945 272.357C359.113 268.525 352.9 268.525 349.068 272.357C345.235 276.189 345.235 282.402 349.068 286.234C352.9 290.066 359.113 290.066 362.945 286.234Z" fill="#6C44FC"/>
<path d="M405.793 207.43C410.894 202.329 410.894 194.059 405.793 188.957C400.692 183.856 392.421 183.856 387.32 188.957C382.219 194.059 382.219 202.329 387.32 207.43C392.421 212.532 400.692 212.532 405.793 207.43Z" fill="#6C44FC"/>
<path d="M383.219 225.409C387.051 221.577 387.051 215.364 383.219 211.532C379.387 207.699 373.174 207.699 369.342 211.532C365.51 215.364 365.51 221.577 369.342 225.409C373.174 229.241 379.387 229.241 383.219 225.409Z" fill="#6C44FC"/>
<path d="M362.944 245.684C366.776 241.852 366.776 235.639 362.944 231.807C359.112 227.975 352.899 227.975 349.067 231.807C345.235 235.639 345.235 241.852 349.067 245.684C352.899 249.516 359.112 249.516 362.944 245.684Z" fill="#6C44FC"/>
<path d="M340.349 263.638C342.899 261.088 342.899 256.952 340.349 254.402C337.798 251.851 333.663 251.851 331.112 254.402C328.562 256.952 328.562 261.088 331.112 263.638C333.663 266.189 337.798 266.189 340.349 263.638Z" fill="#6C44FC"/>
<path d="M383.219 184.859C387.051 181.026 387.051 174.813 383.219 170.981C379.387 167.149 373.174 167.149 369.341 170.981C365.509 174.813 365.509 181.026 369.341 184.859C373.174 188.691 379.387 188.691 383.219 184.859Z" fill="#6C44FC"/>
<path d="M360.624 202.812C363.175 200.262 363.175 196.126 360.624 193.576C358.074 191.025 353.938 191.025 351.388 193.576C348.837 196.126 348.837 200.261 351.388 202.812C353.938 205.363 358.074 205.363 360.624 202.812Z" fill="#6C44FC"/>
<path d="M362.943 164.583C366.775 160.751 366.775 154.538 362.943 150.706C359.111 146.874 352.898 146.874 349.066 150.706C345.234 154.538 345.234 160.751 349.066 164.583C352.898 168.415 359.111 168.415 362.943 164.583Z" fill="#6C44FC"/>
<path d="M340.349 182.537C342.9 179.986 342.9 175.851 340.349 173.3C337.799 170.75 333.663 170.75 331.113 173.3C328.562 175.851 328.562 179.986 331.113 182.537C333.663 185.087 337.799 185.087 340.349 182.537Z" fill="#6C44FC"/>
<path d="M227.844 425.93C232.945 420.829 232.945 412.559 227.844 407.457C222.743 402.356 214.472 402.356 209.371 407.457C204.27 412.559 204.27 420.829 209.371 425.93C214.472 431.032 222.743 431.032 227.844 425.93Z" fill="#6C44FC"/>
<path d="M207.569 405.655C212.67 400.554 212.67 392.283 207.569 387.182C202.468 382.081 194.197 382.081 189.096 387.182C183.995 392.283 183.995 400.554 189.096 405.655C194.197 410.756 202.468 410.756 207.569 405.655Z" fill="#6C44FC"/>
<path d="M184.997 383.081C188.829 379.249 188.829 373.036 184.997 369.204C181.164 365.372 174.951 365.372 171.119 369.204C167.287 373.036 167.287 379.249 171.119 383.081C174.951 386.913 181.164 386.913 184.997 383.081Z" fill="#6C44FC"/>
<path d="M164.721 362.806C168.553 358.974 168.553 352.761 164.721 348.929C160.889 345.097 154.676 345.097 150.844 348.929C147.012 352.761 147.012 358.974 150.844 362.806C154.676 366.638 160.889 366.638 164.721 362.806Z" fill="#6C44FC"/>
<path d="M248.119 405.655C253.22 400.554 253.22 392.284 248.119 387.182C243.017 382.081 234.747 382.081 229.646 387.182C224.545 392.284 224.544 400.554 229.646 405.655C234.747 410.757 243.018 410.757 248.119 405.655Z" fill="#6C44FC"/>
<path d="M225.547 383.082C229.379 379.25 229.379 373.037 225.547 369.204C221.715 365.372 215.502 365.372 211.67 369.204C207.837 373.037 207.837 379.25 211.67 383.082C215.502 386.914 221.715 386.914 225.547 383.082Z" fill="#6C44FC"/>
<path d="M202.95 360.487C205.501 357.936 205.501 353.801 202.95 351.25C200.4 348.7 196.265 348.7 193.714 351.25C191.163 353.801 191.163 357.936 193.714 360.487C196.265 363.037 200.4 363.037 202.95 360.487Z" fill="#6C44FC"/>
<path d="M182.675 340.212C185.225 337.661 185.225 333.526 182.675 330.975C180.124 328.424 175.989 328.424 173.438 330.975C170.887 333.526 170.887 337.661 173.438 340.212C175.989 342.762 180.124 342.762 182.675 340.212Z" fill="#6C44FC"/>
<path d="M266.097 383.082C269.929 379.25 269.929 373.037 266.097 369.204C262.265 365.372 256.052 365.372 252.219 369.204C248.387 373.037 248.387 379.25 252.219 383.082C256.051 386.914 262.265 386.914 266.097 383.082Z" fill="#6C44FC"/>
<path d="M245.822 362.806C249.654 358.974 249.654 352.761 245.822 348.929C241.99 345.097 235.777 345.097 231.944 348.929C228.112 352.761 228.112 358.974 231.944 362.806C235.777 366.638 241.99 366.638 245.822 362.806Z" fill="#6C44FC"/>
<path d="M286.373 362.806C290.205 358.974 290.205 352.761 286.373 348.929C282.54 345.097 276.327 345.097 272.495 348.929C268.663 352.761 268.663 358.974 272.495 362.806C276.327 366.638 282.54 366.638 286.373 362.806Z" fill="#6C44FC"/>
<path d="M263.776 340.212C266.326 337.661 266.326 333.526 263.776 330.975C261.225 328.424 257.09 328.424 254.539 330.975C251.989 333.526 251.989 337.661 254.539 340.212C257.09 342.762 261.225 342.762 263.776 340.212Z" fill="#6C44FC"/>
</g>
<defs>
<clipPath id="clip0_5662_2005">
<rect width="306.456" height="308.846" fill="white" transform="translate(0.220703 216.78) rotate(-45)"/>
</clipPath>
</defs>
</svg>
