<svg width="25" height="43" viewBox="0 0 25 43" fill="none" xmlns="http://www.w3.org/2000/svg">
<path d="M0 4.15853C0 2.17028 1.6118 0.558485 3.60005 0.558485C5.5883 0.558485 7.20009 2.17028 7.20009 4.15853C7.20009 6.14678 5.5883 7.75858 3.60005 7.75858C1.6118 7.75858 0 6.14678 0 4.15853Z" fill="white"/>
<path d="M0 39.2799C0 37.2917 1.6118 35.6799 3.60005 35.6799C5.5883 35.6799 7.20009 37.2917 7.20009 39.2799C7.20009 41.2682 5.5883 42.88 3.60005 42.88C1.6118 42.88 0 41.2682 0 39.2799Z" fill="white"/>
<path d="M8.7795 12.9387C8.7795 10.9504 10.3913 9.33864 12.3795 9.33864C14.3678 9.33864 15.9796 10.9504 15.9796 12.9387C15.9796 14.9269 14.3678 16.5387 12.3795 16.5387C10.3913 16.5387 8.7795 14.9269 8.7795 12.9387Z" fill="white"/>
<path d="M8.7795 30.4998C8.7795 28.5116 10.3913 26.8998 12.3795 26.8998C14.3678 26.8998 15.9796 28.5116 15.9796 30.4998C15.9796 32.4881 14.3678 34.0999 12.3795 34.0999C10.3913 34.0999 8.7795 32.4881 8.7795 30.4998Z" fill="white"/>
<path d="M17.5603 21.7203C17.5603 19.7321 19.1721 18.1203 21.1603 18.1203C23.1486 18.1203 24.7604 19.7321 24.7604 21.7203C24.7604 23.7086 23.1486 25.3204 21.1603 25.3204C19.1721 25.3204 17.5603 23.7086 17.5603 21.7203Z" fill="white"/>
</svg>
