
<svg width="40" height="40" viewBox="0 0 40 40" fill="none" xmlns="http://www.w3.org/2000/svg">
<g clip-path="url(#clip0_6718_85202)">
<mask id="mask0_6718_85202" style="mask-type:luminance" maskUnits="userSpaceOnUse" x="0" y="0" width="40" height="40">
<path d="M40 0H0V40H40V0Z" fill="white"/>
</mask>
<g mask="url(#mask0_6718_85202)">
<path d="M40 0H0V40H40V0Z" fill="#262626"/>
<path fill-rule="evenodd" clip-rule="evenodd" d="M14.9772 25.4613H21.0926V28.9998H8.40027V10.9998H12.7849V14.5126V18.2819V21.487V25.4613H14.9772ZM29.5552 19.769C30.5988 19.9921 31.4347 20.5075 32.068 21.3203C32.7013 22.1331 33.0167 23.0588 33.0167 24.1024C33.0167 25.6075 32.4911 26.7998 31.4398 27.6793C30.3885 28.5588 28.9218 28.9998 27.0424 28.9998H24.6005V25.4613H26.2731C27.009 25.4613 27.5757 25.2947 27.9783 24.9613C28.3808 24.628 28.5808 24.146 28.5808 23.5126C28.5808 22.8793 28.3706 22.3844 27.9526 22.0254C27.5347 21.6665 26.9578 21.487 26.2219 21.487H16.2929V18.2819H25.9142C26.6321 18.2819 27.1834 18.1229 27.568 17.8075C27.9526 17.4921 28.1449 17.0254 28.1449 16.4101C28.1449 15.7947 27.9526 15.3254 27.568 14.9998C27.1834 14.6742 26.6321 14.5126 25.9142 14.5126H16.2929V10.9998H26.7603C28.5885 10.9998 30.0218 11.4177 31.0552 12.2562C32.0885 13.0947 32.6065 14.2306 32.6065 15.6665C32.6065 16.7254 32.3295 17.6075 31.7731 18.3075C31.2167 19.0075 30.4783 19.4947 29.5552 19.769Z" fill="#FEF6EE"/>
</g>
</g>
<defs>
<clipPath id="clip0_6718_85202">
<rect width="40" height="40" fill="white"/>
</clipPath>
</defs>
</svg>
