
<svg width="32" height="40" viewBox="0 0 32 40" fill="none" xmlns="http://www.w3.org/2000/svg">
<mask id="mask0_6718_85211" style="mask-type:luminance" maskUnits="userSpaceOnUse" x="0" y="0" width="32" height="40">
<path d="M31.875 0H0V40H31.875V0Z" fill="white"/>
</mask>
<g mask="url(#mask0_6718_85211)">
<path d="M22.4837 3.60101L30.829 11.731C31.5394 12.4216 31.889 13.1203 31.878 13.8245C31.867 14.5286 31.5614 15.1704 30.9639 15.7526C30.3389 16.362 29.6644 16.6708 28.943 16.6843C28.2216 16.6951 27.5057 16.3539 26.7954 15.6633L18.2602 7.34914C17.291 6.40402 16.3549 5.73507 15.4545 5.34238C14.5542 4.94969 13.607 4.88741 12.6159 5.15822C11.6219 5.42634 10.5564 6.11692 9.4138 7.22727C7.83892 8.76283 7.08723 10.2036 7.16436 11.5496C7.24142 12.8955 8.02336 14.293 9.50742 15.7365L18.1115 24.121C18.8301 24.8197 19.1825 25.5184 19.1715 26.2117C19.1605 26.9077 18.8521 27.5496 18.2436 28.1426C17.6379 28.733 16.9689 29.0418 16.242 29.0661C15.5151 29.0905 14.791 28.752 14.0751 28.0533L5.72986 19.9233C4.37248 18.6017 3.3923 17.3505 2.78933 16.1697C2.18636 14.989 1.96059 13.6538 2.11753 12.1643C2.25795 10.8888 2.67369 9.65383 3.36753 8.45683C4.0586 7.25977 5.0498 6.03568 6.33561 4.78179C7.86642 3.28957 9.32842 2.14672 10.7216 1.35051C12.112 0.554299 13.4584 0.112864 14.7579 0.0207852C16.0602 -0.0712933 17.3433 0.183277 18.6125 0.784493C19.8819 1.38571 21.1704 2.32275 22.481 3.60101H22.4837Z" fill="#262626"/>
<path d="M9.39175 36.4054L1.04926 28.2754C0.338909 27.582 -0.010761 26.886 0.00025221 26.1819C0.0112655 25.4778 0.316882 24.836 0.914348 24.2537C1.53935 23.6444 2.21391 23.3356 2.93527 23.3221C3.65664 23.3112 4.3725 23.6497 5.08285 24.343L13.6153 32.6572C14.5872 33.6024 15.5206 34.2713 16.4209 34.664C17.3213 35.0567 18.2684 35.1162 19.2624 34.8481C20.2563 34.58 21.3218 33.8894 22.4644 32.7764C24.0394 31.2408 24.791 29.8 24.7139 28.4541C24.6368 27.1081 23.8549 25.7107 22.3709 24.2645L17.7866 19.8366C17.068 19.1379 16.7156 18.4392 16.7266 17.7459C16.7376 17.0499 17.0459 16.408 17.6544 15.815C18.2602 15.2245 18.9292 14.9159 19.6561 14.8915C20.3829 14.8671 21.1071 15.2056 21.8229 15.9044L26.1456 20.0777C27.503 21.3992 28.4832 22.6504 29.0862 23.8312C29.6891 25.012 29.9149 26.3471 29.7579 27.8366C29.6176 29.1122 29.2018 30.3471 28.5079 31.5442C27.8169 32.7412 26.8257 33.9653 25.5399 35.2192C24.0091 36.7114 22.5471 37.8542 21.1539 38.6504C19.7607 39.4467 18.4144 39.8908 17.1121 39.9829C15.8097 40.075 14.5267 39.8204 13.2574 39.2192C11.9881 38.6179 10.6996 37.6809 9.389 36.4027L9.39175 36.4054Z" fill="#262626"/>
<path d="M14.5952 15.4279C16.2876 15.4279 17.6596 14.0784 17.6596 12.4136C17.6596 10.7489 16.2876 9.39941 14.5952 9.39941C12.9028 9.39941 11.5308 10.7489 11.5308 12.4136C11.5308 14.0784 12.9028 15.4279 14.5952 15.4279Z" fill="#262626"/>
</g>
</svg>
