
<svg width="43" height="36" viewBox="0 0 43 36" fill="none" xmlns="http://www.w3.org/2000/svg">
<path d="M35.1453 23.0466L21.7769 0.371133C21.7122 0.259165 21.6184 0.165896 21.5051 0.100738C21.3919 0.0355801 21.263 0.000837134 21.1316 1.49398e-05C21.0002 -0.000807255 20.871 0.0323205 20.7569 0.0960555C20.6428 0.15979 20.5478 0.251878 20.4817 0.363027L16.4779 7.15757C16.3468 7.37994 16.2778 7.63229 16.2778 7.88908C16.2778 8.14588 16.3468 8.39823 16.4779 8.6206L25.195 23.4134C25.3262 23.636 25.5151 23.8208 25.7425 23.9492C25.9699 24.0777 26.2278 24.1452 26.4903 24.1449H34.4976C34.6287 24.1445 34.7574 24.1105 34.8709 24.0461C34.9842 23.9818 35.0785 23.8893 35.144 23.7782C35.2096 23.667 35.2442 23.5409 35.2444 23.4126C35.2446 23.2842 35.2104 23.158 35.1453 23.0466Z" fill="#262626"/>
<path d="M0.103084 34.8976L13.4714 12.2222C13.537 12.1111 13.6314 12.0189 13.7449 11.9548C13.8583 11.8907 13.987 11.8569 14.118 11.8569C14.2491 11.8569 14.3778 11.8907 14.4913 11.9548C14.6048 12.0189 14.699 12.1111 14.7646 12.2222L18.7704 19.0106C18.9015 19.2334 18.9705 19.4861 18.9705 19.7432C18.9705 20.0003 18.9015 20.253 18.7704 20.4758L10.0533 35.2685C9.92258 35.4911 9.73414 35.676 9.50711 35.8044C9.28007 35.9329 9.0224 36.0004 8.76013 36H0.750707C0.618767 36.0006 0.489011 35.9671 0.374627 35.9027C0.260242 35.8382 0.165325 35.7453 0.0995227 35.6333C0.0337208 35.5213 -0.000619475 35.3942 8.45955e-06 35.265C0.000636394 35.1358 0.0361965 35.0091 0.103084 34.8976Z" fill="#262626"/>
<path d="M14.763 35.9951H41.4998C41.6309 35.995 41.7597 35.9611 41.8733 35.8967C41.9868 35.8324 42.081 35.7399 42.1464 35.6285C42.2118 35.5172 42.2462 35.391 42.2461 35.2625C42.2458 35.1341 42.2111 35.0079 42.1454 34.8968L38.1458 28.1043C38.0146 27.8817 37.8258 27.6968 37.5984 27.5684C37.371 27.44 37.113 27.3725 36.8505 27.3727H19.4164C19.1539 27.3725 18.896 27.44 18.6686 27.5684C18.4412 27.6968 18.2524 27.8817 18.1212 28.1043L14.1175 34.8968C14.0517 35.0079 14.017 35.1341 14.0168 35.2625C14.0166 35.391 14.0509 35.5172 14.1164 35.6285C14.1818 35.7399 14.2761 35.8324 14.3896 35.8967C14.5031 35.9611 14.6319 35.995 14.763 35.9951Z" fill="#262626"/>
</svg>
