
<svg width="40" height="40" viewBox="0 0 40 40" fill="none" xmlns="http://www.w3.org/2000/svg">
<path d="M36.1049 19.9985C36.1049 16.8684 35.2056 13.7849 33.4828 11.1629L39.8249 4.78575L35.0713 0L28.7263 6.37711C23.3828 2.87028 16.4684 2.87028 11.125 6.37711L4.76829 0L6.10352e-05 4.78575L6.34212 11.1629C2.8499 16.5384 2.8499 23.4762 6.34212 28.8517L6.10352e-05 35.2142L4.76829 40L11.1104 33.6229C16.4538 37.1297 23.3682 37.1297 28.7117 33.6229L35.0537 40L39.822 35.2142L33.4799 28.8371C35.2027 26.2151 36.1195 23.1491 36.102 20.0015L36.1049 19.9985ZM10.4739 19.9985C10.4739 16.1296 12.801 12.6374 16.375 11.195C19.949 9.75254 24.0456 10.6227 26.7174 13.4083C29.3891 16.1968 30.1103 20.3431 28.5219 23.8674L22.2937 17.6042L17.5401 22.39L23.7682 28.6532C20.8512 29.9642 17.4583 29.719 14.772 27.9641C12.1002 26.2092 10.4768 23.2075 10.4768 19.9985H10.4739Z" fill="#262626"/>
</svg>
