
<svg width="40" height="40" viewBox="0 0 40 40" fill="none" xmlns="http://www.w3.org/2000/svg">
<path d="M38.3187 24.2366L38.2682 24.2897C38.2446 24.3141 38.2207 24.3384 38.1965 24.3624L24.3437 38.193C21.9305 40.6024 18.018 40.6024 15.6048 38.193L11.7793 34.3739C11.5081 34.1042 11.5075 33.6656 11.7775 33.3947C11.8569 33.315 11.9546 33.2558 12.062 33.2223C16.1623 31.9565 19.494 30.4955 22.0569 28.8391C28.1605 24.8944 33.5812 23.3602 38.3187 24.2366ZM35.4145 12.8595C40.5291 14.4711 39.9322 18.2336 40 19.7169C34.3987 16.7798 27.6603 17.8564 19.7846 22.9464C13.9145 26.7402 8.99733 28.3043 5.03317 27.6388C1.069 26.9733 0.177277 22.132 0 20.8455C4.3559 23.0479 10.1934 21.7838 17.5124 17.0536C24.3326 12.6459 30.2999 11.2478 35.4145 12.8595ZM24.3437 1.80697L27.9382 5.39519C28.2089 5.66533 28.2093 6.10396 27.9392 6.37473C27.8428 6.47134 27.7201 6.5373 27.5864 6.56425C22.3827 7.61255 18.2212 9.14478 15.1016 11.1609C9.756 14.6158 5.2006 16.2216 1.43552 15.9784L1.43593 15.9773L15.6048 1.80697C18.018 -0.602324 21.9305 -0.602324 24.3437 1.80697Z" fill="#262626"/>
</svg>
