
<svg width="41" height="40" viewBox="0 0 41 40" fill="none" xmlns="http://www.w3.org/2000/svg">
<path d="M17.0849 15.62C16.1073 15.7791 15.4438 16.7009 15.603 17.6787C15.7625 18.6565 16.6842 19.32 17.662 19.1605L17.0849 15.62ZM36.9636 23.1558C36.9636 24.1464 37.7667 24.9496 38.7573 24.9496C39.7479 24.9496 40.551 24.1464 40.551 23.1558H36.9636ZM3.23503 19.6982C2.63263 18.9119 1.50676 18.7626 0.720301 19.365C-0.0661561 19.9673 -0.215371 21.0933 0.387006 21.8796L3.23503 19.6982ZM19.5896 25.5756L20.3524 27.1991C20.892 26.9455 21.2705 26.4401 21.362 25.8507C21.4535 25.2614 21.2461 24.6652 20.8086 24.2599L19.5896 25.5756ZM18.8454 17.8706C19.0609 16.9036 18.4517 15.9451 17.4847 15.7298C16.5178 15.5143 15.5593 16.1235 15.3438 17.0904L18.8454 17.8706ZM37.2423 20C37.2423 29.0265 29.7468 36.4126 20.4149 36.4126V40C31.6515 40 40.8297 31.0836 40.8297 20H37.2423ZM20.4149 36.4126C11.0831 36.4126 3.58757 29.0265 3.58757 20H0.00012207C0.00012207 31.0836 9.17837 40 20.4149 40V36.4126ZM3.58757 20C3.58757 10.9735 11.0831 3.58744 20.4149 3.58744V0C9.17837 0 0.00012207 8.91637 0.00012207 20H3.58757ZM20.4149 3.58744C29.7468 3.58744 37.2423 10.9735 37.2423 20H40.8297C40.8297 8.91637 31.6515 0 20.4149 0V3.58744ZM17.662 19.1605C20.1028 18.7628 25.1268 17.5336 29.6795 17.6906C31.9443 17.7686 33.7999 18.1922 35.0456 19.0276C36.1638 19.7774 36.9636 20.9684 36.9636 23.1558H40.551C40.551 19.8738 39.2364 17.5184 37.0436 16.048C34.9779 14.6628 32.3257 14.1922 29.803 14.1052C24.7811 13.9321 19.1134 15.2892 17.0849 15.62L17.662 19.1605ZM0.387006 21.8796C4.28039 26.9628 8.83331 28.5807 12.6896 28.7327C16.4553 28.8814 19.4284 27.6332 20.3524 27.1991L18.8268 23.9522C18.1454 24.2722 15.7784 25.2646 12.8311 25.1482C9.97389 25.0354 6.4401 23.8827 3.23503 19.6982L0.387006 21.8796ZM20.8086 24.2599C19.8187 23.3426 19.0557 22.422 18.8376 21.5742L15.3634 22.4682C15.8634 24.4117 17.3497 25.9457 18.3705 26.8913L20.8086 24.2599ZM18.8376 21.5742C18.558 20.4872 18.5434 19.2262 18.8454 17.8706L15.3438 17.0904C14.9353 18.924 14.9248 20.7637 15.3634 22.4682L18.8376 21.5742Z" fill="#262626"/>
</svg>
