
<svg width="44" height="40" viewBox="0 0 44 40" fill="none" xmlns="http://www.w3.org/2000/svg">
<g clip-path="url(#clip0_6718_85096)">
<path fill-rule="evenodd" clip-rule="evenodd" d="M33.2568 16.9385C33.7267 17.9825 33.8493 18.9042 33.3795 19.539C32.9299 20.1731 32.0104 20.358 30.8861 20.2554C28.8619 20.0914 26.2047 18.9859 23.6291 17.1432C21.0536 15.2998 19.1527 13.1295 18.3553 11.2658C17.9057 10.2218 17.783 9.30011 18.2326 8.66536C18.6828 8.03062 19.6023 7.84628 20.7469 7.92859C22.7496 8.11293 25.4282 9.19808 27.9829 11.0415C30.5585 12.8843 32.4594 15.0749 33.2568 16.9385Z" fill="#262626"/>
<path fill-rule="evenodd" clip-rule="evenodd" d="M42.615 19.8713C42.5033 19.5473 42.3748 19.218 42.2302 18.8847C40.5544 14.9939 36.6091 10.3866 31.2329 6.51672C25.8369 2.66651 20.2361 0.393614 16.005 0.0452283C12.9387 -0.200554 10.568 0.557082 9.34119 2.27698L0.899197 14.0722C-0.326971 15.7921 -0.286465 18.2899 0.939703 21.1159C2.06113 23.6867 4.1547 26.57 7.00343 29.3415C8.54843 30.8388 10.2046 32.2173 11.9573 33.4636C17.333 37.3335 22.9546 39.5861 27.1858 39.9548C30.2312 40.2006 32.6228 39.4429 33.8495 37.723L42.2713 25.9278C43.3528 24.4108 43.4488 22.2891 42.6156 19.8707L42.615 19.8713ZM41.1059 25.0681L41.0445 25.1701C40.0434 26.4605 38.142 26.89 35.7296 26.7063C31.7033 26.3788 26.3681 24.187 21.2378 20.5014C16.1068 16.8158 12.3253 12.4543 10.7103 8.72761C9.74972 6.51614 9.54487 4.57075 10.465 3.19866L10.5066 3.11692C11.4874 1.74542 13.4294 1.29443 15.8823 1.49906C19.9092 1.82657 25.2438 4.01774 30.3747 7.70332C35.5253 11.3889 39.3074 15.751 40.9224 19.4574C41.883 21.71 42.0873 23.7163 41.1059 25.0681Z" fill="#262626"/>
</g>
<defs>
<clipPath id="clip0_6718_85096">
<rect width="43.2" height="40" fill="white"/>
</clipPath>
</defs>
</svg>
