
<svg width="23" height="40" viewBox="0 0 23 40" fill="none" xmlns="http://www.w3.org/2000/svg">
<path d="M11.3819 9.94512e-07C9.87956 0.00749344 8.39341 0.312433 7.00833 0.89746C5.62326 1.48249 4.36637 2.33618 3.30946 3.40967C2.25253 4.48314 1.41629 5.75544 0.84847 7.15389C0.280653 8.55234 -0.00759939 10.0496 0.000152286 11.56V15.3784H9.24787V9.84636C9.24777 9.58656 9.29858 9.32929 9.3974 9.08924C9.49622 8.84918 9.64112 8.63107 9.82381 8.44734C10.0065 8.26362 10.2234 8.11795 10.4622 8.01854C10.7009 7.91912 10.9568 7.868 11.2152 7.86805H11.5486C11.807 7.868 12.0629 7.91913 12.3016 8.01854C12.5404 8.11795 12.7573 8.26362 12.9401 8.44734C13.1228 8.63106 13.2677 8.84918 13.3666 9.08924C13.4654 9.32929 13.5163 9.58654 13.5163 9.84636V24.6764C14.7307 24.6764 15.9333 24.4359 17.0553 23.9688C18.1772 23.5014 19.1968 22.8165 20.0555 21.9532C20.9143 21.0898 21.5954 20.0647 22.0602 18.9367C22.5248 17.8086 22.764 16.5994 22.764 15.3784V11.56C22.7706 8.49962 21.5719 5.56099 19.4301 3.38642C18.3792 2.31333 17.1263 1.46128 15.7445 0.879882C14.3628 0.298491 12.8798 -0.000629454 11.3819 9.94512e-07Z" fill="#262626"/>
<path d="M11.549 32.1835H11.2156C10.9573 32.1835 10.7014 32.1323 10.4627 32.033C10.224 31.9335 10.0071 31.7878 9.82441 31.6041C9.64171 31.4204 9.4968 31.2024 9.39796 30.9624C9.29912 30.7225 9.24826 30.4651 9.24832 30.2054V15.3755C8.03385 15.3754 6.83126 15.6157 5.70923 16.0829C4.5872 16.5502 3.56772 17.235 2.70896 18.0984C1.85022 18.9619 1.16902 19.9869 0.704315 21.1151C0.23961 22.2432 0.000492294 23.4523 0.0005968 24.6733V28.4386C-0.0148097 29.9513 0.268215 31.452 0.833301 32.854C1.39838 34.2561 2.23431 35.5315 3.29276 36.6067C4.35119 37.6818 5.61113 38.5353 6.9997 39.1178C8.38827 39.7003 9.87793 40.0002 11.3825 40.0002C12.8871 40.0002 14.3767 39.7003 15.7653 39.1178C17.1538 38.5353 18.4139 37.6818 19.4723 36.6067C20.5307 35.5315 21.3666 34.2561 21.9317 32.854C22.4969 31.452 22.7798 29.9513 22.7644 28.4386V24.6733H13.5168V30.2054C13.5168 30.4652 13.4658 30.7225 13.367 30.9624C13.268 31.2024 13.123 31.4205 12.9403 31.6042C12.7577 31.7879 12.5408 31.9335 12.302 32.033C12.0633 32.1323 11.8074 32.1835 11.549 32.1835Z" fill="#262626"/>
</svg>
