
<svg width="40" height="40" viewBox="0 0 40 40" fill="none" xmlns="http://www.w3.org/2000/svg">
<path d="M27.9528 16.0021C27.9528 18.2109 26.166 20.0017 23.9623 20.0017V24.0013C28.3696 24.0013 31.9432 20.4196 31.9432 16.0021C31.9432 11.5847 28.3696 8.00293 23.9623 8.00293C22.5094 8.00293 21.145 8.39188 19.9719 9.07384C17.5859 10.4559 15.9814 13.0409 15.9814 16.0021V36.0002L19.5694 39.5962L19.9719 39.9998V16.0021C19.9719 13.7934 21.7586 12.0025 23.9623 12.0025C26.166 12.0025 27.9528 13.7934 27.9528 16.0021Z" fill="#262626"/>
<path d="M23.9617 0C21.0542 0 18.3289 0.779659 15.9809 2.1418C14.4775 3.01191 13.1311 4.1208 11.9904 5.41783C9.50702 8.23797 8 11.9427 8 15.9984V27.9972L11.9904 31.9968V15.9984C11.9904 12.4456 13.5317 9.25281 15.9809 7.05493C17.1323 6.02383 18.4841 5.20978 19.9713 4.6852C21.2184 4.24018 22.563 3.9996 23.9617 3.9996C30.5728 3.9996 35.933 9.37219 35.933 15.9984C35.933 22.6246 30.5728 27.9972 23.9617 27.9972V31.9968C32.7782 31.9968 39.9235 24.8333 39.9235 15.9984C39.9235 7.16345 32.7782 0 23.9617 0Z" fill="#262626"/>
</svg>
