
<svg width="48" height="40" viewBox="0 0 48 40" fill="none" xmlns="http://www.w3.org/2000/svg">
<path fill-rule="evenodd" clip-rule="evenodd" d="M38.0558 18.6821L32.1282 8.8793L35.1984 3.85506L44.164 18.6821H38.0558ZM17.8786 32.4588H29.8626L32.8542 37.3624H14.9408L17.8786 32.4588ZM29.8583 7.55271H17.8642L14.9325 2.63758H32.8617L29.8583 7.55271ZM29.8493 29.8212H17.8608L11.9254 20.0058L17.8608 10.1903H29.8493L35.7845 20.0058L29.8493 29.8212ZM12.6044 3.86562L15.5884 8.86839L9.65596 18.679H3.64713L12.6044 3.86562ZM3.64438 21.3166H9.64618L15.5955 31.155L12.6085 36.1411L3.64438 21.3166ZM35.1945 36.1514L32.1304 31.1287L38.0618 21.3197H44.163L35.1945 36.1514ZM36.3225 0.634099C36.0845 0.24038 35.6592 0 35.2007 0H12.6085C12.15 0 11.7247 0.24038 11.4867 0.634099L0.190746 19.3152C-0.063665 19.7359 -0.0637844 20.2639 0.190626 20.6846L11.4867 39.3658C11.7247 39.7596 12.15 40 12.6085 40H35.2007C35.6592 40 36.0845 39.7596 36.3225 39.3658L47.6186 20.6846C47.8732 20.2639 47.8732 19.7359 47.6186 19.3152L36.3225 0.634099Z" fill="#262626"/>
<path fill-rule="evenodd" clip-rule="evenodd" d="M30.6487 22.0608C30.0364 21.6713 29.2253 21.8539 28.8374 22.4693L26.5141 26.1546C26.1263 26.7698 26.3083 27.5846 26.9207 27.9744C27.1386 28.113 27.3817 28.1791 27.6219 28.1791C28.0566 28.1791 28.4821 27.9623 28.732 27.5659L31.0552 23.8806C31.4432 23.2653 31.2611 22.4506 30.6487 22.0608Z" fill="#262626"/>
<path fill-rule="evenodd" clip-rule="evenodd" d="M32.5578 18.6677C31.9333 18.2984 31.1284 18.5079 30.7609 19.1358L30.59 19.4277C30.2224 20.0554 30.431 20.8637 31.056 21.233C31.2649 21.3566 31.494 21.4153 31.7202 21.4153C32.17 21.4153 32.6082 21.1828 32.8528 20.7649L33.0237 20.4731C33.3912 19.8453 33.1827 19.0371 32.5578 18.6677Z" fill="#262626"/>
</svg>
