
<svg width="352" height="278" viewBox="0 0 352 278" fill="none" xmlns="http://www.w3.org/2000/svg">
<path d="M320.185 60.1745C304.502 51.1545 285.677 46.5974 263.645 46.566C241.614 46.5031 222.82 50.9974 207.231 59.986L184.728 72.9974L173.382 66.4602C167.16 62.846 159.617 61.0545 150.786 61.0231C141.923 61.0231 134.411 62.7831 128.219 66.366L15.6112 131.36C9.41977 134.943 6.33917 139.28 6.3706 144.403C6.40203 149.495 9.51342 153.863 15.7677 157.446L47.5425 175.8L126.868 221.592L149.496 234.666L151.728 235.955C157.951 239.537 165.494 241.36 174.325 241.36C178.317 241.36 182.025 241.015 185.482 240.26C189.694 239.412 193.497 237.997 196.891 236.017L209.808 228.569L309.5 171.023C315.66 167.472 318.74 163.135 318.74 158.075V158.012C318.708 152.889 315.597 148.552 309.342 144.937L307.362 143.806H307.331L298.028 138.4L299.82 137.363L320.531 125.389C321.16 125.043 321.757 124.666 322.322 124.32C336.622 115.615 343.788 105.18 343.788 93.0488V92.8288C343.725 80.1317 335.868 69.226 320.185 60.1745ZM207.86 177.372C204.685 179.195 200.914 180.106 196.608 180.106C192.302 180.106 188.5 179.163 185.294 177.309L185.137 177.215L162.634 164.235L162.477 164.329L140.099 177.246C140.099 177.246 140.005 177.277 139.974 177.309C136.831 179.1 133.091 180.012 128.817 179.98C124.511 179.98 120.74 179.037 117.502 177.215C114.297 175.36 112.694 173.16 112.694 170.677C112.662 168.163 114.265 165.995 117.439 164.172L139.974 151.16L117.314 138.086C116.528 137.646 115.868 137.175 115.271 136.703C113.417 135.163 112.474 133.435 112.474 131.549C112.442 129.035 114.045 126.866 117.219 125.043C120.425 123.189 124.197 122.277 128.502 122.277C132.808 122.277 136.454 123.189 139.628 124.98C139.691 124.98 139.754 125.043 139.817 125.075L162.477 138.149L175.582 130.606L185.011 125.169C188.185 123.315 191.957 122.403 196.294 122.403C199.562 122.403 202.548 122.937 205.188 124.037C206.005 124.383 206.822 124.76 207.576 125.2C210.814 127.055 212.416 129.223 212.416 131.737C212.448 134.22 210.845 136.389 207.671 138.243L185.137 151.223L207.796 164.329C211.002 166.183 212.637 168.352 212.637 170.866C212.668 173.349 211.065 175.517 207.86 177.372ZM297.871 112.315L296.111 113.32L275.368 125.326L249.031 110.115L207.388 86.0717L229.891 73.0603C239.288 67.6545 250.571 64.9517 263.74 64.9831C276.908 65.0145 288.222 67.7488 297.651 73.186C307.111 78.6546 311.857 85.1603 311.888 92.766C311.92 100.372 307.268 106.909 297.871 112.315Z" stroke="#FF6C15" stroke-width="3.11504" stroke-linecap="round" stroke-linejoin="round"/>
<path d="M139.987 151.164V177.313C136.844 179.104 133.104 180.015 128.83 179.984C124.524 179.984 120.752 179.041 117.515 177.218C114.309 175.364 112.707 173.164 112.707 170.681C112.675 168.167 114.278 165.998 117.452 164.176L139.987 151.164Z" stroke="#FF6C15" stroke-width="3.11504" stroke-linecap="round" stroke-linejoin="round"/>
<path d="M162.483 138.146V164.326L140.105 177.243C140.105 177.243 140.011 177.275 139.98 177.306V151.157L117.32 138.083C116.534 137.643 115.874 137.172 115.277 136.7C113.423 135.16 112.48 133.432 112.48 131.546C112.448 129.032 114.051 126.863 117.225 125.04C120.431 123.186 124.203 122.275 128.509 122.275C132.814 122.275 136.46 123.186 139.634 124.977C139.697 124.977 139.76 125.04 139.823 125.072L162.483 138.146Z" stroke="#FF6C15" stroke-width="3.11504" stroke-linecap="round" stroke-linejoin="round"/>
<path d="M212.653 170.865C212.685 173.348 211.082 175.517 207.876 177.371C204.702 179.194 200.93 180.105 196.624 180.105C192.319 180.105 188.516 179.163 185.31 177.308L185.153 177.214V151.223L207.813 164.328C211.019 166.183 212.653 168.351 212.653 170.865Z" stroke="#FF6C15" stroke-width="3.11504" stroke-linecap="round" stroke-linejoin="round"/>
<path d="M212.435 131.737C212.466 134.22 210.863 136.388 207.689 138.242L185.155 151.222V177.214L162.652 164.234L162.495 164.328V138.148L175.6 130.605L185.029 125.168C188.203 123.314 191.975 122.402 196.312 122.402C199.581 122.402 202.566 122.937 205.206 124.037C206.023 124.382 206.84 124.76 207.594 125.2C210.832 127.054 212.435 129.222 212.435 131.737Z" stroke="#FF6C15" stroke-width="3.11504" stroke-linecap="round" stroke-linejoin="round"/>
<path d="M311.898 92.7666C311.93 100.372 307.278 106.909 297.881 112.315L296.121 113.321L275.378 125.327L249.041 110.115L207.398 86.0723L229.901 73.0609C239.298 67.6551 250.581 64.9522 263.75 64.9837C276.918 65.0151 288.233 67.7494 297.661 73.1866C307.121 78.6552 311.867 85.1609 311.898 92.7666Z" stroke="#FF6C15" stroke-width="3.11504" stroke-linecap="round" stroke-linejoin="round"/>
<path d="M343.791 93.0558V155.693C343.885 168.422 336.122 179.264 320.534 188.253L318.742 189.29V158.019C318.711 152.896 315.599 148.559 309.346 144.944L307.365 143.813H307.334L298.031 138.407L299.823 137.37L320.534 125.396C321.162 125.05 321.759 124.673 322.325 124.327C336.625 115.622 343.791 105.187 343.791 93.0558Z" stroke="#FF6C15" stroke-width="3.11504" stroke-linecap="round" stroke-linejoin="round"/>
<path d="M318.74 158.074V220.868C318.771 225.96 315.691 230.297 309.5 233.88L196.891 298.874C190.699 302.457 183.188 304.248 174.325 304.217C165.494 304.217 157.95 302.394 151.728 298.811L15.7675 220.302C9.51319 216.72 6.40179 212.351 6.37036 207.26V144.402C6.40179 149.494 9.51319 153.862 15.7675 157.445L47.5421 175.8L126.868 221.591L149.496 234.665L151.728 235.954C157.95 239.537 165.494 241.36 174.325 241.36C178.317 241.36 182.025 241.014 185.482 240.26C189.693 239.411 193.496 237.997 196.891 236.017L209.808 228.568L309.5 171.022C315.66 167.471 318.74 163.134 318.74 158.074Z" stroke="#FF6C15" stroke-width="3.11504" stroke-linecap="round" stroke-linejoin="round"/>
</svg>
