<svg width="153" height="24" viewBox="0 0 153 24" fill="none" xmlns="http://www.w3.org/2000/svg">
<g clip-path="url(#clip0_6748_374)">
<path d="M8.7038 0C13.2775 0 15.865 2.68543 15.865 6.33019C15.865 8.74877 14.4057 10.7046 12.4499 11.37C14.7367 11.9341 16.5946 14.0217 16.5946 16.9402C16.5946 20.7505 13.7436 23.5034 9.33547 23.5034H0.252289V0H8.7038ZM8.00795 9.71147C10.0955 9.71147 11.3555 8.55285 11.3555 6.76256C11.3555 4.97227 10.1968 3.84405 7.97417 3.84405H4.76179V9.71147H8.01133H8.00795ZM8.47073 19.6898C10.69 19.6898 12.0175 18.5312 12.0175 16.6395C12.0175 14.7479 10.8251 13.4913 8.53828 13.4913H4.76179V19.6898H8.4741H8.47073Z" fill="#0A0A0A"></path>
<path d="M17.7194 23.5034V0H22.1276V23.5034H17.7194Z" fill="#0A0A0A"></path>
<path d="M40.0609 15.3491C40.0609 20.3551 36.3823 23.9999 31.508 23.9999C26.6337 23.9999 22.9552 20.3551 22.9552 15.3491C22.9552 10.343 26.6337 6.69824 31.508 6.69824C36.3823 6.69824 40.0609 10.3126 40.0609 15.3491ZM35.6527 15.3491C35.6527 12.265 33.6631 10.7078 31.508 10.7078C29.3529 10.7078 27.3633 12.265 27.3633 15.3491C27.3633 18.4331 29.3529 19.9903 31.508 19.9903C33.6631 19.9903 35.6527 18.4331 35.6527 15.3491Z" fill="#0A0A0A"></path>
<path d="M44.8437 15.3496C44.8437 18.2985 46.7657 19.957 49.0188 19.957C51.2719 19.957 52.4001 18.464 52.7649 17.2074L56.6427 18.5012C55.9131 21.2204 53.3628 24.0038 49.0188 24.0038C44.212 24.0038 40.4355 20.359 40.4355 15.353C40.4355 10.3469 44.1479 6.70215 48.8871 6.70215C53.329 6.70215 55.8489 9.45176 56.5448 12.2048L52.5994 13.5289C52.2008 12.171 51.1739 10.7793 48.985 10.7793C46.7961 10.7793 44.8403 12.404 44.8403 15.353L44.8437 15.3496Z" fill="#0A0A0A"></path>
<path d="M66.5234 14.0555L73.1846 23.5034H67.7833L63.4731 17.2712L61.649 19.1932V23.5034H57.2409V0H61.649V13.2616L67.2834 7.19493H73.0495L66.52 14.0555H66.5234Z" fill="#0A0A0A"></path>
<path d="M86.3246 7.19482L89.8376 17.7035L92.8541 7.19482H97.2285L92.1245 23.5033H87.7163L83.906 12.3664L80.16 23.5033H75.6842L70.4789 7.19482H75.1201L78.1366 17.6697L81.6834 7.19482H86.3246Z" fill="#0A0A0A"></path>
<path d="M113.399 15.3491C113.399 20.3551 109.72 23.9999 104.846 23.9999C99.9714 23.9999 96.2928 20.3551 96.2928 15.3491C96.2928 10.343 99.9714 6.69824 104.846 6.69824C109.72 6.69824 113.399 10.3126 113.399 15.3491ZM108.99 15.3491C108.99 12.265 107.001 10.7078 104.846 10.7078C102.691 10.7078 100.701 12.265 100.701 15.3491C100.701 18.4331 102.691 19.9903 104.846 19.9903C107.001 19.9903 108.99 18.4331 108.99 15.3491Z" fill="#0A0A0A"></path>
<path d="M124.171 11.5696C123.674 11.4716 123.242 11.4378 122.847 11.4378C120.593 11.4378 118.638 12.5323 118.638 16.0453V23.5037H114.229V7.19517H118.506V9.61375C119.499 7.45865 121.755 7.06006 123.147 7.06006C123.512 7.06006 123.843 7.09384 124.174 7.12762V11.5696H124.171Z" fill="#0A0A0A"></path>
<path d="M134.152 14.0555L140.813 23.5034H135.412L131.102 17.2712L129.278 19.1932V23.5034H124.87V0H129.278V13.2616L134.912 7.19493H140.678L134.149 14.0555H134.152Z" fill="#0A0A0A"></path>
<path d="M143.397 18.1324C143.495 19.4262 144.458 20.6186 146.38 20.6186C147.839 20.6186 148.535 19.8552 148.535 18.9938C148.535 18.2642 148.039 17.6663 146.779 17.4028L144.624 16.9063C141.475 16.2104 140.05 14.3222 140.05 12.0353C140.05 9.11682 142.634 6.69824 146.15 6.69824C150.792 6.69824 152.349 9.64715 152.548 11.4037L148.87 12.2312C148.738 11.2685 148.042 10.0424 146.184 10.0424C145.026 10.0424 144.097 10.7382 144.097 11.6671C144.097 12.4609 144.695 12.9609 145.59 13.1264L147.91 13.6229C151.126 14.285 152.751 16.2408 152.751 18.629C152.751 21.2807 150.697 23.9999 146.421 23.9999C141.516 23.9999 139.824 20.8179 139.624 18.96L143.404 18.1324H143.397Z" fill="#0A0A0A"></path>
</g>
<defs>
<clipPath id="clip0_6748_374">
<rect width="153" height="24" fill="white"></rect>
</clipPath>
</defs>
</svg>