
<?xml version="1.0" encoding="UTF-8"?> <svg xmlns="http://www.w3.org/2000/svg" width="93" height="32" viewBox="0 0 93 32" fill="none"><path d="M38.7859 6.67859V14.3942L38.3988 14.2652C38.6569 13.147 39.1816 12.3298 39.9729 11.8137C40.7643 11.2804 41.7104 11.0138 42.8115 11.0138C44.2221 11.0138 45.3403 11.4869 46.1661 12.4331C47.009 13.362 47.4305 14.6179 47.4305 16.2006V25H44.6952V17.1811C44.6952 15.9253 44.4802 14.9877 44.0501 14.3684C43.62 13.7491 42.9491 13.4394 42.0373 13.4394C41.0395 13.4394 40.2482 13.7663 39.6633 14.42C39.0784 15.0565 38.7859 15.9769 38.7859 17.1811V25H36.0506V6.67859H38.7859ZM49.6278 18.1617C49.6278 16.7339 49.8944 15.478 50.4277 14.3942C50.9782 13.3104 51.7437 12.4761 52.7243 11.8912C53.7049 11.3063 54.8489 11.0138 56.1564 11.0138C57.2746 11.0138 58.2896 11.2718 59.2013 11.7879C60.1303 12.304 60.87 13.0954 61.4205 14.162C61.971 15.2114 62.2721 16.5102 62.3237 18.0585L62.3495 18.9359H52.5179C52.6039 20.2089 52.9652 21.2067 53.6017 21.9292C54.2382 22.6346 55.0898 22.9872 56.1564 22.9872C56.8445 22.9872 57.4638 22.798 58.0143 22.4195C58.582 22.041 59.0035 21.525 59.2787 20.8712L62.1431 21.0777C61.7474 22.3679 60.9991 23.4001 59.8981 24.1742C58.8143 24.9312 57.567 25.3097 56.1564 25.3097C54.8489 25.3097 53.7049 25.0172 52.7243 24.4323C51.7437 23.8474 50.9782 23.013 50.4277 21.9292C49.8944 20.8454 49.6278 19.5896 49.6278 18.1617ZM59.4594 16.8973C59.3046 15.6759 58.9261 14.7813 58.324 14.2136C57.7391 13.6287 57.0165 13.3362 56.1564 13.3362C55.1586 13.3362 54.35 13.6545 53.7307 14.291C53.1114 14.9103 52.7243 15.7791 52.5695 16.8973H59.4594ZM67.2323 11.3235L67.2839 13.5685C67.6107 12.7599 68.1096 12.132 68.7806 11.6847C69.4687 11.2374 70.2686 11.0138 71.1804 11.0138C72.161 11.0138 72.9953 11.2632 73.6835 11.7621C74.3716 12.261 74.8619 12.9578 75.1543 13.8523C75.464 12.9234 75.9629 12.218 76.651 11.7363C77.3564 11.2546 78.2251 11.0138 79.2573 11.0138C80.1691 11.0138 80.9518 11.2202 81.6055 11.6331C82.2765 12.0288 82.784 12.6137 83.128 13.3878C83.4893 14.162 83.6699 15.0996 83.6699 16.2006V25H80.9346V17.0521C80.9346 15.8479 80.7282 14.9275 80.3153 14.291C79.9024 13.6373 79.3089 13.3104 78.5348 13.3104C77.8983 13.3104 77.3478 13.4567 76.8833 13.7491C76.436 14.0416 76.0919 14.4716 75.8511 15.0393C75.6102 15.5898 75.4898 16.2608 75.4898 17.0521V25H72.9093V17.0521C72.9093 15.8479 72.6943 14.9275 72.2642 14.291C71.8513 13.6373 71.2664 13.3104 70.5095 13.3104C69.873 13.3104 69.3225 13.4567 68.858 13.7491C68.4107 14.0416 68.0666 14.4716 67.8258 15.0393C67.5849 15.5898 67.4645 16.2608 67.4645 17.0521V25H64.7292V11.3235H67.2323ZM89.7796 11.3235V25H87.0443V11.3235H89.7796ZM89.857 6.70439V9.31068H86.9927V6.70439H89.857Z" fill="black"></path><path d="M16.0238 2.69207C15.8855 2.66721 15.7553 2.75836 15.7309 2.89922L14.0626 12.536H12.8174L11.1491 2.89922C11.1247 2.75836 10.9945 2.66721 10.8562 2.69207C4.93166 3.86041 0.390625 8.99779 0.0162746 15.2787C0.0162746 15.2869 0 15.5521 0 15.6847C0 15.7013 0 15.7178 0 15.7261C0 15.7758 0 15.8255 0 15.8753C0 15.8918 0 15.9084 0 15.9333C0 15.9996 0 16.0576 0 16.1238C0 22.7859 4.67124 28.3293 10.8643 29.5556C11.0026 29.5805 11.1329 29.4893 11.1573 29.3485L12.8256 19.7117H14.0707L15.7309 29.3568C15.7553 29.4976 15.8855 29.5888 16.0238 29.5639C21.9483 28.3873 26.4812 23.2499 26.8637 16.969C26.8637 16.9607 26.88 16.6956 26.88 16.563C26.88 16.5464 26.88 16.5299 26.88 16.5216C26.88 16.4719 26.88 16.4221 26.88 16.3724C26.88 16.3559 26.88 16.3393 26.88 16.3144C26.88 16.2481 26.88 16.1901 26.88 16.1238C26.8881 9.46182 22.2169 3.91841 16.0238 2.69207Z" fill="#FF6C15"></path></svg> 