
<svg width="174" height="44" viewBox="0 0 174 44" fill="none" xmlns="http://www.w3.org/2000/svg">
<g clip-path="url(#clip0_7019_8520)">
<g clip-path="url(#clip1_7019_8520)">
<g clip-path="url(#clip2_7019_8520)">
<path fill-rule="evenodd" clip-rule="evenodd" d="M52.3396 30.9648C47.9902 30.9648 44.776 27.5578 44.776 23.3731C44.776 19.1883 47.9902 15.6978 52.3666 15.6978C55.1384 15.6978 56.856 16.7236 58.2137 18.2201L56.136 20.4636C55.1102 19.3836 54.0302 18.6354 52.3396 18.6354C49.9007 18.6354 48.1278 20.7413 48.1278 23.3178C48.1278 25.9495 49.929 28.0554 52.5054 28.0554C54.0854 28.0554 55.249 27.3072 56.3019 26.2272L58.3243 28.2213C56.8843 29.8283 55.1937 30.9648 52.3396 30.9648Z" fill="#000202"/>
<path fill-rule="evenodd" clip-rule="evenodd" d="M64.6851 30.9581H61.3333V15.7192H64.6851V19.2934C65.5992 17.1039 67.2898 15.6075 69.8663 15.7192V19.2663H69.6722C66.7357 19.2663 64.6851 21.1781 64.6851 25.0569V30.9581Z" fill="#000202"/>
<path fill-rule="evenodd" clip-rule="evenodd" d="M87.4102 15.6978L80.002 35.0672H76.6031L78.222 30.9695L71.8749 15.6978H75.449L79.7796 26.9778L83.9373 15.6978H87.4102Z" fill="#000202"/>
<path fill-rule="evenodd" clip-rule="evenodd" d="M97.3073 18.6072C95.0355 18.6072 93.0402 20.4636 93.0402 23.3178C93.0402 26.1719 95.0355 28.0272 97.3073 28.0272C99.6073 28.0272 101.491 26.2272 101.491 23.3178C101.491 20.4354 99.5791 18.6072 97.3073 18.6072ZM98.0826 30.9366C95.6732 30.9366 94.1485 29.7178 93.1226 28.3601V35.066H89.7708V15.6978H93.1226V18.4401C94.2038 16.9166 95.7285 15.6978 98.0826 15.6978C101.546 15.6978 104.899 18.4401 104.899 23.3178C104.899 28.1942 101.574 30.9366 98.0826 30.9366Z" fill="#000202"/>
<path fill-rule="evenodd" clip-rule="evenodd" d="M112.244 18.8844V26.0585C112.244 27.3597 112.905 27.8856 114.044 27.8856H115.359V30.8797H113.066C110.626 30.8726 108.892 29.7879 108.892 26.5844V18.8844H107.031V16.0056H108.892V11.9868H112.244V16.0056H115.359V18.8844H112.244Z" fill="#000202"/>
<path fill-rule="evenodd" clip-rule="evenodd" d="M125.962 18.6354C123.274 18.6354 121.556 20.7413 121.556 23.3178C121.556 25.9225 123.412 28.0554 126.017 28.0554C128.731 28.0554 130.45 25.9507 130.45 23.3731C130.45 20.7684 128.594 18.6354 125.962 18.6354ZM125.962 30.9648C121.501 30.9648 118.203 27.5578 118.203 23.3731C118.203 19.1613 121.528 15.6978 126.017 15.6978C130.505 15.6978 133.803 19.106 133.803 23.3178C133.803 27.5025 130.477 30.9648 125.962 30.9648Z" fill="#000202"/>
<path fill-rule="evenodd" clip-rule="evenodd" d="M139.943 27.8843V29.5737C139.943 29.6455 139.907 29.7102 139.845 29.7431L138.383 30.5878C138.321 30.6231 138.246 30.6231 138.189 30.5878L136.723 29.7431C136.664 29.7102 136.625 29.6455 136.625 29.5737V27.8843C136.625 27.8161 136.664 27.7514 136.723 27.7149L138.189 26.8702C138.246 26.8349 138.321 26.8349 138.383 26.8702L139.845 27.7149C139.907 27.7514 139.943 27.8161 139.943 27.8843Z" fill="#000202"/>
<path fill-rule="evenodd" clip-rule="evenodd" d="M165.857 18.6354C163.169 18.6354 161.452 20.7413 161.452 23.3178C161.452 25.9225 163.308 28.0554 165.913 28.0554C168.627 28.0554 170.344 25.9507 170.344 23.3731C170.344 20.7684 168.489 18.6354 165.857 18.6354ZM165.857 30.9648C161.396 30.9648 158.099 27.5578 158.099 23.3731C158.099 19.1613 161.423 15.6978 165.913 15.6978C170.401 15.6978 173.699 19.106 173.699 23.3178C173.699 27.5025 170.373 30.9648 165.857 30.9648Z" fill="#000202"/>
<path fill-rule="evenodd" clip-rule="evenodd" d="M150.152 30.9422C145.803 30.8587 142.655 27.3893 142.736 23.2058C142.816 19.0234 146.096 15.5952 150.472 15.6787C153.243 15.7317 154.941 16.7893 156.27 18.3117L154.149 20.5152C153.145 19.4152 152.079 18.647 150.389 18.614C147.951 18.567 146.137 20.6387 146.088 23.2152C146.037 25.847 147.798 27.987 150.374 28.0364C151.954 28.067 153.131 27.3411 154.204 26.2811L156.189 28.314C154.718 29.8928 153.007 30.9964 150.152 30.9422Z" fill="#000202"/>
<path fill-rule="evenodd" clip-rule="evenodd" d="M0.999939 12.701V31.7477L17.4105 41.2724L33.8175 31.7477V12.701L17.4105 3.17725L0.999939 12.701ZM2.44436 30.9126V13.5397L17.4105 4.84914L32.3776 13.5397V30.9126L17.4105 39.5996L2.44436 30.9126Z" fill="#000202"/>
<path fill-rule="evenodd" clip-rule="evenodd" d="M23.8424 11.4009H10.9479L9.45306 18.0098H25.3966L23.8424 11.4009Z" fill="#000202"/>
<path fill-rule="evenodd" clip-rule="evenodd" d="M13.2355 27.1057V22.7143L9.41615 20.2734L5.09369 23.5032L10.9857 33.8032H13.339L16.1226 31.1986V29.8895L13.2355 27.1057Z" fill="#000202"/>
<path fill-rule="evenodd" clip-rule="evenodd" d="M21.6 19.0049H13.2502L14.6569 22.697L14.2285 26.8342H17.4107L20.6235 26.8197L20.2231 22.697L21.6 19.0049Z" fill="#000202"/>
<path fill-rule="evenodd" clip-rule="evenodd" d="M25.4166 20.2422L21.6413 22.7129V27.1043L18.7552 29.8881V31.1972L21.5378 33.7729H23.8615L29.7247 23.5018L25.4166 20.2422Z" fill="#000202"/>
</g>
</g>
</g>
<defs>
<clipPath id="clip0_7019_8520">
<rect width="173" height="44" fill="white" transform="translate(0.62146)"/>
</clipPath>
<clipPath id="clip1_7019_8520">
<rect width="173.333" height="40" fill="white" transform="translate(1 2)"/>
</clipPath>
<clipPath id="clip2_7019_8520">
<rect width="199" height="40" fill="white" transform="translate(1 2)"/>
</clipPath>
</defs>
</svg>
