
<svg width="352" height="278" viewBox="0 0 352 278" fill="none" xmlns="http://www.w3.org/2000/svg">
<path d="M175.974 123.938H175.942C175.942 123.938 175.974 124.194 175.974 124.322L176.326 124.13L175.974 123.938Z" stroke="#FF6C15" stroke-width="3.2" stroke-linecap="round" stroke-linejoin="round"/>
<path d="M152.2 74.1103L89.4801 74.0143L153.352 110.878L175.944 123.902C175.944 123.902 175.976 124.19 175.976 124.318L152.136 138.11L142.984 143.39L133.8 138.078L86.4081 110.718L56.1361 93.2463L56.2318 110.654L56.3281 129.47C56.0721 133.182 53.7361 136.382 49.2881 139.102C44.8401 141.854 39.2718 143.198 32.5838 143.198C25.8638 143.166 20.2959 141.886 15.8159 139.294C11.3359 136.702 9.09593 133.502 9.06393 129.63V121.886L8.71196 60.0943C8.67996 58.1743 9.31983 56.4463 10.5678 54.9103C11.8158 53.3743 13.5438 51.9661 15.7518 50.6861C17.9918 49.4061 20.4239 48.4143 23.0479 47.6783C25.7039 46.9743 28.7121 46.622 32.0401 46.622L152.488 46.8462C159.176 46.8462 164.744 48.1581 169.224 50.7181C173.704 53.3101 175.944 56.5422 175.976 60.3822V60.4462C175.976 64.2862 173.672 67.5504 169.128 70.1744C164.552 72.7983 158.888 74.1423 152.2 74.1103Z" stroke="#FF6C15" stroke-width="3.2" stroke-linecap="round" stroke-linejoin="round"/>
<path d="M176.867 226.559L176.516 226.751L176.867 226.943C176.867 226.943 176.867 226.719 176.867 226.559Z" stroke="#FF6C15" stroke-width="3.2" stroke-linecap="round" stroke-linejoin="round"/>
<path d="M344.126 226.785C344.126 227.553 344.03 228.289 343.806 228.993C343.55 230.081 343.006 231.073 342.27 231.969C341.022 233.505 339.294 234.913 337.086 236.193C334.846 237.505 332.414 238.497 329.79 239.201C327.134 239.905 324.126 240.288 320.798 240.288H296.605L266.462 240.161L200.35 240.065C200.062 240.065 199.774 240.065 199.486 240.001C193.182 239.905 187.902 238.593 183.614 236.161C179.326 233.697 177.118 230.657 176.894 226.977C176.894 226.881 176.894 226.721 176.894 226.561V226.497C176.862 222.657 179.165 219.36 183.741 216.704C188.317 214.08 193.982 212.737 200.67 212.769H219.07L263.389 212.897L176.541 162.753L209.886 143.488L296.541 193.504L296.734 193.601L296.541 158.977V157.408C296.797 153.696 299.134 150.497 303.582 147.745C308.03 145.057 313.598 143.681 320.286 143.681C326.974 143.681 332.574 144.993 337.054 147.585C341.534 150.145 343.774 153.377 343.806 157.281L344.158 226.785H344.126Z" stroke="#FF6C15" stroke-width="3.2" stroke-linecap="round" stroke-linejoin="round"/>
<path d="M344.125 226.787V290.787C344.157 292.707 343.514 294.467 342.266 295.971C341.018 297.507 339.29 298.915 337.082 300.195C334.842 301.507 332.41 302.499 329.786 303.203C327.13 303.907 324.125 304.291 320.797 304.291L200.347 304.067C193.659 304.067 188.091 302.723 183.611 300.163C179.131 297.571 176.891 294.339 176.859 290.499V226.947C177.083 230.659 179.291 233.699 183.579 236.163C187.867 238.595 193.147 239.907 199.451 240.003C199.739 240.067 200.027 240.067 200.315 240.067L266.427 240.163L296.571 240.259H320.765C324.093 240.291 327.098 239.907 329.754 239.203C332.378 238.499 334.81 237.507 337.05 236.195C339.258 234.915 340.986 233.507 342.234 231.971C342.97 231.075 343.514 230.083 343.77 228.995C343.994 228.291 344.093 227.555 344.093 226.787H344.125Z" stroke="#FF6C15" stroke-width="3.2" stroke-linecap="round" stroke-linejoin="round"/>
<path d="M263.363 212.894L219.043 212.83H200.707L200.643 212.798C193.955 212.766 188.292 214.078 183.716 216.734C179.14 219.39 176.835 222.654 176.867 226.494V226.59L176.516 226.782V162.782L263.363 212.894Z" stroke="#FF6C15" stroke-width="3.2" stroke-linecap="round" stroke-linejoin="round"/>
<path d="M176.878 226.972V226.588" stroke="#FF6C15" stroke-width="3.2" stroke-linecap="round" stroke-linejoin="round"/>
<path d="M175.974 60.4433V123.931H175.942L153.349 110.875L89.4774 74.0113L152.197 74.1073C158.885 74.1393 164.55 72.7953 169.126 70.1714C173.67 67.5474 175.974 64.2833 175.974 60.4433Z" stroke="#FF6C15" stroke-width="3.2" stroke-linecap="round" stroke-linejoin="round"/>
<path d="M142.981 143.388V207.388L56.3257 157.34V129.468L56.2293 110.652L56.1337 93.244L86.4057 110.716L133.797 138.076L142.981 143.388Z" stroke="#FF6C15" stroke-width="3.2" stroke-linecap="round" stroke-linejoin="round"/>
<path d="M176.33 188.13L142.985 207.394V143.394L152.138 138.114L175.978 124.322V124.45L176.33 188.13Z" stroke="#FF6C15" stroke-width="3.2" stroke-linecap="round" stroke-linejoin="round"/>
<path d="M175.971 124.322V123.938" stroke="#FF6C15" stroke-width="3.2" stroke-linecap="round" stroke-linejoin="round"/>
<path d="M296.51 193.54V159.012" stroke="#FF6C15" stroke-width="3.2" stroke-linecap="round" stroke-linejoin="round"/>
<path d="M56.3268 129.475V193.475C56.0708 197.187 53.7351 200.387 49.2871 203.107C44.8391 205.859 39.2708 207.204 32.5828 207.204C25.8627 207.172 20.2947 205.892 15.8147 203.3C11.3347 200.708 9.09478 197.508 9.06278 193.636L8.71082 124.868V60.0995L9.03075 121.891V129.636C9.09475 133.508 11.3347 136.708 15.8147 139.3C20.2947 141.892 25.8627 143.172 32.5828 143.204C39.2708 143.204 44.8391 141.859 49.2871 139.107C53.7351 136.387 56.0708 133.187 56.3268 129.475Z" stroke="#FF6C15" stroke-width="3.2" stroke-linecap="round" stroke-linejoin="round"/>
</svg>
