<svg width="352" height="278" viewBox="0 0 352 278" fill="none" xmlns="http://www.w3.org/2000/svg">
<path d="M258.377 206.097V263.802L241.873 235.468V235.411L241.844 233.882C241.844 232.929 241.556 231.92 240.95 230.91L204.74 168.704C202.951 165.617 199.345 163.712 193.949 162.904C188.641 162.154 183.995 162.904 179.985 165.126L162.788 175.051C160.307 176.494 158.807 178.167 158.288 180.101C158.172 180.533 158.114 180.966 158.114 181.37V200.557L143.486 195.421C142.65 195.133 141.813 194.873 140.947 194.671C138.697 194.123 136.331 193.979 133.907 194.209C130.56 194.498 127.646 195.364 125.165 196.806L111.518 204.654V180.043L175.887 142.881C183.851 138.264 193.228 136.764 204.048 138.293C214.867 139.88 222.051 143.718 225.629 149.863L258.377 206.097Z" stroke="#FF6C15" stroke-width="2.88525" stroke-linecap="round" stroke-linejoin="round"/>
<path d="M56.7864 184.505V242.21L16.2774 218.84C10.3915 215.435 7.44871 211.338 7.41986 206.549V148.844C7.44871 153.633 10.3915 157.73 16.2774 161.135L44.928 177.667L56.7864 184.505Z" stroke="#FF6C15" stroke-width="2.88525" stroke-linecap="round" stroke-linejoin="round"/>
<path d="M111.51 180.042V204.653L108.164 206.587C105.134 208.347 103.605 210.337 103.605 212.53V235.266C97.459 233.794 91.1114 233.246 84.5042 233.621C75.0117 234.17 65.7792 237.026 56.7773 242.219V184.514C62.317 181.312 67.9429 179.004 73.6557 177.59C77.2334 176.695 80.8399 176.118 84.5042 175.916C91.4865 175.512 98.1803 176.147 104.643 177.85C106.951 178.427 109.26 179.177 111.51 180.042Z" stroke="#FF6C15" stroke-width="2.88525" stroke-linecap="round" stroke-linejoin="round"/>
<path d="M241.844 233.874V291.723C241.786 293.83 240.285 295.734 237.285 297.494C232.87 300.033 227.734 300.754 221.877 299.6L114.056 278.682C108.776 277.643 105.458 275.595 104.102 272.479C103.698 271.556 103.554 270.69 103.64 269.825V235.259L103.611 212.523C103.611 213.245 103.785 213.995 104.102 214.774C105.227 217.371 107.708 219.217 111.517 220.342C112.296 220.602 113.162 220.804 114.056 220.977L133.877 224.815L158.114 229.518L165.788 231.018L212.731 240.106L221.877 241.895C227.734 243.049 232.87 242.328 237.285 239.789C239.766 238.346 241.209 236.789 241.671 235.115C241.786 234.711 241.844 234.278 241.844 233.874Z" stroke="#FF6C15" stroke-width="2.88525" stroke-linecap="round" stroke-linejoin="round"/>
<path d="M241.844 233.882C241.844 234.286 241.786 234.719 241.671 235.123C241.209 236.796 239.766 238.354 237.285 239.797C232.87 242.336 227.734 243.057 221.877 241.903L212.731 240.114L165.788 231.025L158.114 229.525L133.877 224.822L114.056 220.985C113.162 220.812 112.296 220.61 111.517 220.35C107.708 219.225 105.227 217.378 104.102 214.782C103.785 214.003 103.611 213.252 103.611 212.531C103.611 210.338 105.141 208.347 108.17 206.587L111.517 204.654L125.164 196.806C127.645 195.364 130.56 194.498 133.906 194.21C136.33 193.979 138.696 194.123 140.946 194.671C141.812 194.873 142.649 195.133 143.486 195.422L158.114 200.557L169.193 204.452L186.62 210.569L176.06 200.5L160.451 185.641C159.874 185.15 159.441 184.66 159.066 184.14V184.083C158.431 183.188 158.114 182.294 158.114 181.37C158.114 180.966 158.171 180.534 158.287 180.101C158.806 178.168 160.306 176.494 162.788 175.052L179.984 165.126C183.994 162.905 188.64 162.155 193.948 162.905C199.344 163.713 202.95 165.617 204.739 168.704L240.949 230.91C241.555 231.92 241.844 232.93 241.844 233.882Z" stroke="#FF6C15" stroke-width="2.88525" stroke-linecap="round" stroke-linejoin="round"/>
<path d="M343.896 149.457V149.514C343.896 154.275 340.982 158.372 335.212 161.69L306.417 178.338L258.379 206.094L225.631 149.86C222.054 143.715 214.869 139.878 204.05 138.291C193.23 136.762 183.853 138.262 175.89 142.878L111.519 180.04C109.269 179.175 106.961 178.424 104.653 177.847C98.1897 176.145 91.4962 175.51 84.5139 175.914C80.8496 176.116 77.2428 176.694 73.6651 177.588C67.9523 179.002 62.3263 181.31 56.7867 184.512L44.9283 177.675L16.2776 161.142C10.3917 157.737 7.44893 153.64 7.42008 148.851C7.39122 144.032 10.2765 139.935 16.1047 136.588L56.4116 113.333C64.9231 118.267 75.0791 121.008 86.8798 121.585C97.0935 122.105 106.038 120.604 113.626 116.998C114.78 116.478 115.905 115.901 117.002 115.266C125.311 110.477 128.947 104.707 127.937 97.8975C126.927 91.0883 122.166 85.2024 113.626 80.2975L153.904 57.0423C159.732 53.6665 166.801 51.993 175.139 52.0219C183.478 52.0507 190.547 53.7242 196.404 57.0999L239.076 81.7401C246.492 77.4699 255.349 75.3348 265.65 75.3348C275.921 75.3637 284.779 77.5273 292.25 81.8552C299.723 86.1542 303.445 91.2611 303.474 97.2047V97.3493C303.474 103.235 299.752 108.284 292.424 112.525L303.474 118.902L335.067 137.165C340.953 140.541 343.867 144.638 343.896 149.457Z" stroke="#FF6C15" stroke-width="2.88525" stroke-linecap="round" stroke-linejoin="round"/>
<path d="M343.906 149.517V207.164C343.935 211.953 341.021 216.05 335.221 219.397L258.387 263.801V206.096L306.427 178.34L335.221 161.692C340.992 158.374 343.906 154.277 343.906 149.517Z" stroke="#FF6C15" stroke-width="2.88525" stroke-linecap="round" stroke-linejoin="round"/>
<path d="M116.985 115.264C115.888 115.899 114.763 116.476 113.609 116.995V80.2949C122.15 85.1998 126.91 91.0857 127.92 97.8949C128.93 104.704 125.294 110.475 116.985 115.264Z" stroke="#FF6C15" stroke-width="2.88525" stroke-linecap="round" stroke-linejoin="round"/>
<path d="M103.611 212.53V211.693" stroke="#FF6C15" stroke-width="2.88525" stroke-linecap="round" stroke-linejoin="round"/>
<path d="M186.631 210.571L169.204 204.454L158.125 200.559V181.372C158.125 182.295 158.442 183.19 159.048 184.084V184.142C159.452 184.661 159.885 185.152 160.462 185.642L176.071 200.501L186.631 210.571Z" stroke="#FF6C15" stroke-width="2.88525" stroke-linecap="round" stroke-linejoin="round"/>
<path d="M303.468 97.3525V118.905L292.418 112.529C299.746 108.288 303.468 103.238 303.468 97.3525Z" stroke="#FF6C15" stroke-width="2.88525" stroke-linecap="round" stroke-linejoin="round"/>
<path d="M241.828 233.881V233.478" stroke="#FF6C15" stroke-width="2.88525" stroke-linecap="round" stroke-linejoin="round"/>
</svg>
