
<svg width="45" height="42" viewBox="0 0 45 42" fill="none" xmlns="http://www.w3.org/2000/svg">
<path d="M42.1095 1L25.208 13.5024L28.3593 6.13218L42.1095 1Z" fill="#262626" stroke="#FEF6EE" stroke-width="0.7" stroke-linecap="round" stroke-linejoin="round"/>
<path d="M3.13531 1L19.8824 13.6053L16.8854 6.14504L3.13531 1ZM36.025 29.9794L31.5231 36.8481L41.1572 39.4978L43.9098 30.1338L36.025 29.9794ZM1.34741 30.1338L4.08715 39.4978L13.6955 36.8481L9.21932 29.9794L1.34741 30.1338Z" fill="#262626" stroke="#FEF6EE" stroke-width="0.7" stroke-linecap="round" stroke-linejoin="round"/>
<path d="M13.181 18.3756L10.5056 22.4145L20.0239 22.8518L19.7152 12.6003L13.181 18.3885V18.3756ZM32.0633 18.3885L25.4262 12.4717L25.2076 22.8518L34.7259 22.4145L32.0633 18.3885ZM13.6955 36.8463L19.4708 34.068L14.5059 30.2092L13.6955 36.8463ZM25.7864 34.0551L31.5231 36.8463L30.7513 30.1963L25.7864 34.0551Z" fill="#262626" stroke="#FEF6EE" stroke-width="0.7" stroke-linecap="round" stroke-linejoin="round"/>
<path d="M31.5236 36.8489L25.7869 34.0706L26.2499 37.8007L26.1985 39.3828L31.5236 36.8489ZM13.696 36.8489L19.0469 39.3828L19.0083 37.8007L19.4714 34.0706L13.696 36.8489Z" fill="#262626" stroke="#FEF6EE" stroke-width="0.7" stroke-linecap="round" stroke-linejoin="round"/>
<path d="M19.1378 27.7285L14.3787 26.3393L17.7487 24.7958L19.1507 27.7285H19.1378ZM26.0965 27.7285L27.5114 24.783L30.8942 26.3265L26.0965 27.7414V27.7285Z" fill="#262626" stroke="#FEF6EE" stroke-width="0.7" stroke-linecap="round" stroke-linejoin="round"/>
<path d="M13.6952 36.8466L14.5312 29.978L9.21899 30.1324L13.6952 36.8466ZM30.7124 29.978L31.5227 36.8466L36.0247 30.1324L30.7124 29.978ZM34.7384 22.4148L25.2201 22.8521L26.0947 27.7399L27.5096 24.7815L30.8925 26.325L34.7384 22.4148ZM14.3769 26.3379L17.7469 24.7944L19.1489 27.7271L20.0364 22.8393L10.5181 22.4148L14.3769 26.3379Z" fill="#262626" stroke="#FEF6EE" stroke-width="0.7" stroke-linecap="round" stroke-linejoin="round"/>
<path d="M10.5186 22.4148L14.506 30.1967L14.3773 26.3379L10.5186 22.4148ZM30.8929 26.3379L30.7386 30.1967L34.726 22.4148L30.8929 26.3379ZM20.0369 22.8521L19.1365 27.7399L20.2684 33.5024L20.5257 25.9006L20.0369 22.8521ZM25.2076 22.8521L24.7446 25.8877L24.9761 33.5024L26.0952 27.7271L25.2076 22.8393V22.8521Z" fill="#262626" stroke="#FEF6EE" stroke-width="0.7" stroke-linecap="round" stroke-linejoin="round"/>
<path d="M26.0952 27.7263L24.9761 33.5016L25.7865 34.0676L30.7386 30.2088L30.8929 26.3372L26.0952 27.7263ZM14.3774 26.3372L14.506 30.1959L19.471 34.0547L20.2684 33.5016L19.1494 27.7263L14.3645 26.3372H14.3774Z" fill="#262626" stroke="#FEF6EE" stroke-width="0.7" stroke-linecap="round" stroke-linejoin="round"/>
<path d="M26.2114 39.3794L26.2499 37.7973L25.8126 37.4371H19.4328L19.0083 37.7973L19.0469 39.3794L13.696 36.8455L15.574 38.389L19.3685 41.0001H25.8641L29.6714 38.3761L31.5236 36.8455L26.1985 39.3794H26.2114Z" fill="#262626" stroke="#FEF6EE" stroke-width="0.7" stroke-linecap="round" stroke-linejoin="round"/>
<path d="M25.7871 34.0538L24.9768 33.5007H20.2691L19.4716 34.0667L19.0085 37.7968L19.433 37.4367H25.8129L26.2502 37.7968L25.7871 34.0667V34.0538Z" fill="#262626" stroke="#FEF6EE" stroke-width="0.7" stroke-linecap="round" stroke-linejoin="round"/>
<path d="M42.8292 14.3128L44.2441 7.4313L42.1089 1L25.7734 13.0908L32.0632 18.3774L40.9384 20.9628L42.8935 18.6861L42.0446 18.0687L43.3951 16.8339L42.3661 16.0364L43.7167 15.0074L42.8163 14.3128H42.8292ZM1 7.41844L2.44061 14.3128L1.5145 14.9945L2.8908 16.0235L1.86179 16.8339L3.1995 18.0687L2.35057 18.6861L4.30569 20.9628L13.1809 18.3902L19.4707 13.078L3.13519 1L1 7.41844Z" fill="#262626" stroke="#FEF6EE" stroke-width="0.7" stroke-linecap="round" stroke-linejoin="round"/>
<path d="M40.9385 20.9627L32.0633 18.3901L34.7387 22.4161L30.7513 30.198L36.025 30.1337H43.9098L40.9385 20.9627ZM13.181 18.3773L4.30581 20.9627L1.34741 30.1337H9.23219L14.5058 30.198L10.5184 22.4161L13.1939 18.3773H13.181ZM25.2075 22.8535L25.7864 13.0779L28.3589 6.13208H16.8854L19.458 13.0779L20.0368 22.8535L20.2554 25.9148V33.5037H24.976L25.0017 25.9148L25.2075 22.8535Z" fill="#262626" stroke="#FEF6EE" stroke-width="0.7" stroke-linecap="round" stroke-linejoin="round"/>
</svg>
