
<svg width="588" height="360" viewBox="0 0 588 360" fill="none" xmlns="http://www.w3.org/2000/svg">
<g clip-path="url(#clip0_12518_297)">
<rect width="588" height="360" fill="#1B443D"/>
<g clip-path="url(#clip1_12518_297)">
<g clip-path="url(#clip2_12518_297)">
<path d="M471.263 193.741C459.069 192.768 446.946 196.369 437.162 203.87V190.558C437.248 190.026 437.288 189.488 437.282 188.949C438.846 181.5 443.012 174.888 449.001 170.351C454.99 165.813 462.392 163.661 469.822 164.297C471.083 164.393 472.351 164.235 473.552 163.831C474.754 163.427 475.866 162.786 476.824 161.943C477.783 161.1 478.57 160.072 479.14 158.918C479.71 157.764 480.053 156.507 480.147 155.218C480.242 153.929 480.087 152.634 479.692 151.406C479.297 150.178 478.668 149.042 477.843 148.062C477.019 147.083 476.013 146.278 474.884 145.696C473.755 145.113 472.524 144.764 471.263 144.667C459.069 143.693 446.945 147.294 437.162 154.796V126.014C437.162 123.41 436.15 120.914 434.349 119.073C432.548 117.233 430.105 116.199 427.557 116.199C425.01 116.199 422.567 117.233 420.766 119.073C418.964 120.914 417.952 123.41 417.952 126.014V154.726C408.187 147.196 396.046 143.614 383.856 144.667C382.595 144.763 381.364 145.112 380.235 145.694C379.106 146.276 378.1 147.08 377.274 148.059C375.607 150.037 374.777 152.61 374.967 155.213C375.157 157.816 376.351 160.236 378.287 161.939C380.222 163.643 382.741 164.491 385.288 164.297C392.764 163.685 400.201 165.885 406.202 170.483C412.203 175.08 416.354 181.758 417.875 189.263C417.875 189.491 417.931 189.709 417.955 189.935V203.803C408.189 196.272 396.047 192.689 383.856 193.741C381.309 193.935 378.941 195.155 377.273 197.133C375.606 199.111 374.776 201.685 374.966 204.289C375.156 206.892 376.35 209.312 378.286 211.015C380.222 212.719 382.74 213.567 385.288 213.373C392.764 212.761 400.201 214.96 406.202 219.557C412.202 224.154 416.354 230.833 417.875 238.337C417.875 238.577 417.931 238.783 417.955 239.009V458.993C417.955 461.596 418.967 464.092 420.768 465.933C422.569 467.773 425.012 468.807 427.56 468.807C430.107 468.807 432.55 467.773 434.351 465.933C436.153 464.092 437.164 461.596 437.164 458.993V239.63C437.251 239.098 437.291 238.559 437.284 238.02C438.849 230.572 443.015 223.962 449.003 219.426C454.992 214.889 462.393 212.737 469.822 213.373C472.369 213.568 474.889 212.721 476.825 211.019C478.762 209.316 479.957 206.897 480.148 204.293C480.339 201.69 479.511 199.116 477.844 197.137C476.178 195.158 473.811 193.936 471.263 193.741Z" fill="#398C7F"/>
</g>
<g clip-path="url(#clip3_12518_297)">
<path d="M464.691 316.834C490.249 316.834 510.968 296.115 510.968 270.556C510.968 244.998 490.249 224.279 464.691 224.279C439.133 224.279 418.414 244.998 418.414 270.556C418.414 296.115 439.133 316.834 464.691 316.834Z" fill="#DBECFD"/>
<path d="M459.748 185.214H469.753V235.235H459.748V185.214ZM459.748 300.263H469.753V350.285H459.748V300.263ZM510.053 215.37L517.128 222.443L487.533 252.046L480.458 244.973L510.053 215.37ZM441.973 283.451L449.046 290.526L419.443 320.122L412.369 313.046L441.973 283.451ZM419.448 215.372L449.048 244.973L441.974 252.046L412.374 222.446L419.448 215.372ZM487.528 283.452L517.126 313.05L510.053 320.124L480.454 290.525L487.528 283.452ZM382.215 262.747H432.236V272.752H382.215V262.747ZM497.264 262.747H547.286V272.752H497.264V262.747Z" fill="#F9D5FF"/>
<path d="M459.748 185.214H469.753V213.861H459.748V185.214Z" fill="#2B2B2B"/>
<path d="M464.75 205.519C473.73 205.519 481.009 198.239 481.009 189.259C481.009 180.28 473.73 173 464.75 173C455.77 173 448.49 180.28 448.49 189.259C448.49 198.239 455.77 205.519 464.75 205.519Z" fill="#F9D5FF"/>
<path d="M459.748 322.25H469.753V350.285H459.748V322.25Z" fill="#2B2B2B"/>
<path d="M464.75 362.5C473.73 362.5 481.009 355.22 481.009 346.24C481.009 337.261 473.73 329.981 464.75 329.981C455.77 329.981 448.49 337.261 448.49 346.24C448.49 355.22 455.77 362.5 464.75 362.5Z" fill="#F9D5FF"/>
<path d="M382.215 262.748H409.972V272.752H382.215V262.748Z" fill="#2B2B2B"/>
<path d="M386.259 284.009C395.239 284.009 402.519 276.73 402.519 267.75C402.519 258.77 395.239 251.49 386.259 251.49C377.28 251.49 370 258.77 370 267.75C370 276.73 377.28 284.009 386.259 284.009Z" fill="#F9D5FF"/>
<path d="M517.752 262.748H547.285V272.752H517.752V262.748Z" fill="#2B2B2B"/>
<path d="M543.24 284.009C552.22 284.009 559.499 276.73 559.499 267.75C559.499 258.77 552.22 251.49 543.24 251.49C534.26 251.49 526.98 258.77 526.98 267.75C526.98 276.73 534.26 284.009 543.24 284.009Z" fill="#F9D5FF"/>
<path d="M510.05 215.373L517.125 222.447L498.241 241.329L491.168 234.256L510.05 215.373Z" fill="#2B2B2B"/>
<path d="M511.196 234.91C518.711 234.91 524.803 228.818 524.803 221.304C524.803 213.789 518.711 207.697 511.196 207.697C503.682 207.697 497.59 213.789 497.59 221.304C497.59 228.818 503.682 234.91 511.196 234.91Z" fill="#F9D5FF"/>
<path d="M465.254 284.009C474.233 284.009 481.513 276.73 481.513 267.75C481.513 258.77 474.233 251.49 465.254 251.49C456.274 251.49 448.994 258.77 448.994 267.75C448.994 276.73 456.274 284.009 465.254 284.009Z" fill="#F9D5FF"/>
<path d="M465.255 284.843C462.618 284.851 460.016 284.242 457.657 283.066L458.4 281.572C460.529 282.634 462.876 283.183 465.255 283.176C473.761 283.176 480.681 276.256 480.681 267.75C480.681 263.761 479.165 259.978 476.41 257.095L477.615 255.943C480.66 259.119 482.356 263.35 482.349 267.75C482.347 277.175 474.679 284.843 465.255 284.843ZM432.019 293.406L439.093 300.481L419.448 320.125L412.375 313.051L432.019 293.406Z" fill="#2B2B2B"/>
<path d="M418.304 327.802C425.818 327.802 431.91 321.711 431.91 314.196C431.91 306.681 425.818 300.589 418.304 300.589C410.789 300.589 404.697 306.681 404.697 314.196C404.697 321.711 410.789 327.802 418.304 327.802Z" fill="#F9D5FF"/>
<path d="M419.447 215.372L439.583 235.508L432.509 242.582L412.373 222.447L419.447 215.372ZM496.699 292.618L517.131 313.049L510.057 320.124L489.625 299.693L496.699 292.618Z" fill="#2B2B2B"/>
<path d="M418.304 234.91C425.818 234.91 431.91 228.818 431.91 221.304C431.91 213.789 425.818 207.697 418.304 207.697C410.789 207.697 404.697 213.789 404.697 221.304C404.697 228.818 410.789 234.91 418.304 234.91Z" fill="#F9D5FF"/>
<path d="M511.196 327.802C518.711 327.802 524.803 321.711 524.803 314.196C524.803 306.681 518.711 300.589 511.196 300.589C503.682 300.589 497.59 306.681 497.59 314.196C497.59 321.711 503.682 327.802 511.196 327.802Z" fill="#F9D5FF"/>
</g>
<path d="M699.376 387.645C698.329 380.198 694.368 373.469 688.36 368.936C682.352 364.403 674.789 362.436 667.33 363.466L640.273 367.376L662.703 351.374C668.841 347.035 673.001 340.439 674.269 333.037C675.538 325.635 673.81 318.033 669.466 311.903C665.122 305.773 658.518 301.617 651.107 300.351C643.695 299.084 636.083 300.81 629.946 305.148L607.516 321.146L619.979 296.611C623.321 289.973 623.907 282.286 621.612 275.219C619.316 268.151 614.322 262.273 607.715 258.858C601.107 255.444 593.418 254.769 586.316 256.98C579.213 259.191 573.27 264.109 569.775 270.669L557.312 295.203V267.82C557.361 264.053 556.66 260.314 555.251 256.819C553.841 253.325 551.751 250.145 549.101 247.464C546.452 244.783 543.295 242.654 539.815 241.201C536.335 239.748 532.6 239 528.828 239C525.056 239 521.322 239.748 517.842 241.201C514.362 242.654 511.205 244.783 508.555 247.464C505.905 250.145 503.815 253.325 502.406 256.819C500.996 260.314 500.296 264.053 500.345 267.82V295.203L487.886 270.654C486.207 267.318 483.881 264.347 481.043 261.915C478.206 259.482 474.913 257.636 471.357 256.484C467.8 255.331 464.049 254.895 460.323 255.2C456.596 255.506 452.967 256.547 449.646 258.263C446.324 259.979 443.377 262.336 440.975 265.198C438.572 268.06 436.762 271.37 435.65 274.935C434.537 278.5 434.144 282.251 434.493 285.969C434.842 289.688 435.926 293.3 437.682 296.597L450.141 321.131L427.711 305.134C424.672 302.985 421.239 301.456 417.608 300.633C413.977 299.81 410.22 299.709 406.55 300.336C402.88 300.964 399.37 302.307 396.22 304.289C393.07 306.271 390.341 308.853 388.19 311.888C383.847 318.018 382.119 325.62 383.387 333.023C384.655 340.425 388.816 347.021 394.954 351.359L417.388 367.362L390.326 363.451C386.631 362.938 382.87 363.156 379.26 364.094C375.649 365.032 372.258 366.671 369.282 368.918C366.305 371.164 363.801 373.974 361.911 377.188C360.022 380.401 358.785 383.954 358.271 387.645C357.757 391.336 357.976 395.091 358.915 398.698C359.854 402.304 361.495 405.69 363.744 408.663C365.994 411.636 368.807 414.137 372.025 416.024C375.242 417.911 378.8 419.146 382.495 419.66L436.259 427.481V427.836H624.606V427.125L676.234 419.66C683.517 418.406 690.019 414.353 694.345 408.368C698.671 402.383 700.477 394.944 699.376 387.645Z" fill="url(#paint0_linear_12518_297)"/>
<g clip-path="url(#clip4_12518_297)">
<path d="M353.809 260.841L351.047 258.193L352.428 259.536L351.047 258.192C351.085 258.153 354.269 254.737 353.771 250.323L357.568 249.9C358.259 256.12 354.001 260.649 353.809 260.841ZM388.104 149.792L385.342 147.144C385.38 147.105 388.564 143.689 388.065 139.275L391.863 138.853C392.554 145.071 388.296 149.6 388.104 149.792Z" fill="#98C2FE"/>
<path d="M374.6 235.814L371.033 234.432C374.294 225.833 381.122 220.574 388.334 215.008C395.393 209.558 402.681 203.915 406.556 194.779L410.085 196.276C405.827 206.336 398.115 212.283 390.674 218.041C383.886 223.3 377.478 228.213 374.6 235.814Z" fill="#F9D5FF"/>
</g>
<g clip-path="url(#clip5_12518_297)">
<path d="M552.806 208.071C554.604 208.071 556.061 206.613 556.061 204.815C556.061 203.018 554.604 201.56 552.806 201.56C551.008 201.56 549.551 203.018 549.551 204.815C549.551 206.613 551.008 208.071 552.806 208.071Z" fill="#BFD9FF"/>
</g>
<g clip-path="url(#clip6_12518_297)">
<path d="M361.255 336.571C363.053 336.571 364.511 335.113 364.511 333.315C364.511 331.518 363.053 330.06 361.255 330.06C359.457 330.06 358 331.518 358 333.315C358 335.113 359.457 336.571 361.255 336.571Z" fill="#BFD9FF"/>
</g>
</g>
</g>
<defs>
<linearGradient id="paint0_linear_12518_297" x1="528.831" y1="274.378" x2="528.831" y2="422.672" gradientUnits="userSpaceOnUse">
<stop stop-color="#43AB99"/>
<stop offset="0.996" stop-color="#357B6F"/>
</linearGradient>
<clipPath id="clip0_12518_297">
<rect width="588" height="360" fill="white"/>
</clipPath>
<clipPath id="clip1_12518_297">
<rect width="514" height="514" fill="white" transform="translate(279 -108)"/>
</clipPath>
<clipPath id="clip2_12518_297">
<rect width="105.199" height="352.604" fill="white" transform="translate(374.961 116.204)"/>
</clipPath>
<clipPath id="clip3_12518_297">
<rect width="189.5" height="189.5" fill="white" transform="translate(370 173)"/>
</clipPath>
<clipPath id="clip4_12518_297">
<rect width="39.0638" height="79.4989" fill="white" transform="translate(370.678 181)"/>
</clipPath>
<clipPath id="clip5_12518_297">
<rect width="6.51067" height="6.51067" fill="white" transform="translate(549.551 201.56)"/>
</clipPath>
<clipPath id="clip6_12518_297">
<rect width="6.51067" height="6.51067" fill="white" transform="translate(358 330.06)"/>
</clipPath>
</defs>
</svg>
