<svg width="118" height="37" viewBox="0 0 118 37" fill="none" xmlns="http://www.w3.org/2000/svg">
<path d="M31.3253 3.46875V4.39375H32.2503V3.46875H31.3253ZM31.3253 5.31875V6.24375H32.2503V5.31875H31.3253ZM28.5503 6.24375V7.16875H29.4753V6.24375H28.5503Z" fill="#FDB511"/>
<path d="M16.4482 6.9375C9.10342 6.9375 3.15137 12.8896 3.15137 20.2344C3.15137 27.5792 9.10342 33.5313 16.4482 33.5313C23.7931 33.5313 29.7451 27.5792 29.7451 20.2344C29.7451 12.8896 23.7931 6.9375 16.4482 6.9375ZM16.4482 11.1771C21.4457 11.1771 25.5055 15.2369 25.5055 20.2344C25.5055 25.2319 21.4457 29.2917 16.4482 29.2917C11.4507 29.2917 7.42949 25.2319 7.42949 20.2344C7.42949 15.2369 11.4507 11.1771 16.4482 11.1771Z" fill="#FDB511"/>
<path d="M37.4614 27.2719C35.5497 27.2719 33.9464 26.797 32.6514 25.8474L33.8909 23.8124C34.9269 24.54 36.0985 24.9039 37.4059 24.9039C38.0472 24.9039 38.5529 24.7805 38.9229 24.5339C39.2929 24.2749 39.4779 23.9172 39.4779 23.4609C39.4779 23.3375 39.4655 23.2265 39.4409 23.1279C39.4162 23.0292 39.373 22.9367 39.3114 22.8504C39.2497 22.7517 39.188 22.6715 39.1264 22.6099C39.0647 22.5359 38.966 22.4619 38.8304 22.3879C38.707 22.3139 38.596 22.2522 38.4974 22.2029C38.411 22.1535 38.2692 22.0919 38.0719 22.0179C37.8745 21.9439 37.708 21.8884 37.5724 21.8514C37.449 21.802 37.2579 21.7342 36.9989 21.6479C36.7399 21.5616 36.524 21.4875 36.3514 21.4259C35.895 21.2655 35.5065 21.099 35.1859 20.9264C34.8652 20.7414 34.5384 20.507 34.2054 20.2234C33.8724 19.9274 33.6195 19.5574 33.4469 19.1134C33.2742 18.6571 33.1879 18.1391 33.1879 17.5594C33.1879 16.3877 33.5949 15.4812 34.4089 14.8399C35.2229 14.1862 36.2959 13.8594 37.6279 13.8594C39.2312 13.8594 40.5324 14.1554 41.5314 14.7474L40.5879 16.8749C39.6505 16.4309 38.6947 16.2089 37.7204 16.2089C36.4377 16.2089 35.7964 16.6282 35.7964 17.4669C35.7964 17.6642 35.8334 17.8369 35.9074 17.9849C35.9814 18.1329 36.0615 18.2562 36.1479 18.3549C36.2342 18.4536 36.3884 18.5522 36.6104 18.6509C36.8447 18.7496 37.0359 18.8236 37.1839 18.8729C37.3442 18.9222 37.6032 19.0024 37.9609 19.1134C38.1212 19.1627 38.2445 19.1997 38.3309 19.2244C38.7625 19.36 39.1325 19.4895 39.4409 19.6129C39.7492 19.7362 40.0884 19.915 40.4584 20.1494C40.8284 20.3714 41.1305 20.6242 41.3649 20.9079C41.5992 21.1915 41.7965 21.5492 41.9569 21.9809C42.1172 22.4125 42.1974 22.8935 42.1974 23.4239C42.1974 24.5832 41.7842 25.5144 40.9579 26.2174C40.1439 26.9204 38.9784 27.2719 37.4614 27.2719Z" fill="black"/>
<path d="M46.7631 27.5319L43.2666 17.5234H46.1711L47.9656 24.5164L49.4826 17.5234H52.2021L49.3346 27.2174C48.6686 29.4621 47.2811 30.5844 45.1721 30.5844C44.6788 30.5844 44.1546 30.5289 43.5996 30.4179L43.8956 28.4569C44.3889 28.5063 44.7034 28.5309 44.8391 28.5309C45.3448 28.5309 45.7394 28.4508 46.0231 28.2904C46.3068 28.1424 46.5534 27.8896 46.7631 27.5319Z" fill="black"/>
<path d="M61.3746 18.7808C62.2996 17.7941 63.2863 17.3008 64.3346 17.3008C65.3089 17.3008 65.9934 17.6338 66.3881 18.2998C66.7951 18.9658 66.9986 19.7983 66.9986 20.7973V27.0873H64.1866V20.7603C64.1866 19.9956 63.8906 19.6133 63.2986 19.6133C62.8299 19.6133 62.3058 19.8723 61.7261 20.3903V27.0873H58.9141V20.7603C58.9141 19.9956 58.6181 19.6133 58.0261 19.6133C57.4834 19.6133 56.9593 19.8846 56.4536 20.4273V27.0873H53.6416V17.5228H55.3806L55.9356 18.9843C56.9099 17.862 57.9521 17.3008 59.0621 17.3008C60.1721 17.3008 60.9429 17.7941 61.3746 18.7808Z" fill="black"/>
<path d="M74.0231 20.9638V20.7233C74.0231 20.2916 73.9244 19.9771 73.7271 19.7798C73.5421 19.5825 73.2153 19.4838 72.7466 19.4838C72.0189 19.4838 71.1248 19.7305 70.0641 20.2238L69.1021 18.3738C70.3354 17.6585 71.6304 17.3008 72.9871 17.3008C74.2574 17.3008 75.2133 17.6153 75.8546 18.2443C76.5083 18.861 76.8351 19.7428 76.8351 20.8898V27.0873H75.0961C74.7754 26.4089 74.6089 26.0698 74.5966 26.0698C73.7209 26.8714 72.7836 27.2723 71.7846 27.2723C70.9336 27.2723 70.2183 27.0256 69.6386 26.5323C69.0713 26.0266 68.7876 25.3421 68.7876 24.4788C68.7876 23.4675 69.1144 22.7275 69.7681 22.2588C70.5328 21.6915 71.9511 21.2598 74.0231 20.9638ZM74.0231 24.7193V22.7028C72.8021 22.9495 72.0621 23.2208 71.8031 23.5168C71.6304 23.7018 71.5441 23.9546 71.5441 24.2753C71.5441 24.9536 71.8709 25.2928 72.5246 25.2928C73.0673 25.2928 73.5668 25.1016 74.0231 24.7193Z" fill="black"/>
<path d="M79.0791 27.0873V17.5228H80.8181L81.3731 18.9843C82.3474 17.862 83.4143 17.3008 84.5736 17.3008C86.3989 17.3008 87.3116 18.4663 87.3116 20.7973V27.0873H84.4996V20.7603C84.4996 19.9956 84.1789 19.6133 83.5376 19.6133C82.9456 19.6133 82.3968 19.8846 81.8911 20.4273V27.0873H79.0791Z" fill="black"/>
<path d="M90.2229 19.4482H88.8169V17.5242H90.2599L90.7409 14.8047H93.0349V17.5242H95.0699V19.4482H93.0349V24.0547C93.0349 24.474 93.1027 24.7639 93.2384 24.9242C93.3741 25.0845 93.6516 25.1647 94.0709 25.1647C94.3052 25.1647 94.6321 25.103 95.0514 24.9797L95.3844 26.9222C94.6814 27.1565 93.9661 27.2737 93.2384 27.2737C91.2281 27.2737 90.2229 26.25 90.2229 24.2027V19.4482Z" fill="black"/>
<path d="M99.4421 23.1283C99.5038 23.782 99.6826 24.2629 99.9786 24.5713C100.287 24.8796 100.743 25.0338 101.348 25.0338C101.681 25.0338 102.014 24.9844 102.347 24.8858C102.692 24.7871 102.945 24.6946 103.105 24.6083C103.278 24.5219 103.531 24.3863 103.864 24.2013L104.974 25.9773C104.591 26.2609 104.264 26.4829 103.993 26.6433C103.722 26.7913 103.333 26.9331 102.828 27.0688C102.322 27.2044 101.761 27.2723 101.144 27.2723C99.7381 27.2723 98.6158 26.8406 97.7771 25.9773C96.9508 25.1016 96.5376 23.9115 96.5376 22.4068C96.5376 20.9021 96.9323 19.675 97.7216 18.7253C98.5109 17.7756 99.5963 17.3008 100.978 17.3008C102.396 17.3008 103.457 17.7756 104.16 18.7253C104.863 19.675 105.214 20.896 105.214 22.3883V23.1283H99.4421ZM99.4421 21.4818H102.347C102.347 20.0388 101.884 19.3173 100.959 19.3173C100.515 19.3173 100.17 19.49 99.9231 19.8353C99.6764 20.1683 99.5161 20.7171 99.4421 21.4818Z" fill="black"/>
<path d="M111.225 27.2723C109.696 27.2723 108.543 26.8221 107.766 25.9218C107.001 25.0091 106.619 23.819 106.619 22.3513C106.619 20.8836 107.019 19.675 107.821 18.7253C108.623 17.7756 109.757 17.3008 111.225 17.3008C112.52 17.3008 113.575 17.6585 114.389 18.3738L113.075 20.2423C112.742 19.9956 112.452 19.8291 112.206 19.7428C111.959 19.6441 111.638 19.5948 111.244 19.5948C110.097 19.5948 109.523 20.5013 109.523 22.3143C109.523 24.0903 110.109 24.9783 111.281 24.9783C111.91 24.9783 112.545 24.7254 113.186 24.2198L114.537 25.9588C113.661 26.8344 112.557 27.2723 111.225 27.2723Z" fill="black"/>
<path d="M20.2256 13.6445C17.8112 16.6621 17.2028 17.9871 16.2409 20.4269C15.1496 18.2196 13.8471 16.6962 11.5923 15.6872C11.1651 15.5782 10.9551 15.515 10.6673 15.9185C10.3795 16.322 10.554 16.6851 10.8985 17.1133C11.8014 18.2354 12.816 19.2722 13.5194 20.5435C14.3439 22.0339 15.3705 24.4903 15.7162 25.1299C15.9912 25.6386 16.6563 25.8622 16.911 25.8622C18.2756 25.7008 18.2761 25.007 18.5362 23.8045C18.958 21.8325 19.5043 19.7938 22.0756 17.3445V13.6445H20.2256Z" fill="black"/>
<path d="M30.4004 4.39453V5.31953H31.3254V4.39453H30.4004ZM30.4004 5.31953H28.5504V6.24453H30.4004V5.31953ZM28.5504 6.24453H27.6254V8.09453H28.5504V6.24453ZM28.5504 8.09453V9.01953H29.4754V8.09453H28.5504ZM29.4754 8.09453H30.4004V7.16953H29.4754V8.09453ZM28.5504 9.01953H27.6254V9.94453H26.7004V9.01953H24.8504V9.94453H23.9254V10.8695H24.8504V11.7945H23.9254V10.8695H23.0004V11.7945H22.0754V12.7195H21.1504V16.4195H23.0004V15.4945H23.9254V14.5695H24.8504V13.6445H23.9254V12.7195H24.8504V13.6445H25.7754V12.7195H26.7004V11.7945H27.6254V10.8695H28.5504V9.01953ZM26.7004 9.01953H27.6254V8.09453H26.7004V9.01953ZM26.7004 8.09453V7.16953H25.7754V8.09453H26.7004Z" fill="black"/>
</svg>
