<svg width="151" height="29" viewBox="0 0 151 29" fill="none" xmlns="http://www.w3.org/2000/svg">
<g clip-path="url(#clip0_11775_2354)">
<mask id="mask0_11775_2354" style="mask-type:luminance" maskUnits="userSpaceOnUse" x="0" y="7" width="15" height="17">
<path d="M0.128418 7.11328H14.4773V23.2249H0.128418V7.11328Z" fill="white"/>
</mask>
<g mask="url(#mask0_11775_2354)">
<path fill-rule="evenodd" clip-rule="evenodd" d="M0.751418 15.3114L8.94958 7.11328L13.8543 12.0191C14.6849 12.8498 14.6849 14.1961 13.8543 15.0268L5.65842 23.2249L0.751418 18.3191C-0.0792487 17.4884 -0.0792487 16.1421 0.751418 15.3114Z" fill="#12C264"/>
</g>
<mask id="mask1_11775_2354" style="mask-type:luminance" maskUnits="userSpaceOnUse" x="10" y="0" width="13" height="12">
<path d="M10.0464 0.488281H22.8646V11.5448H10.0464V0.488281Z" fill="white"/>
</mask>
<g mask="url(#mask1_11775_2354)">
<path fill-rule="evenodd" clip-rule="evenodd" d="M10.0464 6.01711L14.9511 1.11128C15.7817 0.280615 17.1292 0.280615 17.9599 1.11128L22.8646 6.01711L17.9599 10.9218C17.1292 11.7524 15.7817 11.7524 14.9511 10.9218L10.0464 6.01711Z" fill="#12C264"/>
</g>
<mask id="mask2_11775_2354" style="mask-type:luminance" maskUnits="userSpaceOnUse" x="10" y="15" width="13" height="12">
<path d="M10.0464 15.5H22.8646V26.5565H10.0464V15.5Z" fill="white"/>
</mask>
<g mask="url(#mask2_11775_2354)">
<path fill-rule="evenodd" clip-rule="evenodd" d="M10.0464 21.0277L14.9511 16.123C15.7817 15.2923 17.1292 15.2923 17.9599 16.123L22.8646 21.0277L17.9599 25.9335C17.1292 26.7642 15.7817 26.7642 14.9511 25.9335L10.0464 21.0277Z" fill="#12C264"/>
</g>
<path fill-rule="evenodd" clip-rule="evenodd" d="M19.0564 12.0204L27.6197 3.45703L32.5267 8.3617C33.3574 9.19236 33.3574 10.5387 32.5267 11.3694L23.9634 19.9327L19.0576 15.028C18.2269 14.1962 18.2269 12.8499 19.0576 12.0192" fill="#12C264"/>
<path fill-rule="evenodd" clip-rule="evenodd" d="M46.164 18.273H49.202C50.3897 18.273 51.2577 17.4271 51.2577 16.3316C51.2577 15.235 50.3897 14.458 49.1787 14.458H46.1652L46.164 18.273ZM46.164 11.7396H48.4705C49.4762 11.7396 50.1843 11.0326 50.1843 10.0503C50.1843 9.11346 49.4762 8.40529 48.4927 8.40529H46.1652L46.164 11.7396ZM42.7153 21.3098V5.39062H49.0422C50.3208 5.39062 51.3942 5.77913 52.2622 6.55496C53.1535 7.30863 53.5875 8.29096 53.5875 9.45646C53.5875 10.986 52.8338 12.197 51.554 12.6531C53.5875 13.0195 54.7518 14.5723 54.7518 16.6046C54.7518 17.9533 54.2957 19.0943 53.3588 19.9856C52.4453 20.8758 51.3032 21.3098 49.9102 21.3098H42.7153ZM58.407 11.5121C59.4115 11.5121 60.2795 12.3568 60.2795 13.3613C60.2795 14.3891 59.4115 15.235 58.407 15.235C57.4013 15.235 56.5333 14.3891 56.5333 13.3613C56.5333 12.3568 57.4013 11.5121 58.407 11.5121ZM66.3777 12.974H69.3702C69.8497 12.974 70.3292 12.8141 70.7632 12.4711C71.1972 12.1281 71.4258 11.5576 71.4258 10.7806C71.4258 10.0036 71.1972 9.45646 70.7632 9.11346C70.3292 8.77046 69.8497 8.58846 69.3702 8.58846H66.3777V12.974ZM62.8602 21.3086V5.39062H69.5755C70.923 5.39062 72.134 5.89229 73.2528 6.87462C74.3728 7.85696 74.9433 9.15896 74.9433 10.7806C74.9433 12.3335 74.395 13.6133 73.2983 14.6411C72.2017 15.6678 70.9685 16.1706 69.5767 16.1706H66.3777V21.3098L62.8602 21.3086ZM76.7482 21.3098V9.79829H80.1513V11.3745C80.6763 10.2101 81.9095 9.54746 83.4857 9.54746C83.7143 9.54746 84.0107 9.57079 84.377 9.61629V12.813C84.034 12.7453 83.6455 12.6998 83.2337 12.6998C81.2935 12.6998 80.1513 13.7965 80.1513 15.6911V21.3098H76.7482ZM89.2875 17.7013C89.8592 18.273 90.5662 18.5693 91.4108 18.5693C92.2567 18.5693 92.9648 18.273 93.5353 17.7013C94.107 17.1075 94.4045 16.3993 94.4045 15.5546C94.4045 14.7088 94.107 14.0018 93.5353 13.4313C92.9648 12.8363 92.2567 12.54 91.412 12.54C90.5662 12.54 89.8592 12.8363 89.2887 13.4301C88.717 14.0018 88.4195 14.7088 88.4195 15.5535C88.4195 16.3993 88.717 17.1308 89.2875 17.7013ZM95.934 11.238C97.1905 12.4023 97.8077 13.842 97.8077 15.5546C97.8077 17.2673 97.1905 18.7058 95.934 19.8946C94.6775 21.059 93.1702 21.6528 91.412 21.6528C89.6305 21.6528 88.122 21.059 86.8667 19.8946C85.6335 18.7058 85.0163 17.2673 85.0163 15.5546C85.0163 13.842 85.6335 12.4023 86.8667 11.238C88.1232 10.0503 89.6305 9.45646 91.412 9.45646C93.1702 9.45646 94.6787 10.0503 95.934 11.238ZM100.343 21.3098V12.8818H98.8122V9.79829H100.343V5.39062H103.655V9.79829H106.19V12.8818H103.655V21.3098H100.343ZM110.986 17.7013C111.558 18.273 112.266 18.5693 113.111 18.5693C113.957 18.5693 114.664 18.273 115.234 17.7013C115.806 17.1075 116.103 16.3993 116.103 15.5546C116.103 14.7088 115.806 14.0018 115.235 13.4313C114.664 12.8363 113.957 12.54 113.112 12.54C112.266 12.54 111.558 12.8363 110.986 13.4301C110.416 14.0018 110.118 14.7088 110.118 15.5535C110.118 16.3993 110.416 17.1308 110.986 17.7013ZM117.634 11.238C118.889 12.4023 119.506 13.842 119.506 15.5546C119.506 17.2673 118.889 18.7058 117.634 19.8946C116.378 21.059 114.869 21.6528 113.111 21.6528C111.329 21.6528 109.822 21.059 108.565 19.8946C107.332 18.7058 106.715 17.2673 106.715 15.5546C106.715 13.842 107.332 12.4023 108.565 11.238C109.822 10.0503 111.331 9.45646 113.111 9.45646C114.87 9.45646 116.378 10.0503 117.634 11.238ZM130.767 10.4843V13.7731C129.876 12.9273 128.757 12.5166 127.455 12.5166C126.518 12.5166 125.719 12.7908 125.102 13.3613C124.486 13.933 124.189 14.6411 124.189 15.5313C124.189 17.2673 125.559 18.5238 127.456 18.5238C128.78 18.5238 129.876 18.1131 130.767 17.2906V20.5573C129.854 21.2643 128.666 21.6073 127.181 21.6073C125.33 21.6073 123.801 21.0356 122.59 19.8946C121.38 18.7291 120.785 17.2906 120.785 15.5313C120.785 13.7731 121.38 12.3346 122.59 11.1691C123.801 10.0048 125.332 9.43313 127.181 9.43313C128.62 9.43313 129.83 9.77729 130.767 10.4843ZM136.523 17.7013C137.095 18.273 137.802 18.5693 138.647 18.5693C139.493 18.5693 140.201 18.273 140.771 17.7013C141.343 17.1075 141.639 16.3993 141.639 15.5546C141.639 14.7088 141.343 14.0018 140.771 13.4313C140.2 12.8363 139.493 12.54 138.648 12.54C137.802 12.54 137.094 12.8363 136.523 13.4301C135.952 14.0018 135.655 14.7088 135.655 15.5535C135.655 16.3993 135.952 17.1308 136.523 17.7013ZM143.17 11.238C144.426 12.4023 145.042 13.842 145.042 15.5546C145.042 17.2673 144.426 18.7058 143.17 19.8946C141.913 21.059 140.406 21.6528 138.648 21.6528C136.865 21.6528 135.358 21.059 134.103 19.8946C132.868 18.7058 132.252 17.2673 132.252 15.5546C132.252 13.842 132.868 12.4023 134.103 11.238C135.358 10.0503 136.865 9.45646 138.648 9.45646C140.406 9.45646 141.915 10.0503 143.17 11.238Z" fill="#0B0412"/>
<mask id="mask3_11775_2354" style="mask-type:luminance" maskUnits="userSpaceOnUse" x="0" y="0" width="151" height="27">
<path d="M0.128418 26.5574H150.228V0.488281H0.128418V26.5574Z" fill="white"/>
</mask>
<g mask="url(#mask3_11775_2354)">
<path fill-rule="evenodd" clip-rule="evenodd" d="M146.825 21.3098H150.228V5.39062H146.825V21.3098Z" fill="#0B0412"/>
</g>
</g>
<defs>
<clipPath id="clip0_11775_2354">
<rect width="150.5" height="28" fill="white" transform="translate(0.128418 0.285156)"/>
</clipPath>
</defs>
</svg>
