<svg width="99" height="32" viewBox="0 0 99 32" fill="none" xmlns="http://www.w3.org/2000/svg">
<path fill-rule="evenodd" clip-rule="evenodd" d="M18.4986 17.9371C18.4986 17.9371 25.7064 22.3711 18.1504 26.2694C15.0549 27.8668 8.96339 26.1435 4.714 20.6437C3.21315 18.7022 1.96826 15.5312 1.96826 15.5312C1.96826 15.5312 3.22713 22.1431 7.01214 26.7016C10.9062 31.3916 13.8017 31.9987 16.0578 31.9987C20.6513 31.9987 24.4293 28.769 26.6841 24.8707C28.9389 20.9724 18.4986 17.9385 18.4986 17.9385V17.9371Z" fill="url(#paint0_linear_9492_2945)"/>
<path d="M25.914 7.21752C26.4721 7.5826 27.6247 9.79821 26.0511 10.4514C25.2049 10.8025 24.0313 9.80241 24.0313 9.80241C23.2508 9.10863 22.4997 8.52535 21.7989 8.15468C20.9415 7.70009 20.2309 7.50567 19.263 7.56022C18.7343 7.58959 18.0461 7.71967 17.5258 7.90291C16.7145 8.18965 16.2389 8.19944 15.7507 7.95466C15.2612 7.70988 13.3547 7.11262 11.5951 7.73646C10.1879 8.23441 10.823 8.70159 10.9125 8.90721C11.002 9.11282 10.8873 9.49888 11.2468 9.89752C11.2468 9.89752 11.1698 8.90721 11.4916 9.04848C11.4916 9.04848 13.1127 10.001 14.0778 10.2962C15.043 10.5927 15.4934 10.1675 15.506 10.6053C15.5186 11.0431 15.236 12.8824 13.8974 13.2433C13.8974 13.2433 14.4051 14.0672 16.6487 12.2754C18.4867 10.8081 18.5496 10.699 19.4854 10.7564C21.3863 10.8724 22.1402 14.2448 24.7573 14.3483C29.8249 14.2728 30.2012 8.22602 30.2012 8.22602C30.2012 8.22602 25.4035 6.88322 25.9154 7.21752H25.914ZM13.9785 8.45541C13.91 8.54074 13.4638 8.84986 13.0847 8.45541C12.7057 8.06097 12.4665 8.23162 12.7071 8.06097C12.7071 8.06097 12.9994 7.92389 13.3939 7.95746C13.7883 7.99243 13.9436 8.21483 14.373 8.21483C14.8024 8.21483 14.0471 8.37009 13.9785 8.45541Z" fill="url(#paint1_linear_9492_2945)"/>
<path fill-rule="evenodd" clip-rule="evenodd" d="M16.0705 0.00140112C8.12283 0.00419861 4.22452 2.02958 1.6872 4.59208C-0.237478 6.53634 0.569597 11.0067 2.30684 13.4573C4.10283 15.9891 7.43184 19.8706 16.0691 21.5267C22.9985 22.8555 22.5663 22.8275 23.8196 23.4234C26.7066 24.7956 24.0475 28.3372 24.0475 28.3372C24.0475 28.3372 29.2327 23.7353 26.8115 20.2371C24.4616 16.8437 18.3267 17.4452 11.8449 14.8393C6.82059 12.8209 5.66243 8.24701 7.58011 6.92939C9.67544 5.48868 11.8603 5.23271 16.0705 5.21173C23.6517 5.17396 27.1332 7.4693 27.757 9.08626C29.1166 12.6111 24.9106 14.3497 24.9106 14.3497C24.9106 14.3497 30.1055 14.5889 31.4161 9.13521C32.0805 6.36709 29.7684 -0.00419417 16.0705 2.07178e-06V0.00140112Z" fill="url(#paint2_linear_9492_2945)"/>
<path d="M10.3486 10.4727C10.3486 10.4727 13.0286 12.5064 15.3394 10.9189C15.3394 10.9189 14.2302 12.9372 11.5809 12.4896C11.5809 12.4896 12.2132 12.4281 12.367 12.0742C12.367 12.0742 10.9347 11.6126 10.3486 10.4727Z" fill="url(#paint3_linear_9492_2945)"/>
<path d="M44.7443 12.3266C43.761 11.4846 42.635 10.9013 41.4475 10.9013C39.727 10.9013 39.1745 11.8511 39.1745 12.4343C39.1745 14.6164 45.2773 14.8094 45.2773 18.849C45.2773 21.1597 43.3106 23.8383 39.5438 23.8383C38.0695 23.8383 35.7756 23.3627 34.2607 22.1109L35.7756 19.7134C36.7995 20.4687 38.4794 21.1177 39.7284 21.1177C41.1622 21.1177 42.3497 20.3834 42.3497 19.1315C42.3497 16.604 36.1854 17.0152 36.1854 12.5015C36.1854 10.7516 37.7828 8.20312 41.4069 8.20312C43.8435 8.20312 45.4004 9.2396 46.3837 10.125L44.7457 12.328L44.7443 12.3266Z" fill="black"/>
<path d="M61.1406 23.5903L63.6598 8.47266H66.5678L64.499 20.8907H70.3975L69.9471 23.5903H61.1406Z" fill="black"/>
<path d="M83.3156 8.47266H86.2236L84.6667 17.6946C83.9506 21.9706 81.2063 23.8505 77.6227 23.8505C74.0391 23.8505 71.5409 21.7551 72.2571 17.4792L73.7719 8.47266H76.6799L75.2266 17.1547C74.8378 19.4654 75.3903 21.1509 77.8688 21.1509C80.3474 21.1509 81.4734 19.4668 81.8623 17.1547L83.3156 8.47266Z" fill="black"/>
<path d="M96.4118 12.3266C95.4285 11.4846 94.3025 10.9013 93.115 10.9013C91.3945 10.9013 90.842 11.8511 90.842 12.4343C90.842 14.6164 96.9447 14.8094 96.9447 18.849C96.9447 21.1597 94.9781 23.8383 91.2113 23.8383C89.737 23.8383 87.4431 23.3627 85.9282 22.1109L87.4431 19.7134C88.4669 20.4687 90.1468 21.1177 91.3959 21.1177C92.8296 21.1177 94.0172 20.3834 94.0172 19.1315C94.0172 16.604 87.8529 17.0152 87.8529 12.5015C87.8529 10.7516 89.4503 8.20312 93.0744 8.20312C95.511 8.20312 97.0678 9.2396 98.0512 10.125L96.4132 12.328L96.4118 12.3266Z" fill="black"/>
<path d="M56.3666 8.37109H53.6838L45.4312 23.5545H48.5238L54.4824 11.9337L55.5273 17.7007H53.9635L52.5955 20.4003H55.9987L56.5918 23.5545H59.5613L56.3666 8.37109Z" fill="black"/>
<defs>
<linearGradient id="paint0_linear_9492_2945" x1="3.602" y1="24.7937" x2="26.5051" y2="20.7542" gradientUnits="userSpaceOnUse">
<stop stop-color="#24EBC8"/>
<stop offset="0.12" stop-color="#32D2B5"/>
<stop offset="0.36" stop-color="#589384"/>
<stop offset="0.7" stop-color="#952F37"/>
<stop offset="0.77" stop-color="#A21B28"/>
</linearGradient>
<linearGradient id="paint1_linear_9492_2945" x1="11.3573" y1="12.2502" x2="30.3187" y2="8.90721" gradientUnits="userSpaceOnUse">
<stop stop-color="#FF2E55"/>
<stop offset="0.32" stop-color="#E62A4A"/>
<stop offset="0.98" stop-color="#A8222E"/>
<stop offset="1" stop-color="#A6222E"/>
</linearGradient>
<linearGradient id="paint2_linear_9492_2945" x1="1.70678" y1="4.10392" x2="30.2384" y2="17.4088" gradientUnits="userSpaceOnUse">
<stop stop-color="#00FFD2"/>
<stop offset="0.31" stop-color="#61AE9A"/>
<stop offset="0.58" stop-color="#AC6F6F"/>
<stop offset="0.76" stop-color="#DB4855"/>
<stop offset="0.85" stop-color="#EE3A4B"/>
</linearGradient>
<linearGradient id="paint3_linear_9492_2945" x1="10.3486" y1="11.5133" x2="15.3408" y2="11.5133" gradientUnits="userSpaceOnUse">
<stop stop-color="#FF2E55"/>
<stop offset="0.32" stop-color="#E62A4A"/>
<stop offset="0.98" stop-color="#A8222E"/>
<stop offset="1" stop-color="#A6222E"/>
</linearGradient>
</defs>
</svg>
