<svg width="156" height="44" viewBox="0 0 156 44" fill="none" xmlns="http://www.w3.org/2000/svg">
<path d="M11.8155 29.3015H6.13527V20.3755H0.455078V14.6953H11.8155V29.3015ZM23.1758 29.3015H16.6842L22.7701 14.6953H29.2617L23.1758 29.3015Z" fill="black"/>
<path d="M16.6843 21.187C18.4769 21.187 19.9301 19.7338 19.9301 17.9411C19.9301 16.1485 18.4769 14.6953 16.6843 14.6953C14.8917 14.6953 13.4385 16.1485 13.4385 17.9411C13.4385 19.7338 14.8917 21.187 16.6843 21.187Z" fill="black"/>
<path d="M41.2653 27.5557H44.2693V15.7855H48.1992V12.9462H37.376V15.7863H41.2653V27.5557ZM48.2032 27.5557H51.0222V22.6382C51.0222 20.9301 51.9067 19.9012 53.2456 19.9012C53.7179 19.9012 54.0887 19.9832 54.5204 20.1276V17.2672C54.2131 17.1783 53.8941 17.1368 53.5742 17.1439C52.422 17.1439 51.3728 17.905 51.0222 18.9128V17.268H48.2032V27.5557ZM59.9312 27.7821C61.3512 27.7821 62.4207 27.0615 62.8946 26.4026V27.5548H65.7136V17.268H62.8946V18.4203C62.4207 17.7622 61.3512 17.0416 59.9312 17.0416C57.195 17.0416 55.0957 19.5109 55.0957 22.4118C55.0957 25.3136 57.195 27.7829 59.932 27.7829L59.9312 27.7821ZM60.5284 25.2097C58.9639 25.2097 57.935 24.0372 57.935 22.4118C57.935 20.7857 58.9639 19.6123 60.5284 19.6123C62.0921 19.6123 63.121 20.7857 63.121 22.4118C63.121 24.0372 62.0921 25.2097 60.5284 25.2097ZM72.4252 27.7821C73.8452 27.7821 74.9147 27.0615 75.3878 26.4026V27.5548H78.2068V12.1242H75.3878V18.4211C74.9147 17.7622 73.8452 17.0416 72.4252 17.0416C69.6881 17.0416 67.5889 19.5109 67.5889 22.4118C67.5889 25.3136 69.6881 27.7829 72.4252 27.7829V27.7821ZM73.0216 25.2097C71.4579 25.2097 70.429 24.0372 70.429 22.4118C70.429 20.7857 71.4579 19.6123 73.0216 19.6123C74.5853 19.6123 75.6142 20.7857 75.6142 22.4118C75.6142 24.0372 74.5853 25.2097 73.0216 25.2097ZM82.1407 15.6987C82.3774 15.7007 82.6121 15.6559 82.8314 15.567C83.0506 15.478 83.2502 15.3465 83.4185 15.1802C83.5868 15.0138 83.7206 14.8159 83.8121 14.5976C83.9036 14.3794 83.9512 14.1452 83.9519 13.9086C83.9512 13.672 83.9036 13.4378 83.8121 13.2196C83.7206 13.0013 83.5868 12.8034 83.4185 12.637C83.2502 12.4707 83.0506 12.3392 82.8314 12.2502C82.6121 12.1613 82.3774 12.1165 82.1407 12.1185C81.6672 12.1223 81.2141 12.3122 80.8792 12.6471C80.5443 12.9819 80.3545 13.435 80.3507 13.9086C80.3545 14.3822 80.5443 14.8353 80.8792 15.1702C81.2141 15.505 81.6672 15.6949 82.1407 15.6987ZM80.7418 27.5557H83.5608V17.3849H80.7418V27.5557ZM86.0617 27.5557H88.8807V22.5352C88.8807 20.5593 89.8479 19.6131 91.1649 19.6131C92.3375 19.6131 92.9761 20.5187 92.9761 21.9996V27.5557H95.7951V21.5265C95.7951 18.852 94.3134 17.0408 91.8238 17.0408C90.4857 17.0408 89.4365 17.617 88.8807 18.4398V17.2672H86.0617V27.5557ZM102.968 24.8178C101.548 24.8178 100.355 23.7475 100.355 22.1838C100.355 20.5999 101.548 19.5498 102.968 19.5498C104.388 19.5498 105.581 20.5999 105.581 22.1838C105.581 23.7475 104.388 24.8178 102.968 24.8178ZM102.639 31.9992C105.787 31.9992 108.175 30.3941 108.175 26.6898V17.2047H105.356V18.357C104.8 17.5553 103.688 16.9791 102.372 16.9791C99.6763 16.9791 97.5154 19.2837 97.5154 22.1846C97.5154 25.0653 99.6763 27.3698 102.372 27.3698C103.689 27.3698 104.8 26.7734 105.356 26.0123V26.7117C105.356 28.3582 104.265 29.5307 102.598 29.5307C101.446 29.5307 100.294 29.1396 99.3882 28.2551L97.8448 30.3536C99.0174 31.4855 100.849 31.9992 102.639 31.9992ZM114.135 27.5557H116.788L122.838 12.9462H119.546L115.472 23.0902L111.336 12.9462H108.106L114.135 27.5557ZM125.425 15.5802C125.662 15.5821 125.897 15.5373 126.116 15.4483C126.335 15.3592 126.534 15.2278 126.703 15.0614C126.871 14.8951 127.005 14.6971 127.096 14.479C127.188 14.2608 127.235 14.0267 127.236 13.7901C127.235 13.5536 127.188 13.3195 127.096 13.1013C127.005 12.8831 126.871 12.6852 126.703 12.5188C126.534 12.3525 126.335 12.221 126.116 12.132C125.897 12.043 125.662 11.9981 125.425 12.0001C124.458 12.0001 123.634 12.8018 123.634 13.7901C123.634 14.7777 124.458 15.5802 125.425 15.5802ZM124.026 27.5557H126.845V17.2672H124.026V27.5557ZM134.14 27.7821C136.301 27.7821 137.947 26.8765 138.914 25.4775L136.815 23.9138C136.342 24.6336 135.457 25.2097 134.161 25.2097C132.803 25.2097 131.589 24.4486 131.424 23.0699H139.12C139.181 22.6374 139.161 22.3494 139.161 22.1027C139.161 18.7489 136.795 17.0408 134.099 17.0408C130.972 17.0408 128.687 19.3656 128.687 22.411C128.687 25.6625 131.075 27.7821 134.14 27.7821ZM131.527 21.1565C131.794 19.9012 132.967 19.3656 134.017 19.3656C135.066 19.3656 136.095 19.9215 136.342 21.1565H131.527ZM149.722 27.5557H152.521L155.916 17.2672H152.891L150.957 23.8514L148.858 17.2672H146.698L144.62 23.8514L142.665 17.2672H139.66L143.076 27.5557H145.874L147.788 21.7116L149.722 27.5557Z" fill="black"/>
</svg>
