<svg width="82" height="48" viewBox="0 0 82 48" fill="none" xmlns="http://www.w3.org/2000/svg">
<g clip-path="url(#clip0_671_297)">
<mask id="mask0_671_297" style="mask-type:luminance" maskUnits="userSpaceOnUse" x="0" y="10" width="82" height="28">
<path d="M82 10H0.75V38H82V10Z" fill="white"/>
</mask>
<g mask="url(#mask0_671_297)">
<path d="M36.6212 30.7014C35.8538 30.7014 35.1642 30.5458 34.5523 30.2347C33.9405 29.9236 33.4582 29.4725 33.1057 28.8814C32.7531 28.2903 32.5768 27.5799 32.5768 26.7503V26.5014C32.5768 25.6717 32.7531 24.9614 33.1057 24.3703C33.4582 23.7792 33.9405 23.3281 34.5523 23.0169C35.1642 22.7058 35.8538 22.5503 36.6212 22.5503C37.3887 22.5503 38.0782 22.7058 38.6901 23.0169C39.302 23.3281 39.7842 23.7792 40.1368 24.3703C40.4893 24.9614 40.6657 25.6717 40.6657 26.5014V26.7503C40.6657 27.5799 40.4893 28.2903 40.1368 28.8814C39.7842 29.4725 39.302 29.9236 38.6901 30.2347C38.0782 30.5458 37.3887 30.7014 36.6212 30.7014ZM36.6212 28.9592C37.2227 28.9592 37.7205 28.7673 38.1146 28.3836C38.5087 27.9895 38.7057 27.4295 38.7057 26.7036V26.5481C38.7057 25.8222 38.5087 25.2673 38.1146 24.8836C37.7309 24.4895 37.2331 24.2925 36.6212 24.2925C36.0198 24.2925 35.522 24.4895 35.1279 24.8836C34.7338 25.2673 34.5368 25.8222 34.5368 26.5481V26.7036C34.5368 27.4295 34.7338 27.9895 35.1279 28.3836C35.522 28.7673 36.0198 28.9592 36.6212 28.9592ZM42.4749 33.5947V22.7681H44.4037V23.7014H44.6838C44.8601 23.4006 45.1349 23.1362 45.5082 22.9081C45.8815 22.6695 46.4156 22.5503 47.1104 22.5503C47.7326 22.5503 48.3082 22.7058 48.8371 23.0169C49.366 23.3177 49.7912 23.7636 50.1126 24.3547C50.4341 24.9458 50.5949 25.6614 50.5949 26.5014V26.7503C50.5949 27.5903 50.4341 28.3058 50.1126 28.8969C49.7912 29.4881 49.366 29.9392 48.8371 30.2503C48.3082 30.551 47.7326 30.7014 47.1104 30.7014C46.6437 30.7014 46.2497 30.6444 45.9282 30.5303C45.6171 30.4266 45.363 30.2917 45.166 30.1258C44.9793 29.9495 44.829 29.7733 44.7149 29.5969H44.4349V33.5947H42.4749ZM46.5193 28.9903C47.1312 28.9903 47.6341 28.7984 48.0282 28.4147C48.4326 28.0206 48.6349 27.4503 48.6349 26.7036V26.5481C48.6349 25.8014 48.4326 25.2362 48.0282 24.8525C47.6237 24.4584 47.1208 24.2614 46.5193 24.2614C45.9179 24.2614 45.4149 24.4584 45.0104 24.8525C44.606 25.2362 44.4037 25.8014 44.4037 26.5481V26.7036C44.4037 27.4503 44.606 28.0206 45.0104 28.4147C45.4149 28.7984 45.9179 28.9903 46.5193 28.9903ZM52.0212 30.4836V28.6792H53.4523V21.3992H52.0212V19.5947H57.6212C58.2849 19.5947 58.8605 19.7088 59.3479 19.9369C59.8457 20.1547 60.2294 20.471 60.499 20.8858C60.779 21.2903 60.919 21.7777 60.919 22.3481V22.5036C60.919 23.0014 60.8257 23.411 60.639 23.7325C60.4523 24.0436 60.2294 24.2873 59.9701 24.4636C59.7212 24.6295 59.4827 24.7488 59.2546 24.8214V25.1014C59.4827 25.1636 59.7316 25.2828 60.0012 25.4592C60.2709 25.6251 60.499 25.8688 60.6857 26.1903C60.8827 26.5117 60.9812 26.9317 60.9812 27.4503V27.6058C60.9812 28.2073 60.8412 28.7258 60.5612 29.1614C60.2812 29.5866 59.8923 29.9133 59.3946 30.1414C58.9071 30.3695 58.3368 30.4836 57.6834 30.4836H52.0212ZM55.5057 28.6169H57.4346C57.8805 28.6169 58.2382 28.5081 58.5079 28.2903C58.7879 28.0725 58.9279 27.7614 58.9279 27.3569V27.2014C58.9279 26.7969 58.7931 26.4858 58.5234 26.2681C58.2538 26.0503 57.8909 25.9414 57.4346 25.9414H55.5057V28.6169ZM55.5057 24.0747H57.4034C57.8287 24.0747 58.176 23.9658 58.4457 23.7481C58.7257 23.5303 58.8657 23.2295 58.8657 22.8458V22.6903C58.8657 22.2962 58.7309 21.9955 58.4612 21.7881C58.1916 21.5703 57.839 21.4614 57.4034 21.4614H55.5057V24.0747ZM62.6622 30.4836V19.5947H66.5667L68.7289 29.0836H69.0089V19.5947H71.0311V30.4836H67.1267L64.9645 20.9947H64.6845V30.4836H62.6622ZM72.7721 30.4836V28.6792H74.2032V21.3992H72.7721V19.5947H78.3721C79.0358 19.5947 79.6113 19.7088 80.099 19.9369C80.5968 20.1547 80.9802 20.471 81.2501 20.8858C81.5301 21.2903 81.6701 21.7777 81.6701 22.3481V22.5036C81.6701 23.0014 81.5768 23.411 81.3901 23.7325C81.2035 24.0436 80.9802 24.2873 80.7212 24.4636C80.4723 24.6295 80.2336 24.7488 80.0057 24.8214V25.1014C80.2336 25.1636 80.4825 25.2828 80.7523 25.4592C81.0215 25.6251 81.2501 25.8688 81.4368 26.1903C81.6336 26.5117 81.7323 26.9317 81.7323 27.4503V27.6058C81.7323 28.2073 81.5923 28.7258 81.3123 29.1614C81.0323 29.5866 80.6435 29.9133 80.1457 30.1414C79.658 30.3695 79.0879 30.4836 78.4343 30.4836H72.7721ZM76.2565 28.6169H78.1854C78.6313 28.6169 78.9891 28.5081 79.259 28.2903C79.539 28.0725 79.679 27.7614 79.679 27.3569V27.2014C79.679 26.7969 79.5437 26.4858 79.2746 26.2681C79.0047 26.0503 78.6415 25.9414 78.1854 25.9414H76.2565V28.6169ZM76.2565 24.0747H78.1543C78.5792 24.0747 78.9269 23.9658 79.1968 23.7481C79.4768 23.5303 79.6168 23.2295 79.6168 22.8458V22.6903C79.6168 22.2962 79.4814 21.9955 79.2123 21.7881C78.9424 21.5703 78.5901 21.4614 78.1543 21.4614H76.2565V24.0747Z" fill="black"/>
<path d="M5.55363 14.2888L13.1944 10L20.8353 14.2888L18.0262 15.8732L13.1944 13.1688L8.36274 15.8732L5.55363 14.2888ZM20.8353 19.6976L18.0262 18.1132L13.1944 20.8176L8.36274 18.1132L5.55363 19.6976V22.8663L10.3853 25.5707V30.9795L13.1944 32.5639L16.0036 30.9795V25.5707L20.8353 22.8663V19.6976ZM20.8353 28.2751V25.1064L18.0262 26.6907V29.8595L20.8353 28.2751ZM22.8298 29.3951L17.9981 32.0995V35.2683L25.6389 30.9795V22.402L22.8298 23.9864V29.3951ZM20.0206 16.9932L22.8298 18.5776V21.7464L25.6389 20.162V16.9932L22.8298 15.4088L20.0206 16.9932ZM10.3853 33.2468V36.4156L13.1944 38L16.0036 36.4156V33.2468L13.1944 34.8312L10.3853 33.2468ZM5.55363 28.2751L8.36274 29.8595V26.6907L5.55363 25.1064V28.2751ZM10.3853 16.9932L13.1944 18.5776L16.0036 16.9932L13.1944 15.4088L10.3853 16.9932ZM3.55912 18.5776L6.36825 16.9932L3.55912 15.4088L0.75 16.9932V20.162L3.55912 21.7464V18.5776ZM3.55912 23.9864L0.75 22.402V30.9795L8.3908 35.2683V32.0995L3.55912 29.3951V23.9864Z" fill="#F0B90B"/>
</g>
</g>
<defs>
<clipPath id="clip0_671_297">
<rect width="81" height="48" fill="white" transform="translate(0.75)"/>
</clipPath>
</defs>
</svg>
