
<svg width="190" height="121" viewBox="0 0 190 121" fill="none" xmlns="http://www.w3.org/2000/svg">
<rect y="0.189209" width="190" height="120" rx="24" fill="#F5F5F7"/>
<g clip-path="url(#clip0_1035_3376)">
<path d="M54.402 39.6898C55.14 39.9936 55.9455 40.1938 56.6002 40.6236C57.912 41.4831 58.5307 42.8016 58.533 44.3563C58.5465 54.8998 58.5487 65.4411 58.533 75.9846C58.5285 78.4303 56.895 80.2438 54.4785 80.6128C54.4155 80.6218 54.3592 80.6646 54.3007 80.6938H34.404C34.3342 80.6601 34.269 80.6083 34.197 80.5926C32.9437 80.3496 31.8907 79.7466 31.2292 78.6553C30.84 78.0141 30.6465 77.2558 30.3652 76.5516C30.3652 65.6098 30.3652 54.6703 30.3652 43.7286C30.3945 43.6723 30.4417 43.6206 30.453 43.5621C30.687 42.2886 31.2922 41.2266 32.4082 40.5583C33.0517 40.1758 33.8032 39.9733 34.5052 39.6898C41.136 39.6898 47.769 39.6898 54.3997 39.6898H54.402ZM31.695 60.1401H31.7017C31.7017 65.3578 31.7017 70.5733 31.7017 75.7911C31.7017 77.9421 33.1192 79.3551 35.2702 79.3551C41.397 79.3551 47.5215 79.3551 53.6482 79.3551C55.806 79.3551 57.219 77.9353 57.219 75.7888C57.219 65.3218 57.219 54.8526 57.219 44.3856C57.219 42.5766 55.7452 41.0376 53.9497 41.0331C47.6227 41.0196 41.2957 41.0151 34.9665 41.0218C33.234 41.0218 31.6972 42.5721 31.695 44.2888C31.6905 49.5741 31.695 54.8571 31.695 60.1423V60.1401Z" fill="#075A5A"/>
<path d="M159.632 70.2968C159.198 72.729 157.225 73.4783 155.308 73.5908C153.636 73.6898 152.029 73.413 150.538 72.6098C150.364 72.5153 150.205 72.396 150.016 72.2723C150.313 71.6063 150.601 70.965 150.848 70.4093C151.78 70.7333 152.673 71.1 153.6 71.3498C154.401 71.5658 155.236 71.5568 156.039 71.2845C156.446 71.145 156.799 70.9223 156.916 70.461C157.033 70.0043 156.871 69.6218 156.469 69.4463C155.859 69.1808 155.215 68.994 154.581 68.7848C153.661 68.481 152.7 68.2695 151.822 67.8735C149.617 66.879 149.903 63.765 151.618 62.6018C152.655 61.8975 153.807 61.6883 155.015 61.6838C156.444 61.6793 157.81 61.9515 159.103 62.6963C158.827 63.3578 158.559 64.0013 158.307 64.6043C157.495 64.359 156.727 64.0508 155.931 63.909C155.332 63.8033 154.696 63.882 154.081 63.9315C153.845 63.9518 153.6 64.0868 153.393 64.2195C152.698 64.6718 152.711 65.619 153.458 65.979C154.009 66.2445 154.628 66.3773 155.222 66.5483C155.753 66.7013 156.298 66.8093 156.829 66.9645C158.239 67.3785 159.373 68.085 159.634 69.687V70.2923L159.632 70.2968Z" fill="#075A5A"/>
<path d="M91.3021 73.3903V61.8973C92.0086 61.8973 92.6926 61.8861 93.3743 61.9086C93.4913 61.9131 93.6286 62.0503 93.7163 62.1583C95.3813 64.1811 97.0396 66.2083 98.6978 68.2356C98.8441 68.4133 98.9971 68.5888 99.2243 68.8543V61.9266H101.839V73.4173C101.139 73.4173 100.471 73.4398 99.8026 73.4016C99.6473 73.3926 99.4786 73.1991 99.3593 73.0528C97.6403 70.9648 95.9281 68.8701 94.2136 66.7776C94.1528 66.7033 94.0876 66.6358 93.9503 66.4828V73.3881H91.2998L91.3021 73.3903Z" fill="#075A5A"/>
<path d="M130.436 70.1841V73.3769H127.801V61.8839C128.318 61.8839 128.82 61.8816 129.322 61.8839C130.735 61.8951 132.152 61.8456 133.559 61.9379C135.199 62.0459 136.607 62.6714 137.375 64.2486C138.092 65.7224 137.953 68.3751 135.84 69.4776C135.71 69.5451 135.593 69.6419 135.44 69.7431C136.27 70.9514 137.084 72.1349 137.96 73.4061C137.001 73.4061 136.121 73.4151 135.244 73.3949C135.134 73.3926 135.001 73.2441 134.922 73.1339C134.312 72.2699 133.727 71.3856 133.097 70.5351C132.965 70.3574 132.679 70.2134 132.454 70.1976C131.804 70.1526 131.151 70.1819 130.433 70.1819L130.436 70.1841ZM130.469 68.1186C131.507 68.0714 132.483 68.0826 133.446 67.9656C134.454 67.8419 135.053 67.0904 135.086 66.0981C135.118 65.1644 134.58 64.3476 133.628 64.1991C132.598 64.0371 131.538 64.0551 130.467 63.9921V68.1209L130.469 68.1186Z" fill="#075A5A"/>
<path d="M82.8038 57.2407C82.8038 56.8785 82.8038 56.5612 82.8038 56.244C82.8038 53.1142 82.8038 49.9867 82.7971 46.857C82.7971 46.6072 82.7768 46.3912 83.1436 46.398C85.0426 46.434 86.9506 46.362 88.8406 46.5037C91.1738 46.6792 93.0166 48.2587 93.5498 50.313C94.4566 53.8117 92.2426 56.9752 88.6088 57.216C86.7031 57.342 84.7838 57.2385 82.8038 57.2385V57.2407ZM85.3621 48.3735V55.2967C86.4848 55.236 87.5851 55.272 88.6516 55.0965C90.1321 54.8535 91.0883 53.6542 91.1738 52.1715C91.2751 50.43 90.5641 49.107 89.0318 48.7245C87.8663 48.432 86.6176 48.4815 85.3621 48.3735Z" fill="#075A5A"/>
<path d="M110.465 57.2483V46.3988C110.706 46.3988 110.919 46.3966 111.131 46.3988C112.913 46.4236 114.702 46.3471 116.472 46.5023C118.344 46.6666 119.852 47.5778 120.761 49.2991C121.994 51.6368 121.551 55.8038 117.48 56.9626C116.92 57.1223 116.328 57.2236 115.748 57.2348C114.002 57.2708 112.256 57.2483 110.465 57.2483ZM112.987 55.1491C114.058 55.1491 115.091 55.2548 116.094 55.1266C117.791 54.9083 118.815 53.5718 118.808 51.7988C118.801 50.0866 117.739 48.7411 116.07 48.5363C115.066 48.4126 114.036 48.5138 112.987 48.5138V55.1513V55.1491Z" fill="#075A5A"/>
<path d="M151.97 57.2678H149.466V46.4363C149.612 46.425 149.758 46.4025 149.905 46.4025C151.437 46.4025 152.969 46.3845 154.499 46.4183C155.554 46.4408 156.551 46.7108 157.433 47.3363C159.364 48.7065 159.427 52.3403 156.994 53.616C156.893 53.67 156.794 53.7285 156.655 53.8073C157.449 54.9548 158.227 56.0843 159.055 57.2813C158.167 57.2813 157.354 57.2948 156.542 57.2678C156.414 57.2633 156.256 57.1148 156.171 56.991C155.595 56.1833 155.048 55.3575 154.459 54.5588C154.342 54.4013 154.096 54.2663 153.901 54.2528C153.282 54.2145 152.661 54.2393 151.972 54.2393V57.2678H151.97ZM151.979 52.2952C153.001 52.2367 153.975 52.2458 154.929 52.1063C155.802 51.978 156.292 51.2985 156.317 50.4413C156.344 49.5075 155.93 48.7695 155.071 48.6233C154.065 48.4523 153.023 48.4793 151.981 48.4185V52.2952H151.979Z" fill="#075A5A"/>
<path d="M141.619 57.4301C138.91 57.4414 136.771 56.0126 135.947 53.6456C134.815 50.3899 136.894 46.9159 140.292 46.3399C142.247 46.0091 144.04 46.3061 145.606 47.5819C148.684 50.0884 147.985 55.2544 144.362 56.8676C143.487 57.2569 142.573 57.4346 141.622 57.4301H141.619ZM144.997 51.8479C145.001 49.8251 143.59 48.3581 141.631 48.3469C139.662 48.3356 138.213 49.7869 138.202 51.7826C138.188 53.8459 139.669 55.3511 141.694 55.3354C143.545 55.3196 144.992 53.7919 144.999 51.8501L144.997 51.8479Z" fill="#075A5A"/>
<path d="M128.596 57.4305C126.332 57.3968 124.546 56.6205 123.374 54.7485C121.729 52.125 122.458 47.9378 126.233 46.5945C128.382 45.8295 130.486 46.0455 132.349 47.4473C134.122 48.7838 134.862 51.1463 134.261 53.2658C133.622 55.5315 131.827 57.0908 129.545 57.3585C129.194 57.399 128.841 57.4103 128.596 57.4283V57.4305ZM128.477 48.345C126.512 48.3495 125.097 49.8098 125.099 51.8303C125.099 53.8305 126.544 55.302 128.504 55.2998C130.459 55.2998 131.903 53.826 131.912 51.8303C131.921 49.821 130.459 48.3405 128.474 48.345H128.477Z" fill="#075A5A"/>
<path d="M147.857 68.5838H142.558V71.2658H148.807C148.807 71.9318 148.809 72.5325 148.807 73.1333C148.804 73.482 148.539 73.41 148.332 73.41C146.296 73.41 144.259 73.41 142.223 73.41C141.467 73.41 140.709 73.41 139.903 73.41V61.8945H148.516V64.0095H142.556V66.4688C142.696 66.4823 142.842 66.507 142.986 66.507C144.466 66.507 145.949 66.5228 147.43 66.4958C147.81 66.489 147.889 66.6015 147.868 66.9525C147.837 67.47 147.859 67.9898 147.859 68.5815L147.857 68.5838Z" fill="#075A5A"/>
<path d="M80.2767 61.8947H88.9077V64.0232H82.9204V66.5184C83.1724 66.5184 83.4177 66.5184 83.6629 66.5184C85.0422 66.5139 86.4214 66.5139 87.8007 66.4959C88.1067 66.4914 88.2687 66.5477 88.2507 66.9054C88.2237 67.4409 88.2439 67.9787 88.2439 68.5817H82.9137V71.2614H89.1282V73.3899H80.2744V61.8947H80.2767Z" fill="#075A5A"/>
<path d="M117.377 61.9109C117.377 62.0864 117.377 62.2507 117.377 62.4127C117.388 64.6154 117.372 66.8182 117.422 69.0209C117.449 70.1594 118.106 70.9627 119.078 71.2394C120.162 71.5499 121.348 71.2394 121.924 70.4609C122.374 69.8534 122.48 69.1379 122.484 68.4067C122.491 66.4717 122.487 64.5389 122.487 62.6039C122.487 62.3879 122.487 62.1719 122.487 61.9154H125.067C125.076 62.0482 125.097 62.1922 125.097 62.3384C125.097 64.4399 125.124 66.5437 125.085 68.6452C125.052 70.4587 124.44 72.0112 122.761 72.9404C121.47 73.6559 120.063 73.7459 118.644 73.4872C116.27 73.0552 114.891 71.6129 114.744 69.1064C114.607 66.7304 114.715 64.3387 114.715 61.9087H117.377V61.9109Z" fill="#075A5A"/>
<path d="M98.1391 52.7304V55.2279H103.98V57.2349H95.6641V46.4259H103.784V48.3924H98.1593V50.7729H103.141V52.7304H98.1413H98.1391Z" fill="#075A5A"/>
<path d="M66.4202 61.8897C67.3787 61.8897 68.2337 61.8762 69.0887 61.9032C69.2125 61.9077 69.3857 62.0742 69.442 62.207C70.5107 64.6887 71.5637 67.175 72.6235 69.659C72.6752 69.7805 72.754 69.8885 72.8485 70.0527C73.1995 69.2585 73.5392 68.5137 73.8632 67.76C74.653 65.9262 75.4382 64.0925 76.2167 62.2542C76.318 62.0157 76.4282 61.874 76.7252 61.8807C77.4812 61.9032 78.2372 61.8875 79.0382 61.8875C78.4352 63.2802 77.8435 64.646 77.254 66.0095C76.246 68.3337 75.2312 70.6557 74.2412 72.989C74.0972 73.3287 73.924 73.439 73.573 73.4232C73.0195 73.3962 72.4615 73.3872 71.908 73.4255C71.5232 73.4525 71.3477 73.304 71.2037 72.9642C70.054 70.262 68.8885 67.5665 67.723 64.871C67.3045 63.9035 66.8792 62.9405 66.418 61.8852L66.4202 61.8897Z" fill="#075A5A"/>
<path d="M75.5314 47.1632C75.2637 47.8044 75.0139 48.4052 74.8024 48.9092C73.8394 48.6797 72.9282 48.3984 71.9967 48.2657C71.4904 48.1937 70.9324 48.3264 70.4239 48.4637C69.9537 48.5919 69.6702 48.9767 69.6747 49.4852C69.6792 49.9734 70.0257 50.2547 70.4329 50.3897C71.0674 50.6012 71.7289 50.7294 72.3724 50.9184C72.9822 51.0962 73.5919 51.2784 74.1859 51.5057C75.2502 51.9129 75.9139 52.6779 75.9904 53.8367C76.0692 55.0157 75.6102 55.9945 74.5977 56.62C74.0937 56.9327 73.5132 57.1869 72.9327 57.2904C71.0134 57.6392 69.1572 57.4097 67.4022 56.4962C67.0444 56.3094 66.9499 56.1227 67.1502 55.7537C67.3887 55.3127 67.5777 54.8447 67.7892 54.3879C68.3809 54.6422 68.9592 54.9437 69.5689 55.1417C70.5544 55.4589 71.5669 55.5894 72.5929 55.2744C73.0812 55.1237 73.4479 54.8492 73.4929 54.3114C73.5379 53.7624 73.1577 53.4812 72.7054 53.3372C72.0034 53.1099 71.2834 52.9457 70.5747 52.7387C70.0279 52.5789 69.4744 52.4304 68.9479 52.2167C66.5899 51.2582 66.8284 48.2814 68.4079 47.1407C69.0694 46.6637 69.8029 46.4027 70.5904 46.2969C72.2982 46.0697 73.9362 46.3014 75.5314 47.1609V47.1632Z" fill="#075A5A"/>
<path d="M113.323 61.9369V64.0429C112.268 64.0429 111.244 64.0676 110.222 64.0316C109.752 64.0136 109.628 64.1554 109.633 64.6189C109.655 67.3099 109.646 70.0031 109.646 72.6941C109.646 72.9101 109.646 73.1261 109.646 73.3781H107.003V64.0541H103.319V61.9369H113.323Z" fill="#075A5A"/>
<path d="M80.2172 46.4258V57.228H77.7646V46.4258H80.2172Z" fill="#075A5A"/>
<path d="M54.3113 61.1629C54.3 63.1699 52.6508 64.7741 50.6168 64.7561C48.6008 64.7381 46.9988 63.0956 47.0168 61.0639C47.0325 59.0524 48.6705 57.4346 50.6865 57.4369C52.7205 57.4414 54.3248 59.0884 54.3113 61.1606V61.1629ZM50.6708 58.7734C49.368 58.7734 48.3308 59.8084 48.3285 61.1089C48.3285 62.3779 49.404 63.4444 50.6843 63.4444C51.9353 63.4444 52.9905 62.3824 52.9928 61.1246C52.9973 59.8219 51.9623 58.7756 50.6708 58.7756V58.7734Z" fill="#075A5A"/>
</g>
<defs>
<clipPath id="clip0_1035_3376">
<rect width="129.269" height="41.0017" fill="white" transform="translate(30.3652 39.6884)"/>
</clipPath>
</defs>
</svg>
