<svg width="120" height="45" viewBox="0 0 120 45" fill="none" xmlns="http://www.w3.org/2000/svg">
<path d="M59.7349 21.2207C58.65 20.785 57.325 20.4218 55.7598 20.1304H55.7265C54.2059 19.8624 53.0651 19.6163 52.3048 19.3921C51.5445 19.1693 50.9465 18.8673 50.5102 18.4868C50.0738 18.107 49.8563 17.5815 49.8563 16.9103C49.8563 15.9265 50.2255 15.1775 50.9631 14.6633C51.7015 14.1491 52.674 13.8917 53.8813 13.8917C55.201 13.8917 56.268 14.2269 57.0848 14.8981C57.8179 15.5008 58.2669 16.2664 58.4318 17.1937C58.4644 17.3786 58.6208 17.5149 58.8083 17.5169L62.5201 17.5449C62.7476 17.5469 62.9298 17.3513 62.9072 17.1245C62.7828 15.8839 62.3737 14.7558 61.6806 13.7407C60.909 12.6119 59.8467 11.7338 58.4937 11.1072C57.1407 10.4813 55.6035 10.168 53.8813 10.168C52.2489 10.168 50.7789 10.47 49.4705 11.074C48.1627 11.6779 47.145 12.5161 46.4179 13.5897C45.6909 14.6633 45.3277 15.8706 45.3277 17.2123C45.3277 18.6883 45.6516 19.8737 46.3002 20.7677C46.9487 21.6624 47.7982 22.3389 48.8492 22.7972C49.9002 23.2555 51.1634 23.6187 52.6394 23.8874L52.807 23.9207C54.3715 24.2114 55.5409 24.4688 56.3126 24.6923C57.0842 24.9165 57.6928 25.2291 58.1405 25.6315C58.5875 26.034 58.811 26.5821 58.811 27.2752C58.811 28.2597 58.4086 29.0306 57.6037 29.5894C56.7988 30.1488 55.7585 30.4282 54.484 30.4282C52.9627 30.4282 51.7334 30.0424 50.7942 29.2708C49.9394 28.569 49.4365 27.6677 49.2855 26.5674C49.2596 26.3772 49.1013 26.2329 48.9097 26.2302L45.2026 26.1743C44.9771 26.171 44.7949 26.3612 44.8122 26.5861C44.9173 27.9391 45.3403 29.1583 46.0813 30.2439C46.8975 31.4406 48.021 32.3798 49.4525 33.0616C50.8833 33.7441 52.527 34.0847 54.3835 34.0847C56.105 34.0847 57.6482 33.7721 59.0125 33.1455C60.3762 32.5195 61.4445 31.6528 62.2161 30.5459C62.9877 29.439 63.3735 28.1925 63.3735 26.8056C63.3735 25.3295 63.0376 24.1389 62.3671 23.2329C61.6966 22.3269 60.8185 21.6564 59.7343 21.22L59.7349 21.2207Z" fill="#121312"/>
<path d="M82.5287 30.2614H81.9493C81.6141 30.2614 81.3506 30.1723 81.1611 29.9927C80.9708 29.8144 80.8757 29.5231 80.8757 29.1207V22.7136C80.8757 20.6788 80.2272 19.1302 78.9307 18.0679C77.6336 17.0063 76.1063 16.4648 73.7137 16.4648C71.4547 16.4648 69.69 16.9558 68.3037 17.9169C67.0399 18.7937 66.2782 19.9943 66.0175 21.5209C65.9769 21.7584 66.1565 21.9759 66.3966 21.9759H69.8057C69.9766 21.9759 70.1296 21.8635 70.1749 21.6985C70.3305 21.1338 70.6738 20.6728 71.2046 20.3156C71.8192 19.9019 72.5496 19.695 73.5114 19.695C75.3254 19.695 76.6152 20.8132 76.6152 22.4788V22.9996C76.6152 23.2125 76.4429 23.3848 76.23 23.3848H73.1423C70.6378 23.3848 68.7367 23.877 67.4403 24.8608C66.1432 25.8453 65.4946 27.2428 65.4946 29.0535C65.4946 30.6193 66.0873 31.8492 67.2727 32.7433C68.162 33.4138 69.225 33.8009 70.3192 33.9705C71.1554 34.1002 72.0141 34.1475 72.8522 34.0131C73.7303 33.8727 74.4434 33.5109 75.1571 32.9947C75.7984 32.5317 76.3332 31.9384 76.8214 31.2147C77.0595 30.8056 77.6842 30.9699 77.6842 31.4428V32.0115C77.6835 33.0452 78.521 33.8834 79.5547 33.8834H82.5287C82.7416 33.8834 82.9138 33.7111 82.9138 33.4982V30.6459C82.9138 30.4331 82.7416 30.2608 82.5287 30.2608V30.2614ZM76.6159 26.8065C76.6159 27.634 76.4422 28.355 76.0957 28.9697C75.3693 30.2588 74.0695 30.932 72.6068 30.932C71.7567 30.932 71.0749 30.7311 70.5607 30.3286C70.0458 29.9262 69.7891 29.3894 69.7891 28.7182C69.7891 27.9586 70.0744 27.3712 70.6445 26.9575C71.2146 26.5444 72.0248 26.3369 73.0764 26.3369H76.2307C76.4436 26.3369 76.6159 26.5091 76.6159 26.722V26.8065Z" fill="#121312"/>
<path d="M94.9566 10.4141H90.5205C88.1804 10.4141 86.2833 12.3112 86.2833 14.6513V16.5131C86.2833 16.726 86.111 16.8983 85.8981 16.8983H83.3651C83.1523 16.8983 82.98 17.0706 82.98 17.2834V20.169C82.98 20.3819 83.1523 20.5541 83.3651 20.5541H85.8981C86.111 20.5541 86.2833 20.7264 86.2833 20.9393V33.4993C86.2833 33.7122 86.4556 33.8845 86.6684 33.8845H90.1247C90.3376 33.8845 90.5099 33.7122 90.5099 33.4993V20.9393C90.5099 20.7264 90.6822 20.5541 90.895 20.5541H94.9227C95.1356 20.5541 95.3079 20.3819 95.3079 20.169V17.2834C95.3079 17.0706 95.1356 16.8983 94.9227 16.8983H90.895C90.6822 16.8983 90.5099 16.726 90.5099 16.5131V14.8402C90.5099 14.4145 90.8551 14.0699 91.2802 14.0699H94.956C95.1688 14.0699 95.3411 13.8976 95.3411 13.6848V10.7992C95.3411 10.5863 95.1688 10.4141 94.956 10.4141H94.9566Z" fill="#121312"/>
<path d="M111.889 20.3655C111.14 19.1136 110.117 18.1518 108.82 17.4806C107.523 16.8101 106.024 16.4648 104.326 16.4648C102.627 16.4648 101.161 16.838 99.8642 17.5644C98.5671 18.2914 97.5607 19.3198 96.8456 20.6502C96.1298 21.9812 95.772 23.5404 95.772 25.3298C95.772 27.1191 96.1412 28.6118 96.8788 29.9422C97.6172 31.2725 98.6735 32.2956 100.048 33.0113C101.423 33.7271 103.039 34.0849 104.896 34.0849C106.326 34.0849 107.607 33.8222 108.736 33.2967C109.865 32.7719 110.777 32.0501 111.47 31.1335C112.063 30.3486 112.468 29.4892 112.685 28.5559C112.742 28.3138 112.559 28.081 112.31 28.081H108.838C108.671 28.081 108.526 28.1887 108.472 28.3464C108.228 29.0694 107.796 29.6408 107.177 30.0599C106.483 30.5295 105.622 30.7643 104.594 30.7643C103.744 30.7643 103.001 30.5854 102.363 30.2275C101.726 29.8703 101.223 29.3668 100.854 28.7182C100.708 28.4621 100.589 28.1914 100.494 27.9127C100.392 27.6133 100.319 27.3047 100.269 26.9921C100.251 26.883 100.235 26.7726 100.222 26.6621C100.196 26.4346 100.376 26.2357 100.605 26.2357H112.579C112.773 26.2357 112.94 26.0921 112.962 25.8985C112.978 25.7568 112.99 25.6125 112.996 25.4641C113.007 25.1961 113.012 24.9499 113.012 24.7264C113.012 23.0721 112.638 21.6187 111.889 20.3662L111.889 20.3655ZM108.291 23.3169H100.792C100.546 23.3169 100.36 23.0888 100.415 22.8486C100.535 22.3225 100.742 21.8475 101.038 21.4218C101.417 20.8744 101.91 20.4546 102.514 20.1639C103.118 19.8733 103.777 19.7276 104.493 19.7276C105.655 19.7276 106.617 20.0409 107.377 20.6668C108.03 21.2043 108.46 21.9307 108.668 22.8466C108.722 23.0874 108.538 23.3169 108.291 23.3169Z" fill="#121312"/>
<path d="M36.1889 22.1406H32.9015C31.9197 22.1406 31.1242 22.9362 31.1242 23.918V28.6894C31.1242 29.6712 30.3286 30.4667 29.3468 30.4667H16.2686C15.2868 30.4667 14.4912 31.2623 14.4912 32.2441V35.5315C14.4912 36.5133 15.2868 37.3088 16.2686 37.3088H30.1038C31.0856 37.3088 31.8698 36.5133 31.8698 35.5315V32.894C31.8698 31.9122 32.6654 31.2157 33.6472 31.2157H36.1882C37.17 31.2157 37.9656 30.4202 37.9656 29.4384V23.8974C37.9656 22.9156 37.17 22.1406 36.1882 22.1406H36.1889Z" fill="#121312"/>
<path d="M14.4905 15.6117C14.4905 14.6298 15.2861 13.8343 16.2679 13.8343H29.3381C30.3199 13.8343 31.1155 13.0387 31.1155 12.0569V8.76956C31.1155 7.78775 30.3199 6.99219 29.3381 6.99219H15.5103C14.5284 6.99219 13.7329 7.78775 13.7329 8.76956V11.3026C13.7329 12.2844 12.9373 13.08 11.9555 13.08H9.42581C8.444 13.08 7.64844 13.8755 7.64844 14.8573V20.4043C7.64844 21.3861 8.44733 22.1418 9.42914 22.1418H12.7165C13.6983 22.1418 14.4939 21.3462 14.4939 20.3644L14.4905 15.6123V15.6117Z" fill="#121312"/>
<path d="M21.2603 18.6875H24.418C25.447 18.6875 26.2818 19.523 26.2818 20.5513V23.709C26.2818 24.738 25.4463 25.5728 24.418 25.5728H21.2603C20.2313 25.5728 19.3965 24.7374 19.3965 23.709V20.5513C19.3965 19.5223 20.232 18.6875 21.2603 18.6875Z" fill="#121312"/>
</svg>
