
<svg width="154" height="44" viewBox="0 0 154 44" fill="none" xmlns="http://www.w3.org/2000/svg">
<g clip-path="url(#clip0_6645_649)">
<g clip-path="url(#clip1_6645_649)">
<g clip-path="url(#clip2_6645_649)">
<path d="M0 11.1309H3.2682V20.3H3.35898C3.54055 20.1184 3.72212 19.8461 3.99447 19.6645C4.26682 19.3921 4.53917 19.2106 4.9023 19.029C5.26544 18.8474 5.71936 18.6659 6.17327 18.5751C6.62719 18.3935 7.17189 18.3935 7.80737 18.3935C8.7152 18.3935 9.62304 18.5751 10.3493 18.9382C11.1664 19.3014 11.8018 19.7553 12.3465 20.3908C12.8912 21.0262 13.3452 21.7525 13.6175 22.5696C13.8899 23.3866 14.0714 24.2944 14.0714 25.2931C14.0714 26.2917 13.8899 27.1995 13.6175 28.0166C13.3452 28.8336 12.8912 29.5599 12.3465 30.1954C11.8018 30.8309 11.0756 31.2848 10.2585 31.6479C9.44148 32.011 8.53364 32.1926 7.53502 32.1926C6.62719 32.1926 5.71936 32.011 4.9023 31.6479C4.08525 31.2848 3.44977 30.7401 2.99585 29.923H3.08664V31.9202H0V11.1309ZM11.2571 25.2023C11.2571 24.6576 11.1664 24.2037 10.9848 23.7497C10.8032 23.2958 10.5309 22.8419 10.2585 22.4788C9.89539 22.1156 9.53226 21.8433 9.07834 21.5709C8.62442 21.3894 8.07972 21.2078 7.44424 21.2078C6.80875 21.2078 6.26406 21.2986 5.81014 21.5709C5.35622 21.7525 4.9023 22.1156 4.62995 22.4788C4.26682 22.8419 3.99447 23.2958 3.90369 23.7497C3.63134 24.2037 3.54055 24.7484 3.54055 25.2023C3.54055 25.747 3.63133 26.2009 3.8129 26.6548C3.99447 27.1087 4.26682 27.5626 4.53917 27.9258C4.9023 28.2889 5.26544 28.5613 5.71936 28.8336C6.17327 29.0152 6.71797 29.1967 7.35345 29.1967C7.98894 29.1967 8.44286 29.106 8.98756 28.8336C9.44147 28.6521 9.89539 28.2889 10.1677 27.9258C10.5309 27.5626 10.7124 27.1087 10.894 26.6548C11.1664 26.2009 11.2571 25.747 11.2571 25.2023Z" fill="#000202"/>
<path d="M15.8955 18.6786H19.1637V20.7666H19.2545C19.6176 20.0404 20.1623 19.4049 20.7978 18.951C21.4333 18.5878 22.1595 18.4062 23.0674 18.4062C23.2489 18.4062 23.4305 18.4062 23.6121 18.497C23.7936 18.497 23.9752 18.5878 24.1568 18.5878V21.7652C23.8844 21.6745 23.6121 21.6745 23.3397 21.5837C23.0674 21.4929 22.795 21.4929 22.5227 21.4929C21.7964 21.4929 21.1609 21.6745 20.707 21.9468C20.2531 22.2192 19.8899 22.5823 19.6176 22.9454C19.3452 23.3086 19.2545 23.6717 19.1637 24.0348C19.0729 24.398 19.0729 24.6703 19.0729 24.8519V31.8422H15.8047L15.8955 18.6786Z" fill="#000202"/>
<path d="M28.3346 26.3923C28.4254 27.3909 28.7885 28.1172 29.5148 28.6619C30.1503 29.2066 30.9673 29.4789 31.8752 29.4789C32.6922 29.4789 33.4185 29.2974 33.9632 28.9342C34.5079 28.5711 34.9618 28.208 35.4157 27.6633L37.7761 29.4789C37.0498 30.3868 36.142 31.113 35.2341 31.4762C34.3263 31.8393 33.3277 32.1117 32.2383 32.1117C31.2397 32.1117 30.3318 31.9301 29.424 31.6577C28.5162 31.2946 27.7899 30.8407 27.1544 30.296C26.5189 29.6605 25.9742 28.9342 25.6111 28.1172C25.248 27.3001 25.0664 26.3015 25.0664 25.3029C25.0664 24.3043 25.248 23.3057 25.6111 22.4886C25.9742 21.6716 26.5189 20.9453 27.1544 20.3098C27.7899 19.6743 28.5162 19.2204 29.424 18.9481C30.3318 18.5849 31.2397 18.4941 32.2383 18.4941C33.1461 18.4941 33.9632 18.6757 34.7802 18.9481C35.5065 19.3112 36.142 19.7651 36.6867 20.3098C37.2314 20.9453 37.6853 21.6716 37.9577 22.5794C38.23 23.4872 38.4116 24.4858 38.4116 25.666V26.5739H28.3346V26.3923ZM35.0526 23.8504C35.0526 22.8517 34.6894 22.2163 34.1447 21.6716C33.6 21.1269 32.783 20.8545 31.7844 20.8545C30.7858 20.8545 30.0595 21.1269 29.424 21.6716C28.8793 22.2163 28.5162 22.8517 28.3346 23.8504H35.0526Z" fill="#000202"/>
<path d="M38.2266 18.6738H41.8579L45.4892 27.7522H45.58L48.8482 18.6738H52.298L46.1247 34.6517C45.8524 35.2872 45.6708 35.8319 45.3077 36.2858C45.0353 36.7397 44.6722 37.1029 44.3091 37.466C43.9459 37.8291 43.492 38.0107 42.9473 38.1923C42.4026 38.283 41.7671 38.3738 41.0408 38.3738C40.2238 38.3738 39.316 38.283 38.4989 38.0107L38.9528 35.0148C39.2252 35.1056 39.4975 35.1964 39.7699 35.2872C40.0422 35.378 40.3146 35.378 40.5869 35.378C40.9501 35.378 41.3132 35.378 41.5856 35.2872C41.8579 35.1964 42.1302 35.1056 42.3118 34.9241C42.4934 34.7425 42.6749 34.5609 42.7657 34.2886C42.8565 34.0162 43.0381 33.7439 43.1289 33.3807L43.7643 31.8374L38.2266 18.6738Z" fill="#000202"/>
<path d="M55.4596 26.3923C55.5504 27.3909 55.9135 28.1172 56.6398 28.6619C57.2753 29.2066 58.0923 29.4789 59.0002 29.4789C59.8172 29.4789 60.5435 29.2974 61.0882 28.9342C61.6329 28.5711 62.0868 28.208 62.5407 27.6633L64.9011 29.4789C64.1748 30.3868 63.267 31.113 62.3591 31.4762C61.4513 31.8393 60.4527 32.1117 59.3633 32.1117C58.3647 32.1117 57.4568 31.9301 56.549 31.6577C55.6412 31.2946 54.9149 30.8407 54.2794 30.296C53.6439 29.6605 53.0992 28.9342 52.7361 28.1172C52.373 27.3001 52.1914 26.3015 52.1914 25.3029C52.1914 24.3043 52.373 23.3057 52.7361 22.4886C53.0992 21.6716 53.6439 20.9453 54.2794 20.3098C54.9149 19.6743 55.6412 19.2204 56.549 18.9481C57.4568 18.5849 58.3647 18.4941 59.3633 18.4941C60.2711 18.4941 61.0882 18.6757 61.9052 18.9481C62.6315 19.3112 63.267 19.7651 63.8117 20.3098C64.3564 20.9453 64.8103 21.6716 65.0826 22.5794C65.355 23.4872 65.5366 24.4858 65.5366 25.666V26.5739H55.4596V26.3923ZM62.1776 23.8504C62.1776 22.8517 61.8144 22.2163 61.2697 21.6716C60.725 21.1269 59.908 20.8545 58.8186 20.8545C57.82 20.8545 57.0937 21.1269 56.4582 21.6716C55.9135 22.2163 55.5504 22.8517 55.3688 23.8504H62.1776Z" fill="#000202"/>
<path d="M67.1914 18.6786H70.4596V20.7666H70.5504C70.9135 20.0404 71.4582 19.4049 72.0937 18.951C72.7292 18.5878 73.5462 18.4062 74.3633 18.4062C74.5449 18.4062 74.7264 18.4062 74.908 18.497C75.0896 18.497 75.2711 18.5878 75.4527 18.5878V21.7652C75.1804 21.6745 74.908 21.6745 74.6356 21.5837C74.3633 21.4929 74.0909 21.4929 73.8186 21.4929C73.0923 21.4929 72.4568 21.6745 72.0029 21.9468C71.549 22.2192 71.1859 22.5823 70.9135 22.9454C70.6412 23.3086 70.4596 23.6717 70.4596 24.0348C70.3688 24.398 70.3688 24.6703 70.3688 24.8519V31.8422H67.1914V18.6786Z" fill="#000202"/>
<path d="M88.6192 29.8224C87.9837 30.6394 87.2574 31.1841 86.4404 31.5473C85.6233 31.9104 84.7155 32.092 83.7169 32.092C82.7183 32.092 81.7197 31.9104 80.9026 31.5473C79.9948 31.1841 79.2685 30.7302 78.7238 30.0947C78.0883 29.4593 77.6344 28.733 77.2713 27.9159C76.9081 27.0989 76.7266 26.1003 76.7266 25.1017C76.7266 24.103 76.9081 23.1044 77.2713 22.2874C77.6344 21.4703 78.0883 20.6533 78.7238 20.1086C79.3593 19.4731 80.0856 19.0192 80.9026 18.656C81.8104 18.2929 82.7183 18.1113 83.7169 18.1113C84.7155 18.1113 85.6233 18.2929 86.4404 18.7468C87.2574 19.1099 87.9837 19.7454 88.71 20.4717L87.3482 21.4703C86.8035 20.9256 86.2588 20.4717 85.7141 20.1993C85.0786 19.927 84.4432 19.7454 83.8077 19.7454C82.9906 19.7454 82.2643 19.927 81.6289 20.1993C80.9934 20.4717 80.4487 20.8348 79.9948 21.3795C79.5409 21.8335 79.1777 22.4689 78.9054 23.1044C78.633 23.7399 78.5422 24.4662 78.5422 25.1924C78.5422 25.9187 78.633 26.645 78.9054 27.2805C79.1777 27.9159 79.5409 28.5514 79.9948 29.0053C80.4487 29.4593 80.9934 29.9132 81.6289 30.1855C82.2643 30.4579 82.9906 30.6394 83.8077 30.6394C84.5339 30.6394 85.1694 30.4579 85.8049 30.0947C86.4404 29.7316 86.8943 29.2777 87.3482 28.733L88.6192 29.8224Z" fill="#000202"/>
<path d="M101.319 26.1882C101.319 26.8236 101.319 27.4591 101.319 27.913C101.319 28.4577 101.319 28.9117 101.319 29.3656C101.319 29.8195 101.319 30.1826 101.409 30.6366C101.409 30.9997 101.5 31.3628 101.5 31.8167H99.8662C99.7754 31.1813 99.6846 30.455 99.6846 29.6379H99.5938C99.1399 30.5458 98.5044 31.0905 97.7781 31.5444C97.0519 31.9075 96.1441 32.1799 94.9639 32.1799C94.4192 32.1799 93.7837 32.0891 93.239 31.9983C92.6943 31.8167 92.1496 31.6352 91.6957 31.272C91.2417 30.9997 90.8786 30.5458 90.6063 30.0919C90.3339 29.6379 90.1523 29.0024 90.1523 28.2762C90.1523 27.2776 90.4247 26.4605 90.9694 25.825C91.5141 25.1895 92.1496 24.8264 92.8758 24.4633C93.6021 24.1909 94.4192 24.0094 95.327 23.9186C96.144 23.8278 96.9611 23.8278 97.5966 23.8278H99.5938V22.92C99.5938 21.7398 99.2307 20.9227 98.5044 20.4688C97.7781 20.0149 96.8703 19.7425 95.8717 19.7425C94.3284 19.7425 92.9666 20.1965 91.7864 21.1951L90.7878 20.0149C91.4233 19.3794 92.2404 18.9255 93.1482 18.6531C94.056 18.3808 94.9639 18.1992 95.8717 18.1992C97.5058 18.1992 98.7768 18.5624 99.7754 19.3794C100.774 20.1057 101.228 21.3766 101.228 23.0107V26.1882H101.319ZM97.8689 25.0988C97.1427 25.0988 96.4164 25.1895 95.7809 25.2803C95.0546 25.3711 94.5099 25.5527 93.9652 25.7342C93.4205 26.0066 92.9666 26.2789 92.6943 26.6421C92.3311 27.0052 92.2404 27.5499 92.2404 28.0946C92.2404 28.4577 92.3311 28.8209 92.5127 29.184C92.6943 29.4564 92.9666 29.7287 93.239 30.0011C93.5113 30.1826 93.8745 30.3642 94.2376 30.455C94.6007 30.5458 94.9639 30.6366 95.327 30.6366C96.2348 30.6366 96.9611 30.5458 97.5966 30.2734C98.2321 30.0011 98.686 29.6379 99.0491 29.184C99.4123 28.7301 99.6846 28.2762 99.7754 27.7315C99.8662 27.1868 99.957 26.6421 99.957 26.0974V25.1895H97.8689V25.0988Z" fill="#000202"/>
<path d="M104.137 18.4716H105.862V20.8319H105.952C106.225 20.378 106.588 20.0149 106.951 19.6518C107.314 19.2886 107.768 19.0163 108.222 18.8347C108.676 18.6531 109.221 18.4716 109.675 18.3808C110.219 18.29 110.673 18.1992 111.218 18.1992C112.216 18.1992 112.67 18.3808 113.578 18.7439C114.395 19.1071 115.031 19.561 115.666 20.1965C116.302 20.8319 116.756 21.5582 117.119 22.3753C117.482 23.1923 117.663 24.1909 117.663 25.1895C117.663 26.1882 117.482 27.1868 117.119 28.0038C116.756 28.8209 116.302 29.6379 115.666 30.1826C115.031 30.8181 114.486 31.272 113.578 31.6352C112.761 31.9983 112.307 32.1799 111.218 32.1799C110.673 32.1799 110.219 32.0891 109.675 31.9983C109.13 31.9075 108.676 31.7259 108.222 31.5444C107.768 31.3628 107.314 30.9997 106.951 30.7273C106.588 30.3642 106.225 30.0011 105.952 29.5471H105.862V38.3531H104.137V18.4716ZM105.68 25.0988C105.68 25.825 105.862 26.5513 106.134 27.1868C106.406 27.8223 106.769 28.4577 107.223 28.9117C107.677 29.3656 108.222 29.8195 108.857 30.0918C109.493 30.3642 110.219 30.5458 110.945 30.5458C111.672 30.5458 112.398 30.3642 113.033 30.0918C113.669 29.8195 114.214 29.4564 114.668 28.9117C115.122 28.4577 115.485 27.8223 115.666 27.1868C115.939 26.5513 116.029 25.825 116.029 25.0988C116.029 24.3725 115.939 23.6462 115.666 23.0107C115.394 22.3753 115.122 21.7398 114.668 21.2859C114.214 20.8319 113.669 20.378 113.033 20.1057C112.398 19.8333 111.763 19.6518 110.945 19.6518C110.219 19.6518 109.493 19.8333 108.857 20.1057C108.222 20.378 107.677 20.7412 107.223 21.2859C106.769 21.7398 106.406 22.3753 106.134 23.0107C105.862 23.6462 105.68 24.3725 105.68 25.0988Z" fill="#000202"/>
<path d="M119.285 15.2221C119.285 14.859 119.376 14.5867 119.648 14.3143C119.921 14.042 120.193 13.9512 120.556 13.9512C120.919 13.9512 121.192 14.042 121.464 14.3143C121.736 14.5867 121.827 14.859 121.827 15.2221C121.827 15.5853 121.736 15.8576 121.464 16.13C121.192 16.4023 120.919 16.4931 120.556 16.4931C120.193 16.4931 119.921 16.4023 119.648 16.13C119.376 15.8576 119.285 15.5853 119.285 15.2221ZM119.739 18.4903H121.464V31.8355H119.739V18.4903Z" fill="#000202"/>
<path d="M132.539 20.0242H128.726V28.6486C128.726 29.2841 128.907 29.738 129.18 30.0104C129.543 30.3735 129.997 30.4643 130.541 30.4643C130.905 30.4643 131.177 30.4643 131.54 30.3735C131.903 30.2827 132.176 30.1919 132.539 30.0104L132.72 31.5537C132.357 31.6445 131.994 31.7353 131.631 31.826C131.177 31.9168 130.814 32.0076 130.541 32.0076C129.906 32.0076 129.361 31.9168 128.998 31.7353C128.544 31.5537 128.181 31.2813 127.909 31.009C127.636 30.7366 127.455 30.3735 127.364 29.9196C127.273 29.4657 127.182 29.1025 127.182 28.5578V20.0242H124.277V18.4809H127.182V14.668H128.907V18.4809H132.72V20.0242H132.539Z" fill="#000202"/>
<path d="M145.337 26.1882C145.337 26.8236 145.337 27.4591 145.337 27.913C145.337 28.4577 145.337 28.9117 145.337 29.3656C145.337 29.8195 145.337 30.1826 145.428 30.6366C145.428 30.9997 145.519 31.3628 145.519 31.8167H143.885C143.794 31.1813 143.703 30.455 143.703 29.6379H143.612C143.158 30.5458 142.523 31.0905 141.797 31.5444C141.07 31.9075 140.163 32.1799 138.982 32.1799C138.438 32.1799 137.802 32.0891 137.258 31.9983C136.713 31.8167 136.168 31.6352 135.805 31.272C135.351 30.9997 134.988 30.5458 134.716 30.0919C134.443 29.6379 134.262 29.0024 134.262 28.2762C134.262 27.2776 134.534 26.4605 135.079 25.825C135.623 25.1895 136.259 24.8264 136.985 24.4633C137.711 24.1909 138.529 24.0094 139.436 23.9186C140.253 23.8278 141.07 23.8278 141.706 23.8278H143.703V22.92C143.703 21.7398 143.34 20.9227 142.614 20.4688C141.888 20.0149 140.98 19.7425 139.89 19.7425C138.347 19.7425 136.985 20.1965 135.805 21.1951L134.806 20.0149C135.442 19.3794 136.259 18.9255 137.167 18.6531C138.075 18.3808 138.982 18.1992 139.89 18.1992C141.524 18.1992 142.795 18.5624 143.794 19.3794C144.793 20.1057 145.247 21.3766 145.247 23.0107L145.337 26.1882ZM141.888 25.0988C141.161 25.0988 140.435 25.1895 139.8 25.2803C139.164 25.3711 138.529 25.5527 137.984 25.7342C137.439 26.0066 136.985 26.2789 136.713 26.6421C136.35 27.0052 136.259 27.5499 136.259 28.0946C136.259 28.4577 136.35 28.8209 136.531 29.184C136.713 29.4564 136.985 29.7287 137.258 30.0011C137.53 30.1826 137.893 30.3642 138.256 30.455C138.619 30.5458 138.982 30.6366 139.346 30.6366C140.253 30.6366 141.07 30.5458 141.615 30.2734C142.251 30.0011 142.705 29.6379 143.068 29.184C143.431 28.7301 143.703 28.2762 143.794 27.7315C143.885 27.1868 143.976 26.6421 143.976 26.0974V25.1895H141.888V25.0988Z" fill="#000202"/>
<path d="M148.16 11.1309H149.885V31.8295H148.16V11.1309Z" fill="#000202"/>
</g>
</g>
</g>
<defs>
<clipPath id="clip0_6645_649">
<rect width="153.371" height="44" fill="white"/>
</clipPath>
<clipPath id="clip1_6645_649">
<rect width="149.926" height="44" fill="white" transform="translate(-0.0078125)"/>
</clipPath>
<clipPath id="clip2_6645_649">
<rect width="154.332" height="27.235" fill="white" transform="translate(-0.0117188 11.1465)"/>
</clipPath>
</defs>
</svg>
