<svg width="156" height="25" viewBox="0 0 156 25" fill="none" xmlns="http://www.w3.org/2000/svg">
<g clip-path="url(#clip0_10275_2030)">
<path d="M14.5308 16.8891C14.5308 15.8695 15.3573 15.043 16.3769 15.043H17.1154C18.135 15.043 18.9615 15.8695 18.9615 16.8891V17.6276C18.9615 18.6472 18.135 19.4737 17.1154 19.4737H16.3769C15.3573 19.4737 14.5308 18.6472 14.5308 17.6276V16.8891Z" fill="#1EEFA4"/>
<path d="M16.3769 8.39844C15.3573 8.39844 14.5308 9.225 14.5308 10.2446V10.9831C14.5308 12.0026 15.3573 12.8292 16.3769 12.8292H17.1154C18.135 12.8292 18.9615 12.0026 18.9615 10.9831V10.2446C18.9615 9.225 18.135 8.39844 17.1154 8.39844H16.3769Z" fill="#1EEFA4"/>
<path fill-rule="evenodd" clip-rule="evenodd" d="M7.88462 0.644531C3.8062 0.644531 0.5 3.95074 0.5 8.02915V17.2599C0.5 21.3384 3.8062 24.6445 7.88462 24.6445H17.1154C21.1938 24.6445 24.5 21.3384 24.5 17.2599V8.02915C24.5 3.95074 21.1938 0.644531 17.1154 0.644531H7.88462ZM17.1154 3.59838H7.88462C5.43757 3.59838 3.45385 5.5821 3.45385 8.02915V17.2599C3.45385 19.707 5.43757 21.6907 7.88462 21.6907H17.1154C19.5624 21.6907 21.5461 19.707 21.5461 17.2599V8.02915C21.5461 5.5821 19.5624 3.59838 17.1154 3.59838Z" fill="#1EEFA4"/>
<path d="M47.8695 18.6794C48.3724 17.873 48.6303 16.9382 48.6119 15.9884C48.6119 15.1101 48.4175 14.3517 48.0331 13.7315C47.6171 13.0781 47.0522 12.5321 46.3846 12.1382C45.5146 11.6291 44.5946 11.2104 43.639 10.8887C43.5681 10.8658 43.5051 10.843 43.4514 10.8224L43.3107 10.7722C42.6837 10.5586 42.2147 10.3861 41.9127 10.2593C41.6366 10.1516 41.3811 9.99703 41.1577 9.80251C41.0599 9.71713 40.9817 9.61177 40.9284 9.49351C40.8751 9.37525 40.8479 9.24691 40.8488 9.11719C40.8429 8.92441 40.8835 8.73307 40.9674 8.55931C41.0512 8.38555 41.1757 8.23447 41.3304 8.11897C41.6359 7.88365 42.074 7.76377 42.6311 7.76377C43.3182 7.76989 43.9967 7.91767 44.624 8.19775C45.1691 8.43091 45.6767 8.74303 46.1306 9.12403L48.3213 6.45825C47.5614 5.78169 46.6928 5.23765 45.752 4.84894C44.701 4.4349 43.5789 4.23042 42.4493 4.24703C41.1909 4.24703 40.1327 4.46861 39.309 4.90606C38.4853 5.3435 37.8824 5.92029 37.5026 6.62729C37.1169 7.34803 36.9183 8.15383 36.9249 8.97103C36.9249 10.4078 37.3825 11.51 38.2771 12.249C39.2685 13.043 40.4101 13.6292 41.6336 13.9725C42.2627 14.1475 42.8782 14.3678 43.4754 14.6315C43.9193 14.8429 44.2156 15.0542 44.3803 15.2758C44.55 15.5074 44.6388 15.7883 44.6331 16.0753C44.6379 16.2883 44.5878 16.499 44.4876 16.6872C44.3875 16.8754 44.2406 17.0347 44.0612 17.15C43.6962 17.4013 43.1723 17.5235 42.4595 17.5235C41.0376 17.5235 39.6614 16.9147 38.3687 15.7132L35.8999 18.275C36.7452 19.1583 37.7557 19.8676 38.8743 20.3629C40.0403 20.8684 41.2993 21.1252 42.5705 21.1168C43.7786 21.1168 44.8585 20.902 45.7657 20.4772C46.6254 20.0922 47.3558 19.468 47.8695 18.6794Z" fill="#1EEFA4"/>
<path d="M100.69 16.9652L98.8827 15.5192C98.2947 16.2955 97.4787 16.8694 96.5487 17.1613C95.6187 17.4532 94.6209 17.4485 93.6933 17.148C92.7663 16.8474 91.9557 16.2658 91.3749 15.4841C90.7941 14.7024 90.4719 13.7594 90.4527 12.7863C90.4335 11.8132 90.7185 10.8583 91.2675 10.0543C91.8171 9.25039 92.6043 8.63737 93.5187 8.30053C94.4331 7.96369 95.4303 7.91977 96.3711 8.17489C97.3119 8.42995 98.1501 8.97139 98.7681 9.72391L101.709 7.37221C100.602 6.01008 99.0981 5.02567 97.4055 4.55543C95.7129 4.0852 93.9153 4.15244 92.2629 4.74784C90.6099 5.34325 89.1837 6.4373 88.1817 7.87831C87.1797 9.31933 86.6517 11.0359 86.6709 12.79C86.6901 14.544 87.2553 16.2487 88.2885 17.6677C89.3217 19.0865 90.7713 20.1494 92.4363 20.7088C94.1019 21.2682 95.9001 21.2964 97.5819 20.7896C99.2643 20.2827 100.746 19.2659 101.824 17.8801L100.69 16.9652Z" fill="#1EEFA4"/>
<path fill-rule="evenodd" clip-rule="evenodd" d="M66.3096 9.65425C66.3096 10.7713 66.0804 11.7661 65.6232 12.6113C65.1714 13.4483 64.4826 14.1337 63.6426 14.5815C62.7756 15.0498 61.7334 15.2874 60.5448 15.2874H57.7055V20.5128H53.7861V4.24609H60.4899C61.6554 4.24609 62.6898 4.48253 63.5652 4.94739C64.4094 5.38582 65.112 6.05382 65.592 6.87421C66.0756 7.72021 66.3234 8.68021 66.3096 9.65425ZM61.3092 11.5194C61.6374 11.3451 61.9122 11.0844 62.103 10.7656C62.2968 10.4403 62.397 10.0681 62.3934 9.68965C62.3988 9.32899 62.2962 8.97505 62.0982 8.67313C61.9014 8.37841 61.6284 8.14177 61.3092 7.98781C60.966 7.82317 60.5892 7.74025 60.2085 7.74565H57.7055V11.7889H60.1971C60.5844 11.7932 60.9666 11.7005 61.3092 11.5194Z" fill="#1EEFA4"/>
<path d="M110.773 13.8928H116.895V10.6776H110.773V7.74565H118.599V4.24609H106.854V20.5128H118.776V17.0132H110.773V13.8928Z" fill="#1EEFA4"/>
<path d="M130.534 4.24609H134.453V20.5128H130.534V4.24609Z" fill="#1EEFA4"/>
<path fill-rule="evenodd" clip-rule="evenodd" d="M154.026 16.5168C154.77 15.2635 155.163 13.8331 155.161 12.3762C155.161 10.9193 154.767 9.48955 154.021 8.23723C153.263 7.00447 152.19 5.99528 150.912 5.31331C149.578 4.59859 148.086 4.23165 146.572 4.24653H140.48V20.5132H146.608C148.116 20.5279 149.602 20.1609 150.93 19.4464C152.205 18.7633 153.274 17.7518 154.026 16.5168ZM150.61 14.6745C150.24 15.3399 149.69 15.8885 149.023 16.2586C148.328 16.6427 147.544 16.8395 146.749 16.8297H144.4V7.93573H146.738C147.535 7.92499 148.321 8.12179 149.018 8.50681C149.685 8.87827 150.236 9.42655 150.61 10.091C150.998 10.7892 151.195 11.577 151.182 12.3753C151.195 13.1784 150.998 13.9708 150.61 14.6745Z" fill="#1EEFA4"/>
<path fill-rule="evenodd" clip-rule="evenodd" d="M74.0496 4.24609H77.5435L83.7919 20.5356H79.7706L78.8833 17.9349V17.9269H72.6714V17.9349L71.7846 20.5356H67.7646L74.0496 4.24609ZM75.7848 8.80903L75.729 8.97463L73.8438 14.5004H77.721L75.8424 8.97463L75.7848 8.80903Z" fill="#1EEFA4"/>
</g>
<defs>
<clipPath id="clip0_10275_2030">
<rect width="155.4" height="24" fill="white" transform="translate(0.5 0.644531)"/>
</clipPath>
</defs>
</svg>
