
<svg width="152" height="44" viewBox="0 0 152 44" fill="none" xmlns="http://www.w3.org/2000/svg">
<g clip-path="url(#clip0_6645_628)">
<g clip-path="url(#clip1_6645_628)">
<g clip-path="url(#clip2_6645_628)">
<path d="M39.4875 24.2553L38.2229 22.9846L39.3099 21.8926C39.5056 21.696 39.5721 21.4042 39.4818 21.1415L36.4635 12.4013C36.3776 12.1524 36.1645 11.9703 35.9067 11.9246L33.5601 11.5088L33.8352 9.15701C33.8713 8.85007 33.7096 8.55401 33.4329 8.41904L27.5734 5.56368C27.4845 5.52014 27.3884 5.4962 27.2895 5.49184L23.206 5.31334C22.9842 5.30245 22.7675 5.39824 22.623 5.56949L20.7243 7.82403H19.3448L17.4468 5.56949C17.3023 5.39824 17.0885 5.30318 16.8638 5.31334L12.7803 5.49184C12.6821 5.4962 12.5853 5.52087 12.4964 5.56368L6.63759 8.41759C6.36097 8.55256 6.19919 8.84862 6.2353 9.15556L6.51047 11.5073L4.1639 11.9231C3.90606 11.9688 3.69299 12.151 3.60704 12.3999L0.588777 21.1408C0.497774 21.4035 0.564943 21.6952 0.760672 21.8919L1.84765 22.9839L0.583 24.2545C0.364881 24.4737 0.309268 24.8082 0.445051 25.0868L2.48684 29.2788C2.55329 29.4153 2.66018 29.527 2.79307 29.5988L5.46033 31.0421L4.58208 31.6683C4.41524 31.7873 4.30618 31.9716 4.28234 32.1762C4.25851 32.3809 4.32207 32.5855 4.45785 32.7393L8.36378 37.1991C8.4208 37.2637 8.48868 37.3181 8.56456 37.3587L10.3601 38.3275L12.5809 41.4252C12.7168 41.6145 12.9349 41.7263 13.1667 41.7263H16.718C16.9715 41.7263 17.2069 41.5928 17.3377 41.3743L19.3888 37.9392H20.6817L22.7329 41.3743C22.8636 41.5928 23.0983 41.7263 23.3526 41.7263H26.9031C27.1349 41.7263 27.3531 41.6138 27.4889 41.4252L29.7098 38.3275L31.5052 37.3587C31.5811 37.3181 31.649 37.2637 31.706 37.1991L35.6119 32.7393C35.747 32.5848 35.8106 32.3801 35.7874 32.1762C35.7643 31.9724 35.6553 31.7873 35.4877 31.6683L34.6094 31.0421L37.2768 29.5995C37.4096 29.5277 37.5165 29.4159 37.583 29.2795L39.6248 25.0875C39.7605 24.8089 39.7056 24.4744 39.4875 24.2553ZM15.0821 6.84369L16.5432 6.77984L15.1262 13.9012L8.94443 11.876L15.0821 6.84369ZM24.9877 6.84369L31.1254 11.876L24.9436 13.9012L23.5266 6.77984L24.9877 6.84369ZM31.7739 13.1901L28.9529 25.5948L25.3084 15.3082L31.7739 13.1901ZM24.0206 16.0012L28.17 27.7129L24.5746 29.8898L21.9434 26.1426V17.319L24.0206 16.0012ZM20.499 26.004H19.5701V17.6447H20.499V26.004ZM18.1257 32.8308L16.5858 30.8542L18.1257 28.6605V32.8308ZM19.5701 27.4553H20.499V34.031H19.5701V27.4553ZM21.9434 28.6605L23.4833 30.8535L21.9434 32.8301V28.6605ZM20.499 16.1935H19.5701V9.27529H20.499V16.1935ZM18.1257 26.1433L15.4945 29.8905L11.8992 27.7136L16.0485 16.0019L18.1257 17.3197V26.1433ZM11.1169 25.5948L8.2959 13.1901L14.7614 15.3082L11.1169 25.5948ZM9.83213 26.4611L3.62366 22.7016L7.12222 14.5463L9.83213 26.4611ZM11.6673 29.2665L14.6603 31.0791L11.5972 35.4416L11.6673 29.2665ZM15.7162 32.0921L18.1257 35.1855V36.7368L12.2841 36.9807L15.7162 32.0928V32.0921ZM19.5701 35.4822H20.499V36.4865H19.5701V35.4822ZM21.9434 35.1855L24.3528 32.0921L27.785 36.9807L21.9434 36.7368V35.1855ZM25.4095 31.0791L28.4025 29.2665L28.4726 35.4416L25.4095 31.0791ZM32.9469 14.5463L36.4454 22.7016L30.237 26.4611L32.9469 14.5463ZM37.9679 21.1873L37.5497 21.6074L33.8728 13.037L35.2371 13.2786L37.9679 21.1873ZM32.1791 10.8673L27.8312 7.3023L32.3395 9.49878L32.1791 10.8673ZM22.3291 8.16507L23.6002 14.5514L21.9441 15.6021V8.62294L22.3291 8.16507ZM18.1257 15.6028L16.4696 14.5521L17.7407 8.1658L18.1264 8.62367V15.6035L18.1257 15.6028ZM12.2386 7.3023L7.89069 10.8673L7.73032 9.49878L12.2386 7.3023ZM4.83269 13.2786L6.19702 13.037L2.52006 21.6074L2.10189 21.1873L4.83269 13.2786ZM3.68216 28.4313L1.96899 24.9141L2.91369 23.9657L9.65734 28.0496L6.77482 30.1046L3.68216 28.4313ZM6.07135 32.3852L10.2207 29.4268L10.1397 36.5612L9.36188 36.1418L6.07135 32.3852ZM16.3085 40.2743H13.5365L12.2184 38.4355L17.5399 38.2135L16.3085 40.2743ZM26.5333 40.2743H23.7613L22.5306 38.2135L27.8521 38.4355L26.5333 40.2743ZM30.7079 36.1411L29.9301 36.5605L29.8484 29.4261L33.9978 32.3845L30.7079 36.1411ZM36.3877 28.4306L33.295 30.1038L30.4125 28.0489L37.1561 23.965L38.1008 24.9134L36.3877 28.4306Z" fill="#000202"/>
<path d="M48.723 23.0344V10.2754H54.3911C55.8665 10.2754 57.0032 10.5614 57.8011 11.1335C58.614 11.7056 59.0205 12.511 59.0205 13.5498C59.0205 14.5886 58.6667 15.3865 57.9591 15.9435C57.2515 16.5006 56.3332 16.7791 55.2041 16.7791L55.5202 16.2597C56.8601 16.2597 57.8914 16.5457 58.614 17.1178C59.3517 17.6748 59.7205 18.5028 59.7205 19.6019C59.7205 20.6858 59.3065 21.5289 58.4785 22.131C57.6505 22.7332 56.4084 23.0344 54.7524 23.0344H48.723ZM50.3489 21.7697H54.7073C55.8063 21.7697 56.6418 21.5891 57.2139 21.2277C57.786 20.8514 58.072 20.2718 58.072 19.4889C58.072 18.691 57.786 18.1114 57.2139 17.7501C56.6418 17.3888 55.8063 17.2082 54.7073 17.2082H50.0779V15.9435H54.2782C55.2718 15.9435 56.0396 15.7553 56.5816 15.379C57.1386 15.0026 57.4171 14.4531 57.4171 13.7305C57.4171 13.0078 57.1386 12.4659 56.5816 12.1045C56.0396 11.7282 55.2718 11.54 54.2782 11.54H50.3489V21.7697Z" fill="#000202"/>
<path d="M63.1215 23.0344V10.2754H64.7473V23.0344H63.1215Z" fill="#000202"/>
<path d="M79.917 21.5437C79.5252 21.89 79.0736 22.1911 78.5616 22.447C78.0497 22.6879 77.5006 22.8686 76.9136 22.989C76.3411 23.1095 75.7541 23.1697 75.1519 23.1697C73.8271 23.1697 72.6377 22.8912 71.5839 22.3341C70.5451 21.7621 69.7246 20.9868 69.1224 20.0082C68.5203 19.0146 68.2191 17.893 68.2191 16.6435C68.2191 15.3939 68.5127 14.2799 69.0998 13.3013C69.702 12.3227 70.5225 11.5474 71.5613 10.9753C72.6001 10.4032 73.7747 10.1172 75.0841 10.1172C76.1227 10.1172 77.0563 10.2753 77.8844 10.5914C78.7277 10.9076 79.4349 11.3818 80.0073 12.0141L78.968 13.0754C78.4415 12.5485 77.8545 12.1646 77.2071 11.9238C76.5742 11.6678 75.8743 11.5399 75.1067 11.5399C74.1133 11.5399 73.2176 11.7657 72.4194 12.2173C71.6215 12.6539 70.9892 13.2561 70.5225 14.0239C70.0709 14.7917 69.8451 15.6649 69.8451 16.6435C69.8451 17.622 70.0709 18.5027 70.5225 19.2856C70.9892 20.0533 71.6215 20.6555 72.4194 21.0921C73.2321 21.5287 74.1505 21.747 75.1744 21.747C75.9122 21.747 76.5968 21.6341 77.2296 21.4083C77.8771 21.1825 78.4641 20.8287 78.9906 20.3469L79.917 21.5437ZM78.3585 21.5437V16.6435H79.917V21.5437H78.3585Z" fill="#000202"/>
<path d="M90.1449 23.0344V10.2754H95.8131C97.2886 10.2754 98.4254 10.5614 99.2229 11.1335C100.036 11.7056 100.443 12.511 100.443 13.5498C100.443 14.5886 100.089 15.3865 99.3809 15.9435C98.6737 16.5006 97.7554 16.7791 96.6258 16.7791L96.9419 16.2597C98.2819 16.2597 99.3132 16.5457 100.036 17.1178C100.773 17.6748 101.143 18.5028 101.143 19.6019C101.143 20.6858 100.728 21.5289 99.9002 22.131C99.0721 22.7332 97.8304 23.0344 96.1743 23.0344H90.1449ZM91.7711 21.7697H96.1291C97.2281 21.7697 98.0634 21.5891 98.6359 21.2277C99.2083 20.8514 99.4938 20.2718 99.4938 19.4889C99.4938 18.691 99.2083 18.1114 98.6359 17.7501C98.0634 17.3888 97.2281 17.2082 96.1291 17.2082H91.5002V15.9435H95.7002C96.6936 15.9435 97.4619 15.7553 98.0037 15.379C98.5609 15.0026 98.8391 14.4531 98.8391 13.7305C98.8391 13.0078 98.5609 12.4659 98.0037 12.1045C97.4619 11.7282 96.6936 11.54 95.7002 11.54H91.7711V21.7697Z" fill="#000202"/>
<path d="M104.539 23.0344V10.2754H109.484C110.599 10.2754 111.547 10.4485 112.33 10.7948C113.128 11.141 113.745 11.6454 114.182 12.3078C114.618 12.9552 114.837 13.7455 114.837 14.6789C114.837 15.5822 114.618 16.365 114.182 17.0275C113.745 17.6898 113.128 18.1942 112.33 18.5405C111.547 18.8868 110.599 19.0599 109.484 19.0599H105.442L106.165 18.3372V23.0344H104.539ZM113.279 23.0344L109.936 18.405H111.72L115.04 23.0344H113.279ZM106.165 18.4953L105.533 17.7275H109.417C110.651 17.7275 111.592 17.4641 112.239 16.9372C112.887 16.3952 113.211 15.6424 113.211 14.6789C113.211 13.7003 112.887 12.9476 112.239 12.4207C111.592 11.8938 110.651 11.6303 109.417 11.6303H105.533L106.165 10.8625V18.4953Z" fill="#000202"/>
<path d="M116.305 23.0344L122.199 10.2754H123.803L129.697 23.0344H128.07L122.719 11.1561H123.283L117.909 23.0344H116.305ZM118.789 19.7373L119.263 18.4276H126.535L127.009 19.7373H118.789Z" fill="#000202"/>
<path d="M132.125 23.0344V10.2754H133.752V23.0344H132.125Z" fill="#000202"/>
<path d="M138.504 23.0344V10.2754H139.837L148.509 21.0245H147.876V10.2754H149.502V23.0344H148.147L139.476 12.2626H140.131V23.0344H138.504Z" fill="#000202"/>
<path d="M48.6215 38.0278V25.5215H51.9624V30.3065H56.9104V25.5215H60.2513V38.0278H56.9104V33.0688H51.9624V38.0278H48.6215Z" fill="#000202"/>
<path d="M69.4475 38.2719C68.1364 38.2719 66.9665 37.9964 65.9373 37.4454C64.9083 36.8799 64.0977 36.1041 63.5057 35.1181C62.9136 34.1322 62.6176 33.0156 62.6176 31.7686C62.6176 30.5217 62.9136 29.4124 63.5057 28.4409C64.0977 27.4694 64.9083 26.7009 65.9373 26.1354C66.9665 25.5699 68.1364 25.2871 69.4475 25.2871C70.7584 25.2871 71.9285 25.5699 72.9575 26.1354C73.9866 26.7009 74.7972 27.4694 75.3893 28.4409C75.9813 29.4124 76.277 30.5217 76.277 31.7686C76.277 33.0156 75.9813 34.1322 75.3893 35.1181C74.7972 36.1041 73.9866 36.8799 72.9575 37.4454C71.9285 37.9964 70.7584 38.2719 69.4475 38.2719ZM69.4475 35.4661C70.1241 35.4661 70.7162 35.3139 71.2237 35.0094C71.7452 34.6904 72.154 34.2481 72.4501 33.6826C72.7461 33.1172 72.8941 32.4864 72.8941 31.7904C72.8941 31.0654 72.7461 30.4274 72.4501 29.8764C72.154 29.3254 71.7452 28.8904 71.2237 28.5714C70.7162 28.2524 70.1241 28.0929 69.4475 28.0929C68.7849 28.0929 68.1929 28.2524 67.6713 28.5714C67.1497 28.8904 66.7338 29.3254 66.4237 29.8764C66.1277 30.4274 65.9796 31.0581 65.9796 31.7686C65.9796 32.4791 66.1277 33.1172 66.4237 33.6826C66.7338 34.2481 67.1497 34.6904 67.6713 35.0094C68.1929 35.3139 68.7849 35.4661 69.4475 35.4661Z" fill="#000202"/>
<path d="M78.6332 38.0278V25.5215H81.9745V35.3525H87.9158V38.0278H78.6332Z" fill="#000202"/>
<path d="M89.723 38.0278V25.5215H95.4538C96.8492 25.5215 98.0611 25.7753 99.0908 26.2828C100.134 26.7903 100.937 27.5153 101.501 28.4577C102.079 29.3858 102.368 30.495 102.368 31.7855C102.368 33.0615 102.079 34.1708 101.501 35.1132C100.937 36.0413 100.134 36.759 99.0908 37.2665C98.0611 37.774 96.8492 38.0278 95.4538 38.0278H89.723ZM93.0644 35.3308H95.3475C96.0947 35.3308 96.7363 35.193 97.2723 34.9176C97.8215 34.642 98.2446 34.2432 98.541 33.7213C98.8367 33.1848 98.9845 32.5395 98.9845 31.7855C98.9845 31.0171 98.8367 30.3718 98.541 29.8498C98.2446 29.3133 97.8215 28.9072 97.2723 28.6317C96.7363 28.3563 96.0947 28.2185 95.3475 28.2185H93.0644V35.3308Z" fill="#000202"/>
<path d="M104.743 38.0278V25.5215H108.083V38.0278H104.743Z" fill="#000202"/>
<path d="M111.305 38.0278V25.5215H114.054L120.905 33.9823H119.658V25.5215H122.935V38.0278H120.186L113.314 29.567H114.583V38.0278H111.305Z" fill="#000202"/>
<path d="M137.227 36.6841C136.776 37.0177 136.268 37.3077 135.705 37.5541C135.155 37.7861 134.576 37.9601 133.971 38.0761C133.378 38.2066 132.794 38.2719 132.215 38.2719C130.862 38.2719 129.664 37.9964 128.621 37.4454C127.578 36.8799 126.76 36.1041 126.168 35.1181C125.59 34.1322 125.301 33.0229 125.301 31.7904C125.301 30.5289 125.597 29.4124 126.189 28.4409C126.781 27.4694 127.599 26.7009 128.642 26.1354C129.685 25.5699 130.87 25.2871 132.194 25.2871C133.378 25.2871 134.408 25.4757 135.281 25.8526C136.17 26.2152 136.91 26.7734 137.502 27.5274L135.303 29.5501C134.894 29.0571 134.429 28.6946 133.907 28.4626C133.4 28.2162 132.843 28.0929 132.237 28.0929C131.546 28.0929 130.933 28.2524 130.397 28.5714C129.862 28.8759 129.438 29.3036 129.128 29.8546C128.818 30.4057 128.663 31.0509 128.663 31.7904C128.663 32.5009 128.818 33.1389 129.128 33.7044C129.438 34.2554 129.862 34.6904 130.397 35.0094C130.933 35.3139 131.56 35.4661 132.279 35.4661C132.871 35.4661 133.407 35.3719 133.886 35.1834C134.379 34.9949 134.866 34.7122 135.345 34.3351L137.227 36.6841ZM134.182 36.7277V31.6164H137.227V36.6841L134.182 36.7277Z" fill="#000202"/>
<path d="M149.667 34.2225C149.667 35.0055 149.449 35.7015 149.012 36.3105C148.589 36.9194 147.969 37.398 147.151 37.746C146.348 38.094 145.354 38.268 144.17 38.268C143.197 38.268 142.238 38.1447 141.294 37.8983C140.364 37.6517 139.609 37.3255 139.032 36.9194L140.195 34.3747C140.744 34.7517 141.385 35.0489 142.119 35.2665C142.851 35.484 143.599 35.5927 144.36 35.5927C145.107 35.5927 145.628 35.484 145.925 35.2665C146.22 35.0489 146.369 34.7952 146.369 34.5052C146.369 34.2152 146.235 33.9833 145.967 33.8092C145.714 33.6352 145.375 33.4975 144.952 33.396C144.543 33.28 144.085 33.1712 143.578 33.0697C143.084 32.9683 142.583 32.8378 142.077 32.6783C141.583 32.5187 141.125 32.3084 140.702 32.0475C140.293 31.772 139.954 31.4167 139.687 30.9817C139.433 30.5323 139.306 29.974 139.306 29.307C139.306 28.524 139.525 27.8352 139.962 27.2407C140.413 26.6318 141.047 26.1532 141.865 25.8052C142.682 25.4572 143.655 25.2832 144.783 25.2832C145.544 25.2832 146.319 25.3702 147.109 25.5442C147.898 25.7182 148.589 25.9937 149.181 26.3707L148.102 28.9155C147.553 28.5675 146.982 28.321 146.39 28.176C145.812 28.031 145.234 27.9585 144.656 27.9585C143.951 27.9585 143.436 28.0673 143.112 28.2847C142.788 28.5023 142.626 28.7778 142.626 29.1112C142.626 29.4012 142.753 29.6332 143.007 29.8073C143.261 29.9812 143.591 30.1262 144.001 30.2423C144.423 30.3437 144.888 30.4452 145.396 30.5467C145.904 30.6482 146.404 30.7787 146.897 30.9382C147.391 31.0832 147.849 31.2862 148.272 31.5472C148.694 31.8083 149.033 32.1562 149.286 32.5912C149.541 33.0117 149.667 33.5555 149.667 34.2225Z" fill="#000202"/>
</g>
</g>
</g>
<defs>
<clipPath id="clip0_6645_628">
<rect width="151.25" height="44" fill="white" transform="translate(0.37146)"/>
</clipPath>
<clipPath id="clip1_6645_628">
<rect width="149.448" height="44" fill="white" transform="translate(0.37146)"/>
</clipPath>
<clipPath id="clip2_6645_628">
<rect width="149.297" height="36.4138" fill="white" transform="translate(0.37146 5.31445)"/>
</clipPath>
</defs>
</svg>
