<svg width="123" height="41" viewBox="0 0 123 41" fill="none" xmlns="http://www.w3.org/2000/svg">
<g clip-path="url(#clip0_10277_2186)">
<mask id="mask0_10277_2186" style="mask-type:luminance" maskUnits="userSpaceOnUse" x="0" y="0" width="123" height="41">
<path d="M122.785 0.144531H0.785156V40.1445H122.785V0.144531Z" fill="white"/>
</mask>
<g mask="url(#mask0_10277_2186)">
<path d="M42.6692 19.5374C42.6368 18.6493 42.7852 17.7638 43.1056 16.9341C43.426 16.1044 43.9118 15.3477 44.5337 14.7094C45.1556 14.0711 45.9008 13.5643 46.7246 13.2196C47.5485 12.8748 48.4339 12.6992 49.3277 12.7032C52.6955 12.7032 54.6888 14.668 55.2902 16.9746L53.1767 17.6836C52.9907 16.8237 52.4991 16.0592 51.7922 15.5304C51.0852 15.0016 50.2102 14.744 49.3277 14.8047C47.1454 14.8047 44.9632 16.3851 44.9632 19.5801C44.9632 22.7751 47.0939 24.2957 49.3534 24.2957C50.2408 24.3213 51.1112 24.0498 51.8248 23.5246C52.5384 22.9994 53.0538 22.2511 53.2884 21.3997L55.3417 22.0661C54.9902 23.3659 54.2019 24.5069 53.1078 25.2995C52.0137 26.0921 50.6797 26.4885 49.3277 26.4228C48.4258 26.4396 47.5302 26.271 46.697 25.9274C45.8638 25.5838 45.111 25.0728 44.4859 24.4263C43.8607 23.7798 43.3766 23.0118 43.064 22.1705C42.7514 21.3292 42.617 20.4328 42.6692 19.5374Z" fill="#375BD2"/>
<path d="M59.414 26.1058H57.249V12.668H59.414V17.9389C59.7294 17.5681 60.1251 17.2733 60.5715 17.0765C61.018 16.8797 61.5035 16.7861 61.9915 16.8027C64.2339 16.8027 65.3164 18.4002 65.3164 20.3907V26.1058H63.2115V20.758C63.251 20.4979 63.231 20.2322 63.153 19.9808C63.075 19.7294 62.9411 19.4987 62.7612 19.3058C62.5812 19.113 62.3599 18.9629 62.1136 18.8667C61.8673 18.7706 61.6024 18.7308 61.3385 18.7505C61.0767 18.7507 60.8178 18.805 60.5781 18.9099C60.3385 19.0149 60.1234 19.1682 59.9465 19.3602C59.7696 19.5521 59.6348 19.7785 59.5505 20.0251C59.4662 20.2716 59.4344 20.5328 59.457 20.7922L59.414 26.1058Z" fill="#375BD2"/>
<path d="M70.1536 20.9285L72.4819 20.5697C73.006 20.5013 73.152 20.2365 73.152 19.9204C73.152 19.1601 72.6365 18.545 71.4337 18.545C71.2018 18.5252 70.9682 18.5525 70.7472 18.6251C70.5261 18.6978 70.3222 18.8143 70.1479 18.9677C69.9735 19.1211 69.8324 19.3081 69.7329 19.5174C69.6335 19.7267 69.5778 19.9539 69.5694 20.1852L67.5933 19.741C67.7565 18.1777 69.1827 16.7852 71.4165 16.7852C74.2174 16.7852 75.2827 18.3656 75.2827 20.2023V24.6873C75.2778 25.1737 75.3151 25.6596 75.3944 26.1395H73.3754C73.3061 25.7592 73.2773 25.3726 73.2895 24.9863C72.9879 25.4459 72.5709 25.8193 72.0797 26.0695C71.5884 26.3197 71.04 26.4381 70.4886 26.4129C70.1043 26.4443 69.7174 26.3979 69.3516 26.2765C68.9858 26.1551 68.6485 25.9611 68.3602 25.7064C68.0719 25.4516 67.8385 25.1414 67.6742 24.7945C67.5099 24.4475 67.4181 24.071 67.4043 23.6878C67.4043 22.039 68.5985 21.1506 70.1536 20.9285ZM73.152 22.3807V21.9707L70.7808 22.3209C70.4585 22.3319 70.1529 22.4658 69.9274 22.6948C69.7018 22.9239 69.5736 23.2305 69.5694 23.5511C69.5721 23.7166 69.6093 23.8797 69.6787 24.0301C69.7481 24.1806 69.8482 24.315 69.9725 24.425C70.0969 24.535 70.2429 24.6182 70.4012 24.6692C70.5596 24.7202 70.7268 24.738 70.8925 24.7214C71.2053 24.7532 71.5214 24.7136 71.8166 24.6057C72.1118 24.4979 72.3785 24.3245 72.5963 24.0989C72.8141 23.8733 72.9773 23.6013 73.0736 23.3036C73.1699 23.0059 73.1967 22.6903 73.152 22.3807Z" fill="#375BD2"/>
<path d="M78.9599 12.4806C79.1475 12.4783 79.3337 12.5131 79.5077 12.583C79.6817 12.6528 79.84 12.7562 79.9734 12.8874C80.1069 13.0185 80.2129 13.1746 80.2852 13.3468C80.3575 13.5189 80.3947 13.7036 80.3947 13.8902C80.3947 14.2617 80.2463 14.6181 79.982 14.8808C79.7178 15.1436 79.3594 15.2912 78.9857 15.2912C78.612 15.2912 78.2536 15.1436 77.9894 14.8808C77.7251 14.6181 77.5767 14.2617 77.5767 13.8902C77.5766 13.5222 77.7212 13.1687 77.9797 12.9053C78.2381 12.642 78.5899 12.4895 78.9599 12.4806ZM77.9032 26.149V17.0681H80.0425V26.1063L77.9032 26.149Z" fill="#375BD2"/>
<path d="M85.0084 26.1055H82.8433V17.0673H84.9568V18.2718C85.2311 17.8094 85.6256 17.4289 86.0987 17.1704C86.5719 16.9118 87.1064 16.7847 87.646 16.8024C89.8626 16.8024 90.9279 18.3999 90.9279 20.3904V26.1055H88.7629V20.7577C88.7629 19.6472 88.256 18.7502 86.8985 18.7502C86.6283 18.7518 86.3615 18.8103 86.1156 18.9217C85.8698 19.0331 85.6504 19.195 85.4719 19.3966C85.2934 19.5983 85.1598 19.8353 85.0799 20.092C85 20.3486 84.9757 20.6192 85.0084 20.8859V26.1055Z" fill="#375BD2"/>
<path d="M93.5654 26.1058V12.668H95.7304V26.1058H93.5654Z" fill="#375BD2"/>
<path d="M99.5967 12.4805C99.9727 12.4805 100.333 12.629 100.599 12.8934C100.865 13.1577 101.014 13.5162 101.014 13.8901C101.012 14.1664 100.928 14.4361 100.773 14.6652C100.618 14.8943 100.398 15.0725 100.141 15.1775C99.8834 15.2825 99.6009 15.3095 99.3283 15.2552C99.0558 15.2008 98.8055 15.0676 98.609 14.8721C98.4125 14.6767 98.2785 14.4279 98.2238 14.1569C98.1692 13.8859 98.1964 13.605 98.3019 13.3493C98.4075 13.0937 98.5868 12.8748 98.8172 12.7202C99.0476 12.5656 99.3188 12.4822 99.5967 12.4805ZM98.5314 26.1489V17.068H100.679V26.1062L98.5314 26.1489Z" fill="#375BD2"/>
<path d="M105.645 26.1052H103.48V17.067H105.585V18.2715C105.86 17.8103 106.255 17.4309 106.728 17.1725C107.201 16.9141 107.735 16.7863 108.274 16.8021C110.499 16.8021 111.564 18.3996 111.564 20.3901V26.1052H109.399V20.7574C109.439 20.4973 109.419 20.2316 109.341 19.9802C109.263 19.7288 109.129 19.4981 108.949 19.3052C108.769 19.1124 108.548 18.9623 108.301 18.8661C108.055 18.77 107.79 18.7302 107.526 18.7499C107.257 18.7514 106.99 18.8098 106.745 18.9213C106.499 19.0328 106.28 19.1948 106.102 19.3967C105.924 19.5985 105.792 19.8356 105.713 20.0923C105.634 20.349 105.611 20.6193 105.645 20.8856V26.1052Z" fill="#375BD2"/>
<path d="M118.97 20.8862L122.785 26.1058H120.13L117.458 22.3811L116.341 23.5515V26.1143H114.193V12.668H116.341V20.7238L119.83 17.0676H122.708L118.97 20.8862Z" fill="#375BD2"/>
<path d="M17.0146 9.03801L26.3794 14.3857V25.1239L17.0404 30.5059L7.67558 25.1667V14.4284L17.0146 9.03801ZM17.0146 1.14453L13.578 3.12644L4.22178 8.51691L0.785156 10.4988V14.4455V25.1752V29.1219L4.22178 31.0868L13.5866 36.4345L17.0232 38.3993L20.4599 36.4174L29.7989 31.027L33.2355 29.0536V25.1069V14.3686V10.4219L29.7989 8.45711L20.4341 3.10936L16.9975 1.14453H17.0146Z" fill="#375BD2"/>
</g>
</g>
<defs>
<clipPath id="clip0_10277_2186">
<rect width="122" height="40" fill="white" transform="translate(0.785156 0.144531)"/>
</clipPath>
</defs>
</svg>
