<svg width="194" height="31" viewBox="0 0 194 31" fill="none" xmlns="http://www.w3.org/2000/svg">
<g clip-path="url(#clip0_10268_2172)">
<mask id="mask0_10268_2172" style="mask-type:luminance" maskUnits="userSpaceOnUse" x="0" y="0" width="27" height="29">
<path d="M26.9957 0.144531H0.858887V28.9907H26.9957V0.144531Z" fill="white"/>
</mask>
<g mask="url(#mask0_10268_2172)">
<path d="M11.1368 19.2097C7.85694 20.4787 4.39634 21.2135 0.885742 21.3864V7.75C1.40796 7.84965 1.89362 7.9493 2.38973 8.06469L10.9279 12.8689C10.8432 14.9848 10.913 17.1041 11.1368 19.2097Z" fill="#6F0DAB"/>
<path d="M13.9425 14.5664V17.9702C13.3524 18.264 12.7518 18.5419 12.146 18.7989C11.9695 17.0215 11.9049 15.2348 11.9528 13.4492L13.9425 14.5664Z" fill="#6F0DAB"/>
<path d="M11.2606 20.2852C11.6374 23.2069 12.3058 26.0832 13.2554 28.8708L1.71973 22.3831C4.98445 22.1518 8.19836 21.4452 11.2606 20.2852Z" fill="#6F0DAB"/>
<path d="M13.9385 19.1406V27.6004C13.1429 25.0882 12.5818 22.5072 12.2622 19.8906C12.8262 19.6545 13.385 19.4081 13.9385 19.1406Z" fill="#6F0DAB"/>
<path d="M18.477 15.2241C17.043 16.2653 15.5252 17.1846 13.939 17.9723V14.5685L15.8451 13.5195C16.7433 14.0475 17.6207 14.6157 18.477 15.2241Z" fill="#9E00FF"/>
<path d="M26.5191 22.1793L14.4037 28.9975C14.2367 28.5359 14.0853 28.0744 13.939 27.6075V19.1426C15.8492 18.2271 17.6693 17.1332 19.3753 15.875C20.7373 16.8917 22.0414 17.9842 23.2814 19.1478L26.5191 22.1793Z" fill="#9E00FF"/>
<path d="M19.3657 14.5662C18.5614 13.9788 17.7363 13.4281 16.8955 12.9036L25.8881 7.84766L25.841 7.91059C24.0032 10.4225 21.8235 12.6628 19.3657 14.5662Z" fill="#9E00FF"/>
<path d="M26.9968 8.11719V21.1924L23.9994 18.3759C22.8048 17.2603 21.5514 16.2098 20.2446 15.2291C22.6843 13.3016 24.8522 11.0502 26.6887 8.53677L26.9968 8.11719Z" fill="#9E00FF"/>
<path d="M2.38672 8.07031C5.36221 8.7327 8.26188 9.7011 11.0398 10.9602C10.9824 11.5948 10.9458 12.2347 10.9249 12.8745L2.38672 8.07031Z" fill="#CE7FFF"/>
<path d="M13.2552 0.265625C12.196 3.37032 11.4866 6.58443 11.1402 9.8478C8.07585 8.49465 4.8729 7.48335 1.58887 6.83206L13.2552 0.265625Z" fill="#CE7FFF"/>
<path d="M12.0504 11.4219C13.3508 12.0554 14.6181 12.7555 15.8469 13.5197L13.9408 14.5687L11.9512 13.4515C11.9668 12.7802 11.9982 12.1089 12.0504 11.4219Z" fill="#CE7FFF"/>
<path d="M26.5364 6.96796L25.8889 7.84907L16.8964 12.905C15.3656 11.9493 13.7807 11.0841 12.1494 10.3141C12.4845 6.84435 13.2422 3.42899 14.4053 0.144531L26.5364 6.96796Z" fill="#CE7FFF"/>
<path d="M0.858887 21.3867H0.885024V21.9111L0.858887 21.3867Z" fill="white"/>
</g>
<path d="M113.873 12.3379L117.829 11.2669V14.2068C117.829 14.2068 120.193 14.2068 124.924 14.2068C125.705 14.2068 126.25 13.8149 126.556 13.0309C126.682 12.7089 126.745 12.3729 126.745 12.0229C126.745 11.1689 126.458 10.5459 125.886 10.1539C125.593 9.97194 125.272 9.88095 124.924 9.88095H113.873L114.94 6.33203H124.965C127.017 6.33203 128.607 7.08102 129.738 8.57899C130.533 9.64296 130.931 10.8539 130.931 12.2119C130.931 13.8359 130.386 15.1728 129.298 16.2228C128.726 16.7688 128.056 17.1678 127.289 17.4198L131.412 23.0267H126.745L123.124 17.7558H117.829V23.0267H113.873V12.3379Z" fill="#1E2026"/>
<path d="M137.126 16.4748V19.4777H148.196L148.198 23.0267H133.17V6.33203H148.196L148.198 9.88095H137.126V12.9259H147.445L145.877 16.4748H137.126Z" fill="#1E2026"/>
<path d="M156.759 20.8027L158.202 17.4008H162.849L159.605 10.471L153.807 23.0287H149.642L157.533 6.98504L161.509 5.91406L169.693 23.0287H165.507L164.46 20.8027H156.759Z" fill="#1E2026"/>
<path d="M170.886 6.33203H174.841V19.4777H186.541L185.474 23.0267C185.474 23.0267 180.61 23.0267 170.886 23.0267C170.886 23.0267 170.886 17.4618 170.886 6.33203Z" fill="#1E2026"/>
<path d="M48.0693 6.33405H52.0251C52.0251 6.33405 52.0251 11.8989 52.0251 23.0287H48.0693L39.3625 12.0249V23.0287H35.4067V5.91406H39.3625L48.0693 16.9178V6.33405Z" fill="#9B00FB"/>
<path d="M58.1991 14.6913C58.1991 17.0853 59.0712 18.6182 60.8153 19.2902C61.6386 19.6123 62.6851 19.7732 63.9548 19.7732C66.9269 19.7732 68.7199 18.7513 69.3338 16.7073C69.5013 16.1054 69.585 15.4334 69.585 14.6913C69.585 11.9614 68.413 10.3305 66.0688 9.79847C65.4409 9.65847 64.7362 9.58848 63.9548 9.58848C61.2619 9.58848 59.5248 10.3585 58.7434 11.8984C58.3806 12.6404 58.1991 13.5714 58.1991 14.6913ZM73.771 14.6913C73.771 17.9673 72.5082 20.3612 69.9826 21.8732C68.2943 22.8812 66.2153 23.3851 63.7455 23.3851C60.7177 23.3851 58.3177 22.5731 56.5456 20.9492C54.8573 19.3952 54.0132 17.3093 54.0132 14.6913C54.0132 11.5974 55.1573 9.26649 57.4456 7.69852C59.148 6.55054 61.2479 5.97656 63.7455 5.97656C67.0386 5.97656 69.585 6.83754 71.385 8.5595C72.9757 10.0855 73.771 12.1294 73.771 14.6913Z" fill="#9B00FB"/>
<path d="M75.7178 12.3589L79.6735 11.2879V19.4777H85.9106C87.1106 19.4777 88.0175 18.8127 88.6315 17.4828C89.0362 16.6288 89.2384 15.6629 89.2384 14.5848C89.2384 12.9329 88.8268 11.6659 88.0036 10.7839C87.4315 10.1819 86.7339 9.88095 85.9106 9.88095H75.7178L76.7852 6.33203H86.392C88.6524 6.33203 90.4455 7.28401 91.771 9.18796C92.8733 10.7839 93.4245 12.6669 93.4245 14.8368C93.4245 17.1468 92.8105 19.0647 91.5826 20.5907C90.285 22.2007 88.5548 23.0126 86.392 23.0267H75.7178V12.3589Z" fill="#9B00FB"/>
<path d="M99.3683 16.4748V19.4777H111.508L110.44 23.0267H95.4126V6.33203H111.508L110.44 9.88095H99.3683V12.9259H109.687V16.4748H99.3683Z" fill="#9B00FB"/>
</g>
<defs>
<clipPath id="clip0_10268_2172">
<rect width="192.692" height="30" fill="white" transform="translate(0.858887 0.144531)"/>
</clipPath>
</defs>
</svg>
