
<svg width="124" height="44" viewBox="0 0 124 44" fill="none" xmlns="http://www.w3.org/2000/svg">
<g clip-path="url(#clip0_7019_8542)">
<g clip-path="url(#clip1_7019_8542)">
<path d="M75.2672 12.8745H72.0487V16.3369H70.1219V19.3747H72.0487V27.3231C72.027 28.02 72.1289 28.7152 72.3498 29.3764C72.5324 29.8693 72.8333 30.3097 73.226 30.659C73.6037 31.0036 74.0561 31.2561 74.5477 31.3967C75.6635 31.6676 76.828 31.6676 77.9438 31.3967C78.3871 31.2797 78.8146 31.1099 79.2174 30.8909V28.4461C78.6145 28.7004 77.9687 28.8373 77.3146 28.8496C77.0442 28.8803 76.7704 28.8509 76.5128 28.7635C76.2551 28.676 76.02 28.5327 75.8242 28.3438C75.4539 27.9945 75.2582 27.5369 75.2582 26.7661V19.3747H79.2174V16.3369H75.2672V12.8745ZM65.1421 17.4147C63.9708 16.5573 62.5849 16.041 61.1381 15.9232C59.6912 15.8054 58.2401 16.0907 56.9455 16.7474C55.6509 17.4041 54.5635 18.4065 53.804 19.6435C53.0444 20.8805 52.6423 22.3038 52.6423 23.7554C52.6423 25.207 53.0444 26.6302 53.804 27.8672C54.5635 29.1042 55.6509 30.1067 56.9455 30.7634C58.2401 31.42 59.6912 31.7053 61.1381 31.5875C62.5849 31.4697 63.9708 30.9535 65.1421 30.096V31.1829H68.3606V16.3248H65.1421V17.4147ZM60.4995 28.3829C59.5812 28.3829 58.6834 28.1105 57.9199 27.6003C57.1564 27.09 56.5613 26.3648 56.21 25.5163C55.8587 24.6678 55.767 23.7341 55.9463 22.8335C56.1257 21.9328 56.5682 21.1056 57.2178 20.4565C57.8673 19.8073 58.6949 19.3654 59.5956 19.1866C60.4964 19.0078 61.43 19.1001 62.2782 19.452C63.1265 19.8038 63.8514 20.3994 64.3611 21.1632C64.8709 21.9271 65.1427 22.825 65.1421 23.7433C65.1421 24.3529 65.022 24.9564 64.7886 25.5195C64.5553 26.0826 64.2133 26.5942 63.7821 27.0251C63.351 27.4559 62.8392 27.7976 62.2759 28.0306C61.7127 28.2636 61.109 28.3833 60.4995 28.3829ZM42.8625 20.856V24.4388H47.7068C47.4058 25.7118 46.6759 26.8423 45.6397 27.6406C44.6035 28.4389 43.3241 28.8562 42.0165 28.8225C40.9839 28.8204 39.9682 28.5594 39.0625 28.0634C38.1568 27.5674 37.39 26.8521 36.8322 25.9831C36.2744 25.1141 35.9434 24.1191 35.8695 23.0891C35.7957 22.0591 35.9813 21.027 36.4094 20.0873C36.8375 19.1476 37.4945 18.3303 38.3201 17.7101C39.1458 17.0899 40.1138 16.6867 41.1356 16.5373C42.1573 16.3879 43.2003 16.4972 44.1689 16.8551C45.1375 17.213 46.0009 17.8081 46.6801 18.5859L49.453 16.3218C48.3934 15.0728 47.0364 14.1107 45.507 13.5242C43.9776 12.9378 42.3252 12.7459 40.7022 12.9662C39.0791 13.1865 37.5377 13.812 36.22 14.7849C34.9023 15.7579 33.8509 17.0469 33.1626 18.5333C32.4743 20.0196 32.1713 21.6553 32.2817 23.2895C32.392 24.9237 32.9121 26.5039 33.7939 27.8842C34.6758 29.2645 35.891 30.4005 37.3275 31.1875C38.764 31.9745 40.3755 32.387 42.0135 32.3872C43.2701 32.4101 44.5184 32.1789 45.6834 31.7076C46.8485 31.2363 47.9064 30.5345 48.7937 29.6444C50.295 28.0901 51.2275 26.0744 51.4401 23.924C51.5274 22.8986 51.5425 21.8684 51.4853 20.841L42.8625 20.856ZM115.265 15.8943C113.71 15.8943 112.19 16.3553 110.898 17.2191C109.605 18.0829 108.597 19.3106 108.002 20.7471C107.407 22.1835 107.252 23.7641 107.555 25.289C107.858 26.8139 108.607 28.2146 109.706 29.314C110.806 30.4134 112.207 31.1621 113.731 31.4654C115.256 31.7687 116.837 31.613 118.273 31.0181C119.71 30.4231 120.938 29.4155 121.801 28.1227C122.665 26.83 123.126 25.3101 123.126 23.7554C123.128 22.722 122.926 21.6985 122.531 20.7434C122.137 19.7882 121.558 18.9202 120.828 18.189C120.098 17.4577 119.231 16.8776 118.276 16.4818C117.322 16.086 116.298 15.8822 115.265 15.8823V15.8943ZM115.265 28.3949C114.347 28.3949 113.449 28.1226 112.686 27.6123C111.922 27.102 111.327 26.3768 110.976 25.5283C110.624 24.6798 110.533 23.7462 110.712 22.8455C110.891 21.9449 111.334 21.1177 111.983 20.4685C112.633 19.8193 113.46 19.3774 114.361 19.1986C115.262 19.0198 116.196 19.1122 117.044 19.464C117.892 19.8159 118.617 20.4114 119.127 21.1753C119.636 21.9391 119.908 22.837 119.908 23.7554C119.904 24.9843 119.414 26.1617 118.543 27.0293C117.673 27.8969 116.494 28.3837 115.265 28.3829V28.3949ZM102.138 31.1949H105.601V17.8603H102.138V31.1949ZM96.8483 31.1949H100.311V27.7205H96.8483V31.1949ZM88.075 15.8943C86.6861 15.893 85.3216 16.2596 84.1204 16.957C82.9192 17.6544 81.9243 18.6576 81.2368 19.8644C80.5493 21.0713 80.1939 22.4388 80.2067 23.8276C80.2194 25.2165 80.6 26.5772 81.3095 27.7712C82.019 28.9652 83.0323 29.95 84.246 30.6251C85.4598 31.3003 86.8308 31.6418 88.2195 31.615C89.6082 31.5881 90.9649 31.1938 92.1517 30.4721C93.3384 29.7505 94.3128 28.7273 94.9756 27.5068L92.0703 26.0947C91.6055 26.8837 90.9178 27.5176 90.0937 27.9167C89.2696 28.3159 88.3458 28.4624 87.4387 28.3378C86.5315 28.2133 85.6814 27.8233 84.9954 27.2168C84.3093 26.6104 83.8179 25.8146 83.5829 24.9296H92.567H95.8548C96.0261 23.8096 95.9534 22.6658 95.6417 21.5765C95.3299 20.4872 94.7864 19.4781 94.0485 18.6184C93.3105 17.7586 92.3955 17.0685 91.3661 16.5952C90.3366 16.1219 89.217 15.8766 88.084 15.8762L88.075 15.8943ZM83.7305 22.1175C84.0625 21.234 84.6562 20.4727 85.4322 19.9353C86.2082 19.398 87.1296 19.1101 88.0735 19.1101C89.0174 19.1101 89.9388 19.398 90.7148 19.9353C91.4908 20.4727 92.0844 21.234 92.4165 22.1175H83.7305ZM102.138 16.3489H105.601V12.8866H102.138V16.3489Z" fill="black"/>
<path d="M15.1485 29.6777C13.1124 29.6777 11.1596 28.8689 9.71978 27.4291C8.27998 25.9893 7.47111 24.0365 7.47111 22.0003C7.47111 19.9642 8.27998 18.0114 9.71978 16.5716C11.1596 15.1318 13.1124 14.3229 15.1485 14.3229V8.04248C12.3879 8.04248 9.68932 8.86109 7.39396 10.3948C5.09861 11.9285 3.3096 14.1084 2.25316 16.6589C1.19672 19.2094 0.920309 22.0158 1.45888 24.7234C1.99744 27.4309 3.3268 29.918 5.27884 31.87C7.23088 33.8221 9.71793 35.1514 12.4255 35.69C15.133 36.2286 17.9395 35.9521 20.49 34.8957C23.0404 33.8393 25.2204 32.0503 26.7541 29.7549C28.2878 27.4595 29.1064 24.7609 29.1064 22.0003H22.826C22.826 24.0365 22.0171 25.9893 20.5773 27.4291C19.1375 28.8689 17.1847 29.6777 15.1485 29.6777Z" fill="black"/>
<path d="M22.826 14.3223H15.1486V21.9997H22.826V14.3223Z" fill="black"/>
</g>
</g>
<defs>
<clipPath id="clip0_7019_8542">
<rect width="123" height="44" fill="white" transform="translate(0.62146)"/>
</clipPath>
<clipPath id="clip1_7019_8542">
<rect width="122.5" height="28" fill="white" transform="translate(0.62146 8)"/>
</clipPath>
</defs>
</svg>
