
<svg width="46" height="44" viewBox="0 0 46 44" fill="none" xmlns="http://www.w3.org/2000/svg">
<g clip-path="url(#clip0_7019_8630)">
<g clip-path="url(#clip1_7019_8630)">
<path d="M22.783 0.000110462C22.9371 0.000359002 23.0887 0.00209781 23.2428 0.00532882C23.5485 0.0122879 23.8542 0.0252139 24.1574 0.0446C24.99 0.0972904 25.8177 0.197204 26.6379 0.343843C27.5003 0.497689 28.3503 0.703468 29.1879 0.959464C30.0354 1.21869 30.8655 1.52961 31.6733 1.8895C32.7867 2.38533 33.8604 2.97439 34.877 3.64818C35.9134 4.33564 36.8926 5.11107 37.7998 5.96331C38.7144 6.82202 39.5545 7.75851 40.31 8.75963C41.0631 9.75503 41.7317 10.8163 42.3033 11.9273C42.7855 12.8593 43.2005 13.8261 43.5435 14.8178C43.8791 15.7896 44.1475 16.7887 44.3413 17.8003C44.6097 19.1821 44.7415 20.5889 44.7415 21.9956C44.7415 22.9997 44.6744 24.0063 44.5377 25.0005C44.3886 26.0965 44.1549 27.1826 43.8418 28.2414C43.5137 29.3474 43.0986 30.4286 42.6015 31.4675C42.0374 32.6455 41.3688 33.7739 40.6058 34.8327C39.8328 35.9039 38.9654 36.9055 38.016 37.8226C37.0243 38.7795 35.9432 39.6419 34.7924 40.3975C33.6616 41.1406 32.4611 41.7794 31.2135 42.3013C29.8391 42.8754 28.405 43.3079 26.9411 43.5912C25.5716 43.8572 24.1773 43.9889 22.783 43.9914C21.3862 43.9939 19.9895 43.8646 18.62 43.6036C17.1561 43.3253 15.7195 42.8978 14.3426 42.3262C13.0924 41.8092 11.8895 41.1729 10.7562 40.4348C9.60297 39.6817 8.51933 38.8217 7.52766 37.8698C6.57326 36.9552 5.70338 35.9561 4.92794 34.8874C4.15995 33.8286 3.48887 32.7052 2.9222 31.5271C2.42015 30.4907 2.00263 29.412 1.67207 28.306C1.35394 27.2473 1.11783 26.1661 0.963734 25.07C0.822067 24.051 0.75 23.0246 0.75 21.9956C0.75 20.6113 0.879231 19.2269 1.13771 17.8674C1.33157 16.8558 1.59503 15.8567 1.93056 14.8799C2.26858 13.8882 2.68111 12.919 3.15831 11.9869C3.72747 10.8735 4.39356 9.8122 5.14415 8.81232C5.9022 7.80027 6.74971 6.85359 7.6693 5.98594C8.57647 5.13245 9.55323 4.35551 10.5896 3.66656C11.6062 2.99127 12.6774 2.40076 13.7909 1.90319C14.5986 1.54206 15.4287 1.22988 16.2738 0.969658C17.1089 0.712171 17.9614 0.505151 18.8213 0.349813C19.6415 0.201932 20.4691 0.101015 21.2992 0.046833C21.6049 0.0269498 21.9107 0.0135316 22.2139 0.00632395C22.368 0.00259586 22.5221 0.000607541 22.6761 0.000110462C22.7109 0.000110462 22.7458 -0.000138078 22.783 0.000110462ZM22.7159 2.80638C22.3033 2.80737 21.8932 2.82078 21.4832 2.84737C20.7574 2.89459 20.0342 2.98257 19.3209 3.11156C18.5703 3.24702 17.8271 3.42747 17.0989 3.65165C16.3632 3.87882 15.64 4.15073 14.9341 4.46538C13.9201 4.91896 12.9458 5.46128 12.0237 6.08387C11.1862 6.6493 10.3958 7.28032 9.65762 7.96952C8.82253 8.74969 8.05454 9.60443 7.37106 10.5205C6.76959 11.3233 6.23276 12.1733 5.76302 13.0606C5.31068 13.9206 4.92049 14.8153 4.60484 15.7324C4.32399 16.5452 4.09779 17.3753 3.92878 18.2153C3.68273 19.4506 3.5585 20.7082 3.5585 21.9633C3.55601 22.873 3.61815 23.7801 3.7449 24.6799C3.88657 25.6939 4.11023 26.6955 4.41096 27.6723C4.68932 28.5645 5.03233 29.4394 5.43745 30.2844C5.95441 31.3631 6.57573 32.392 7.28407 33.3564C7.94021 34.2461 8.67093 35.0787 9.46874 35.8442C10.3361 36.6768 11.2806 37.4274 12.2897 38.0836C13.2789 38.7273 14.3252 39.2815 15.4163 39.7339C16.5994 40.2235 17.8296 40.5938 19.0847 40.8349C20.3001 41.071 21.5403 41.1878 22.778 41.1854C23.9959 41.1829 25.2137 41.0661 26.4092 40.8349C27.6842 40.5889 28.9319 40.2111 30.1299 39.7115C31.2383 39.2492 32.2996 38.6801 33.3012 38.019C34.2879 37.3678 35.215 36.6247 36.065 35.8045C36.8827 35.0166 37.6283 34.1567 38.2944 33.2395C38.9804 32.2926 39.5793 31.286 40.0814 30.2297C40.4965 29.3598 40.8469 28.4552 41.1253 27.5306C41.4111 26.5787 41.6223 25.6044 41.759 24.6202C41.8808 23.7304 41.938 22.8332 41.9355 21.9335C41.933 21.3196 41.9032 20.7032 41.8435 20.0918C41.7789 19.4431 41.682 18.7969 41.5527 18.1582C41.3713 17.2684 41.1277 16.3935 40.822 15.5385C40.5113 14.6711 40.136 13.8236 39.7036 13.0084C39.204 12.0714 38.6299 11.1767 37.9837 10.3366C37.3301 9.48189 36.6018 8.68283 35.8139 7.94964C35.0335 7.22241 34.1935 6.55981 33.3012 5.97152C32.4139 5.38521 31.4794 4.87273 30.5051 4.44176C29.7993 4.1291 29.0761 3.85917 28.3379 3.63449C27.6097 3.4123 26.8665 3.2341 26.1159 3.10113C25.3877 2.97238 24.6545 2.88591 23.9188 2.84167C23.5187 2.81756 23.1185 2.80613 22.7159 2.80638Z" fill="#000202"/>
<path d="M12.5225 25.0286V23.182H14.7222C15.2051 23.182 15.6453 23.594 15.6453 24.1053C15.6453 24.6166 15.2336 25.0286 14.7222 25.0286H12.5225ZM12.5225 20.8386V18.9923H14.0737C14.585 18.9923 14.9969 19.404 14.9969 19.9154C14.9969 20.4267 14.585 20.8386 14.0737 20.8386H12.5225ZM15.3415 27.3294C17.0317 27.3294 18.4291 25.8948 18.4291 24.2047C18.4291 23.2389 17.9463 22.3441 17.2219 21.7619C17.6338 21.2363 17.7806 20.5687 17.7806 19.8445C17.7806 18.1402 16.3319 16.6772 14.6276 16.6772H9.72461V27.3294H15.3415Z" fill="#000202"/>
<path d="M19.1674 19.4464H21.3675V27.329H24.1654V19.4464H26.3273V16.6626H19.1674V19.4464Z" fill="#000202"/>
<path fill-rule="evenodd" clip-rule="evenodd" d="M36.1682 25.7671C35.203 26.7323 33.8678 27.3296 32.3962 27.3296C29.453 27.3296 27.0637 24.9383 27.0637 21.9951C27.0637 19.0519 29.453 16.6626 32.3962 16.6626C33.8678 16.6626 35.203 17.2599 36.1682 18.2251L34.1675 20.2238C33.7149 19.7712 33.0886 19.4901 32.3962 19.4901C31.0135 19.4901 29.8912 20.6123 29.8912 21.9951C29.8912 23.3778 31.0135 24.5022 32.3962 24.5022C33.0886 24.5022 33.7149 24.2211 34.1675 23.7664L36.1682 25.7671Z" fill="#000202"/>
</g>
</g>
<defs>
<clipPath id="clip0_7019_8630">
<rect width="45" height="44" fill="white" transform="translate(0.62146)"/>
</clipPath>
<clipPath id="clip1_7019_8630">
<rect width="44" height="44" fill="white" transform="translate(0.75)"/>
</clipPath>
</defs>
</svg>
