<svg width="130" height="33" viewBox="0 0 130 33" fill="none" xmlns="http://www.w3.org/2000/svg">
<g clip-path="url(#clip0_10283_2269)">
<path d="M46.2185 22.6445V12.3485H49.6565V9.86453H40.1885V12.3485H43.5905V22.6445H46.2185ZM53.5265 22.6445V18.2525C53.5265 16.5245 54.3905 15.6965 55.5245 15.6965C56.5505 15.6965 57.1085 16.4885 57.1085 17.7845V22.6445H59.5745V17.3705C59.5745 15.0305 58.2785 13.4465 56.1005 13.4465C54.9305 13.4465 53.9945 13.9505 53.5265 14.6705V9.14453H51.0605V22.6445H53.5265ZM65.9825 22.8425C68.2685 22.8425 70.0505 21.5285 70.5905 19.7105H68.0165C67.7285 20.3225 66.9725 20.7005 66.1085 20.7005C64.5785 20.7005 63.7865 19.7825 63.6785 18.7205H70.6985C70.8245 15.3365 68.6465 13.4465 66.0005 13.4465C63.2645 13.4465 61.2665 15.4445 61.2665 18.1265C61.2665 20.8625 63.2285 22.8425 65.9825 22.8425ZM67.9985 17.1005H63.7685C64.0025 16.1105 64.7945 15.4445 65.9285 15.4445C66.7745 15.4445 67.6925 15.8945 67.9985 17.1005ZM82.8305 22.8605C86.6285 22.8605 89.7065 20.2505 89.1305 14.9945H82.5245V17.4425H86.4305C86.1425 19.2065 84.9005 20.3405 82.8305 20.3405C80.3465 20.3405 78.7265 18.5405 78.7265 16.2545C78.7265 13.9685 80.3465 12.1685 82.7945 12.1685C84.0185 12.1685 85.2065 12.7085 85.8365 13.6445H88.8245C87.9605 11.2325 85.4765 9.64853 82.7945 9.64853C78.9245 9.64853 76.0985 12.5465 76.0985 16.2545C76.0985 19.9625 78.9245 22.8605 82.8305 22.8605ZM93.4325 22.6445V18.3425C93.4325 16.8665 94.2065 15.9485 95.3765 15.9485C95.7725 15.9485 96.1145 16.0205 96.4925 16.1465V13.6445C96.1865 13.5545 95.9165 13.5365 95.6645 13.5365C94.6565 13.5365 93.7385 14.2025 93.4325 15.0845V13.6445H90.9665V22.6445H93.4325ZM101.406 22.8425C102.648 22.8425 103.602 22.2125 103.998 21.6365V22.6445H106.464V13.6445H103.998V14.6525C103.602 14.0765 102.648 13.4465 101.406 13.4465C99.0125 13.4465 97.1765 15.5885 97.1765 18.1445C97.1765 20.7005 99.0125 22.8425 101.406 22.8425ZM101.928 20.5925C100.578 20.5925 99.6605 19.5485 99.6605 18.1445C99.6605 16.7405 100.578 15.6965 101.928 15.6965C103.278 15.6965 104.196 16.7405 104.196 18.1445C104.196 19.5485 103.278 20.5925 101.928 20.5925ZM111.324 26.4065V21.6365C111.738 22.2125 112.692 22.8425 113.934 22.8425C116.328 22.8425 118.164 20.7005 118.164 18.1445C118.164 15.5885 116.328 13.4465 113.934 13.4465C112.692 13.4465 111.738 14.0765 111.324 14.6525V13.6445H108.858V26.4065H111.324ZM113.394 20.5925C112.044 20.5925 111.126 19.5485 111.126 18.1445C111.126 16.7405 112.044 15.6965 113.394 15.6965C114.744 15.6965 115.662 16.7405 115.662 18.1445C115.662 19.5485 114.744 20.5925 113.394 20.5925ZM122.43 22.6445V18.2525C122.43 16.5245 123.294 15.6965 124.428 15.6965C125.454 15.6965 126.012 16.4885 126.012 17.7845V22.6445H128.478V17.3705C128.478 15.0305 127.182 13.4465 125.004 13.4465C123.834 13.4465 122.898 13.9505 122.43 14.6705V9.14453H119.964V22.6445H122.43Z" fill="#0C0A1D"/>
<path d="M16.1885 32.1445C25.025 32.1445 32.1885 24.9811 32.1885 16.1445C32.1885 7.30797 25.025 0.144531 16.1885 0.144531C7.35192 0.144531 0.188477 7.30797 0.188477 16.1445C0.188477 24.9811 7.35192 32.1445 16.1885 32.1445Z" fill="#6F4CFF"/>
<path d="M16.1885 32.1445C25.025 32.1445 32.1885 24.9811 32.1885 16.1445C32.1885 7.30797 25.025 0.144531 16.1885 0.144531C7.35192 0.144531 0.188477 7.30797 0.188477 16.1445C0.188477 24.9811 7.35192 32.1445 16.1885 32.1445Z" fill="#0C0A1D" fill-opacity="0.08"/>
<path fill-rule="evenodd" clip-rule="evenodd" d="M22.056 20.666C22.4456 21.0538 22.4734 21.6653 22.1395 22.0851L22.056 22.1784L17.759 26.4563C17.3395 26.8739 16.6594 26.8739 16.2399 26.4563C15.8503 26.0684 15.8225 25.457 16.1564 25.0372L16.2399 24.9439L20.5369 20.666C20.9564 20.2483 21.6365 20.2483 22.056 20.666ZM15.9253 7.51953C19.4849 7.51953 22.3706 10.3924 22.3706 13.9362C22.3706 17.48 19.4849 20.3528 15.9253 20.3528C12.3657 20.3528 9.47998 17.48 9.47998 13.9362C9.47998 10.3924 12.3657 7.51953 15.9253 7.51953ZM15.9253 9.65841C13.5522 9.65841 11.6284 11.5736 11.6284 13.9362C11.6284 16.2988 13.5522 18.2139 15.9253 18.2139C18.2985 18.2139 20.2222 16.2988 20.2222 13.9362C20.2222 11.5736 18.2985 9.65841 15.9253 9.65841ZM23.445 7.51953C24.0382 7.51953 24.519 7.99825 24.519 8.58897C24.519 9.17969 24.0382 9.65841 23.445 9.65841C22.8516 9.65841 22.3707 9.17969 22.3707 8.58897C22.3707 7.99825 22.8516 7.51953 23.445 7.51953Z" fill="white"/>
</g>
<defs>
<clipPath id="clip0_10283_2269">
<rect width="129" height="32" fill="white" transform="translate(0.188477 0.144531)"/>
</clipPath>
</defs>
</svg>
