
<svg width="190" height="121" viewBox="0 0 190 121" fill="none" xmlns="http://www.w3.org/2000/svg">
<rect y="0.189209" width="190" height="120" rx="24" fill="#F5F5F7"/>
<path d="M57.1205 51.2925C57.4805 50.8143 57.7899 50.4018 58.1011 49.9931C60.2724 47.1412 63.1561 45.7312 66.7374 45.7162C67.3299 45.7143 67.703 45.8587 67.6899 46.5412C67.6486 48.945 67.7611 51.36 67.5661 53.7506C67.118 59.2162 62.6874 63.1781 57.113 63.2662C51.9811 63.3487 47.2692 59.2856 46.7311 54.0543C46.4705 51.5193 46.6711 48.9375 46.6599 46.3762C46.6561 45.72 47.1024 45.7406 47.5617 45.7406C51.4505 45.7443 54.4917 47.3193 56.6105 50.61C56.7417 50.8143 56.9011 51 57.1205 51.2925ZM58.3374 60.7593C60.188 60.5381 61.5624 59.7731 62.7774 58.6481C65.9086 55.7456 65.4605 51.9862 65.3705 48.0281C64.3636 48.3993 63.4692 48.6375 62.6611 49.0481C60.9924 49.8956 59.828 51.2568 59.0442 52.9481C57.8855 55.4493 58.5061 58.0762 58.3374 60.7593ZM55.9824 60.8175C55.9224 57.9581 56.4042 55.2056 55.1274 52.6668C54.0792 50.5856 52.4217 49.0912 50.1361 48.4218C49.0655 48.1087 48.9267 48.2362 48.9174 49.3293C48.908 50.4843 48.8349 51.6487 48.9605 52.7906C49.0824 53.8931 49.2586 55.0387 49.6955 56.0437C50.8392 58.6837 52.9167 60.2306 55.9824 60.8156V60.8175Z" fill="#075A5A"/>
<path d="M97.5965 50.3079C97.5965 51.5247 97.6434 52.7435 97.5871 53.9585C97.4577 56.7091 95.594 58.5504 92.8452 58.6347C92.0127 58.661 91.1577 58.6179 90.3421 58.4622C88.1409 58.0422 86.7252 56.4916 86.6259 54.2566C86.5134 51.701 86.5584 49.1397 86.5246 46.5822C86.5171 46.0047 86.7309 45.7179 87.3496 45.746C88.004 45.776 88.6621 45.7797 89.3146 45.7347C89.9784 45.6879 90.2034 45.9766 90.1996 46.6047C90.1846 48.446 90.1809 50.2872 90.2071 52.1285C90.2165 52.7154 90.2877 53.3097 90.4096 53.8854C90.6646 55.0722 91.109 55.4266 92.1796 55.391C93.1865 55.3572 93.7152 54.9185 93.7865 53.7072C93.9065 51.6541 93.9027 49.5935 93.9234 47.5347C93.9402 45.6991 93.9234 45.6991 95.7777 45.7347C97.0027 45.7585 97.6152 46.3779 97.6152 47.5929C97.6152 48.4985 97.6152 49.4041 97.6152 50.3079C97.6096 50.3079 97.6021 50.3079 97.5965 50.3079Z" fill="#075A5A"/>
<path d="M132.387 73.8917C132.105 73.8917 131.824 73.871 131.545 73.8954C130.902 73.9498 130.617 73.6704 130.452 73.0367C129.749 70.3479 130.452 70.8223 127.504 70.7492C126.788 70.7304 126.458 70.9629 126.274 71.6698C125.689 73.9048 125.661 73.8973 123.37 73.8673C121.96 73.8485 121.896 73.7754 122.395 72.4179C123.66 68.9642 124.956 65.5217 126.212 62.066C126.467 61.3629 126.9 61.1285 127.624 61.136C129.81 61.1567 129.912 61.0948 130.735 63.1798C131.935 66.2229 133.011 69.3148 134.065 72.4123C134.558 73.8635 134.464 73.901 132.387 73.8917ZM127.431 67.8185H129.025C128.772 67.0704 128.552 66.4254 128.335 65.7823C128.245 65.7935 128.155 65.8048 128.065 65.816C127.868 66.4404 127.671 67.0667 127.433 67.8204L127.431 67.8185Z" fill="#075A5A"/>
<path d="M135.554 58.4695C135.211 58.4695 134.832 58.5614 134.534 58.4451C134.181 58.3064 133.889 57.9989 133.593 57.7383C133.514 57.6689 133.516 57.5076 133.486 57.3858C132.961 55.2351 132.314 54.8189 130.116 55.3364C129.841 55.402 129.511 55.7789 129.434 56.0714C128.663 58.9926 129.269 58.3964 126.153 58.462C125.161 58.4826 125.003 58.2876 125.335 57.3708C126.638 53.7689 127.99 50.1839 129.299 46.5839C129.544 45.9051 129.978 45.7026 130.654 45.7345C133.248 45.8564 132.771 45.2058 133.763 47.737C135.034 50.9826 136.135 54.2939 137.314 57.5751C137.539 58.1995 137.29 58.4601 136.675 58.4676C136.3 58.4714 135.927 58.4676 135.552 58.4676L135.554 58.4695ZM131.404 50.3245C131.318 50.3264 131.232 50.3301 131.146 50.332C130.949 50.9676 130.752 51.6051 130.521 52.3495H132.143C131.86 51.5714 131.631 50.947 131.403 50.3226L131.404 50.3245Z" fill="#075A5A"/>
<path d="M92.4657 73.8975C92.3401 73.8975 92.2163 73.8975 92.0907 73.8975C91.0832 73.9 90.4695 73.4169 90.2495 72.4481C90.1801 72.1444 90.0845 71.8444 90.0338 71.5388C89.9401 70.9856 89.6382 70.7156 89.0701 70.7625C88.9782 70.77 88.8826 70.7569 88.7888 70.7531C86.6101 70.6856 86.5595 70.6725 85.9895 72.735C85.7195 73.7119 85.2376 74.0944 84.2645 73.8806C84.2045 73.8675 84.1407 73.875 84.077 73.8731C81.887 73.8469 81.8101 73.8206 82.5432 71.7206C83.6645 68.5144 84.9095 65.3513 86.0851 62.1638C86.3588 61.4213 86.8107 61.1213 87.632 61.1325C89.8782 61.1644 89.8838 61.1269 90.6695 63.2869C91.7776 66.3319 92.9063 69.3713 93.9601 72.435C94.4345 73.8113 94.3538 73.8469 92.9326 73.8788C92.777 73.8825 92.6213 73.8788 92.4638 73.8788V73.9013L92.4657 73.8975ZM87.2757 67.7925H88.952C88.6913 66.9919 88.4795 66.3375 88.2657 65.6831C88.1907 65.6831 88.1138 65.6831 88.0388 65.6831C87.797 66.3525 87.5532 67.0238 87.2757 67.7906V67.7925Z" fill="#075A5A"/>
<path d="M95.465 67.5544C95.465 65.7751 95.4894 63.9957 95.4538 62.2163C95.4388 61.4701 95.6732 61.1307 96.4625 61.1476C98.0844 61.1813 99.71 61.1176 101.332 61.1701C103.672 61.2451 105.434 63.0076 105.438 65.1994C105.442 67.7457 103.884 69.3901 101.36 69.5082C99.965 69.5732 99.2588 70.2944 99.2413 71.6719C99.2238 73.1519 98.475 73.8851 96.995 73.8713C95.985 73.8626 95.48 73.3494 95.48 72.3319C95.48 70.7401 95.48 69.1482 95.48 67.5563C95.4744 67.5563 95.4707 67.5563 95.465 67.5563V67.5544ZM99.2788 65.2538C99.2225 65.9119 99.1832 66.4519 100.057 66.4463C101.069 66.4407 101.681 66.0619 101.649 65.3119C101.615 64.5357 101.124 64.2582 100.406 64.2282C99.6257 64.1944 99.0875 64.3744 99.2807 65.2538H99.2788Z" fill="#075A5A"/>
<path d="M115.68 52.0891C115.68 50.3416 115.712 48.5941 115.665 46.8484C115.645 46.0609 115.857 45.7141 116.708 45.7422C118.296 45.7947 119.89 45.7347 121.48 45.7572C123.707 45.7891 125.498 47.4128 125.667 49.5109C125.852 51.8191 124.523 53.5516 122.194 53.9753C121.587 54.0859 120.955 54.0916 120.334 54.0859C119.747 54.0803 119.481 54.2772 119.507 54.9034C119.543 55.7753 119.507 56.6491 119.507 57.5228C119.507 58.1716 119.22 58.4547 118.538 58.4772C115.68 58.5766 115.682 58.5934 115.682 55.7378C115.682 54.5209 115.682 53.3041 115.682 52.0872L115.68 52.0891ZM119.502 49.8428C119.507 50.9434 119.579 51.0372 120.329 51.0297C121.309 51.0184 121.93 50.5497 121.883 49.8147C121.827 48.9316 121.159 48.8584 120.482 48.7984C119.599 48.7197 119.41 49.2091 119.502 49.8428Z" fill="#075A5A"/>
<path d="M77.3559 73.897C75.1003 73.987 73.1559 73.3514 71.7084 71.5345C70.0247 69.4214 69.824 67.0326 70.8347 64.6476C71.8865 62.167 73.9434 60.8582 76.6547 60.8001C77.894 60.7739 79.1372 60.9951 80.3803 61.0926C81.0403 61.1451 81.2559 61.4957 81.2803 62.1426C81.3534 64.1526 81.3759 64.1414 79.4353 64.042C78.689 64.0045 77.9353 63.9839 77.189 64.0251C75.2503 64.1339 74.0803 65.4089 74.0559 67.2782C74.024 69.592 75.7134 70.6476 77.2565 70.7057C78.2184 70.7414 79.1915 70.6757 80.1497 70.5689C80.9428 70.4807 81.2934 70.6739 81.2897 71.5457C81.2784 73.447 81.3159 73.462 79.409 73.7376C78.7322 73.8351 78.0422 73.8464 77.3578 73.897H77.3559Z" fill="#075A5A"/>
<path d="M80.0492 45.7536C81.5492 45.7536 83.0473 45.7761 84.5454 45.7423C85.1679 45.7273 85.3686 45.973 85.3723 46.5636C85.3873 49.3086 85.3929 48.8005 83.2948 48.7892C81.9973 48.7817 81.9392 48.8267 81.9354 50.1636C81.9279 52.5055 81.9354 54.8492 81.9448 57.1911C81.9504 58.3498 81.8117 58.4998 80.6736 58.4773C80.6117 58.4773 80.5479 58.4698 80.4861 58.4698C78.9373 58.4336 78.1629 57.6217 78.1629 56.0342C78.1629 53.9417 78.1423 51.8473 78.1779 49.7567C78.1911 49.0536 77.9267 48.778 77.2517 48.8248C77.0342 48.8398 76.8148 48.8286 76.5954 48.8248C74.6154 48.808 74.1992 48.3036 74.6848 46.3498C74.7486 46.0967 75.2436 45.7948 75.5492 45.7836C77.0454 45.7255 78.5473 45.7573 80.0454 45.7555L80.0492 45.7536Z" fill="#075A5A"/>
<path d="M117.375 61.1471C118.809 61.1471 120.246 61.1678 121.68 61.1378C122.37 61.1246 122.702 61.3421 122.736 62.0865C122.833 64.194 122.856 64.1921 120.729 64.2353C119.758 64.254 119.272 64.7521 119.271 65.7296C119.271 68.0696 119.256 70.4096 119.295 72.7496C119.308 73.5971 118.993 73.8934 118.144 73.9028C115.476 73.9309 115.476 73.9571 115.476 71.2628C115.476 69.234 115.453 67.2053 115.487 65.1784C115.5 64.4359 115.217 64.1396 114.493 64.2296C114.339 64.2484 114.182 64.239 114.026 64.239C111.898 64.2334 111.921 64.2334 111.977 62.139C111.996 61.4246 112.251 61.1134 112.976 61.1453C113.724 61.179 114.474 61.149 115.222 61.149C115.941 61.149 116.657 61.149 117.375 61.1453V61.1471Z" fill="#075A5A"/>
<path d="M135.387 66.5681C135.387 65.1337 135.428 63.6975 135.372 62.265C135.338 61.38 135.713 61.0894 136.535 61.14C137.063 61.1737 137.598 61.1737 138.125 61.1344C138.955 61.0706 139.214 61.4569 139.208 62.2425C139.188 64.7381 139.231 67.2337 139.205 69.7275C139.197 70.5225 139.452 70.8675 140.285 70.8225C141.217 70.7719 142.156 70.8375 143.092 70.8169C143.791 70.8019 144.097 71.07 144.113 71.805C144.158 73.9294 144.179 73.9312 142.066 73.9125C140.787 73.9012 139.508 73.905 138.23 73.8581C136.426 73.7925 135.545 72.9431 135.425 71.1525C135.372 70.3762 135.397 69.5944 135.393 68.8144C135.389 68.0662 135.393 67.3162 135.393 66.5681H135.389H135.387Z" fill="#075A5A"/>
<path d="M99.7657 51.221C99.7657 49.691 99.7826 48.1629 99.7582 46.6348C99.7469 45.9954 99.9869 45.7479 100.636 45.7517C104.076 45.7667 103.48 45.251 103.531 48.5529C103.561 50.486 103.549 52.4229 103.504 54.356C103.486 55.1229 103.75 55.4285 104.526 55.3948C105.492 55.3535 106.461 55.4135 107.427 55.3835C108.13 55.361 108.443 55.6217 108.469 56.351C108.546 58.4773 108.565 58.4792 106.437 58.4717C105.188 58.4679 103.939 58.4773 102.693 58.4342C100.716 58.3667 99.8444 57.4873 99.7807 55.5279C99.7582 54.8117 99.7713 54.0935 99.7694 53.3754C99.7694 52.6573 99.7694 51.9392 99.7694 51.2229L99.7657 51.221Z" fill="#075A5A"/>
<path d="M67.2084 63.4593C66.8372 63.583 66.4678 63.7105 66.0966 63.8324C61.6266 65.2968 58.9847 68.2949 58.4466 73.018C58.3697 73.6987 58.1184 74.0193 57.4547 73.8899C56.8434 73.7699 55.9509 74.2349 55.8441 73.0218C55.4541 68.608 52.5178 65.0999 48.2109 63.8099C47.8697 63.7087 47.5341 63.5868 47.2266 63.3449C49.2516 62.7412 51.0928 63.2868 52.8609 64.2299C54.6366 65.1787 55.9566 66.6112 57.1134 68.4974C59.5359 64.8037 62.6672 62.6587 67.0791 63.1087C67.1222 63.2249 67.1634 63.343 67.2066 63.4593H67.2084Z" fill="#075A5A"/>
<path d="M110.569 67.6894C110.569 69.4688 110.533 71.25 110.586 73.0275C110.608 73.7888 110.272 73.9463 109.633 73.9069C109.166 73.8788 108.696 73.8769 108.229 73.8863C106.939 73.9125 106.892 73.8769 106.892 72.6263C106.89 69.2213 106.888 65.8163 106.892 62.4113C106.892 61.2206 106.959 61.1588 108.18 61.1438C108.493 61.14 108.804 61.1438 109.117 61.1475C110.634 61.1606 110.642 61.1606 110.651 62.7225C110.661 64.3781 110.653 66.0338 110.653 67.6894C110.627 67.6894 110.599 67.6894 110.572 67.6894H110.569Z" fill="#075A5A"/>
<path d="M109.671 52.0292C109.671 50.2499 109.694 48.4705 109.66 46.693C109.647 46.0217 109.855 45.7274 110.56 45.7424C114.012 45.8136 113.417 45.2717 113.457 48.4705C113.492 51.373 113.468 54.2755 113.466 57.178C113.466 58.3855 113.367 58.5017 112.21 58.4792C109.139 58.4174 109.739 58.8149 109.673 55.963C109.643 54.6524 109.667 53.3417 109.669 52.0311L109.671 52.0292Z" fill="#075A5A"/>
</svg>
