
<svg width="352" height="278" viewBox="0 0 352 278" fill="none" xmlns="http://www.w3.org/2000/svg">
<path d="M140.002 166.103V225.764L132.275 230.208V196.5C132.245 191.19 128.994 186.686 122.55 182.957L116.674 179.556L140.002 166.103Z" stroke="#FF6C15" stroke-width="2.98305" stroke-linecap="round" stroke-linejoin="round"/>
<path d="M192.73 169.563V229.224C186.316 232.923 178.501 234.772 169.343 234.743C160.185 234.743 152.369 232.863 145.896 229.134L140.02 225.764V166.103L145.896 169.473C152.369 173.202 160.185 175.082 169.343 175.082C178.501 175.111 186.316 173.262 192.73 169.563Z" stroke="#FF6C15" stroke-width="2.98305" stroke-linecap="round" stroke-linejoin="round"/>
<path d="M225.652 142.656V161.599L216.076 156.08C222.46 152.411 225.652 147.906 225.652 142.656Z" stroke="#FF6C15" stroke-width="2.98305" stroke-linecap="round" stroke-linejoin="round"/>
<path d="M343.095 210.375V210.434C343.095 215.714 339.904 220.219 333.52 223.888L310.163 237.371C308.432 238.356 306.613 239.221 304.674 239.967C299.453 241.935 293.487 242.92 286.775 242.89C277.617 242.89 269.802 241.011 263.358 237.282L256.825 233.493L228.128 216.937C225.324 215.297 223.117 213.567 221.536 211.657C219.448 209.152 218.404 206.407 218.374 203.394C218.374 199.934 219.746 196.802 222.52 193.998C223.415 193.103 224.459 192.208 225.652 191.373C226.368 190.866 227.144 190.388 227.979 189.911L225.652 188.569L215.032 182.453L192.749 169.567C186.336 173.266 178.521 175.115 169.363 175.085C160.205 175.085 152.389 173.206 145.916 169.477L140.039 166.106L116.711 179.56L122.588 182.96C129.031 186.689 132.283 191.194 132.312 196.504V196.563C132.312 201.813 129.121 206.318 122.737 209.987L99.3802 223.47C92.9667 227.169 85.1806 229.019 75.9928 228.989C66.8348 228.989 59.0189 227.11 52.5755 223.381L46.043 219.592L17.3464 203.036C10.8732 199.308 7.62163 194.803 7.5918 189.493C7.5918 184.213 10.7836 179.709 17.1971 176.01L40.524 162.527C46.9376 158.828 54.7535 156.978 63.9114 157.008C73.0694 157.008 80.8853 158.887 87.3585 162.616L93.2351 166.017L100.961 161.542L116.563 152.533L110.685 149.133C104.242 145.404 100.99 140.899 100.961 135.619C100.931 130.31 104.123 125.805 110.537 122.106L133.894 108.623C140.307 104.924 148.093 103.074 157.251 103.104C166.439 103.104 174.255 104.984 180.698 108.712L186.575 112.113L194.33 107.638L209.931 98.6296L204.055 95.2588C197.582 91.53 194.33 86.9957 194.33 81.7157C194.301 76.4059 197.492 71.9016 203.906 68.2026L227.233 54.749C233.647 51.0202 241.463 49.1707 250.621 49.2006C259.779 49.2304 267.594 51.0799 274.067 54.8087L309.297 75.153C315.741 78.8818 318.992 83.3862 319.022 88.6961V88.7557C319.022 94.0059 315.83 98.5103 309.447 102.179L286.089 115.663C284.359 116.677 282.51 117.542 280.571 118.228C275.35 120.227 269.414 121.211 262.732 121.211C253.544 121.181 245.728 119.302 239.285 115.573L233.409 112.202L210.051 125.656L215.928 129.057C222.401 132.786 225.652 137.29 225.652 142.6V142.659C225.652 147.91 222.461 152.414 216.077 156.083L225.652 161.602L251.307 176.428C257.721 172.729 265.536 170.879 274.694 170.909C280.302 170.909 285.433 171.625 290.027 173.057C292.92 173.922 295.635 175.085 298.141 176.517L333.371 196.861C339.814 200.59 343.066 205.095 343.095 210.375Z" stroke="#FF6C15" stroke-width="2.98305" stroke-linecap="round" stroke-linejoin="round"/>
<path d="M318.972 88.7588V148.36C319.001 153.64 315.81 158.145 309.396 161.844L289.978 173.06C285.384 171.628 280.253 170.912 274.645 170.912C265.487 170.912 257.671 172.732 251.258 176.431L225.603 161.605V142.603C225.603 137.293 222.352 132.789 215.879 129.06L210.002 125.659L233.36 112.206L239.236 115.576C245.679 119.305 253.495 121.185 262.683 121.214C269.365 121.214 275.301 120.23 280.522 118.231C282.461 117.545 284.31 116.68 286.04 115.666L309.396 102.183C315.78 98.5134 318.972 94.009 318.972 88.7588Z" stroke="#FF6C15" stroke-width="2.98305" stroke-linecap="round" stroke-linejoin="round"/>
<path d="M209.908 98.6258L194.307 107.635V81.7119C194.307 86.9919 197.558 91.5261 204.031 95.255L209.908 98.6258Z" stroke="#FF6C15" stroke-width="2.98305" stroke-linecap="round" stroke-linejoin="round"/>
<path d="M116.551 152.538L100.949 161.547V135.624C100.979 140.904 104.23 145.408 110.674 149.137L116.551 152.538Z" stroke="#FF6C15" stroke-width="2.98305" stroke-linecap="round" stroke-linejoin="round"/>
<path d="M227.931 189.914C227.096 190.391 226.32 190.868 225.604 191.375C224.411 192.211 223.367 193.106 222.472 194.001C219.698 196.805 218.326 199.937 218.326 203.397V244.026L192.701 229.23V169.569L214.985 182.456L225.604 188.571L227.931 189.914Z" stroke="#FF6C15" stroke-width="2.98305" stroke-linecap="round" stroke-linejoin="round"/>
<path d="M343.09 210.439V270.041C343.12 275.351 339.928 279.855 333.514 283.554L310.157 297.037C303.743 300.736 295.958 302.586 286.77 302.556C277.612 302.556 269.797 300.677 263.353 296.948L228.124 276.603C221.65 272.875 218.399 268.37 218.369 263.06V203.399C218.399 206.412 219.443 209.157 221.531 211.662C223.112 213.572 225.32 215.302 228.124 216.942L256.82 233.498L263.353 237.287C269.797 241.016 277.612 242.895 286.77 242.895C293.482 242.925 299.448 241.94 304.668 239.972C306.607 239.226 308.427 238.361 310.157 237.376L333.514 223.893C339.898 220.224 343.09 215.719 343.09 210.439Z" stroke="#FF6C15" stroke-width="2.98305" stroke-linecap="round" stroke-linejoin="round"/>
<path d="M132.312 196.562V256.163C132.342 261.443 129.151 265.948 122.737 269.647L99.3802 283.13C92.9666 286.829 85.1806 288.679 75.9928 288.649C66.8348 288.649 59.0189 286.769 52.5755 283.041L17.3464 262.696C10.8732 258.967 7.62163 254.463 7.5918 249.153V189.492C7.62163 194.802 10.8732 199.306 17.3464 203.035L46.043 219.591L52.5755 223.38C59.0189 227.108 66.8348 228.988 75.9928 228.988C85.1806 229.018 92.9666 227.168 99.3802 223.469L122.737 209.986C129.121 206.317 132.312 201.812 132.312 196.562Z" stroke="#FF6C15" stroke-width="2.98305" stroke-linecap="round" stroke-linejoin="round"/>
</svg>
