<svg width="56" height="57" viewBox="0 0 56 57" fill="none" xmlns="http://www.w3.org/2000/svg">
<mask id="mask0_9492_2939" style="mask-type:alpha" maskUnits="userSpaceOnUse" x="0" y="0" width="56" height="57">
<rect y="0.355469" width="56" height="56" fill="#D9D9D9"/>
</mask>
<g mask="url(#mask0_9492_2939)">
<path d="M28.0002 51.6901C22.5946 50.329 18.1321 47.2276 14.6127 42.3859C11.0932 37.5443 9.3335 32.1679 9.3335 26.2568V12.0234L28.0002 5.02344L46.6668 12.0234V26.2568C46.6668 32.1679 44.9071 37.5443 41.3877 42.3859C37.8682 47.2276 33.4057 50.329 28.0002 51.6901ZM28.0002 46.7901C31.7724 45.6234 34.9224 43.3193 37.4502 39.8776C39.9779 36.4359 41.4557 32.5957 41.8835 28.3568H28.0002V9.98177L14.0002 15.2318V27.3068C14.0002 27.579 14.0391 27.929 14.1168 28.3568H28.0002V46.7901Z" fill="#1C1B1F"/>
</g>
</svg>
