<svg width="56" height="57" viewBox="0 0 56 57" fill="none" xmlns="http://www.w3.org/2000/svg">
<mask id="mask0_9492_2981" style="mask-type:alpha" maskUnits="userSpaceOnUse" x="0" y="0" width="56" height="57">
<rect y="0.355469" width="56" height="56" fill="#D9D9D9"/>
</mask>
<g mask="url(#mask0_9492_2981)">
<path d="M27.9998 47.0234C30.9165 47.0234 33.3957 46.0026 35.4373 43.9609C37.479 41.9193 38.4998 39.4401 38.4998 36.5234C38.4998 33.6068 37.479 31.1276 35.4373 29.0859C33.3957 27.0443 30.9165 26.0234 27.9998 26.0234C25.0832 26.0234 22.604 27.0443 20.5623 29.0859C18.5207 31.1276 17.4998 33.6068 17.4998 36.5234C17.4998 39.4401 18.5207 41.9193 20.5623 43.9609C22.604 46.0026 25.0832 47.0234 27.9998 47.0234ZM21.1748 22.9901C21.9526 22.5623 22.779 22.222 23.654 21.9693C24.529 21.7165 25.4137 21.5512 26.3082 21.4734L20.4165 9.6901H14.5832L21.1748 22.9901ZM34.8248 22.9901L41.4748 9.6901H35.5832L30.6248 19.6068L31.7332 21.8234C32.2776 21.979 32.8026 22.1443 33.3082 22.3193C33.8137 22.4943 34.3193 22.7179 34.8248 22.9901ZM14.9332 44.2234C14.2721 43.0957 13.7568 41.8804 13.3873 40.5776C13.0179 39.2748 12.8332 37.9234 12.8332 36.5234C12.8332 35.1234 13.0179 33.7721 13.3873 32.4693C13.7568 31.1665 14.2721 29.9512 14.9332 28.8234C13.2998 29.3679 11.9582 30.3304 10.9082 31.7109C9.85817 33.0915 9.33317 34.6957 9.33317 36.5234C9.33317 38.3512 9.85817 39.9554 10.9082 41.3359C11.9582 42.7165 13.2998 43.679 14.9332 44.2234ZM41.0665 44.2234C42.6998 43.679 44.0415 42.7165 45.0915 41.3359C46.1415 39.9554 46.6665 38.3512 46.6665 36.5234C46.6665 34.6957 46.1415 33.0915 45.0915 31.7109C44.0415 30.3304 42.6998 29.3679 41.0665 28.8234C41.7276 29.9512 42.2429 31.1665 42.6123 32.4693C42.9818 33.7721 43.1665 35.1234 43.1665 36.5234C43.1665 37.9234 42.9818 39.2748 42.6123 40.5776C42.2429 41.8804 41.7276 43.0957 41.0665 44.2234ZM27.9998 51.6901C26.4443 51.6901 24.9568 51.4665 23.5373 51.0193C22.1179 50.5721 20.8054 49.9596 19.5998 49.1818C19.2498 49.2596 18.8998 49.3082 18.5498 49.3276C18.1998 49.3471 17.8304 49.3568 17.4415 49.3568C13.9026 49.3568 10.8887 48.1123 8.39984 45.6234C5.91095 43.1346 4.6665 40.1207 4.6665 36.5818C4.6665 33.1984 5.79428 30.3012 8.04984 27.8901C10.3054 25.479 13.0859 24.1373 16.3915 23.8651L6.99984 5.02344H23.3332L27.9998 14.3568L32.6665 5.02344H48.9998L39.6665 23.7484C42.9721 24.0596 45.7429 25.4207 47.979 27.8318C50.2151 30.2429 51.3332 33.1401 51.3332 36.5234C51.3332 40.1012 50.0887 43.1346 47.5998 45.6234C45.111 48.1123 42.0776 49.3568 38.4998 49.3568C38.1498 49.3568 37.7901 49.3471 37.4207 49.3276C37.0512 49.3082 36.6915 49.2596 36.3415 49.1818C35.136 49.9596 33.8332 50.5721 32.4332 51.0193C31.0332 51.4665 29.5554 51.6901 27.9998 51.6901ZM23.6832 42.9401L25.3165 37.6318L20.9998 34.5401H26.3082L27.9998 28.9401L29.6915 34.5401H34.9998L30.6832 37.6318L32.3165 42.9401L27.9998 39.6734L23.6832 42.9401Z" fill="#1C1B1F"/>
</g>
</svg>
