<svg width="160" height="28" viewBox="0 0 160 28" fill="none" xmlns="http://www.w3.org/2000/svg">
<g clip-path="url(#clip0_671_287)">
<path d="M4.67124 4.28878L12.1015 0L19.5318 4.28878L16.8 5.87318L12.1015 3.16878L7.40296 5.87318L4.67124 4.28878ZM19.5318 9.69755L16.8 8.11318L12.1015 10.8176L7.40296 8.11318L4.67124 9.69755V12.8664L9.36977 15.5707V20.9795L12.1015 22.5639L14.8332 20.9795V15.5707L19.5318 12.8664V9.69755ZM19.5318 18.2751V15.1063L16.8 16.6907V19.8595L19.5318 18.2751ZM21.4712 19.3951L16.7727 22.0995V25.2682L24.203 20.9795V12.4019L21.4712 13.9864V19.3951ZM18.7396 6.99318L21.4712 8.57755V11.7464L24.203 10.1619V6.99318L21.4712 5.40878L18.7396 6.99318ZM9.36977 23.2469V26.4157L12.1015 28L14.8332 26.4157V23.2469L12.1015 24.8312L9.36977 23.2469ZM4.67124 18.2751L7.40296 19.8595V16.6907L4.67124 15.1063V18.2751ZM9.36977 6.99318L12.1015 8.57755L14.8332 6.99318L12.1015 5.40878L9.36977 6.99318ZM2.7317 8.57755L5.46342 6.99318L2.7317 5.40878L0 6.99318V10.1619L2.7317 11.7464V8.57755ZM2.7317 13.9864L0 12.4019V20.9795L7.43023 25.2682V22.0995L2.7317 19.3951V13.9864Z" fill="#F0B90B"/>
<path d="M45.7387 17.5718V17.5273C45.7387 15.4347 44.6256 14.3885 42.8225 13.6984C43.9355 13.0752 44.8705 12.0956 44.8705 10.337V10.2925C44.8705 7.84373 42.9115 6.26318 39.7281 6.26318H32.4933V21.846H39.9063C43.4236 21.846 45.7387 20.4213 45.7387 17.5718ZM41.4645 10.9158C41.4645 12.0733 40.5074 12.5631 38.9936 12.5631H35.8325V9.26843H39.2162C40.6631 9.26843 41.4645 9.84723 41.4645 10.8712V10.9158ZM42.3327 17.1489C42.3327 18.3065 41.42 18.8407 39.9063 18.8407H35.8325V15.4126H39.795C41.5536 15.4126 42.3327 16.0581 42.3327 17.1044V17.1489Z" fill="#F0B90B"/>
<path d="M62.6281 21.846V6.26318H59.2443V15.8578L51.9427 6.26318H48.7816V21.846H52.1653V11.9398L59.7118 21.846H62.6281Z" fill="#F0B90B"/>
<path d="M79.837 17.5718V17.5273C79.837 15.4347 78.7238 14.3885 76.9208 13.6984C78.0338 13.0752 78.9687 12.0956 78.9687 10.337V10.2925C78.9687 7.84373 77.0098 6.26318 73.8264 6.26318H66.5916V21.846H74.0046C77.5218 21.846 79.837 20.4213 79.837 17.5718ZM75.5629 10.9158C75.5629 12.0733 74.6056 12.5631 73.0919 12.5631H69.9308V9.26843H73.3145C74.7614 9.26843 75.5629 9.84723 75.5629 10.8712V10.9158ZM76.431 17.1489C76.431 18.3065 75.5183 18.8407 74.0046 18.8407H69.9308V15.4126H73.8933C75.6519 15.4126 76.431 16.0581 76.431 17.1044V17.1489Z" fill="#F0B90B"/>
<path d="M100.498 19.0932L98.7392 17.3124C97.4035 18.559 96.1792 19.3381 94.2647 19.3381C91.2816 19.3381 89.1224 16.8449 89.1224 13.7729C89.1224 10.7008 91.2816 8.25208 94.2647 8.25208C96.0456 8.25208 97.3812 9.03123 98.6279 10.1888L100.387 8.16304C98.8949 6.73833 97.1586 5.73657 94.287 5.73657C89.5676 5.73657 86.2506 9.36514 86.2506 13.8174C86.2506 18.3141 89.6344 21.8537 94.1757 21.8537C97.0919 21.8537 98.8728 20.7851 100.498 19.0932Z" fill="#F0B90B"/>
<path d="M113.772 15.0194V21.5865H116.51V6.00366H113.772V12.4817H106.337V6.00366H103.599V21.5865H106.337V15.0194H113.772Z" fill="#F0B90B"/>
<path d="M128.793 5.89233H126.255L119.399 21.5864H122.203L123.806 17.8243H131.175L132.756 21.5864H135.649L128.793 5.89233ZM130.173 15.3978H124.808L127.479 9.16473L130.173 15.3978Z" fill="#F0B90B"/>
<path d="M138.7 6.00366V21.5865H141.439V6.00366H138.7Z" fill="#F0B90B"/>
<path d="M156.718 16.778L148.37 6.00366H145.832V21.5865H148.526V10.5004L157.118 21.5865H159.412V6.00366H156.718V16.778Z" fill="#F0B90B"/>
</g>
<defs>
<clipPath id="clip0_671_287">
<rect width="159.833" height="28" fill="white"/>
</clipPath>
</defs>
</svg>
