<svg width="145" height="36" viewBox="0 0 145 36" fill="none" xmlns="http://www.w3.org/2000/svg">
<g clip-path="url(#clip0_671_304)">
<path d="M41.4531 20.7139C41.451 20.8391 41.3995 20.9583 41.3097 21.0456C41.22 21.1328 41.0994 21.181 40.9742 21.1796H32.1538C32.38 23.3614 34.0163 25.357 36.3312 25.357C37.9143 25.357 39.0851 24.7583 39.9631 23.4944C40.004 23.428 40.0606 23.3727 40.1278 23.3333C40.1951 23.2938 40.271 23.2715 40.3489 23.2683C40.407 23.2666 40.4649 23.2768 40.5189 23.2983C40.5729 23.3198 40.6219 23.3521 40.663 23.3932C40.7041 23.4343 40.7364 23.4833 40.7579 23.5373C40.7794 23.5914 40.7896 23.6492 40.7879 23.7073C40.7883 23.7875 40.7651 23.8661 40.7214 23.9335C39.8301 25.4767 38.0607 26.235 36.3312 26.235C33.3644 26.235 31.2358 23.5743 31.2358 20.7405C31.2358 17.9068 33.3511 15.2461 36.3312 15.2461C39.3112 15.2461 41.4398 17.8802 41.4531 20.7139ZM40.5086 20.3015C40.3223 18.1197 38.646 16.1241 36.3312 16.1241C34.0163 16.1241 32.38 18.1197 32.1538 20.3015H40.5086Z" fill="#3B3B3B"/>
<path d="M52.1764 15.459C52.2918 15.4624 52.4016 15.5097 52.4832 15.5913C52.5648 15.673 52.6121 15.7827 52.6155 15.8981C52.6171 15.9562 52.6069 16.014 52.5854 16.068C52.5639 16.122 52.5317 16.1711 52.4906 16.2122C52.4495 16.2533 52.4004 16.2856 52.3464 16.307C52.2924 16.3285 52.2345 16.3388 52.1764 16.3371H49.8084V25.6364C49.8073 25.7525 49.7607 25.8636 49.6786 25.9457C49.5965 26.0278 49.4855 26.0744 49.3694 26.0755C49.254 26.0721 49.1442 26.0248 49.0626 25.9432C48.981 25.8615 48.9337 25.7518 48.9303 25.6364V16.3371H46.6554C46.5973 16.3388 46.5395 16.3285 46.4854 16.307C46.4314 16.2856 46.3824 16.2533 46.3413 16.2122C46.3002 16.1711 46.2679 16.122 46.2464 16.068C46.2249 16.014 46.2147 15.9562 46.2164 15.8981C46.2174 15.782 46.264 15.6709 46.3461 15.5888C46.4282 15.5067 46.5393 15.4601 46.6554 15.459H48.9303V12.0666C48.9306 11.9542 48.9709 11.8455 49.044 11.7602C49.1172 11.6748 49.2184 11.6184 49.3294 11.601C49.3915 11.5927 49.4546 11.598 49.5145 11.6164C49.5744 11.6348 49.6295 11.6659 49.6763 11.7075C49.723 11.7492 49.7602 11.8005 49.7853 11.8579C49.8104 11.9153 49.8228 11.9774 49.8217 12.04V15.459H52.1764Z" fill="#3B3B3B"/>
<path d="M66.611 19.9556V25.5831C66.6077 25.6985 66.5603 25.8082 66.4787 25.8898C66.3971 25.9715 66.2874 26.0188 66.172 26.0221C66.1139 26.0238 66.0561 26.0136 66.002 25.9921C65.948 25.9706 65.899 25.9383 65.8579 25.8972C65.8168 25.8561 65.7845 25.8071 65.763 25.7531C65.7415 25.699 65.7313 25.6412 65.733 25.5831V19.9556C65.733 18.0532 64.6554 16.1641 62.5401 16.1641C59.8261 16.1641 58.6554 18.5321 58.815 20.9667C58.815 21.0332 58.8416 21.3126 58.8416 21.3525V25.5698C58.8414 25.6822 58.8011 25.7909 58.7279 25.8762C58.6548 25.9616 58.5536 26.018 58.4425 26.0354C58.3804 26.0437 58.3173 26.0384 58.2574 26.02C58.1976 26.0016 58.1424 25.9705 58.0957 25.9289C58.0489 25.8872 58.0117 25.8359 57.9867 25.7785C57.9616 25.7212 57.9491 25.659 57.9503 25.5964V7.09088C57.9513 6.97477 57.9979 6.8637 58.08 6.78159C58.1621 6.69949 58.2732 6.6529 58.3893 6.65186C58.5047 6.6552 58.6144 6.70253 58.696 6.78415C58.7776 6.86577 58.825 6.9755 58.8283 7.09088V17.5476C59.5866 16.1907 60.9436 15.2727 62.5268 15.2727C65.1343 15.2727 66.611 17.5476 66.611 19.9556Z" fill="#3B3B3B"/>
<path d="M82.4555 20.7139C82.4534 20.8391 82.4018 20.9583 82.3121 21.0456C82.2223 21.1328 82.1017 21.181 81.9765 21.1796H73.1561C73.3823 23.3614 75.0187 25.357 77.3335 25.357C78.9167 25.357 80.0874 24.7583 80.9654 23.4944C81.0063 23.428 81.0629 23.3727 81.1301 23.3333C81.1974 23.2938 81.2733 23.2715 81.3512 23.2683C81.4093 23.2666 81.4672 23.2768 81.5212 23.2983C81.5752 23.3198 81.6243 23.3521 81.6654 23.3932C81.7065 23.4343 81.7387 23.4833 81.7602 23.5373C81.7817 23.5914 81.7919 23.6492 81.7903 23.7073C81.7906 23.7875 81.7675 23.8661 81.7238 23.9335C80.8324 25.4767 79.063 26.235 77.3335 26.235C74.3668 26.235 72.2382 23.5743 72.2382 20.7405C72.2382 17.9068 74.3535 15.2461 77.3335 15.2461C80.2869 15.2461 82.4422 17.8802 82.4555 20.7139ZM81.4976 20.3015C81.3113 18.1197 79.6351 16.1241 77.3202 16.1241C75.0053 16.1241 73.369 18.1197 73.1428 20.3015H81.4976Z" fill="#3B3B3B"/>
<path d="M93.2981 15.8712C93.3065 15.9893 93.2679 16.1059 93.1906 16.1957C93.1133 16.2854 93.0037 16.3409 92.8856 16.3501C90.2914 16.7359 89.1207 18.8512 89.1207 21.3124V25.5297C89.1204 25.6421 89.0801 25.7508 89.007 25.8361C88.9338 25.9215 88.8326 25.9779 88.7216 25.9953C88.6595 26.0036 88.5964 25.9983 88.5365 25.9799C88.4766 25.9615 88.4215 25.9304 88.3747 25.8887C88.328 25.8471 88.2908 25.7958 88.2657 25.7384C88.2406 25.681 88.2282 25.6189 88.2293 25.5563V15.9377C88.2295 15.8253 88.2699 15.7166 88.343 15.6313C88.4162 15.5459 88.5174 15.4895 88.6284 15.472C88.6905 15.4638 88.7536 15.4691 88.8135 15.4874C88.8734 15.5058 88.9285 15.5369 88.9753 15.5786C89.022 15.6203 89.0592 15.6716 89.0843 15.729C89.1094 15.7863 89.1218 15.8485 89.1207 15.9111V17.8667C89.8524 16.6295 91.3025 15.4587 92.8191 15.4587C93.0453 15.4587 93.2981 15.6184 93.2981 15.8712Z" fill="#3B3B3B"/>
<path d="M107.8 20.7139C107.798 20.8391 107.746 20.9583 107.657 21.0456C107.567 21.1328 107.446 21.181 107.321 21.1796H98.5006C98.7268 23.3614 100.363 25.357 102.678 25.357C104.261 25.357 105.432 24.7583 106.31 23.4944C106.351 23.428 106.407 23.3727 106.475 23.3333C106.542 23.2938 106.618 23.2715 106.696 23.2683C106.754 23.2666 106.812 23.2768 106.866 23.2983C106.92 23.3198 106.969 23.3521 107.01 23.3932C107.051 23.4343 107.083 23.4833 107.105 23.5373C107.126 23.5914 107.136 23.6492 107.135 23.7073C107.135 23.7875 107.112 23.8661 107.068 23.9335C106.177 25.4767 104.407 26.235 102.678 26.235C99.7113 26.235 97.5826 23.5743 97.5826 20.7405C97.5826 17.9068 99.6979 15.2461 102.678 15.2461C105.658 15.2461 107.787 17.8802 107.8 20.7139ZM106.855 20.3015C106.669 18.1197 104.993 16.1241 102.678 16.1241C100.363 16.1241 98.7268 18.1197 98.5006 20.3015H106.855Z" fill="#3B3B3B"/>
<path d="M122.061 15.9776V25.6361C122.057 25.7515 122.01 25.8612 121.928 25.9429C121.847 26.0245 121.737 26.0718 121.622 26.0752C121.564 26.0768 121.506 26.0666 121.452 26.0451C121.398 26.0236 121.349 25.9914 121.308 25.9503C121.267 25.9092 121.234 25.8601 121.213 25.8061C121.191 25.7521 121.181 25.6942 121.183 25.6361V23.8002C120.451 25.2503 119.161 26.3013 117.511 26.3013C114.89 26.3013 113.44 24.0264 113.44 21.6184V15.9643C113.441 15.8482 113.488 15.7371 113.57 15.655C113.652 15.5729 113.763 15.5263 113.879 15.5253C113.994 15.5286 114.104 15.5759 114.186 15.6576C114.267 15.7392 114.315 15.8489 114.318 15.9643V21.6184C114.318 23.5208 115.396 25.41 117.511 25.41C120.478 25.41 121.183 22.6295 121.183 19.5563V15.951C121.184 15.8798 121.202 15.8099 121.235 15.7471C121.269 15.6843 121.317 15.6305 121.376 15.5901C121.434 15.5498 121.502 15.524 121.572 15.515C121.643 15.5061 121.715 15.5141 121.781 15.5386C121.865 15.5774 121.936 15.6394 121.985 15.7172C122.035 15.795 122.061 15.8854 122.061 15.9776Z" fill="#3B3B3B"/>
<path d="M144.398 19.916V25.5701C144.395 25.6854 144.348 25.7952 144.266 25.8768C144.184 25.9584 144.075 26.0057 143.959 26.0091C143.901 26.0107 143.843 26.0005 143.789 25.979C143.735 25.9576 143.686 25.9253 143.645 25.8842C143.604 25.8431 143.572 25.794 143.55 25.74C143.529 25.686 143.519 25.6282 143.52 25.5701V19.916C143.52 18.0135 142.443 16.151 140.327 16.151C137.667 16.151 136.655 18.998 136.655 21.2064V25.5701C136.652 25.6854 136.605 25.7952 136.523 25.8768C136.442 25.9584 136.332 26.0057 136.216 26.0091C136.158 26.0107 136.1 26.0005 136.046 25.979C135.992 25.9576 135.943 25.9253 135.902 25.8842C135.861 25.8431 135.829 25.794 135.807 25.74C135.786 25.686 135.776 25.6282 135.777 25.5701V19.916C135.777 18.0135 134.7 16.151 132.584 16.151C129.897 16.151 128.793 18.2663 128.886 21.0867C128.886 21.1532 128.913 21.2729 128.886 21.3129V25.5568C128.886 25.6692 128.846 25.7778 128.772 25.8632C128.699 25.9485 128.598 26.005 128.487 26.0224C128.425 26.0306 128.362 26.0254 128.302 26.007C128.242 25.9886 128.187 25.9575 128.14 25.9158C128.093 25.8741 128.056 25.8228 128.031 25.7655C128.006 25.7081 127.994 25.646 127.995 25.5834V15.9381C127.995 15.8257 128.035 15.7171 128.108 15.6317C128.182 15.5464 128.283 15.4899 128.394 15.4725C128.456 15.4643 128.519 15.4695 128.579 15.4879C128.639 15.5063 128.694 15.5374 128.741 15.5791C128.787 15.6208 128.825 15.6721 128.85 15.7294C128.875 15.7868 128.887 15.8489 128.886 15.9115V17.5213C129.644 16.1643 131.001 15.2729 132.584 15.2729C134.381 15.2729 135.777 16.4171 136.349 18.08C137.081 16.4304 138.505 15.2729 140.327 15.2729C142.922 15.2729 144.398 17.5213 144.398 19.916Z" fill="#3B3B3B"/>
<path opacity="0.6" d="M11.7593 13.3169L0.717163 18.3324L11.7593 24.8646L22.8147 18.3324L11.7593 13.3169Z" fill="black"/>
<path opacity="0.45" d="M0.717285 18.3326L11.7594 24.8647V0L0.717285 18.3326Z" fill="black"/>
<path opacity="0.8" d="M11.7593 0V24.8647L22.8147 18.3326L11.7593 0Z" fill="black"/>
<path opacity="0.45" d="M0.717163 20.4346L11.7593 36V26.9534L0.717163 20.4346Z" fill="black"/>
<path opacity="0.8" d="M11.7593 26.9534V36L22.8147 20.4346L11.7593 26.9534Z" fill="black"/>
</g>
<defs>
<clipPath id="clip0_671_304">
<rect width="143.681" height="36" fill="white" transform="translate(0.717285)"/>
</clipPath>
</defs>
</svg>
