<svg width="17" height="14" viewBox="0 0 17 14" fill="none" xmlns="http://www.w3.org/2000/svg">
<path d="M16.154 6.56776C15.3495 6.70075 13.4566 6.54186 12.3205 4.84234C11.1845 3.14282 11.6961 0.905979 12.0939 0C13.3036 0.381722 15.7279 1.14981 16.5402 3.46618C16.9464 4.62437 16.5551 6.30757 16.154 6.56776Z" fill="#333333"/>
<path d="M16.5525 7.8492C15.7008 7.47823 13.9508 7.14488 12.1821 8.71276C10.4134 10.2806 10.0833 14 10.0833 14C10.0833 14 14.4051 13.6371 16 11.2955C16.7975 10.1248 16.9192 8.24906 16.5525 7.8492Z" fill="#333333"/>
<path d="M9.60618 6.64706C8.96261 6.75587 7.44826 6.62587 6.53942 5.23535C5.63057 3.84483 6.03985 2.01469 6.3581 1.27344C7.32587 1.58576 9.26532 2.21419 9.9152 4.1094C10.2401 5.05701 9.92712 6.43418 9.60618 6.64706Z" fill="#333333"/>
<path d="M9.92504 7.69551C9.24367 7.39198 7.84366 7.11925 6.42869 8.40206C5.01372 9.68488 4.74967 12.728 4.74967 12.728C4.74967 12.728 8.20708 12.431 9.48301 10.5152C10.121 9.55735 10.2183 8.02267 9.92504 7.69551Z" fill="#333333"/>
<path d="M4.39238 6.72245C3.9097 6.80708 2.77394 6.70597 2.09231 5.62446C1.41067 4.54294 1.71763 3.1195 1.95632 2.54297C2.68215 2.78588 4.13673 3.27467 4.62415 4.74872C4.86785 5.48575 4.63308 6.55688 4.39238 6.72245Z" fill="#333333"/>
<path d="M4.63153 7.53791C4.1205 7.30184 3.07049 7.08971 2.00926 8.08745C0.948034 9.0852 0.75 11.4521 0.75 11.4521C0.75 11.4521 3.34305 11.2211 4.3 9.73104C4.77847 8.98601 4.85149 7.79237 4.63153 7.53791Z" fill="#333333"/>
</svg>
