<svg width="106" height="30" viewBox="0 0 106 30" fill="none" xmlns="http://www.w3.org/2000/svg">
<path d="M0.21875 29.2257V0.78125H6.5932V12.4048L11.4364 0.78125H17.6684L12.3267 13.6339L17.9177 29.2257H11.4364L7.26982 16.654L6.5932 17.7777V29.2257H0.21875Z" fill="#121212"/>
<path d="M26.1575 29.2257V0.78125H32.532V29.2257H26.1575Z" fill="#121212"/>
<path d="M42.531 29.2257V0.78125H47.0181L52.9296 14.4767V0.78125H58.2001V29.2257H53.8911L47.9796 14.4767V29.2257H42.531Z" fill="#121212"/>
<path d="M67.0868 29.2257V25.4331L74.1379 5.03036H67.4073V0.78125H80.4055V4.32803L73.2476 24.9766H80.4767V29.2257H67.0868Z" fill="#121212"/>
<path d="M87.9059 29.2257L93.3544 0.78125H100.619L105.997 29.2257H100.121L99.1591 23.2208H94.9214L93.9242 29.2257H87.9059ZM95.4911 19.4633H98.5537L97.0224 8.36644L95.4911 19.4633Z" fill="#121212"/>
</svg>
