<svg width="139" height="40" viewBox="0 0 139 40" fill="none" xmlns="http://www.w3.org/2000/svg">
<g clip-path="url(#clip0_11751_2122)">
<path d="M51.3592 14.2383H46.5181V25.7597H49.0147V16.7349H49.7327L53.7199 25.7597H56.4496L51.3592 14.2383Z" fill="white"/>
<path d="M94.9346 25.7597H97.4312V14.2383H94.9346V25.7597Z" fill="white"/>
<path d="M61.5391 14.2383L56.4492 25.7597H59.1784L63.1656 16.7349H63.8836V25.7597H66.3802V14.2383H61.5391Z" fill="white"/>
<path d="M77.5449 14.2383H72.9775L67.8872 25.7597H70.6168L72.2752 22.0056H78.2472L79.9056 25.7597H82.6352L77.5449 14.2383ZM73.3783 19.509L74.604 16.7349H75.9184L77.144 19.509H73.3783Z" fill="white"/>
<path d="M89.8439 14.2383H84.0786V25.7597H86.5752V16.7349H88.2174L92.2046 25.7597H94.9342L89.8439 14.2383Z" fill="white"/>
<path d="M98.8179 14.2383V16.7349H104.643V25.7597H107.14V16.7349H112.965V14.2383H98.8179Z" fill="white"/>
<path d="M116.849 14.2383H114.352V25.7597H125.217V23.2631H116.849V14.2383Z" fill="white"/>
<path d="M138.394 16.7349V14.2383H126.604V25.7597H138.394V23.2631H129.101V21.0809H137.157V18.5843H129.101V16.7349H138.394Z" fill="white"/>
<path d="M7.9114 14.5464L2.37308 11.7266C1.93987 12.5777 1.57093 13.4701 1.27734 14.379L7.19108 16.2912C7.38434 15.6934 7.62613 15.1063 7.9114 14.5464Z" fill="white"/>
<path d="M12.6157 9.57673L15.6833 14.8622C16.1313 14.6024 16.6108 14.4026 17.1096 14.2685L15.522 8.3668C15.926 8.25815 16.3366 8.16846 16.7495 8.10327L15.7739 1.96484C14.8303 2.11463 13.8927 2.34072 12.9865 2.63615L14.8835 8.45002C14.2801 8.64698 13.6925 8.89155 13.1266 9.18098L10.3382 3.73836C9.49031 4.17295 8.67013 4.67782 7.89941 5.24049L11.5634 10.2606C11.9009 10.0146 12.2541 9.7871 12.6157 9.57673Z" fill="white"/>
<path d="M29.0771 13.9569L23.7935 17.0273C24.0538 17.4748 24.2535 17.9547 24.3881 18.4527L30.2893 16.8622C30.398 17.2663 30.4877 17.6764 30.5533 18.0888L36.6908 17.1114C36.5406 16.1683 36.314 15.2302 36.0177 14.3236L30.2047 16.2242C30.0073 15.6209 29.7627 15.0337 29.4728 14.4678L34.9136 11.6758C34.479 10.8288 33.9732 10.0086 33.4106 9.23828L28.3919 12.9047C28.6383 13.2422 28.8668 13.5949 29.0771 13.9569Z" fill="white"/>
<path d="M26.9222 3.71154C26.0701 3.2788 25.1778 2.91031 24.2698 2.61719L22.3608 8.53186C22.9581 8.72465 23.5453 8.96691 24.1061 9.25171L26.9222 3.71154Z" fill="white"/>
<path d="M24.7155 9.46746L21.6128 14.8523C22.0622 15.1112 22.4764 15.4284 22.8449 15.7954L31.547 7.06377C30.872 6.39107 30.1387 5.76646 29.3675 5.20703L25.7784 10.1568C25.4363 9.90899 25.0816 9.67875 24.7155 9.46746Z" fill="white"/>
<path d="M8.12679 13.9373L13.5102 17.0434C13.7691 16.5944 14.0872 16.1797 14.4548 15.8107L5.72681 7.10547C5.05365 7.78048 4.42857 8.51328 3.86914 9.28399L8.81706 12.8754C8.56925 13.217 8.33808 13.5712 8.12679 13.9373Z" fill="white"/>
<path d="M20.5404 7.99785L21.4794 1.95558C20.5515 1.81133 19.6019 1.73828 18.6564 1.73828H18.6421V14.066H18.6564C19.1761 14.066 19.6902 14.1326 20.1849 14.2639L21.779 8.25675C21.3712 8.14857 20.9579 8.06304 20.5404 7.99785Z" fill="white"/>
<path d="M12.9201 18.4694L6.9139 16.8711C6.80525 17.2789 6.71926 17.6922 6.65407 18.1097L0.612728 17.1679C0.467554 18.0991 0.394043 19.0524 0.394043 20.0007H12.7217C12.7217 19.4801 12.7884 18.9646 12.9201 18.4694Z" fill="white"/>
<path d="M29.4014 25.4558L34.9397 28.2756C35.3729 27.4244 35.7418 26.5321 36.0354 25.6232L30.1217 23.7109C29.9284 24.3087 29.6867 24.8959 29.4014 25.4558Z" fill="white"/>
<path d="M24.6965 30.426L21.6289 25.1406C21.1809 25.4004 20.7015 25.6001 20.2026 25.7342L21.7903 31.6359C21.3857 31.7446 20.9756 31.8343 20.5628 31.8995L21.5378 38.0374C22.4815 37.8876 23.4191 37.6615 24.3253 37.3661L22.4283 31.5522C23.0321 31.3553 23.6193 31.1107 24.1852 30.8213L26.9735 36.2639C27.8214 35.8293 28.6416 35.3244 29.4123 34.7618L25.7483 29.7417C25.4108 29.9877 25.0581 30.2156 24.6965 30.426Z" fill="white"/>
<path d="M8.23581 26.0465L13.5199 22.9762C13.2596 22.5286 13.0598 22.0487 12.9253 21.5508L7.02403 23.1412C6.91538 22.7371 6.82569 22.327 6.76004 21.9146L0.62207 22.892C0.77233 23.8352 0.998874 24.7733 1.29523 25.6799L7.10818 23.7792C7.30559 24.3826 7.55017 24.9698 7.84006 25.5357L2.39929 28.3277C2.83388 29.1747 3.33968 29.9949 3.90234 30.7651L8.921 27.0988C8.67457 26.7613 8.44617 26.4085 8.23581 26.0465Z" fill="white"/>
<path d="M10.3901 36.2863C11.2422 36.7191 12.1345 37.0875 13.0426 37.3807L14.9516 31.466C14.3542 31.2732 13.7671 31.0309 13.2062 30.7461L10.3901 36.2863Z" fill="white"/>
<path d="M12.5971 30.5349L15.6999 25.1501C15.2505 24.8912 14.8362 24.574 14.4677 24.207L5.76562 32.9386C6.44064 33.6113 7.17391 34.2359 7.94508 34.7954L11.5342 29.8456C11.8764 30.0934 12.2309 30.3236 12.5971 30.5349Z" fill="white"/>
<path d="M29.1854 26.0668L23.8019 22.9609C23.543 23.4098 23.2249 23.8245 22.8574 24.1934L31.5849 32.8992C32.2581 32.2242 32.8831 31.4914 33.4426 30.7207L28.4946 27.1293C28.7425 26.7876 28.9741 26.433 29.1854 26.0668Z" fill="white"/>
<path d="M17.1278 25.7344L15.5337 31.7416C15.9415 31.8497 16.3548 31.9353 16.7723 32.0005L15.8338 38.0427C16.7617 38.187 17.7113 38.26 18.6568 38.26H18.6711V25.9323H18.6568C18.1371 25.9323 17.6225 25.8657 17.1278 25.7344Z" fill="white"/>
<path d="M24.5909 20C24.5909 20.5206 24.5239 21.0356 24.3921 21.5312L30.3983 23.1295C30.507 22.7217 30.593 22.3084 30.6581 21.8909L36.7 22.8332C36.8451 21.902 36.9186 20.9487 36.9186 20.0004L24.5909 20Z" fill="white"/>
</g>
<defs>
<clipPath id="clip0_11751_2122">
<rect width="138" height="40" fill="white" transform="translate(0.394043)"/>
</clipPath>
</defs>
</svg>
