<svg width="153" height="32" viewBox="0 0 153 32" fill="none" xmlns="http://www.w3.org/2000/svg">
<path d="M1.58154 5.26953H26.7817C26.7817 5.26953 26.7817 10.5352 26.6688 14.2964C26.5313 18.882 20.7637 24.4517 20.7637 24.4517L1.58154 19.186V5.26953Z" fill="white"/>
<path fill-rule="evenodd" clip-rule="evenodd" d="M14.6485 0.126557L14.6498 0.12388C14.3212 0.035323 14.0171 -0.00575432 13.7376 0.000647362C13.2244 0.0123838 12.5885 0.120145 11.8299 0.323932C9.1241 1.05266 6.4866 1.9777 3.9174 3.09906C3.57258 3.24918 3.17811 3.34473 2.78176 3.44074C1.78372 3.6825 0.77379 3.92713 0.514904 5.05317C0.481828 5.19508 0.463157 5.58825 0.458889 6.23268C0.439684 9.28202 0.538377 12.3276 0.754967 15.3695C0.795511 15.9467 0.85526 16.4999 0.934214 17.0291C0.958309 17.1905 0.981149 17.3546 1.00419 17.5202C1.13725 18.4764 1.27702 19.4808 1.70402 20.2748C2.413 21.5919 3.58931 22.8803 4.77362 24.1254C7.43192 26.9213 10.4487 29.5012 13.4735 31.9482C13.5503 32.0101 13.6309 32.0165 13.7152 31.9674C13.8645 31.881 13.9995 31.7631 14.1201 31.6137C14.1202 31.6113 14.1204 31.6088 14.1205 31.6063L15.8834 30.1399C15.957 29.5265 16.0189 28.9279 16.069 28.3443C16.117 27.8012 16.1357 27.2 16.125 26.5406C16.1214 26.3187 16.1175 26.0972 16.1135 25.8759C16.0844 24.2429 16.0556 22.6238 16.1571 20.9663C16.1656 20.8148 16.1378 20.6041 16.0738 20.3342C16.0066 20.0546 16.0242 19.7996 16.1266 19.5692C15.4542 19.4 14.7759 19.1422 14.0918 18.7958C14.0921 18.7954 14.0925 18.7949 14.0929 18.7944C12.5213 17.8117 11.8427 15.9072 11.3593 14.126C11.0505 12.9913 10.0486 12.5735 8.93471 12.812C7.84856 13.0457 6.45886 13.5397 4.76562 14.294C4.60344 14.3666 4.44927 14.5106 4.3031 14.7261C4.10038 15.0238 3.77923 15.2809 3.33964 15.4975C2.95021 15.6906 2.64826 15.5983 2.43381 15.2206L2.397 15.155C2.16334 14.7453 2.24549 14.4146 2.64346 14.1628C3.27083 13.7643 4.02142 13.3369 4.57037 14.0683C4.59173 14.0973 4.62317 14.1172 4.65862 14.1243C4.69408 14.1314 4.73105 14.1251 4.76242 14.1067C5.9766 13.3919 7.234 12.7533 8.53461 12.191C8.86323 12.0491 9.07022 11.8822 9.15557 11.6901C9.6469 10.5762 10.3719 9.7344 11.5962 9.56316C12.2092 9.47674 13.0222 9.61437 13.5631 9.89604C13.9453 10.0951 14.2887 10.2689 14.5931 10.4175L14.5922 10.4221L16.8568 11.392C16.9176 11.4181 16.9856 11.4222 17.0493 11.4035C17.1129 11.3848 17.1682 11.3445 17.2057 11.2895C18.8114 8.94972 20.7757 6.96733 23.0984 5.34237C23.1133 5.33163 23.1304 5.32454 23.1485 5.32166C23.1666 5.31879 23.1852 5.32021 23.2026 5.32582C23.2201 5.33143 23.236 5.34107 23.249 5.35395C23.262 5.36683 23.2719 5.3826 23.2777 5.39998L23.8618 7.10603C23.8938 7.20099 23.952 7.22073 24.0363 7.16525L26.6626 5.42719C26.709 5.3964 26.7441 5.35129 26.7626 5.29873C26.7811 5.24616 26.7819 5.189 26.765 5.13592C26.4065 4.00442 25.5535 3.61712 24.4444 3.44907C24.1926 3.41173 23.9696 3.35198 23.7754 3.26983C20.732 1.98561 17.7589 0.848426 14.6485 0.126557ZM15.894 30.1396C15.9677 29.5261 16.0295 28.9275 16.0797 28.3439C16.1277 27.8008 16.1464 27.1996 16.1357 26.5402C16.1321 26.3184 16.1281 26.097 16.1242 25.8758L16.1242 25.8755V25.8755C16.0951 24.2425 16.0662 22.6234 16.1677 20.966C16.1763 20.8145 16.1485 20.6037 16.0845 20.3338C16.0173 20.0543 16.0349 19.7992 16.1373 19.5688C17.0431 19.764 18.3747 20.2106 18.2131 21.3629C18.1234 21.9934 17.7713 22.4447 17.352 22.8561C17.224 22.982 17.2421 23.0086 17.4064 22.9361C18.69 22.3642 19.9378 21.6797 21.1498 20.8827L21.2279 20.8314C21.6413 20.5603 22.1017 20.2585 21.9452 19.7528C21.6091 18.6646 21.1082 17.6408 20.4424 16.6816C20.4385 16.6764 20.436 16.6702 20.4351 16.6637C20.4343 16.6572 20.4351 16.6506 20.4375 16.6445C20.4399 16.6384 20.4438 16.6331 20.4489 16.6289C20.4539 16.6248 20.46 16.622 20.4664 16.6208C22.7871 16.1663 24.81 15.4477 26.6217 13.8665C26.628 13.8608 26.6358 13.8572 26.6442 13.8559C26.6525 13.8547 26.6611 13.8559 26.6688 13.8595C26.6764 13.8631 26.6829 13.8689 26.6873 13.8761C26.6917 13.8833 26.694 13.8916 26.6937 13.9001C26.6297 15.5848 26.4349 17.2589 26.1095 18.9222C25.8823 20.0889 25.0324 21.2268 24.1298 22.2687C21.654 25.1206 18.8036 27.6845 15.894 30.1396Z" fill="url(#paint0_linear_9492_2960)"/>
<path fill-rule="evenodd" clip-rule="evenodd" d="M36.0678 22.9508L36.1129 17.828C36.1129 17.7691 36.1246 17.7108 36.1474 17.6564C36.1702 17.6021 36.2035 17.5528 36.2455 17.5115C36.2875 17.4702 36.3374 17.4377 36.3921 17.4158C36.4468 17.3939 36.5053 17.3832 36.5642 17.3842L44.2146 17.5497C44.2728 17.5507 44.3307 17.5402 44.385 17.5188C44.4392 17.4974 44.4887 17.4656 44.5306 17.425C44.5725 17.3845 44.606 17.3362 44.6292 17.2827C44.6525 17.2292 44.6649 17.1717 44.6659 17.1134L44.7787 8.80864C44.7788 8.69349 44.7341 8.58282 44.6541 8.50001C44.5741 8.41719 44.465 8.36872 44.35 8.36481L32.63 8.09401C32.5705 8.09199 32.5111 8.10197 32.4555 8.12337C32.3999 8.14477 32.3492 8.17714 32.3064 8.21856C32.2636 8.25997 32.2295 8.30958 32.2063 8.36444C32.1831 8.41929 32.1711 8.47826 32.1711 8.53783L32.0508 22.8304C32.0506 22.9443 32.0943 23.0539 32.1727 23.1366C32.2511 23.2192 32.3583 23.2685 32.472 23.2743L35.6089 23.3946C35.6684 23.3966 35.7278 23.3867 35.7834 23.3653C35.839 23.3439 35.8897 23.3115 35.9325 23.2701C35.9753 23.2287 36.0094 23.179 36.0326 23.1242C36.0558 23.0693 36.0678 23.0104 36.0678 22.9508ZM40.5947 10.4651C40.692 10.5625 40.7467 10.6945 40.7467 10.8322V14.9093C40.7467 15.047 40.692 15.179 40.5947 15.2763C40.4973 15.3737 40.3653 15.4284 40.2277 15.4284H36.7373C36.5996 15.4284 36.4676 15.3737 36.3702 15.2763C36.2729 15.179 36.2182 15.047 36.2182 14.9093V10.8322C36.2182 10.6945 36.2729 10.5625 36.3702 10.4651C36.4676 10.3678 36.5996 10.3131 36.7373 10.3131H40.2277C40.3653 10.3131 40.4973 10.3678 40.5947 10.4651ZM73.0178 23.4889L76.3728 23.5491C76.4373 23.5491 76.4994 23.524 76.5457 23.4791C76.5921 23.4341 76.6191 23.3729 76.621 23.3084L76.6511 18.6144C76.6511 18.5616 76.6679 18.5102 76.699 18.4676C76.7302 18.425 76.7741 18.3935 76.8244 18.3775C76.8747 18.3616 76.9288 18.3621 76.9788 18.379C77.0288 18.3959 77.0721 18.4283 77.1025 18.4715L80.5929 23.3911C80.6143 23.4217 80.6423 23.447 80.6749 23.4653C80.7074 23.4835 80.7437 23.4942 80.7809 23.4965L84.7603 23.6845C84.807 23.6875 84.8537 23.6771 84.8948 23.6546C84.9359 23.6322 84.9698 23.5986 84.9926 23.5577C85.0154 23.5168 85.0262 23.4702 85.0237 23.4235C85.0212 23.3767 85.0055 23.3316 84.9784 23.2934L80.9088 17.5688C80.872 17.5197 80.8547 17.4586 80.8603 17.3975C80.8658 17.3364 80.8939 17.2795 80.9389 17.2378L85.1138 13.4164C85.1525 13.3831 85.1799 13.3388 85.1924 13.2894C85.205 13.24 85.202 13.1879 85.1839 13.1403C85.1659 13.0926 85.1336 13.0517 85.0914 13.023C85.0493 12.9944 84.9993 12.9794 84.9484 12.9801L80.5628 12.95C80.5292 12.9497 80.4958 12.9562 80.4648 12.9691C80.4338 12.982 80.4057 13.0011 80.3822 13.0252L77.0799 16.2524C77.0447 16.2865 77.0003 16.3095 76.9521 16.3184C76.9039 16.3274 76.8541 16.3218 76.8091 16.3025C76.764 16.2832 76.7257 16.251 76.6989 16.21C76.6722 16.1689 76.6581 16.1208 76.6586 16.0718L76.8467 8.6848C76.8477 8.65157 76.842 8.61848 76.83 8.58749C76.818 8.5565 76.7999 8.52824 76.7767 8.50438C76.7536 8.48053 76.7258 8.46157 76.6952 8.44862C76.6646 8.43568 76.6317 8.42902 76.5985 8.42903L73.2134 8.40647C73.1808 8.40647 73.1485 8.41289 73.1184 8.42536C73.0882 8.43784 73.0609 8.45612 73.0378 8.47917C73.0148 8.50223 72.9965 8.52959 72.984 8.55971C72.9715 8.58983 72.9651 8.62211 72.9651 8.65471L72.7695 23.2332C72.7685 23.2664 72.7742 23.2995 72.7862 23.3305C72.7983 23.3615 72.8164 23.3897 72.8395 23.4136C72.8627 23.4374 72.8904 23.4564 72.921 23.4693C72.9516 23.4823 72.9845 23.489 73.0178 23.4889ZM91.1024 10.9305L91.0648 14.5639C91.0638 14.6218 91.0743 14.6793 91.0958 14.7331C91.1173 14.787 91.1492 14.8359 91.1899 14.8773C91.2305 14.9186 91.2789 14.9514 91.3323 14.9738C91.3858 14.9962 91.4431 15.0077 91.5011 15.0077H100.159C100.217 15.0077 100.273 15.019 100.326 15.0409C100.379 15.0628 100.427 15.095 100.468 15.1355C100.508 15.176 100.541 15.2241 100.562 15.277C100.584 15.33 100.596 15.3867 100.596 15.444L100.581 23.2523C100.581 23.368 100.535 23.479 100.453 23.5608C100.371 23.6426 100.26 23.6886 100.144 23.6886L87.2584 23.6359C87.1514 23.6346 87.0486 23.5941 86.9695 23.522C86.8905 23.4499 86.8407 23.3512 86.8296 23.2448L86.7093 22.0637C86.7029 22.0028 86.7095 21.9411 86.7286 21.8829C86.7476 21.8246 86.7788 21.771 86.8199 21.7256C86.8611 21.6802 86.9114 21.6439 86.9675 21.6193C87.0236 21.5946 87.0843 21.582 87.1456 21.5823L95.9844 21.6425C96.0988 21.6425 96.2087 21.5976 96.2903 21.5174C96.3719 21.4372 96.4188 21.3281 96.4207 21.2137L96.511 17.3472C96.512 17.2892 96.5014 17.2317 96.48 17.1779C96.4585 17.1241 96.4265 17.0751 96.3859 17.0338C96.3453 16.9925 96.2968 16.9597 96.2434 16.9373C96.19 16.9149 96.1326 16.9033 96.0747 16.9033H87.3261C87.2682 16.9034 87.2108 16.8918 87.1574 16.8694C87.104 16.847 87.0555 16.8142 87.0149 16.7729C86.9743 16.7316 86.9423 16.6826 86.9208 16.6288C86.8994 16.575 86.8888 16.5174 86.8898 16.4595L87.0628 8.87691C87.0648 8.76251 87.1116 8.65345 87.1932 8.57325C87.2749 8.49305 87.3847 8.44812 87.4991 8.44813L100.656 8.52336C100.729 8.52378 100.802 8.54276 100.866 8.57854C100.93 8.61432 100.984 8.66573 101.023 8.72801C101.062 8.79029 101.085 8.86142 101.089 8.93479C101.093 9.00816 101.079 9.0814 101.047 9.14772L100.535 10.246C100.501 10.3225 100.445 10.3873 100.374 10.4327C100.303 10.4781 100.221 10.502 100.137 10.5018H91.5387C91.4242 10.5017 91.3144 10.5467 91.2328 10.6269C91.1512 10.7071 91.1043 10.8161 91.1024 10.9305ZM113.745 13.1369L107.005 13.1144C106.895 13.1144 106.79 13.0708 106.713 12.9932C106.635 12.9156 106.591 12.8104 106.591 12.7006L106.599 8.94693C106.599 8.83721 106.555 8.73197 106.478 8.65438C106.4 8.57679 106.295 8.5332 106.185 8.5332L103.357 8.51063C103.248 8.51062 103.144 8.55317 103.067 8.62914C102.989 8.70511 102.945 8.80842 102.943 8.91684L102.582 23.2396C102.581 23.2945 102.591 23.3491 102.611 23.4002C102.632 23.4513 102.662 23.4978 102.7 23.537C102.739 23.5762 102.785 23.6073 102.836 23.6286C102.886 23.6499 102.941 23.6608 102.996 23.6608L106.065 23.6683C106.173 23.6683 106.277 23.6258 106.355 23.5498C106.432 23.4739 106.477 23.3705 106.479 23.2621L106.606 15.4313C106.608 15.3228 106.653 15.2195 106.73 15.1436C106.808 15.0676 106.912 15.025 107.02 15.0251L109.841 15.0326C109.896 15.0326 109.951 15.0435 110.001 15.0648C110.052 15.086 110.098 15.1172 110.136 15.1564C110.175 15.1956 110.205 15.2421 110.226 15.2932C110.246 15.3443 110.256 15.3989 110.255 15.4538L110.172 23.232C110.172 23.3392 110.214 23.4422 110.288 23.5194C110.362 23.5966 110.464 23.6419 110.571 23.6458L113.632 23.7285C113.688 23.7305 113.743 23.7213 113.795 23.7014C113.847 23.6816 113.895 23.6514 113.935 23.6128C113.975 23.5742 114.007 23.5279 114.028 23.4767C114.05 23.4255 114.061 23.3704 114.061 23.3148L114.151 13.5507C114.151 13.4422 114.109 13.3381 114.033 13.2607C113.957 13.1834 113.854 13.1389 113.745 13.1369ZM138.387 8.70699L135.153 8.66182C134.941 8.65887 134.767 8.82821 134.764 9.04007L134.563 23.4366C134.56 23.6485 134.729 23.8226 134.941 23.8256L138.176 23.8707C138.387 23.8737 138.562 23.7043 138.565 23.4925L138.766 9.09595C138.769 8.88409 138.599 8.70994 138.387 8.70699ZM152.099 10.8798V9.23243C151.337 8.71589 150.125 8.60556 148.466 8.90144C148.195 8.94657 148.059 9.10455 148.059 9.37535V12.8056C148.059 13.1516 147.889 13.3246 147.548 13.3246L140.8 13.3021C140.514 13.3021 140.369 13.4425 140.364 13.7233L140.176 23.4573C140.171 23.7332 140.309 23.8736 140.59 23.8786L151.301 23.9087C151.562 23.9087 151.695 23.7783 151.7 23.5175L152.099 10.8798ZM147.793 15.4183C147.912 15.5395 147.977 15.7028 147.975 15.8724L147.917 21.4237C147.916 21.5932 147.846 21.7551 147.725 21.8738C147.604 21.9925 147.441 22.0581 147.271 22.0564L144.714 22.0295C144.544 22.0277 144.382 21.9587 144.264 21.8375C144.145 21.7164 144.079 21.5531 144.081 21.3835L144.139 15.8322C144.141 15.6627 144.21 15.5007 144.331 15.3821C144.452 15.2634 144.616 15.1978 144.785 15.1995L147.343 15.2264C147.512 15.2281 147.674 15.2972 147.793 15.4183ZM50.4898 21.4994H57.5684C57.6375 21.4987 57.7056 21.5153 57.7667 21.5476C57.8277 21.58 57.8796 21.6271 57.9178 21.6847C57.9559 21.7423 57.979 21.8085 57.985 21.8773C57.991 21.9461 57.9797 22.0154 57.952 22.0787L57.5157 23.0792C57.4837 23.1525 57.4312 23.2149 57.3644 23.259C57.2977 23.303 57.2196 23.3268 57.1396 23.3274H46.6834C46.6278 23.3274 46.5727 23.3163 46.5215 23.2945C46.4703 23.2728 46.424 23.241 46.3854 23.2009C46.3468 23.1609 46.3166 23.1135 46.2968 23.0616C46.2769 23.0096 46.2677 22.9542 46.2697 22.8986L46.5555 13.1044C46.5565 13.0501 46.5682 12.9965 46.5899 12.9466C46.6116 12.8968 46.6429 12.8518 46.682 12.814C46.7211 12.7763 46.7673 12.7467 46.8179 12.7268C46.8685 12.7069 46.9225 12.6972 46.9768 12.6982L57.3201 12.7659C57.4299 12.7659 57.5351 12.8095 57.6127 12.8871C57.6903 12.9647 57.7339 13.0699 57.7339 13.1796L57.6812 19.017C57.6793 19.1255 57.6348 19.2288 57.5574 19.3047C57.48 19.3807 57.3759 19.4233 57.2675 19.4233L50.3619 19.333C50.3036 19.3317 50.2457 19.3427 50.192 19.3653C50.1383 19.388 50.09 19.4217 50.0502 19.4643C50.0104 19.5069 49.9801 19.5575 49.9612 19.6126C49.9423 19.6678 49.9353 19.7263 49.9406 19.7843L50.076 21.1233C50.0855 21.2264 50.1332 21.3222 50.2098 21.3919C50.2864 21.4615 50.3863 21.4999 50.4898 21.4994ZM53.9192 15.6061C53.919 15.4925 53.8964 15.3801 53.8528 15.2752C53.8091 15.1703 53.7452 15.0751 53.6647 14.9949C53.5843 14.9147 53.4888 14.8511 53.3838 14.8078C53.2787 14.7646 53.1662 14.7424 53.0526 14.7426L51.0366 14.746C50.923 14.7462 50.8105 14.7688 50.7056 14.8125C50.6008 14.8561 50.5055 14.92 50.4253 15.0005C50.3451 15.0809 50.2816 15.1764 50.2383 15.2815C50.195 15.3865 50.1728 15.499 50.173 15.6126L50.1747 16.5604C50.1749 16.674 50.1974 16.7865 50.2411 16.8914C50.2847 16.9963 50.3486 17.0915 50.4291 17.1717C50.5096 17.2519 50.605 17.3155 50.7101 17.3587C50.8151 17.402 50.9276 17.4242 51.0412 17.424L53.0573 17.4206C53.1709 17.4204 53.2833 17.3978 53.3882 17.3541C53.4931 17.3105 53.5883 17.2466 53.6685 17.1661C53.7487 17.0856 53.8123 16.9902 53.8556 16.8851C53.8988 16.7801 53.921 16.6676 53.9208 16.554L53.9192 15.6061ZM63.6325 21.1789L63.6777 15.1685C63.6777 15.0667 63.7181 14.9691 63.79 14.8972C63.862 14.8252 63.9596 14.7848 64.0613 14.7848L70.2748 14.8375C70.3532 14.8379 70.4298 14.8144 70.4943 14.77C70.5589 14.7256 70.6083 14.6625 70.6359 14.5892L71.0572 13.4684C71.0789 13.4108 71.0865 13.3487 71.0792 13.2876C71.0719 13.2264 71.05 13.1679 71.0153 13.117C70.9806 13.0661 70.9342 13.0243 70.88 12.9951C70.8257 12.9659 70.7652 12.9502 70.7036 12.9494L60.1797 12.844C60.1294 12.843 60.0793 12.852 60.0323 12.8703C59.9854 12.8887 59.9426 12.9161 59.9062 12.9511C59.8699 12.986 59.8408 13.0277 59.8206 13.0739C59.8005 13.1201 59.7896 13.1698 59.7886 13.2202L59.6757 23.0971C59.6747 23.1481 59.6839 23.1988 59.7028 23.2462C59.7216 23.2937 59.7497 23.3368 59.7854 23.3733C59.8211 23.4097 59.8638 23.4386 59.9108 23.4584C59.9579 23.4781 60.0084 23.4883 60.0594 23.4883H70.1545C70.2442 23.4879 70.331 23.4561 70.3997 23.3984C70.4685 23.3407 70.5148 23.2607 70.5306 23.1723L70.7337 22.0139C70.7437 21.9581 70.7413 21.9009 70.7265 21.8462C70.7118 21.7915 70.6851 21.7408 70.6484 21.6977C70.6117 21.6545 70.566 21.62 70.5144 21.5967C70.4628 21.5733 70.4067 21.5616 70.3501 21.5625H64.0162C63.9144 21.5625 63.8169 21.5221 63.7449 21.4502C63.673 21.3782 63.6325 21.2806 63.6325 21.1789ZM119.306 13.2262L116.177 13.1826C115.969 13.1797 115.798 13.3457 115.795 13.5534L115.659 23.3466C115.656 23.5543 115.822 23.7251 116.03 23.728L119.159 23.7717C119.366 23.7746 119.537 23.6085 119.54 23.4008L119.677 13.6076C119.68 13.3999 119.513 13.2291 119.306 13.2262ZM125.028 21.5689L125.036 20.1773C125.036 20.1233 125.047 20.0699 125.068 20.0201C125.088 19.9703 125.119 19.9252 125.158 19.8874C125.196 19.8495 125.242 19.8198 125.292 19.7998C125.342 19.7798 125.396 19.7701 125.45 19.7711L132.13 19.9516C132.184 19.9526 132.237 19.9428 132.287 19.9229C132.337 19.9029 132.383 19.8731 132.422 19.8353C132.46 19.7975 132.491 19.7524 132.512 19.7026C132.533 19.6528 132.543 19.5994 132.543 19.5454L132.588 13.6478C132.588 13.5401 132.546 13.4368 132.469 13.3606C132.393 13.2844 132.29 13.2416 132.182 13.2416L121.711 13.219C121.657 13.218 121.603 13.2278 121.553 13.2478C121.503 13.2677 121.457 13.2975 121.419 13.3353C121.38 13.3731 121.35 13.4183 121.329 13.468C121.308 13.5178 121.297 13.5713 121.297 13.6252L121.207 23.3593C121.206 23.4132 121.216 23.4669 121.236 23.517C121.256 23.5672 121.285 23.6129 121.323 23.6514C121.361 23.6899 121.406 23.7205 121.456 23.7414C121.506 23.7623 121.559 23.773 121.613 23.773L132.069 23.7805C132.156 23.7791 132.24 23.7499 132.31 23.697C132.379 23.6442 132.429 23.5707 132.453 23.4872L132.746 22.5017C132.764 22.4411 132.767 22.3773 132.756 22.3153C132.744 22.2533 132.719 22.1948 132.681 22.1444C132.643 22.094 132.593 22.0532 132.537 22.0251C132.481 21.9971 132.418 21.9825 132.355 21.9827L125.435 21.9751C125.327 21.9751 125.224 21.9323 125.147 21.8562C125.071 21.78 125.028 21.6767 125.028 21.5689ZM128.634 15.2854C128.726 15.3795 128.777 15.5063 128.776 15.6379L128.758 17.353C128.757 17.4846 128.703 17.6103 128.609 17.7025C128.515 17.7946 128.388 17.8456 128.256 17.8442L125.578 17.8162C125.447 17.8148 125.321 17.7612 125.229 17.6671C125.137 17.573 125.086 17.4462 125.087 17.3145L125.105 15.5995C125.107 15.4679 125.16 15.3422 125.254 15.25C125.348 15.1579 125.475 15.1069 125.607 15.1083L128.285 15.1363C128.416 15.1377 128.542 15.1913 128.634 15.2854Z" fill="black"/>
<defs>
<linearGradient id="paint0_linear_9492_2960" x1="26.733" y1="13.6036" x2="0.494044" y2="13.6036" gradientUnits="userSpaceOnUse">
<stop offset="0.396676" stop-color="#1169A7"/>
<stop offset="0.505643" stop-color="#2DA9E5"/>
</linearGradient>
</defs>
</svg>
