<svg width="98" height="28" viewBox="0 0 98 28" fill="none" xmlns="http://www.w3.org/2000/svg">
<g clip-path="url(#clip0_10259_2152)">
<path d="M93.6708 0V5.82701L87.7706 0H84.7891V11.5389H88.4453V5.63348L94.3822 11.5389H97.3218V0H93.6708Z" fill="white"/>
<path d="M37.1948 11.5389H46.8926V8.31683H37.1948V3.25873H46.9031V0H37.1948H33.9623H33.5752V11.5389H33.9623H37.1948Z" fill="white"/>
<path d="M71.4561 11.5389H80.3954V8.63591H71.4561V7.04054H80.3954V4.45657H71.4561V2.90305H80.3954V0H71.4561H68.1346H67.8364V11.5389H68.1973H71.4561Z" fill="white"/>
<path d="M20.6136 8.94452H25.9908V11.5599H29.5947V0H17.0044V11.5389H20.6136V8.94452ZM20.6136 3.19073H25.9908V5.75378H20.6136V3.19073Z" fill="white"/>
<path d="M3.71829 7.43807H9.0013V11.5389H12.6262V0H9.0013V4.01719H3.71829V0H0.0986328V11.5389H3.71829V7.43807Z" fill="white"/>
<path d="M54.3726 7.93499H59.9799L63.5734 4.50887H63.5943V0H59.9799V4.50887H54.3726V0H50.7529V11.5389H54.3726V7.93499Z" fill="white"/>
<path d="M63.6045 7.93359H59.9849V11.5376H63.6045V7.93359Z" fill="white"/>
<path d="M12.1293 15.8594H0.0986328V27.3983H3.70782V24.783H12.6523V15.8594H12.1293ZM9.06407 21.6132H3.70782V19.0658H9.085L9.06407 21.6132Z" fill="white"/>
<path d="M26.2314 24.1328V27.4125H29.5948V24.1328H26.2314Z" fill="white"/>
<path d="M29.5791 15.8594H17.0254V27.414H20.6503V24.1344H26.2524L29.6157 20.7082L29.5791 15.8594ZM26.0013 21.2104H20.6241V18.6892H26.0013V21.2104Z" fill="white"/>
<path d="M80.3848 15.8594H71.456H68.6367H67.8521V20.8861V24.0977V27.3983H71.456V24.0977H80.3848V20.8861H71.456V19.0658H80.3848V15.8594Z" fill="white"/>
<path d="M43.2834 15.8594H33.5752V27.3983H46.9031V15.8594H43.2834ZM43.2834 24.1187H37.2053V19.0606H43.2939L43.2834 24.1187Z" fill="white"/>
<path d="M63.6153 15.8594H50.7373V27.3983H63.6153V19.1181V15.8594ZM60.0061 24.1187H54.3674V19.0606H60.0061V24.1187Z" fill="white"/>
<path d="M91.5023 24.4155C93.0336 24.1669 94.0734 22.7241 93.8249 21.1928C93.5763 19.6615 92.1335 18.6217 90.6022 18.8703C89.0709 19.1188 88.0311 20.5617 88.2796 22.0929C88.5282 23.6242 89.971 24.664 91.5023 24.4155Z" fill="#F13F2D"/>
<path d="M96.9818 19.7008V19.7636L97.4055 19.6276V19.5596C97.0837 18.6019 96.551 17.7287 95.8467 17.0045C95.1423 16.2802 94.2844 15.7234 93.336 15.375H93.2733L93.1216 15.7935H93.1844C94.0703 16.1175 94.8717 16.6371 95.5292 17.3136C96.1866 17.9901 96.6832 18.806 96.9818 19.7008Z" fill="white"/>
<path d="M96.9348 23.7282C96.6177 24.6125 96.1071 25.4148 95.4401 26.0764C94.7731 26.7379 93.9666 27.242 93.0797 27.5518H93.0117L93.1582 27.9703H93.2209C94.172 27.6397 95.0369 27.1003 95.752 26.3915C96.4671 25.6827 97.0142 24.8227 97.3532 23.8746V23.8118L96.9295 23.6602L96.9348 23.7282Z" fill="white"/>
<path d="M85.1341 23.6149V23.5469L84.7104 23.6881V23.7561C85.0373 24.7336 85.5847 25.6228 86.3104 26.3548C87.036 27.0868 87.9204 27.642 88.895 27.9773H88.9578L89.1043 27.5536H89.0415C88.1319 27.2404 87.3065 26.7223 86.629 26.0394C85.9515 25.3564 85.4401 24.5269 85.1341 23.6149Z" fill="white"/>
<path d="M85.1606 19.5901C85.481 18.6763 86.0085 17.849 86.7018 17.173C87.3951 16.497 88.2353 15.9905 89.1569 15.6932H89.2249L89.0889 15.2695H89.0209C88.0333 15.5899 87.1332 16.1343 86.391 16.8602C85.6487 17.5861 85.0844 18.4739 84.7422 19.4541V19.5169L85.1606 19.6633V19.5901Z" fill="white"/>
</g>
<defs>
<clipPath id="clip0_10259_2152">
<rect width="97.3279" height="28" fill="white" transform="translate(0.0986328)"/>
</clipPath>
</defs>
</svg>
