<svg width="83" height="37" viewBox="0 0 83 37" fill="none" xmlns="http://www.w3.org/2000/svg">
<path d="M7.82251 9.47425H12.64V17.3651C11.0314 17.6911 9.79946 17.8562 8.44904 17.8562C3.16588 17.8562 1.30322 14.8294 1.30322 9.84678C1.30322 4.49165 3.88554 1.46484 9.03323 1.46484C9.68516 1.46484 10.9171 1.51141 12.4537 1.74424V6.79457H11.3361L10.7054 4.86419C10.1 3.02693 9.38036 2.11677 8.23737 2.11677C6.26042 2.11677 5.21056 4.79222 5.21056 9.80022C5.21056 14.8294 5.62966 17.2043 8.21197 17.2043C8.56334 17.2043 8.9782 17.1577 9.37613 17.0434V11.1718L7.81827 10.1008V9.47425H7.82251ZM12.5469 30.6577C12.5469 33.8242 10.3837 35.6403 6.56522 35.6403C5.51959 35.6403 3.9829 35.4794 2.53935 35.2424V29.0533H3.65694L4.1226 30.518C5.16823 33.8919 5.91329 35.0095 7.24255 35.0095C8.63954 35.0095 9.63859 33.7776 9.63859 32.1478C9.63859 30.8228 9.01207 29.8915 7.66164 29.1676L5.33333 27.9103C3.53841 26.9578 2.56051 25.4677 2.56051 23.6516C2.56051 20.9042 4.81686 19.2532 8.521 19.2532C9.3592 19.2532 10.3371 19.3251 11.8949 19.5326V24.5829H10.7774L10.1508 22.6525C9.52006 20.6036 8.84697 19.8585 7.61508 19.8585C6.23925 19.8585 5.42646 20.7433 5.42646 22.0218C5.42646 23.1605 6.05722 23.9775 7.28911 24.676L9.63859 26.0011C11.6155 27.1187 12.5469 28.6088 12.5469 30.6577ZM22.838 34.3153L23.3037 35.0138V35.3651H19.7435L19.5784 34.0147C19.2059 35.0392 18.228 35.6445 16.9707 35.6445C15.108 35.6445 13.9439 34.4804 13.9439 32.5711C13.9439 30.7085 14.9895 29.4766 18.2026 28.2193L19.5742 27.6859V25.9418C19.5742 24.4051 19.2948 23.7786 18.4354 23.7786C17.7369 23.7786 17.3432 24.1511 16.6659 25.8487L15.8996 27.7494H14.854V23.9521C16.2256 23.533 17.6014 23.2537 18.7868 23.2537C21.4156 23.2537 22.838 24.5109 22.838 26.7927V34.3153ZM24.1842 11.6629C24.1842 15.621 22.0676 17.8562 19.3413 17.8562C16.6193 17.8562 14.5027 15.621 14.5027 11.6629C14.5027 7.70473 16.6193 5.46955 19.3456 5.46955C22.0676 5.46955 24.1842 7.70473 24.1842 11.6629ZM19.5784 32.3595V28.3336L19.1381 28.5199C17.7623 29.0787 17.2501 30.336 17.2501 32.1732C17.2501 33.549 17.576 34.3364 18.3423 34.3364C19.1085 34.3364 19.5784 33.5914 19.5784 32.3595ZM20.7637 11.6629C20.7637 7.1925 20.3912 6.00718 19.3456 6.00718C18.2999 6.00718 17.9274 7.1925 17.9274 11.6629C17.9274 16.1332 18.2999 17.3186 19.3456 17.3186C20.3912 17.3186 20.7637 16.1332 20.7637 11.6629ZM32.4519 32.4738L32.871 32.6854C32.1259 34.8275 31.1734 35.6403 29.3319 35.6403C26.3305 35.6403 24.6541 33.3839 24.6541 29.447C24.6541 25.5142 26.6099 23.2537 29.7976 23.2537C30.6569 23.2537 31.7999 23.3933 32.7778 23.787V27.7452H31.6856L31.2454 26.2551C30.6612 24.2781 30.3394 23.7659 29.7552 23.7659C28.8239 23.7659 28.0789 24.9766 28.0789 29.5867C28.0789 33.2866 28.6377 34.637 30.0558 34.637C31.0083 34.6412 31.8211 34.0359 32.4519 32.4738ZM29.8653 17.5768H25.6743V17.2297L26.14 16.5312V3.53916L25.6743 2.84067V2.4893L29.3997 2.2099V16.5269L29.8653 17.2254V17.5768ZM35.593 17.8562C33.0318 17.8562 31.4951 15.5279 31.4951 11.5486C31.4951 7.59043 33.0996 5.47378 35.5676 5.47378C36.8249 5.47378 37.5234 5.96061 37.8239 6.9385V3.53916L37.3583 2.84067V2.4893L41.0836 2.2099V16.5269L41.5492 17.2254V17.5726H38.243L37.989 15.803C37.6207 17.3186 36.9222 17.8562 35.593 17.8562ZM43.7632 34.3153L44.2289 35.0138V35.3651H40.0379V35.0138L40.5036 34.3153V25.9333C40.5036 24.9343 40.203 24.3289 39.4791 24.3289C38.6155 24.3289 37.989 25.0528 37.989 26.471V34.3153L38.4547 35.0138V35.3651H34.2637V35.0138L34.7294 34.3153V21.3233L34.2637 20.6248V20.2776L37.989 19.9982V24.8157C38.4081 23.8167 39.3606 23.2579 40.711 23.2579C42.6203 23.2579 43.759 24.4686 43.759 26.8181V34.3153H43.7632ZM34.9199 11.5909C34.9199 15.7819 35.2924 17.0603 36.3169 17.0603C37.5953 17.0603 37.8282 15.2231 37.8282 11.5443C37.8282 7.98413 37.5742 6.21461 36.338 6.21461C35.2924 6.21461 34.9199 7.4719 34.9199 11.5909ZM58.2919 16.5269L58.7576 17.2254V17.5726H54.5666V17.2254L55.0323 16.5269V7.891C55.0323 7.0528 54.7529 6.54057 54.101 6.54057C53.2882 6.54057 52.6362 7.26447 52.6362 8.65722V16.5269L53.1019 17.2254V17.5726H48.9109V17.2254L49.3766 16.5269V7.891C49.3766 7.0528 49.0972 6.54057 48.4453 6.54057C47.6325 6.54057 46.9806 7.26447 46.9806 8.65722V16.5269L47.4462 17.2254V17.5726H43.2552V17.2254L43.7209 16.5269V7.0528L43.2552 6.49401V6.14688L46.608 5.74895H46.8874L46.9806 7.0528C47.3743 6.02834 48.3521 5.46955 49.6814 5.46955C51.0996 5.46955 52.0309 6.16804 52.45 7.42533C52.7971 6.21461 53.8935 5.46955 55.2905 5.46955C57.1278 5.46955 58.2919 6.68027 58.2919 9.02975V16.5269ZM53.9401 31.9404C53.9401 33.9639 52.6362 35.6403 49.4951 35.6403C48.6823 35.6403 47.5859 35.5472 45.8884 35.2424V30.9159H46.8409L47.1414 31.8473C47.8865 34.2221 48.6061 35.1069 49.7491 35.1069C50.8202 35.1069 51.5187 34.3364 51.5187 33.1511C51.5187 32.1732 51.0276 31.5001 49.8677 30.8694L47.8653 29.7983C46.5869 29.0998 45.8884 28.0076 45.8884 26.6572C45.8884 24.5406 47.5436 23.2579 50.2868 23.2579C51.0784 23.2579 52.1029 23.3722 53.2204 23.605V27.0044H52.268L51.7769 25.7682C51.2181 24.2781 50.6847 23.7913 49.7999 23.7913C48.8474 23.7913 48.2886 24.3501 48.2886 25.2814C48.2886 26.073 48.7543 26.6064 49.8931 27.2584L51.87 28.3759C53.2162 29.1464 53.9401 30.2386 53.9401 31.9404ZM69.0022 16.5269L69.4678 17.2254V17.5726H65.9076L65.7468 16.2221C65.3742 17.2466 64.3964 17.852 63.1391 17.852C61.2764 17.852 60.1123 16.6878 60.1123 14.7786C60.1123 12.9159 61.1579 11.684 64.371 10.4267L65.7425 9.89335V8.14923C65.7425 6.61254 65.4631 5.98601 64.6038 5.98601C63.9053 5.98601 63.5116 6.35854 62.8343 8.0561L62.068 9.96531H61.0182V6.17228C62.394 5.75318 63.7656 5.47378 64.9509 5.47378C67.5798 5.47378 69.0022 6.73107 69.0022 9.01282V16.5269ZM65.7425 14.5711V10.5453L65.3023 10.7315C63.9307 11.2903 63.4185 12.5476 63.4185 14.3849C63.4185 15.7607 63.7444 16.5523 64.5107 16.5523C65.2769 16.5523 65.7425 15.8073 65.7425 14.5711ZM80.9655 17.2254V17.5726H76.7745V17.2254L77.2402 16.5269V8.14499C77.2402 7.1417 76.9396 6.54057 76.2157 6.54057C75.3521 6.54057 74.7256 7.26447 74.7256 8.68262V16.5269L75.1913 17.2254V17.5726H71.0003V17.2254L71.466 16.5269V7.0528L71.0003 6.49401V6.14688L74.3531 5.74895H74.6325L74.7256 7.0528C75.1193 6.02834 76.076 5.46955 77.4476 5.46955C79.3568 5.46955 80.4956 6.68027 80.4956 9.02975V16.5269L80.9655 17.2254Z" fill="black"/>
</svg>
