<svg width="107" height="37" viewBox="0 0 107 37" fill="none" xmlns="http://www.w3.org/2000/svg">
<path d="M45.2658 19.8406C45.2658 24.4447 41.664 27.8374 37.2437 27.8374C32.8235 27.8374 29.2217 24.4447 29.2217 19.8406C29.2217 15.204 32.8235 11.8438 37.2437 11.8438C41.664 11.8438 45.2658 15.204 45.2658 19.8406ZM41.7541 19.8406C41.7541 16.9634 39.6666 14.9949 37.2437 14.9949C34.8209 14.9949 32.7334 16.9634 32.7334 19.8406C32.7334 22.6888 34.8209 24.6862 37.2437 24.6862C39.6666 24.6862 41.7541 22.6852 41.7541 19.8406Z" fill="#EA4335"/>
<path d="M62.5724 19.8406C62.5724 24.4447 58.9706 27.8374 54.5504 27.8374C50.1301 27.8374 46.5283 24.4447 46.5283 19.8406C46.5283 15.2076 50.1301 11.8438 54.5504 11.8438C58.9706 11.8438 62.5724 15.204 62.5724 19.8406ZM59.0608 19.8406C59.0608 16.9634 56.9732 14.9949 54.5504 14.9949C52.1275 14.9949 50.04 16.9634 50.04 19.8406C50.04 22.6888 52.1275 24.6862 54.5504 24.6862C56.9732 24.6862 59.0608 22.6852 59.0608 19.8406Z" fill="#FBBC05"/>
<path d="M79.1569 12.3269V26.6837C79.1569 32.5893 75.6741 35.0014 71.5567 35.0014C67.6809 35.0014 65.3481 32.4091 64.4684 30.2891L67.5258 29.0164C68.0702 30.3179 69.4042 31.8538 71.5531 31.8538C74.1886 31.8538 75.8219 30.2278 75.8219 27.1668V26.0166H75.6993C74.9133 26.9865 73.399 27.8338 71.4882 27.8338C67.4898 27.8338 63.8267 24.3509 63.8267 19.8694C63.8267 15.3554 67.4898 11.8438 71.4882 11.8438C73.3954 11.8438 74.9097 12.691 75.6993 13.632H75.8219V12.3305H79.1569V12.3269ZM76.0707 19.8694C76.0707 17.0536 74.1922 14.9949 71.8018 14.9949C69.379 14.9949 67.3492 17.0536 67.3492 19.8694C67.3492 22.6564 69.379 24.6862 71.8018 24.6862C74.1922 24.6862 76.0707 22.6564 76.0707 19.8694Z" fill="#4285F4"/>
<path d="M84.6542 3.91797V27.3532H81.229V3.91797H84.6542Z" fill="#34A853"/>
<path d="M98.002 22.4761L100.728 24.2933C99.848 25.5948 97.728 27.8374 94.0649 27.8374C89.5221 27.8374 86.1294 24.3257 86.1294 19.8406C86.1294 15.085 89.5509 11.8438 93.6719 11.8438C97.8218 11.8438 99.8516 15.1463 100.515 16.931L100.879 17.8396L90.1891 22.267C91.0075 23.8714 92.2802 24.6899 94.0649 24.6899C95.8532 24.6899 97.0935 23.8101 98.002 22.4761ZM89.6122 19.599L96.7582 16.6317C96.3652 15.633 95.1826 14.9372 93.7909 14.9372C92.0062 14.9372 89.5221 16.5128 89.6122 19.599Z" fill="#EA4335"/>
<path d="M16.2558 17.7606V14.3679H27.6886C27.8004 14.9592 27.8581 15.6586 27.8581 16.4158C27.8581 18.9612 27.1622 22.1087 24.9197 24.3513C22.7384 26.6227 19.9514 27.8341 16.2594 27.8341C9.41636 27.8341 3.66211 22.2601 3.66211 15.4171C3.66211 8.57398 9.41636 3 16.2594 3C20.0451 3 22.742 4.48543 24.7682 6.42154L22.3742 8.81554C20.9212 7.45269 18.9527 6.3927 16.2558 6.3927C11.2587 6.3927 7.35045 10.4199 7.35045 15.4171C7.35045 20.4142 11.2587 24.4414 16.2558 24.4414C19.4971 24.4414 21.3431 23.1399 22.5257 21.9573C23.4847 20.9982 24.1156 19.6282 24.3644 17.757L16.2558 17.7606Z" fill="#4285F4"/>
</svg>
