<svg width="200" height="44" viewBox="0 0 200 44" fill="none" xmlns="http://www.w3.org/2000/svg">
<mask id="mask0_9798_2031" style="mask-type:luminance" maskUnits="userSpaceOnUse" x="0" y="12" width="200" height="20">
<path d="M199.36 12H0.533203V32H199.36V12Z" fill="white"/>
</mask>
<g mask="url(#mask0_9798_2031)">
<path d="M36.5879 22.1734C33.2479 16.403 27.0087 12.5156 19.8546 12.5156C9.18654 12.5156 0.533203 21.1637 0.533203 31.8368H19.8546C27.0035 31.8368 33.2425 27.9494 36.5879 22.1734Z" fill="url(#paint0_linear_9798_2031)"/>
<path d="M19.8545 12.5156C27.0034 12.5156 33.2424 16.403 36.5878 22.1788C38.2344 19.3384 39.1811 16.0401 39.1811 12.5156H19.8598H19.8545Z" fill="#4D96FF"/>
<path d="M61.3427 13.8359V16.4661H56.6347V30.5694H53.8834V16.4661H49.1494V13.8359H61.3427Z" fill="black"/>
<path d="M63.0897 25.6915C63.2791 26.6015 63.7211 27.2962 64.4051 27.7855C65.0884 28.2695 65.9251 28.5162 66.9137 28.5162C68.2871 28.5162 69.3124 28.0222 69.9964 27.0328L72.1217 28.2742C70.9437 30.0102 69.1971 30.8782 66.8877 30.8782C64.9411 30.8782 63.3737 30.2842 62.1797 29.0948C60.9857 27.9062 60.3857 26.4068 60.3857 24.5868C60.3857 22.7668 60.9751 21.3097 62.1531 20.1051C63.3317 18.9004 64.8464 18.3008 66.6984 18.3008C68.4497 18.3008 69.8911 18.9162 71.0117 20.1419C72.1377 21.3676 72.6951 22.8615 72.6951 24.6135C72.6951 24.8868 72.6637 25.2442 72.6004 25.6915H63.0844H63.0897ZM63.0631 23.5875H70.0911C69.9177 22.6142 69.5124 21.8831 68.8811 21.3886C68.2504 20.8942 67.5137 20.6469 66.6717 20.6469C65.7144 20.6469 64.9204 20.9099 64.2837 21.436C63.6471 21.962 63.2424 22.6775 63.0631 23.5875Z" fill="black"/>
<path d="M80.5441 30.8847C78.7448 30.8847 77.2408 30.28 76.0361 29.07C74.8314 27.86 74.2314 26.366 74.2314 24.5987C74.2314 22.8314 74.8314 21.3214 76.0361 20.1168C77.2408 18.9122 78.7395 18.3125 80.5441 18.3125C81.7068 18.3125 82.7694 18.5913 83.7214 19.1489C84.6788 19.7065 85.3941 20.4535 85.8728 21.3951L83.6475 22.684C83.3741 22.1107 82.9634 21.6581 82.4168 21.332C81.8641 21.0058 81.2328 20.8428 80.5174 20.8428C79.4654 20.8428 78.5874 21.2004 77.8768 21.9211C77.1668 22.6367 76.8141 23.5307 76.8141 24.5987C76.8141 25.6667 77.1668 26.5607 77.8768 27.276C78.5874 27.9914 79.4654 28.3547 80.5174 28.3547C81.2174 28.3547 81.8541 28.186 82.4168 27.8547C82.9848 27.518 83.4108 27.076 83.6948 26.5134L85.9201 27.7814C85.4101 28.7387 84.6788 29.496 83.7214 30.0534C82.7641 30.6114 81.7068 30.89 80.5441 30.89V30.8847Z" fill="black"/>
<path d="M94.0731 18.3073C95.4464 18.3073 96.5511 18.7439 97.3978 19.6224C98.2451 20.5009 98.6658 21.7002 98.6658 23.2307V30.5694H96.0831V23.4941C96.0831 22.6001 95.8464 21.9159 95.3671 21.4372C94.8884 20.9585 94.2364 20.7218 93.4051 20.7218C92.4951 20.7218 91.7638 21.0059 91.2064 21.5687C90.6491 22.1367 90.3698 22.9994 90.3698 24.1621V30.5694H87.7871V13.8359H90.3698V20.1484C91.1484 18.9227 92.3851 18.3073 94.0731 18.3073Z" fill="black"/>
<path d="M111.406 16.4661H104.352V21.1531H111.164V23.7834H104.352V30.5747H101.601V13.8359H111.401V16.4661H111.406Z" fill="black"/>
<path d="M113.821 30.57V13.1211H116.404V30.5753H113.821V30.57Z" fill="black"/>
<path d="M125.036 30.8847C123.284 30.8847 121.79 30.28 120.564 29.07C119.339 27.86 118.724 26.366 118.724 24.5987C118.724 22.8314 119.339 21.3372 120.564 20.1273C121.79 18.9174 123.284 18.3125 125.036 18.3125C126.788 18.3125 128.298 18.9174 129.518 20.1273C130.738 21.3372 131.348 22.8314 131.348 24.5987C131.348 26.366 130.738 27.86 129.518 29.07C128.298 30.28 126.804 30.8847 125.036 30.8847ZM122.384 27.2974C123.1 28.0127 123.989 28.3754 125.036 28.3754C126.083 28.3754 126.972 28.018 127.687 27.2974C128.402 26.582 128.766 25.6774 128.766 24.5934C128.766 23.51 128.408 22.61 127.687 21.8896C126.972 21.1742 126.083 20.8112 125.036 20.8112C123.989 20.8112 123.1 21.1689 122.384 21.8896C121.669 22.6047 121.306 23.51 121.306 24.5934C121.306 25.6774 121.664 26.5767 122.384 27.2974Z" fill="black"/>
<path d="M146.982 18.6172H149.707L145.951 30.5689H143.416L140.928 22.5096L138.418 30.5689H135.883L132.127 18.6172H134.852L137.172 26.8656L139.681 18.6172H142.143L144.631 26.8656L146.972 18.6172H146.982Z" fill="black"/>
<path d="M171.116 15.7461L169.606 17.2563L173.092 20.7416L174.602 19.2314L171.116 15.7461Z" fill="black"/>
<path d="M164.926 15.7461L161.44 19.2314L162.95 20.7416L166.436 17.2563L164.926 15.7461Z" fill="black"/>
<path d="M162.58 14.9294H173.358V16.9599H175.494V12.8516H175.289H173.358H162.58H160.644H160.444V16.9599H162.58V14.9294Z" fill="black"/>
<path d="M169.092 18.349H166.956V21.3895H160.407V23.467H162.864C162.127 27.4077 160.602 31.0263 160.581 31.0683L160.47 31.3263L162.527 31.905L162.617 31.7104C162.632 31.6737 164.253 28.0964 165.026 23.4624H166.961V31.9997H169.097V23.4624H175.647V21.3842H169.097V18.3438L169.092 18.349Z" fill="black"/>
<path d="M157.068 12.0078L155.558 13.518L158.496 16.4565L160.006 14.9463L157.068 12.0078Z" fill="black"/>
<path d="M157.07 16.9023L155.56 18.4125L158.498 21.3511L160.008 19.8409L157.07 16.9023Z" fill="black"/>
<path d="M173.556 24.2773L171.501 24.8567L173.493 31.93L175.549 31.3507L173.556 24.2773Z" fill="black"/>
<path d="M157.524 22.6785C156.972 26.8552 155.178 31.0265 155.162 31.0685L155.052 31.3265L157.108 31.9052L157.198 31.7159C157.214 31.6792 158.939 27.9339 159.602 23.1939L159.634 22.9785L157.572 22.3945L157.534 22.6785H157.524Z" fill="black"/>
<path d="M189.029 12.207H186.894V13.9693H183.89V16.0472H186.894V17.3464H184.016V25.9579H186.894V27.2832H183.89V29.3612H186.894V32.0019H189.029V29.3612H191.906V27.2832H189.029V25.9579H189.618C190.881 25.9579 191.906 24.9319 191.906 23.6746V17.3517H189.029V16.0524H191.906V13.9746H189.029V12.207ZM189.766 23.6692C189.766 23.7539 189.697 23.8219 189.613 23.8219H186.152V22.6912H189.766V23.6692ZM189.766 19.4874V20.6184H186.152V19.4874H189.766Z" fill="black"/>
<path d="M197.225 12.793H192.706V32.004H194.841V25.4813H197.225V29.6053C197.225 29.7473 197.109 29.868 196.961 29.868H196.015V32.004H196.946C198.277 32.004 199.36 30.92 199.36 29.5893V12.793H197.225ZM197.225 23.398H194.841V20.1996H197.225V23.398ZM197.225 18.127H194.841V14.9287H197.225V18.127Z" fill="black"/>
<path d="M180.634 12.1172L179.124 13.6274L182.063 16.5659L183.573 15.0557L180.634 12.1172Z" fill="black"/>
<path d="M180.637 17.0195L179.126 18.5297L182.065 21.4683L183.575 19.9581L180.637 17.0195Z" fill="black"/>
<path d="M181.101 22.6785C180.544 26.8552 178.755 31.0265 178.739 31.0685L178.629 31.3265L180.686 31.9052L180.775 31.7159C180.791 31.6792 182.516 27.9339 183.179 23.1939L183.21 22.9785L181.148 22.3945L181.112 22.6785H181.101Z" fill="black"/>
</g>
<defs>
<linearGradient id="paint0_linear_9798_2031" x1="0.533203" y1="22.1734" x2="36.5879" y2="22.1734" gradientUnits="userSpaceOnUse">
<stop stop-color="#0072FF"/>
<stop offset="1" stop-color="#0037FF"/>
</linearGradient>
</defs>
</svg>
