<svg width="101" height="44" viewBox="0 0 101 44" fill="none" xmlns="http://www.w3.org/2000/svg">
<g clip-path="url(#clip0_9798_2009)">
<mask id="mask0_9798_2009" style="mask-type:luminance" maskUnits="userSpaceOnUse" x="0" y="6" width="101" height="32">
<path d="M0.466797 6.46484H100.467V37.5328H0.466797V6.46484Z" fill="white"/>
</mask>
<g mask="url(#mask0_9798_2009)">
<path d="M39.6636 22.0738C40.4161 21.6466 41.018 21.1146 41.4568 20.4874C41.9555 19.7784 42.2193 18.9309 42.2112 18.0641C42.2112 16.3923 41.586 15.0864 40.3539 14.1845C39.1364 13.2913 37.4617 12.8398 35.3743 12.8398H27.8267V32.2097H35.6763C37.8743 32.2097 39.6345 31.6991 40.9073 30.6903C42.1898 29.6729 42.8413 28.2486 42.8413 26.4554C42.8413 25.3631 42.5345 24.4243 41.9316 23.6641C41.3908 22.9845 40.6287 22.4505 39.6636 22.0738ZM31.9112 16.3311H35.0462C36.0297 16.3311 36.7714 16.5214 37.2539 16.8971C37.7297 17.2661 37.9627 17.7534 37.9627 18.3826C37.9627 19.0136 37.7297 19.5243 37.2539 19.8962C36.7714 20.2709 36.0297 20.4612 35.0462 20.4612H31.9112V16.3311ZM37.8131 28.0622C37.2695 28.4981 36.4394 28.7185 35.3471 28.7185H31.9112V23.9787H35.3481C36.4394 23.9787 37.2704 24.1923 37.8161 24.6097C38.3568 25.0272 38.619 25.5777 38.619 26.2952C38.619 27.0505 38.3559 27.6282 37.8131 28.0622ZM48.3607 17.7253H44.2481V32.2088H48.3597L48.3607 17.7253ZM88.9733 19.9049C88.315 19.1244 87.4854 18.5064 86.5491 18.0991C85.5918 17.6748 84.5151 17.4593 83.351 17.4593C81.9238 17.4593 80.6364 17.7835 79.5229 18.4224C78.4217 19.0491 77.5121 19.9641 76.8918 21.069C76.2598 22.1855 75.9403 23.4787 75.9403 24.9146C75.9403 26.3515 76.251 27.7301 76.8627 28.8631C77.4603 29.9826 78.3713 30.9036 79.484 31.5136C80.6073 32.134 81.9267 32.4486 83.4063 32.4486C85.2219 32.4486 86.7627 31.9923 87.9889 31.0903C89.1685 30.2233 89.9792 29.001 90.4219 27.469H86.2821C86.0646 27.9903 85.7578 28.434 85.318 28.7466C84.7986 29.1156 84.1277 29.302 83.3238 29.302C82.6267 29.302 82.0287 29.133 81.5471 28.7991C81.0646 28.4641 80.6957 27.9709 80.4529 27.3292C80.2979 26.9075 80.1939 26.4688 80.1432 26.0224H90.4937L90.5141 25.8942C90.6986 24.7263 90.652 23.6195 90.3743 22.6049C90.1088 21.6136 89.6307 20.692 88.9733 19.9039V19.9049ZM80.2093 23.3418C80.2721 23.0417 80.3581 22.747 80.4665 22.4602C80.719 21.8097 81.083 21.3097 81.55 20.9758C82.0151 20.6418 82.5937 20.4738 83.2695 20.4738C84.117 20.4738 84.8131 20.7486 85.3374 21.2894C85.8355 21.8039 86.117 22.5068 86.1772 23.3408L80.2093 23.3418ZM48.4462 12.8398H44.1627V16.3311H48.4462V12.8398ZM70.9627 19.369C70.4991 18.8031 69.9198 18.3429 69.2636 18.0195C68.4966 17.6476 67.5986 17.4593 66.5947 17.4593C65.3665 17.4593 64.2646 17.7631 63.3228 18.3593C62.3811 18.9563 61.6335 19.7991 61.1044 20.8631C60.5753 21.9253 60.3073 23.1719 60.3073 24.5699C60.3073 25.968 60.5889 27.1418 61.1462 28.2107C61.7044 29.2835 62.4782 30.1379 63.4462 30.7515C64.4151 31.3661 65.5209 31.6787 66.7326 31.6787C67.6471 31.6787 68.483 31.4806 69.2151 31.0894C69.7794 30.7921 70.2728 30.3765 70.6617 29.8709V31.4476C70.6617 32.4253 70.4054 33.1758 69.9005 33.6758C69.3937 34.1758 68.6229 34.4282 67.6093 34.4282C66.7355 34.4282 66.0491 34.2301 65.5685 33.8389C65.1753 33.5185 64.8316 33.0991 64.752 32.2097H60.7869C60.8238 33.4544 61.1889 34.2923 61.7054 35.0272C62.2831 35.8496 63.0966 36.4932 64.1258 36.9379C65.1432 37.3767 66.3258 37.6 67.6364 37.6C69.8384 37.6 71.5908 37.0466 72.8452 35.9563C74.1073 34.8602 74.7462 33.3253 74.7462 31.3952V17.7253H70.9636L70.9627 19.369ZM70.2394 26.4942C70.001 27.0075 69.6211 27.442 69.1442 27.7466C68.6782 28.0379 68.1151 28.1874 67.4724 28.1874C66.5403 28.1874 65.817 27.8699 65.2588 27.2185C64.7015 26.569 64.419 25.6777 64.419 24.569C64.419 23.4602 64.7005 22.569 65.2578 21.9195C65.8102 21.2767 66.5549 20.9505 67.4714 20.9505C68.3889 20.9505 69.1986 21.2806 69.7685 21.934C70.3432 22.5932 70.6345 23.4884 70.6345 24.5942C70.6345 25.3117 70.5015 25.9496 70.2394 26.4932V26.4942ZM100.469 21.1903V17.7263H97.5015V12.8398H93.417V17.7263H90.8821V21.1903H93.417V26.8602C93.417 30.0127 94.0384 32.3292 97.9083 32.2573L100.338 32.2088V28.9631H99.1326C97.4122 28.9631 97.5083 27.9602 97.5083 26.0971L97.5015 21.1913L100.469 21.1903ZM59.3083 21.1903V17.7263H56.3403V12.8398H52.2559V17.7263H49.7199V21.1903H52.2539V26.8602C52.2539 30.0127 52.8753 32.3292 56.7462 32.2573L59.1753 32.2088V28.9631H57.9724C56.252 28.9631 56.3471 27.9602 56.3471 26.0971L56.3403 21.1913L59.3083 21.1903ZM10.7199 16.3311H16.8879L23.1976 22.6C23.6083 23.0078 23.6102 23.6719 23.2015 24.0816L15.1093 32.2146H8.75684L10.6782 30.3466L17.7306 23.3389L10.7675 16.3301" fill="black"/>
<path d="M13.2537 23.321H7.08766L0.776981 17.0521C0.679325 16.9551 0.601748 16.8398 0.548691 16.7129C0.495634 16.5859 0.468138 16.4497 0.467777 16.3121C0.467416 16.1745 0.494198 16.0381 0.546589 15.9109C0.598979 15.7836 0.675951 15.668 0.773097 15.5705L8.86533 7.4375H15.2187L13.2983 9.30546L6.24494 16.3132L13.209 23.321" fill="black"/>
</g>
</g>
<defs>
<clipPath id="clip0_9798_2009">
<rect width="100" height="31.068" fill="white" transform="translate(0.466797 6.46484)"/>
</clipPath>
</defs>
</svg>
