<svg width="111" height="44" viewBox="0 0 111 44" fill="none" xmlns="http://www.w3.org/2000/svg">
<path d="M38.3857 29.0618V14.6992H42.7203L45.3261 24.4978L47.9089 14.6992H52.2588V29.0618H49.5637V17.7564L46.7131 29.0618H43.9211L41.0782 17.7564V29.0618H38.3857Z" fill="#0056FF"/>
<path d="M57.1769 21.8308L54.6808 21.3821C54.8856 20.4896 55.3983 19.6978 56.129 19.146C56.809 18.6632 57.8288 18.4219 59.1887 18.4219C60.4176 18.4219 61.3321 18.5671 61.9322 18.8578C62.4629 19.0834 62.9091 19.4706 63.207 19.9644C63.4518 20.4132 63.5742 21.235 63.5742 22.43L63.5462 25.6426C63.5282 26.3201 63.5727 26.9978 63.6787 27.6671C63.7833 28.1513 63.9495 28.62 64.1733 29.0618H61.4401C61.3686 28.8808 61.2794 28.6105 61.1851 28.251C61.1392 28.0878 61.1086 27.9782 61.0882 27.9272C60.6523 28.3573 60.1405 28.7031 59.5787 28.9471C59.0372 29.1778 58.454 29.2949 57.8653 29.2913C56.7928 29.2913 55.948 29.0006 55.3309 28.4193C55.0288 28.1386 54.79 27.7966 54.6303 27.4163C54.4708 27.0361 54.394 26.6261 54.4054 26.2137C54.3961 25.6604 54.5418 25.1154 54.8261 24.6406C55.108 24.1803 55.5183 23.8125 56.0066 23.5825C56.7075 23.279 57.4431 23.0633 58.1969 22.94C59.1075 22.7987 60.0029 22.5725 60.8715 22.2642V21.9991C60.8715 21.4688 60.7414 21.0914 60.4813 20.867C60.2264 20.6401 59.7164 20.5279 59 20.5279C58.5975 20.5043 58.1976 20.6059 57.8552 20.8186C57.5295 21.0774 57.2924 21.4312 57.1769 21.8308ZM60.8612 24.0669C60.3103 24.2352 59.7512 24.3756 59.1861 24.4876C58.6647 24.5693 58.159 24.731 57.6868 24.9669C57.5223 25.0701 57.3866 25.2133 57.2925 25.3833C57.1984 25.5532 57.149 25.7442 57.1489 25.9384C57.1475 26.1258 57.1851 26.3114 57.2593 26.4834C57.3334 26.6555 57.4426 26.8103 57.5798 26.9379C57.7251 27.0778 57.897 27.1872 58.0853 27.2595C58.2737 27.3317 58.4746 27.3654 58.6761 27.3586C59.1907 27.3527 59.6897 27.1811 60.0989 26.8691C60.4122 26.6456 60.6426 26.3246 60.7542 25.9563C60.8451 25.5154 60.8811 25.0648 60.8612 24.6151V24.0669Z" fill="#0056FF"/>
<path d="M68.9158 29.0621H66.1621V18.6567H68.7118V20.1355C69.1504 19.4369 69.543 18.9779 69.8949 18.7561C70.2502 18.5319 70.663 18.4159 71.0831 18.4221C71.7227 18.4227 72.3498 18.5992 72.8959 18.932L72.0443 21.3313C71.666 21.0593 71.217 20.9026 70.7516 20.88C70.3982 20.87 70.0522 20.9825 69.7725 21.1987C69.4475 21.5082 69.2265 21.9109 69.1402 22.3512C68.9838 22.907 68.9065 24.0697 68.9081 25.8392L68.9158 29.0621Z" fill="#0056FF"/>
<path d="M73.1182 26.0955L75.8821 25.6748C75.9656 26.1538 76.2191 26.5865 76.596 26.8936C77.0387 27.1968 77.5698 27.344 78.1054 27.3118C78.8168 27.3118 79.3522 27.1791 79.7119 26.9191C79.828 26.8356 79.9219 26.7251 79.9851 26.5971C80.049 26.4692 80.0798 26.3276 80.0767 26.1848C80.0798 25.9958 80.0088 25.813 79.8801 25.6748C79.6038 25.4855 79.2882 25.3617 78.957 25.3128C76.7354 24.8232 75.3279 24.3753 74.7347 23.9691C74.3438 23.7193 74.0246 23.3722 73.8083 22.9619C73.5919 22.5516 73.4859 22.092 73.5007 21.6284C73.4954 21.1933 73.5888 20.7625 73.7738 20.3687C73.9588 19.9747 74.2307 19.6279 74.569 19.354C75.2812 18.7421 76.3861 18.4353 77.8836 18.4336C79.3064 18.4336 80.3648 18.6656 81.058 19.1297C81.7677 19.6202 82.2761 20.3511 82.4885 21.1874L79.8903 21.6666C79.7996 21.2908 79.5754 20.9603 79.2604 20.736C78.8601 20.4975 78.3973 20.3848 77.9321 20.4122C77.2054 20.4122 76.6878 20.5142 76.3742 20.7156C76.2785 20.7741 76.1994 20.8562 76.1445 20.9539C76.0896 21.0516 76.0607 21.1619 76.0605 21.274C76.0602 21.3749 76.085 21.4744 76.1326 21.5634C76.1802 21.6524 76.2492 21.7282 76.3334 21.784C76.5832 21.9675 77.4408 22.2225 78.906 22.5489C80.3711 22.8753 81.3951 23.2832 81.9785 23.7727C82.2659 24.0261 82.4932 24.3411 82.6425 24.6942C82.7917 25.0473 82.8596 25.4296 82.8406 25.8125C82.839 26.2859 82.7309 26.7528 82.524 27.1785C82.3172 27.6041 82.0164 27.9775 81.6446 28.2704C80.8488 28.9504 79.6701 29.2904 78.108 29.2904C76.6904 29.2904 75.5685 29.0031 74.7424 28.4286C73.9323 27.8773 73.3539 27.0466 73.1182 26.0955Z" fill="#0056FF"/>
<path d="M85.2803 14.6992H91.0221C91.8747 14.6807 92.7274 14.7276 93.5721 14.8395C94.109 14.9269 94.6205 15.1296 95.0713 15.4335C95.5237 15.7471 95.9011 16.1573 96.1758 16.6345C96.4719 17.1442 96.6242 17.725 96.6163 18.3147C96.6211 18.9727 96.4292 19.6172 96.0661 20.1659C95.7108 20.7264 95.1976 21.1698 94.5921 21.4407C95.3887 21.6444 96.0976 22.1017 96.6116 22.7436C97.0829 23.3654 97.3308 24.1281 97.315 24.9083C97.3134 25.5706 97.1579 26.2235 96.8611 26.8155C96.5784 27.4065 96.149 27.9155 95.6145 28.2944C95.0358 28.6837 94.3671 28.918 93.6716 28.9751C93.1869 29.0278 92.0208 29.0601 90.1734 29.072H85.2803V14.6992ZM88.1824 17.0883V20.4029H90.0819C91.2108 20.4029 91.915 20.3876 92.1874 20.3545C92.6255 20.3238 93.0392 20.1438 93.3605 19.8445C93.5034 19.6959 93.6147 19.5199 93.6882 19.3271C93.7616 19.1343 93.7947 18.9288 93.7861 18.7227C93.8034 18.3283 93.6724 17.9418 93.419 17.6391C93.1308 17.3389 92.7408 17.157 92.3255 17.1292C92.0382 17.0951 91.2124 17.0782 89.8474 17.0782L88.1824 17.0883ZM88.1824 22.8022V26.6319H90.8666C91.5313 26.6531 92.1961 26.6241 92.8561 26.5452C93.2619 26.48 93.6337 26.2775 93.9084 25.9716C94.1926 25.6297 94.3371 25.1938 94.3142 24.7503C94.3261 24.361 94.2163 23.9778 94.0008 23.6538C93.7782 23.3426 93.4608 23.1125 93.0953 22.9986C92.6958 22.8711 91.8384 22.8074 90.5224 22.8074L88.1824 22.8022Z" fill="#0056FF"/>
<path d="M99.7422 17.245V14.6953H102.496V17.245H99.7422ZM99.7422 29.0604V18.655H102.496V29.0604H99.7422Z" fill="#0056FF"/>
<path d="M110.089 18.6585V20.8539H108.207V25.0481C108.19 25.5434 108.208 26.0393 108.261 26.5321C108.301 26.6758 108.391 26.8002 108.516 26.8813C108.653 26.9738 108.815 27.021 108.98 27.0165C109.361 26.9914 109.736 26.9053 110.089 26.7615L110.324 28.8957C109.635 29.1805 108.894 29.321 108.149 29.3087C107.689 29.3136 107.232 29.2269 106.805 29.0537C106.458 28.9245 106.154 28.7001 105.928 28.4061C105.721 28.0817 105.588 27.7149 105.541 27.3327C105.465 26.6889 105.436 26.0404 105.454 25.3923V20.8539H104.179V18.6585H105.454V16.5907L108.218 14.9844V18.6585H110.089Z" fill="#0056FF"/>
<path d="M15.4512 37C23.7354 37 30.4512 30.2843 30.4512 22C30.4512 13.7157 23.7354 7 15.4512 7C7.1669 7 0.451172 13.7157 0.451172 22C0.451172 30.2843 7.1669 37 15.4512 37Z" fill="#0056FF"/>
<path d="M33.1151 12.5156H27.0901L15.7362 22.7145C15.6763 22.7685 15.6008 22.8021 15.5206 22.8103C15.4404 22.8186 15.3597 22.8011 15.29 22.7604L9.81834 19.6089C9.74871 19.5683 9.66794 19.5507 9.58773 19.559C9.50752 19.5672 9.43197 19.6008 9.37213 19.6549L1.2793 26.919C1.78525 28.3713 2.51195 29.7369 3.43381 30.968L9.97126 25.1036C10.0313 25.049 10.1074 25.0151 10.1881 25.0068C10.2689 24.9986 10.3501 25.0164 10.4201 25.0577L15.8764 28.2219C15.9479 28.2608 16.0298 28.276 16.1104 28.2655C16.191 28.2549 16.2661 28.2192 16.3252 28.1633L29.3849 16.4345L33.2809 12.9338C33.3107 12.8985 33.3304 12.8559 33.3379 12.8103C33.3454 12.7647 33.3403 12.718 33.3233 12.675C33.3063 12.6321 33.2779 12.5946 33.2412 12.5665C33.2046 12.5384 33.161 12.5208 33.1151 12.5156Z" fill="#2DD2FF"/>
</svg>
