<svg width="101" height="44" viewBox="0 0 101 44" fill="none" xmlns="http://www.w3.org/2000/svg">
<path fill-rule="evenodd" clip-rule="evenodd" d="M61.0878 13.092C61.1836 13.3181 61.3241 13.522 61.5014 13.6909C61.6686 13.8696 61.8706 14.0116 62.095 14.1078C62.3194 14.2041 62.5609 14.2526 62.8048 14.2502C63.043 14.2511 63.2789 14.2014 63.4971 14.1045C63.7153 14.0075 63.9106 13.8654 64.0707 13.6875C64.2436 13.516 64.3808 13.3114 64.4737 13.0856C64.5666 12.8598 64.6138 12.6175 64.6119 12.3731C64.6014 11.8931 64.408 11.4356 64.0711 11.0962C63.7343 10.7567 63.2808 10.5613 62.8048 10.5508C62.5623 10.5495 62.3222 10.5971 62.0983 10.6908C61.8744 10.7845 61.6714 10.9225 61.5014 11.0964C61.3256 11.2593 61.1855 11.4573 61.0902 11.6776C60.9949 11.898 60.9459 12.136 60.9463 12.3765C60.9444 12.6223 60.9926 12.8658 61.0878 13.092ZM64.4041 17.1226H61.0007L61.0283 32.8332H64.4313L64.4041 17.1226ZM5.81704 32.9142C7.08468 33.3005 8.40506 33.481 9.72877 33.4489C11.4962 33.4338 13.2546 33.1927 14.9619 32.7312L13.6214 29.0956C13.0982 29.2778 12.0886 29.4835 11.4662 29.6103L11.4041 29.6229C10.7341 29.7595 10.0731 29.7622 9.39104 29.7649L9.32201 29.7652C8.27209 29.809 7.23013 29.5643 6.30713 29.0571C5.5057 28.6043 4.80353 27.7999 4.80353 26.6776V18.1112C4.78515 17.6004 4.96563 17.1073 5.23581 16.5625C5.48764 16.0546 5.78812 15.7487 6.1159 15.415L6.18788 15.3416C6.59445 14.9602 7.07329 14.6658 7.59554 14.4763C8.11778 14.2867 8.67261 14.2058 9.22663 14.2385C10.518 14.2777 12.3314 14.5586 13.5213 15.067L14.8283 11.9709C13.0043 11.0862 11.0126 10.6098 8.98938 10.5741C7.91917 10.5366 6.85243 10.7168 5.85258 11.1041C4.85279 11.4914 3.94032 12.0778 3.16949 12.8283C1.6525 14.3408 0.913086 16.5613 0.913086 19.4513V25.0918C0.916266 27.2914 1.30585 29.0014 2.08183 30.2217C2.98852 31.5209 4.30563 32.4703 5.81704 32.9142ZM22.3385 33.2107C24.275 33.1901 25.7011 32.6239 26.6574 31.4742C27.6013 30.3303 28.0732 28.8741 28.0732 27.1056V22.9635C28.0732 21.0589 27.5627 19.5626 26.5485 18.4679C25.5343 17.3732 24.1151 16.8275 22.3113 16.8275C20.4224 16.8412 18.9793 17.3594 17.9787 18.4267C16.9781 19.4791 16.4778 21.0005 16.4778 22.9909V27.1365C16.4269 28.7178 16.9566 30.2623 17.9651 31.4742C18.9351 32.6376 20.4019 33.2313 22.3385 33.2107ZM22.3113 20.3313C22.9111 20.3117 23.501 20.4887 23.9926 20.8358V20.8186C24.4486 21.1412 24.6732 21.8688 24.7073 22.9944V27.4556C24.7313 27.7868 24.6827 28.1193 24.565 28.4295C24.4474 28.7396 24.2636 29.0199 24.0266 29.2505C23.5564 29.6627 22.9474 29.8776 22.3249 29.8511C21.6946 29.8784 21.075 29.6803 20.5755 29.2916C20.1297 28.9142 19.8949 28.3102 19.8949 27.4694V23.0081C19.8812 21.2305 20.7015 20.3313 22.3113 20.3313ZM31.1703 13.7492C30.9932 13.5796 30.8526 13.375 30.7572 13.1484C30.6618 12.9217 30.6136 12.6777 30.6155 12.4314C30.6147 12.1919 30.6637 11.9549 30.7592 11.7356C30.8548 11.5163 30.9948 11.3196 31.1703 11.1582C31.341 10.984 31.5446 10.8459 31.769 10.7522C31.9934 10.6585 32.2342 10.611 32.4772 10.6125C32.7139 10.612 32.9482 10.6601 33.1659 10.7539C33.3836 10.8478 33.58 10.9853 33.7432 11.1582C33.9153 11.3216 34.0521 11.519 34.1452 11.738C34.2383 11.9571 34.2856 12.1931 34.2844 12.4314C34.2857 12.6763 34.2385 12.9191 34.1456 13.1454C34.0527 13.3716 33.9159 13.5769 33.7432 13.7492C33.5831 13.9261 33.3881 14.0673 33.1706 14.1636C32.9531 14.26 32.7181 14.3094 32.4806 14.3086C32.2362 14.308 31.9944 14.2583 31.7694 14.1622C31.5444 14.0662 31.3407 13.9257 31.1703 13.7492ZM30.6699 17.1809H34.0734L34.1006 32.895H30.6972L30.6699 17.1809ZM45.3351 20.959C45.8254 21.5113 46.0798 22.2365 46.043 22.9768L46.0396 32.8603H49.4429V22.0091C49.481 21.0088 49.2356 20.0183 48.7349 19.1539C48.2764 18.4 47.5976 17.8078 46.7917 17.4586C45.9389 17.0635 45.0072 16.872 44.069 16.8992C43.1435 16.8991 42.2241 17.0497 41.3463 17.3453L40.9447 17.1634H37.9327L37.9599 32.8775H41.3633V20.7633C42.0046 20.4132 42.7174 20.2171 43.4462 20.1903C43.7975 20.1724 44.1485 20.232 44.4746 20.3648C44.8008 20.4975 45.0944 20.7003 45.3351 20.959ZM52.1556 28.7045L52.1217 10.8903H55.6067V17.1361H58.5881L57.8497 20.3619H55.6405V28.7079C55.6405 29.4218 55.8349 29.8954 56.2399 30.1356C56.7572 30.4046 57.3361 30.5302 57.9178 30.4994L56.8968 33.2447C53.7382 33.183 52.1694 31.6867 52.1556 28.7045ZM84.7503 23.255C84.7503 22.1225 84.5969 21.3093 84.2906 20.8048C84.1419 20.557 83.928 20.3553 83.6727 20.2221C83.4173 20.0889 83.131 20.0293 82.8442 20.0498C82.1815 20.0937 81.5298 20.2443 80.9142 20.4959L80.3868 20.7224C80.4326 20.8632 80.4659 21.008 80.4855 21.1548C80.4855 21.2407 80.4926 21.323 80.4998 21.4035C80.5064 21.4807 80.5126 21.5562 80.5126 21.6318V32.7919H77.1096V23.3545C77.1096 22.3044 76.8747 21.5048 76.3878 20.9523C76.1501 20.6745 75.8528 20.4545 75.5184 20.3089C75.1844 20.1633 74.8219 20.0958 74.4584 20.1116C73.6566 20.1336 72.8752 20.3704 72.1949 20.7979V32.8091H68.7914L68.7643 17.0985H71.7762L72.1811 17.3215C72.9162 16.9979 73.7109 16.8364 74.5127 16.8479C75.2097 16.8431 75.9014 16.9664 76.5546 17.2117C77.2211 17.446 77.8209 17.8393 78.304 18.3579C78.5965 18.1898 79.0257 17.9667 79.6108 17.6716C80.7165 17.1347 81.9238 16.8433 83.1505 16.8171C83.8127 16.7915 84.4735 16.8998 85.0933 17.1355C85.7136 17.3712 86.281 17.7297 86.7617 18.1898C87.6941 19.1049 88.1614 20.3632 88.1638 21.9647V32.8159H84.7603L84.7503 23.255ZM93.2657 28.8576C93.1819 28.6215 93.1471 28.3706 93.1633 28.1204V27.2453L100.913 26.8335V22.0702C100.899 20.4333 100.423 19.1155 99.4562 18.2061C98.4896 17.2967 97.149 16.8334 95.4267 16.8334C93.7045 16.8334 92.3296 17.307 91.2743 18.2473C90.2195 19.1876 89.7055 20.5019 89.7055 22.1972V28.6249C89.7055 30.1521 90.1647 31.3017 91.0671 32.0567C91.9689 32.8116 93.1771 33.1891 94.7188 33.1891C95.6849 33.187 96.6468 33.0601 97.5811 32.8116C98.4839 32.577 99.3457 32.2044 100.137 31.7066L98.8845 28.721C97.2881 29.5618 96.0256 29.9839 95.0661 29.9839C94.8093 30.0017 94.552 29.9674 94.3086 29.8832C94.0656 29.7988 93.8417 29.6663 93.6502 29.4931C93.4801 29.3099 93.3496 29.0937 93.2657 28.8576ZM95.3857 20.1793C95.917 20.1641 96.4358 20.3433 96.846 20.6838C97.0489 20.8594 97.209 21.08 97.3133 21.3282C97.4176 21.5764 97.4639 21.8456 97.4481 22.1149V23.7655L93.1566 24.0606V22.1835C93.1647 21.6772 93.3519 21.1905 93.684 20.8108C94.0246 20.3921 94.5963 20.1793 95.3857 20.1793Z" fill="#38C100"/>
</svg>
