<svg width="125" height="36" viewBox="0 0 125 36" fill="none" xmlns="http://www.w3.org/2000/svg">
<g clip-path="url(#clip0_671_321)">
<path d="M46.1186 12.8162H41.7616V23.1854H44.0085V15.0631H44.6547L48.2432 23.1854H50.6999L46.1186 12.8162Z" fill="black"/>
<path d="M85.3363 23.1854H87.5832V12.8162H85.3363V23.1854Z" fill="black"/>
<path d="M55.2807 12.8162L50.6998 23.1854H53.1561L56.7446 15.0631H57.3908V23.1854H59.6377V12.8162H55.2807Z" fill="black"/>
<path d="M69.6859 12.8162H65.5753L60.994 23.1854H63.4507L64.9432 19.8067H70.318L71.8106 23.1854H74.2672L69.6859 12.8162ZM65.936 17.5598L67.0391 15.0631H68.2221L69.3251 17.5598H65.936Z" fill="black"/>
<path d="M80.7551 12.8162H75.5663V23.1854H77.8132V15.0631H79.2912L82.8797 23.1854H85.3363L80.7551 12.8162Z" fill="black"/>
<path d="M88.8313 12.8162V15.0631H94.0742V23.1854H96.3215V15.0631H101.564V12.8162H88.8313Z" fill="black"/>
<path d="M105.06 12.8162H102.812V23.1854H112.591V20.9385H105.06V12.8162Z" fill="black"/>
<path d="M124.45 15.0631V12.8162H113.839V23.1854H124.45V20.9385H116.086V18.9745H123.337V16.7276H116.086V15.0631H124.45Z" fill="black"/>
<path d="M7.01545 13.0908L2.03096 10.553C1.64107 11.319 1.30902 12.1221 1.0448 12.9401L6.36716 14.6611C6.54109 14.1231 6.7587 13.5947 7.01545 13.0908Z" fill="black"/>
<path d="M11.2495 8.61828L14.0104 13.3752C14.4136 13.1414 14.8451 12.9615 15.294 12.8408L13.8652 7.52934C14.2288 7.43156 14.5983 7.35084 14.9699 7.29216L14.0919 1.76758C13.2427 1.90239 12.3988 2.10587 11.5832 2.37176L13.2905 7.60424C12.7475 7.7815 12.2186 8.00162 11.7093 8.2621L9.19982 3.36375C8.43669 3.75488 7.69853 4.20926 7.00488 4.71566L10.3025 9.23374C10.6062 9.01234 10.9241 8.80761 11.2495 8.61828Z" fill="black"/>
<path d="M26.0647 12.5595L21.3094 15.3228C21.5437 15.7256 21.7234 16.1575 21.8446 16.6057L27.1557 15.1742C27.2535 15.5379 27.3342 15.907 27.3933 16.2782L32.917 15.3985C32.7818 14.5497 32.5779 13.7054 32.3112 12.8895L27.0795 14.6C26.9019 14.0571 26.6817 13.5286 26.4208 13.0193L31.3175 10.5065C30.9264 9.74417 30.4712 9.00599 29.9648 8.31274L25.448 11.6125C25.6698 11.9162 25.8754 12.2337 26.0647 12.5595Z" fill="black"/>
<path d="M24.1255 3.34136C23.3586 2.95189 22.5556 2.62025 21.7384 2.35645L20.0203 7.67965C20.5578 7.85316 21.0863 8.07119 21.591 8.32751L24.1255 3.34136Z" fill="black"/>
<path d="M22.1395 8.52067L19.347 13.367C19.7515 13.6 20.1243 13.8855 20.4559 14.2158L28.2878 6.35735C27.6803 5.75192 27.0204 5.18977 26.3263 4.68628L23.0961 9.14107C22.7882 8.91804 22.469 8.71083 22.1395 8.52067Z" fill="black"/>
<path d="M7.20969 12.5418L12.0548 15.3372C12.2878 14.9332 12.5741 14.5599 12.9049 14.2278L5.04971 6.39307C4.44387 7.00058 3.88129 7.6601 3.37781 8.35373L7.83094 11.586C7.60791 11.8935 7.39985 12.2123 7.20969 12.5418Z" fill="black"/>
<path d="M18.3816 7.19807L19.2267 1.76002C18.3916 1.6302 17.5369 1.56445 16.686 1.56445H16.6731V12.6594H16.686C17.1537 12.6594 17.6164 12.7193 18.0616 12.8375L19.4963 7.43108C19.1293 7.33371 18.7573 7.25674 18.3816 7.19807Z" fill="black"/>
<path d="M11.5235 16.6216L6.11787 15.1831C6.02009 15.5501 5.9427 15.9221 5.88403 16.2978L0.446817 15.4502C0.31616 16.2883 0.25 17.1463 0.25 17.9997H11.3449C11.3449 17.5312 11.405 17.0673 11.5235 16.6216Z" fill="black"/>
<path d="M26.3567 22.9103L31.3411 25.4481C31.731 24.682 32.063 23.8789 32.3272 23.0609L27.0049 21.3398C26.8309 21.8779 26.6134 22.4063 26.3567 22.9103Z" fill="black"/>
<path d="M22.1224 27.3816L19.3616 22.6248C18.9584 22.8586 18.5269 23.0383 18.0779 23.159L19.5068 28.4705C19.1427 28.5684 18.7736 28.6491 18.4021 28.7078L19.2796 34.2319C20.1289 34.0971 20.9727 33.8936 21.7883 33.6277L20.081 28.3952C20.6244 28.218 21.1529 27.9978 21.6622 27.7374L24.1717 32.6357C24.9348 32.2446 25.673 31.7902 26.3666 31.2838L23.069 26.7657C22.7653 26.9871 22.4478 27.1923 22.1224 27.3816Z" fill="black"/>
<path d="M7.30769 23.4419L12.0634 20.6786C11.8291 20.2758 11.6493 19.8439 11.5282 19.3958L6.21709 20.8271C6.1193 20.4634 6.03858 20.0943 5.9795 19.7232L0.455322 20.6028C0.590556 21.4517 0.794446 22.296 1.06117 23.1119L6.29282 21.4013C6.47049 21.9444 6.69061 22.4729 6.95152 22.9822L2.05482 25.495C2.44595 26.2573 2.90117 26.9954 3.40757 27.6886L7.92436 24.389C7.70257 24.0852 7.49701 23.7677 7.30769 23.4419Z" fill="black"/>
<path d="M9.24658 32.6593C10.0134 33.0488 10.8165 33.3804 11.6338 33.6442L13.3519 28.321C12.8142 28.1475 12.2858 27.9294 11.781 27.6731L9.24658 32.6593Z" fill="black"/>
<path d="M11.2326 27.4805L14.0252 22.6342C13.6207 22.4012 13.2478 22.1157 12.9162 21.7854L5.08435 29.6438C5.69186 30.2493 6.3518 30.8114 7.04586 31.315L10.276 26.8601C10.584 27.0832 10.9031 27.2903 11.2326 27.4805Z" fill="black"/>
<path d="M26.1622 23.4594L21.3171 20.6641C21.0841 21.0681 20.7978 21.4413 20.467 21.7733L28.3218 29.6085C28.9277 29.001 29.4902 28.3415 29.9937 27.6479L25.5405 24.4156C25.7636 24.1081 25.9721 23.789 26.1622 23.4594Z" fill="black"/>
<path d="M15.3104 23.1626L13.8757 28.5691C14.2428 28.6664 14.6147 28.7434 14.9905 28.8021L14.1458 34.2401C14.9809 34.3699 15.8356 34.4356 16.6865 34.4356H16.6994V23.3407H16.6865C16.2188 23.3407 15.7557 23.2808 15.3104 23.1626Z" fill="black"/>
<path d="M22.0272 18.001C22.0272 18.4695 21.9669 18.933 21.8483 19.3791L27.2538 20.8175C27.3517 20.4505 27.4291 20.0785 27.4877 19.7028L32.9254 20.5509C33.056 19.7128 33.1221 18.8548 33.1221 18.0013L22.0272 18.001Z" fill="black"/>
</g>
<defs>
<clipPath id="clip0_671_321">
<rect width="124.2" height="36" fill="white" transform="translate(0.25)"/>
</clipPath>
</defs>
</svg>
