<svg width="107" height="20" viewBox="0 0 107 20" fill="none" xmlns="http://www.w3.org/2000/svg">
<g clip-path="url(#clip0_671_347)">
<path d="M9.99059 0C7.10553 0 0 7.10532 0 9.99051C0 12.8757 7.10553 19.9812 9.99059 19.9812C12.8756 19.9812 19.9813 12.8756 19.9813 9.99051C19.9813 7.10545 12.8757 0 9.99059 0ZM8.43372 15.7035C7.21713 15.3719 3.94619 9.65024 4.27776 8.43364C4.60934 7.21698 10.3309 3.94614 11.5475 4.27771C12.7642 4.60924 16.0351 10.3308 15.7036 11.5475C15.372 12.7642 9.65032 16.035 8.43372 15.7035Z" fill="#836EF9"/>
<path d="M33.9464 12.205V12.2013L28.2696 1.73113C28.158 1.52504 27.8492 1.57439 27.8072 1.80505L24.9802 17.3549C24.9524 17.5074 25.0695 17.6476 25.2243 17.6476H27.4116C27.5317 17.6476 27.6345 17.5617 27.6559 17.4437L29.3022 8.37059L33.7276 16.8069C33.8205 16.9842 34.0743 16.9842 34.1672 16.8069L38.5924 8.37059L40.2388 17.4437C40.2603 17.5617 40.3631 17.6476 40.4831 17.6476H42.6703C42.8252 17.6476 42.9424 17.5074 42.9146 17.3549L40.0876 1.80505C40.0456 1.57439 39.7368 1.52504 39.625 1.73113L33.9464 12.205Z" fill="black"/>
<path d="M52.1118 2.02393C47.6089 2.02393 44.0815 5.52308 44.0815 9.99097C44.0815 14.4589 47.6089 17.9599 52.1118 17.9599C56.6032 17.9599 60.1218 14.4598 60.1218 9.99097C60.1218 5.5221 56.6032 2.02393 52.1118 2.02393ZM52.1118 15.2923C49.1755 15.2923 46.8748 12.9634 46.8748 9.99097C46.8748 7.01854 49.1755 4.69161 52.1118 4.69161C55.0366 4.69161 57.3285 7.01951 57.3285 9.99097C57.3285 12.9625 55.0366 15.2923 52.1118 15.2923Z" fill="black"/>
<path d="M72.4984 11.8186L63.0824 1.68379C62.9289 1.5185 62.6523 1.62716 62.6523 1.85276V17.3993C62.6523 17.5364 62.7634 17.6475 62.9005 17.6475H65.1768C65.314 17.6475 65.4252 17.5364 65.4252 17.3993V8.1461L74.8203 18.3C74.9737 18.4658 75.2507 18.3572 75.2507 18.1314V2.58483C75.2507 2.44772 75.1396 2.33657 75.0025 2.33657H72.7467C72.6096 2.33657 72.4984 2.44772 72.4984 2.58483V11.8186Z" fill="black"/>
<path d="M77.6648 17.6476H80.109C80.2058 17.6476 80.2938 17.5913 80.3344 17.5033L82.1653 13.538H88.0207L89.8104 17.5015C89.8505 17.5904 89.9391 17.6476 90.0367 17.6476H92.6887C92.8718 17.6476 92.9919 17.4561 92.9122 17.2913L85.4003 1.74571C85.31 1.55872 85.0436 1.55872 84.9532 1.74571L77.4413 17.2913C77.3616 17.4561 77.4818 17.6476 77.6648 17.6476ZM83.3133 11.0776L85.133 7.12867L86.9185 11.0776H83.3133Z" fill="black"/>
<path d="M98.8452 2.33643H95.089C94.9519 2.33643 94.8408 2.44758 94.8408 2.58468V17.3991C94.8408 17.5362 94.9519 17.6474 95.089 17.6474H98.8452C103.502 17.6474 106.396 14.7139 106.396 9.99093C106.396 5.26796 103.502 2.33643 98.8452 2.33643ZM98.8452 15.0206H97.6341V4.94278H98.8452C101.868 4.94278 103.602 6.7829 103.602 9.99093C103.602 13.1873 101.868 15.0206 98.8452 15.0206Z" fill="black"/>
</g>
<defs>
<clipPath id="clip0_671_347">
<rect width="106.474" height="20" fill="white"/>
</clipPath>
</defs>
</svg>
