<svg width="99" height="30" viewBox="0 0 99 30" fill="none" xmlns="http://www.w3.org/2000/svg">
<path fill-rule="evenodd" clip-rule="evenodd" d="M12.626 1.10442C12.5324 0.55194 13.3102 0.328631 13.524 0.8466L13.9408 1.85658C13.9538 1.8881 13.9637 1.92003 13.9707 1.95206C14.9702 1.71108 15.9771 1.58972 16.9742 1.58032C16.9731 1.54735 16.975 1.51376 16.98 1.4798L17.139 0.401535C17.2207 -0.152813 18.0295 -0.12483 18.0727 0.433841L18.1568 1.52052C18.1594 1.55487 18.159 1.58862 18.1557 1.62156C19.1697 1.702 20.1661 1.89749 21.1263 2.1997C21.1355 2.16803 21.1477 2.13667 21.1629 2.10593L21.6483 1.12767C21.8973 0.625705 22.6579 0.902242 22.5263 1.44693L22.27 2.5085C22.262 2.54184 22.2512 2.57367 22.2379 2.60386C23.1709 2.99012 24.0601 3.48075 24.8866 4.0673C24.9048 4.041 24.9254 4.01585 24.9486 3.99213L25.7125 3.21171C26.1045 2.81128 26.7424 3.3093 26.449 3.78668L25.8772 4.71704C25.8601 4.74474 25.8412 4.77039 25.8205 4.79395C26.6604 5.50902 27.418 6.33292 28.0693 7.2549C28.0677 7.16594 28.0672 7.0776 28.0667 6.99078L28.0666 6.97543C28.0647 6.53333 28.4645 6.1935 28.9175 6.13016C29.134 6.10144 29.3539 6.14535 29.5428 6.25504C29.7317 6.36472 29.8789 6.53398 29.9613 6.73627C30.2192 7.39217 30.2626 8.11286 30.0856 8.79503C30.0711 8.85651 30.0541 8.91796 30.035 8.9876L30.0348 8.98784C30.0275 9.01435 30.0198 9.04205 30.0118 9.07138C30.674 9.44461 31.1932 10.0275 31.4877 10.7283C31.7243 11.2925 31.4999 11.8689 30.9785 12.0977C30.7098 12.2132 30.4466 12.1828 30.2057 12.0566C30.4187 12.9944 30.527 13.9378 30.5366 14.8726C30.5646 14.8724 30.593 14.8744 30.6217 14.8787L31.6999 15.0376C32.2542 15.1194 32.2262 15.9281 31.6675 15.9714L30.5809 16.0554C30.5523 16.0577 30.5243 16.0577 30.4965 16.0558C30.417 17.0711 30.2219 18.069 29.9199 19.0306C29.9454 19.039 29.9707 19.0493 29.9955 19.0617L30.9738 19.547C31.4757 19.796 31.1991 20.5565 30.6544 20.425L29.5931 20.1687C29.5662 20.1623 29.5405 20.154 29.5157 20.1442C29.1293 21.0788 28.6382 21.9695 28.0509 22.7974C28.0712 22.8125 28.0907 22.8292 28.1093 22.8474L28.8897 23.6112C29.2901 24.0032 28.7921 24.641 28.3147 24.3476L27.3844 23.7759C27.3628 23.7626 27.3424 23.7481 27.3233 23.7326C26.6724 24.4971 25.9313 25.1935 25.1081 25.8036C25.1221 25.8236 25.135 25.8447 25.1466 25.8669L25.6517 26.8325C25.9114 27.329 25.2406 27.7818 24.8773 27.3552L24.1707 26.5257C24.1543 26.5065 24.1395 26.4865 24.1262 26.466C23.4306 26.8915 22.6863 27.2594 21.897 27.561C21.7244 27.627 21.5512 27.6892 21.3776 27.7476C21.3846 27.7705 21.3902 27.7942 21.3943 27.8185L21.5767 28.8956C21.6703 29.4481 20.8925 29.6714 20.6787 29.1534L20.262 28.1435C20.2528 28.1212 20.2451 28.0987 20.2389 28.0761C19.2371 28.318 18.228 28.4397 17.2287 28.4489C17.2282 28.4725 17.2262 28.4964 17.2227 28.5204L17.0637 29.5985C16.982 30.1528 16.1732 30.1248 16.13 29.5662L16.0459 28.4797C16.044 28.4552 16.0437 28.4311 16.0449 28.4073C15.0287 28.3263 14.0303 28.1298 13.0682 27.8261C13.0603 27.8491 13.0508 27.8719 13.0396 27.8943L12.5544 28.8723C12.3054 29.3743 11.5448 29.0978 11.6763 28.5531L11.9326 27.4917C11.9386 27.467 11.9461 27.4432 11.9549 27.4202C11.0206 27.0323 10.1303 26.5397 9.30306 25.9508C9.2882 25.9706 9.27184 25.9898 9.25396 26.008L8.4902 26.7883C8.09823 27.1887 7.46037 26.6907 7.75378 26.2133L8.32547 25.2831C8.33882 25.2614 8.35337 25.241 8.36898 25.2218C7.6057 24.5698 6.91063 23.8279 6.30187 23.0039C6.28073 23.019 6.25825 23.0328 6.23448 23.0453L5.26887 23.5503C4.77235 23.81 4.31961 23.1393 4.74617 22.7759L5.57573 22.0693C5.59672 22.0514 5.61859 22.0354 5.64116 22.0212C5.30799 21.4748 5.01031 20.8983 4.75237 20.2937L2.92105 22.7215C2.67829 23.0433 2.20486 23.0777 1.95132 22.7643C0.215788 20.6189 0.00130228 17.7815 0.171423 16.048C0.212328 15.6312 0.648716 15.4013 1.0346 15.5641L3.77732 16.7212C3.7087 16.1889 3.67277 15.6568 3.66839 15.1274C3.63966 15.1277 3.61049 15.1257 3.58106 15.1214L2.50293 14.9624C1.94858 14.8807 1.97656 14.0719 2.53523 14.0287L3.62177 13.9446C3.65206 13.9422 3.68189 13.9423 3.7111 13.9446C3.79286 12.9301 3.98979 11.9333 4.29355 10.9728C4.26441 10.9638 4.23556 10.9524 4.20723 10.9384L3.22905 10.4531C2.72709 10.204 3.00363 9.44348 3.54832 9.575L4.60979 9.83131C4.64107 9.83887 4.67103 9.84885 4.69955 9.861C5.08725 8.92831 5.57931 8.0396 6.16728 7.21374C6.14148 7.19584 6.11679 7.1755 6.09348 7.15269L5.3131 6.38881C4.91266 5.99685 5.41068 5.35899 5.88807 5.65239L6.81839 6.22417C6.84613 6.24122 6.87181 6.26022 6.89539 6.28089C7.5463 5.51877 8.28697 4.82467 9.10937 4.21657C9.08965 4.19089 9.07182 4.16309 9.05621 4.13325L8.55106 3.16749C8.29135 2.67097 8.9621 2.21822 9.32546 2.64479L10.0322 3.47447C10.0544 3.50054 10.0738 3.52797 10.0903 3.55642C10.7826 3.13378 11.5232 2.76815 12.3082 2.46818C12.483 2.4014 12.6583 2.33852 12.834 2.27948C12.8228 2.24834 12.8142 2.21572 12.8084 2.18178L12.626 1.10442ZM6.29777 19.1434C8.57814 25.1109 15.2643 28.1 21.2317 25.8196C27.143 23.5607 30.1316 16.9783 27.9705 11.0539C27.2538 11.6558 26.3939 12.2012 25.3939 12.5677C23.1497 13.3902 21.4363 13.7485 19.9903 13.8903C18.346 16.1514 15.5506 17.0946 14.1981 17.2888L14.3704 13.903C13.4897 13.9397 12.5434 14.0556 11.4368 14.3399C9.35835 14.8739 7.42235 15.7448 5.66514 16.756C5.78782 17.5565 5.99694 18.3562 6.29777 19.1434ZM9.24577 19.4347C8.69162 19.5333 8.16246 19.164 8.06384 18.6098C7.96523 18.0557 8.33451 17.5265 8.88866 17.4279C9.44281 17.3293 9.97198 17.6986 10.0706 18.2527C10.1692 18.8069 9.79992 19.336 9.24577 19.4347ZM13.9441 19.5579C13.5824 19.6223 13.237 19.3813 13.1726 19.0196C13.1083 18.6579 13.3493 18.3126 13.711 18.2482C14.0727 18.1838 14.418 18.4249 14.4824 18.7865C14.5467 19.1482 14.3057 19.4936 13.9441 19.5579ZM19.9103 19.3246C19.5486 19.389 19.2032 19.148 19.1389 18.7863C19.0745 18.4246 19.3155 18.0793 19.6772 18.0149C20.0389 17.9505 20.3843 18.1916 20.4486 18.5532C20.513 18.9149 20.272 19.2603 19.9103 19.3246ZM21.1527 22.5109C21.217 22.8726 21.5624 23.1136 21.9241 23.0493C22.2857 22.9849 22.5268 22.6395 22.4624 22.2778C22.398 21.9162 22.0527 21.6751 21.691 21.7395C21.3293 21.8039 21.0883 22.1492 21.1527 22.5109ZM14.1804 24.1346C13.8187 24.199 13.4733 23.9579 13.409 23.5963C13.3446 23.2346 13.5856 22.8892 13.9473 22.8249C14.309 22.7605 14.6544 23.0015 14.7187 23.3632C14.7831 23.7249 14.5421 24.0702 14.1804 24.1346ZM10.5907 21.3232C10.655 21.6849 11.0004 21.9259 11.3621 21.8616C11.7238 21.7972 11.9648 21.4518 11.9004 21.0901C11.8361 20.7285 11.4907 20.4874 11.129 20.5518C10.7673 20.6162 10.5263 20.9615 10.5907 21.3232ZM17.0852 21.5375C16.7235 21.6019 16.3781 21.3609 16.3138 20.9992C16.2494 20.6375 16.4904 20.2921 16.8521 20.2278C17.2138 20.1634 17.5592 20.4044 17.6235 20.7661C17.6879 21.1278 17.4469 21.4732 17.0852 21.5375ZM22.7632 18.8166C22.8618 19.3707 23.391 19.74 23.9451 19.6414C24.4993 19.5428 24.8686 19.0136 24.7699 18.4595C24.6713 17.9053 24.1422 17.536 23.588 17.6346C23.0339 17.7332 22.6646 18.2624 22.7632 18.8166ZM17.0585 23.9822C17.1571 24.5363 17.6862 24.9056 18.2404 24.807C18.7945 24.7084 19.1638 24.1792 19.0652 23.6251C18.9666 23.0709 18.4374 22.7016 17.8833 22.8002C17.3291 22.8989 16.9598 23.428 17.0585 23.9822ZM24.8509 8.34455C25.0549 9.24071 24.5259 10.1252 23.6695 10.3201C22.813 10.5151 21.9534 9.9466 21.7494 9.05046C21.5455 8.15431 22.0744 7.26981 22.9309 7.07488C23.7873 6.87995 24.6469 7.4484 24.8509 8.34455Z" fill="url(#paint0_linear_149_168)"/>
<path d="M23.7344 9.54149C24.1201 9.4537 24.3507 9.0217 24.2494 8.57659C24.1481 8.13149 23.7532 7.84183 23.3675 7.92962C22.9818 8.01741 22.7512 8.44941 22.8525 8.89452C22.9538 9.33962 23.3487 9.62928 23.7344 9.54149Z" fill="#4A98EA"/>
<path fill-rule="evenodd" clip-rule="evenodd" d="M72.8202 9.20845C72.8202 5.95592 75.4495 3.31921 78.6929 3.31921V6.19588C77.0338 6.19589 75.6888 7.54466 75.6888 9.20845V9.20858H78.6929V12.0853H75.6888V20.987H72.8202V9.20845ZM71.1286 3.40466C67.8852 3.40466 65.256 6.04127 65.2559 9.29372L65.2557 21.0723H68.1243V9.2939C68.1243 7.63011 69.4694 6.28134 71.1286 6.28134V3.40466ZM43.9523 18.1955C45.6114 18.1955 46.9564 16.8468 46.9564 15.183C46.9564 13.5192 45.6114 12.1704 43.9523 12.1704C42.2932 12.1704 40.9482 13.5192 40.9482 15.183C40.9482 16.8468 42.2932 18.1955 43.9523 18.1955ZM43.9523 21.0722C42.8545 21.0722 41.8271 20.7702 40.9482 20.2444V26.9192H38.0796V15.183C38.0796 11.9304 40.7089 9.29371 43.9523 9.29371C47.1957 9.29371 49.825 11.9304 49.825 15.183C49.825 18.4355 47.1957 21.0722 43.9523 21.0722ZM62.8601 9.29371H59.9915V15.1829C59.9915 16.8466 58.6466 18.1953 56.9875 18.1953C55.3284 18.1953 53.9834 16.8466 53.9834 15.1829V15.1827V9.29372H51.1148V15.1827V15.1829C51.1148 18.4354 53.7441 21.072 56.9875 21.072C60.2309 21.072 62.8602 18.4353 62.8602 15.1828L62.8601 9.29371ZM68.1245 9.29384V12.1705H71.1286V9.29384H68.1245ZM90.1218 11.396C90.6602 12.0641 91.0426 12.8374 91.2491 13.6593C91.2491 13.6593 91.3135 13.909 91.3638 14.3124C91.414 14.7158 91.4269 15.0975 91.4269 15.0975L91.427 15.0977C91.4269 15.5939 91.3657 16.0757 91.2505 16.536H90.0842V16.5362H82.9137C83.4228 17.4741 84.4143 18.1106 85.5541 18.1106C86.3188 18.1106 87.0167 17.8242 87.547 17.3524L89.4495 19.505C88.4441 20.3987 87.1635 20.9196 85.8214 20.9809C84.4792 21.0421 83.1567 20.6401 82.0745 19.8418C80.9922 19.0435 80.2156 17.8972 79.8743 16.5941C79.5329 15.291 79.6474 13.9099 80.1986 12.6813C80.7499 11.4526 81.7046 10.4507 82.9035 9.84251C84.1023 9.23438 85.4729 9.05686 86.7865 9.33956C88.1001 9.62226 89.2773 10.3481 90.1218 11.396ZM82.9137 13.6595C83.4228 12.7216 84.4144 12.0851 85.5541 12.0851C86.6939 12.0851 87.6855 12.7216 88.1946 13.6595H82.9137ZM95.5851 15.1825C95.5851 13.522 96.9249 12.1752 98.5796 12.17V9.29329C95.3406 9.29852 92.7165 11.9332 92.7165 15.1825H95.5851ZM92.7165 21.072H95.5851V15.1828H92.7165V21.072Z" fill="black"/>
<defs>
<linearGradient id="paint0_linear_149_168" x1="18.8552" y1="-3.26283e-07" x2="31.9895" y2="21.3676" gradientUnits="userSpaceOnUse">
<stop offset="0.0677083" stop-color="#874FFF"/>
<stop offset="0.463542" stop-color="#36AFE2"/>
<stop offset="0.859375" stop-color="#41FF54"/>
</linearGradient>
</defs>
</svg>
