<svg width="181" height="28" viewBox="0 0 181 28" fill="none" xmlns="http://www.w3.org/2000/svg">
<path d="M34.9852 21.5838C34.5652 21.5838 34.2683 21.4968 34.0944 21.3232C33.9351 21.1493 33.8555 20.8741 33.8555 20.4976V7.91916C33.8555 7.54245 33.9423 7.26726 34.1161 7.09357C34.29 6.90521 34.5796 6.81104 34.9852 6.81104H40.3076C42.3352 6.81104 43.827 7.23836 44.783 8.09285C45.7388 8.94734 46.2168 10.2218 46.2168 11.9163C46.2168 13.5964 45.7388 14.8636 44.783 15.7181C43.8415 16.5582 42.3498 16.9782 40.3076 16.9782H38.2438V20.4976C38.2438 20.8741 38.157 21.1493 37.9831 21.3232C37.8093 21.4968 37.5124 21.5838 37.0924 21.5838H34.9852ZM39.9601 13.8281C40.5539 13.8281 41.0102 13.6688 41.3288 13.3502C41.6618 13.0316 41.8284 12.5537 41.8284 11.9164C41.8284 11.2647 41.6618 10.7794 41.3288 10.4608C41.0102 10.1422 40.5539 9.98285 39.9601 9.98285H38.2438V13.8281H39.9601ZM51.3472 21.9096C49.9859 21.9096 48.8925 21.4751 48.0669 20.6063C47.2558 19.7227 46.8503 18.4845 46.8503 16.8912C46.8503 15.6747 47.1255 14.6102 47.6758 13.6977C48.2407 12.7853 49.0301 12.0829 50.0439 11.5905C51.0722 11.0836 52.2525 10.8302 53.5849 10.8302C54.6857 10.8302 55.6561 10.9532 56.496 11.1995C57.3505 11.4312 58.1326 11.7715 58.8423 12.2205V20.9104C58.8423 21.1856 58.7916 21.3666 58.6901 21.4534C58.5888 21.5404 58.386 21.5838 58.0819 21.5838H55.866C55.7067 21.5838 55.5836 21.5621 55.4968 21.5186C55.4098 21.4608 55.3375 21.3738 55.2795 21.2579L54.997 20.6063C54.577 21.0552 54.0702 21.3811 53.4763 21.5838C52.8971 21.8011 52.1874 21.9096 51.3472 21.9096ZM52.9767 18.9551C53.5415 18.9551 53.9832 18.8175 54.3018 18.5424C54.6204 18.2672 54.7797 17.8761 54.7797 17.3692V13.9803C54.5047 13.8498 54.157 13.7847 53.737 13.7847C52.9694 13.7847 52.3539 14.0526 51.8904 14.5884C51.4414 15.1243 51.217 15.8774 51.217 16.8478C51.217 18.2527 51.8035 18.9551 52.9767 18.9551ZM61.8656 21.5838C61.4455 21.5838 61.1486 21.4968 60.9749 21.3232C60.8011 21.1493 60.7142 20.8741 60.7142 20.4976V11.8294C60.7142 11.5688 60.7576 11.3949 60.8445 11.3081C60.9459 11.2066 61.1486 11.156 61.4528 11.156H63.6905C63.8642 11.156 63.9946 11.185 64.0814 11.2429C64.1828 11.2864 64.2407 11.3732 64.2553 11.5036L64.3638 12.1554C64.7694 11.7498 65.2981 11.4312 65.9497 11.1995C66.616 10.9532 67.3546 10.8302 68.1657 10.8302C69.3388 10.8302 70.2875 11.1633 71.0115 11.8294C71.7358 12.4812 72.0978 13.4516 72.0978 14.7406V20.4976C72.0978 20.8741 72.011 21.1493 71.8371 21.3232C71.6778 21.4968 71.3881 21.5838 70.9681 21.5838H68.8609C68.4409 21.5838 68.1368 21.4968 67.9484 21.3232C67.7746 21.1493 67.6878 20.8741 67.6878 20.4976V15.023C67.6878 14.5884 67.5936 14.2772 67.4054 14.0888C67.217 13.9006 66.9201 13.8064 66.5146 13.8064C66.0801 13.8064 65.7325 13.9223 65.4718 14.1539C65.2256 14.3857 65.1026 14.7043 65.1026 15.1099V20.4976C65.1026 20.8741 65.0156 21.1493 64.8419 21.3232C64.6826 21.4968 64.3929 21.5838 63.9729 21.5838H61.8656ZM79.7768 21.9096C77.7492 21.9096 76.185 21.4389 75.0842 20.4976C73.9836 19.5562 73.4332 18.1876 73.4332 16.3916C73.4332 15.291 73.6867 14.3206 74.1935 13.4806C74.7005 12.6405 75.4319 11.9887 76.3877 11.5253C77.3581 11.0619 78.5023 10.8302 79.8202 10.8302C80.8195 10.8302 81.6596 10.9243 82.3403 11.1125C83.0355 11.3009 83.651 11.5905 84.1869 11.9816C84.3462 12.0831 84.4258 12.2133 84.4258 12.3726C84.4258 12.4885 84.3679 12.6405 84.252 12.8289L83.3613 14.3712C83.2599 14.5741 83.1368 14.6754 82.992 14.6754C82.9051 14.6754 82.7675 14.6175 82.5793 14.5016C82.1882 14.2554 81.8189 14.0744 81.4713 13.9585C81.1381 13.8427 80.7182 13.7847 80.2113 13.7847C79.4871 13.7847 78.9006 14.0165 78.4516 14.4799C78.0171 14.9433 77.7998 15.5805 77.7998 16.3916C77.7998 17.2172 78.0243 17.8544 78.4733 18.3033C78.9223 18.7378 79.5378 18.9551 80.3199 18.9551C80.7833 18.9551 81.2034 18.8899 81.58 18.7595C81.9565 18.6293 82.3403 18.4483 82.7314 18.2165C82.9341 18.1006 83.0789 18.0426 83.1659 18.0426C83.2961 18.0426 83.412 18.144 83.5134 18.3469L84.491 20.0196C84.5634 20.1644 84.5997 20.2803 84.5997 20.3672C84.5997 20.4976 84.5127 20.6206 84.339 20.7365C83.7307 21.1276 83.0644 21.4172 82.3403 21.6055C81.6306 21.8083 80.7761 21.9096 79.7768 21.9096ZM90.1078 21.9096C88.7464 21.9096 87.6529 21.4751 86.8275 20.6063C86.0164 19.7227 85.6108 18.4845 85.6108 16.8912C85.6108 15.6747 85.886 14.6102 86.4364 13.6977C87.0011 12.7853 87.7905 12.0829 88.8043 11.5905C89.8326 11.0836 91.0131 10.8302 92.3455 10.8302C93.4461 10.8302 94.4165 10.9532 95.2565 11.1995C96.111 11.4312 96.8931 11.7715 97.6028 12.2205V20.9104C97.6028 21.1856 97.5521 21.3666 97.4507 21.4534C97.3494 21.5404 97.1466 21.5838 96.8424 21.5838H94.6266C94.4673 21.5838 94.3441 21.5621 94.2572 21.5186C94.1704 21.4608 94.0979 21.3738 94.04 21.2579L93.7576 20.6063C93.3376 21.0552 92.8306 21.3811 92.2368 21.5838C91.6575 21.8011 90.9478 21.9096 90.1078 21.9096ZM91.7372 18.9551C92.3021 18.9551 92.7438 18.8175 93.0624 18.5424C93.381 18.2672 93.5403 17.8761 93.5403 17.3692V13.9803C93.2651 13.8498 92.9176 13.7847 92.4975 13.7847C91.73 13.7847 91.1144 14.0526 90.6509 14.5884C90.202 15.1243 89.9774 15.8774 89.9774 16.8478C89.9774 18.2527 90.564 18.9551 91.7372 18.9551ZM111.249 20.7582C111.351 20.8741 111.401 21.0045 111.401 21.1493C111.401 21.2796 111.358 21.3883 111.271 21.4751C111.184 21.5476 111.068 21.5838 110.924 21.5838H107.556C107.353 21.5838 107.201 21.5693 107.1 21.5404C107.013 21.4968 106.919 21.4172 106.818 21.3014L103.863 17.2823V20.4976C103.863 20.8741 103.776 21.1493 103.602 21.3232C103.429 21.4968 103.132 21.5838 102.712 21.5838H100.604C100.184 21.5838 99.8875 21.4968 99.7136 21.3232C99.5543 21.1493 99.4747 20.8741 99.4747 20.4976V7.91916C99.4747 7.54245 99.5615 7.26726 99.7354 7.09357C99.9092 6.90521 100.199 6.81104 100.604 6.81104H102.712C103.132 6.81104 103.429 6.90521 103.602 7.09357C103.776 7.26726 103.863 7.54245 103.863 7.91902V15.1968L106.731 11.4602C106.818 11.3443 106.912 11.2647 107.013 11.2212C107.114 11.1777 107.267 11.156 107.469 11.156H110.837C110.981 11.156 111.09 11.1995 111.162 11.2864C111.249 11.3588 111.293 11.4602 111.293 11.5905C111.293 11.7354 111.242 11.8657 111.141 11.9816L107.426 16.2396L111.249 20.7582ZM118.303 21.9096C117.087 21.9096 116.001 21.7069 115.045 21.3014C114.103 20.8958 113.357 20.2875 112.807 19.4766C112.257 18.6655 111.982 17.6734 111.982 16.5003C111.982 14.6609 112.503 13.256 113.546 12.2856C114.589 11.3153 116.088 10.8302 118.043 10.8302C119.955 10.8302 121.403 11.3081 122.388 12.2639C123.387 13.2054 123.887 14.5161 123.887 16.1961C123.887 16.9203 123.568 17.2823 122.931 17.2823H116.109C116.109 17.905 116.341 18.3831 116.804 18.7161C117.282 19.0493 117.999 19.2158 118.955 19.2158C119.549 19.2158 120.041 19.1651 120.432 19.0638C120.838 18.9479 121.244 18.7814 121.649 18.5641C121.823 18.4917 121.939 18.4554 121.997 18.4554C122.127 18.4554 122.235 18.5424 122.322 18.7161L123.061 20.1065C123.134 20.2514 123.17 20.36 123.17 20.4324C123.17 20.5627 123.083 20.6859 122.909 20.8017C122.315 21.1927 121.642 21.4751 120.889 21.649C120.136 21.8228 119.274 21.9096 118.303 21.9096ZM119.976 15.1317C119.976 14.5813 119.817 14.1539 119.498 13.8498C119.18 13.5457 118.702 13.3936 118.064 13.3936C117.427 13.3936 116.942 13.5529 116.609 13.8716C116.276 14.1758 116.109 14.5958 116.109 15.1317H119.976ZM131.333 21.9096C130.116 21.9096 128.965 21.7866 127.879 21.5404C126.792 21.2796 125.916 20.9176 125.25 20.4541C125.004 20.2948 124.881 20.1282 124.881 19.9545C124.881 19.8386 124.924 19.7155 125.011 19.5851L126.075 17.8907C126.191 17.7168 126.307 17.63 126.423 17.63C126.495 17.63 126.618 17.6806 126.792 17.782C127.328 18.0862 127.936 18.3324 128.617 18.5206C129.298 18.7089 129.971 18.8031 130.638 18.8031C131.318 18.8031 131.818 18.7017 132.137 18.4989C132.47 18.2961 132.636 17.9703 132.636 17.5213C132.636 17.0868 132.455 16.7465 132.093 16.5003C131.745 16.254 131.086 15.9427 130.116 15.5662C128.653 15.0158 127.509 14.4002 126.684 13.7194C125.873 13.0244 125.467 12.0829 125.467 10.8953C125.467 9.4615 125.981 8.36804 127.01 7.61492C128.038 6.86165 129.406 6.48523 131.116 6.48523C132.303 6.48523 133.317 6.59379 134.157 6.81104C135.011 7.01391 135.736 7.33253 136.329 7.7669C136.576 7.95525 136.699 8.12908 136.699 8.28839C136.699 8.38975 136.655 8.5055 136.568 8.63591L135.504 10.3305C135.373 10.5042 135.258 10.5912 135.156 10.5912C135.084 10.5912 134.961 10.5404 134.787 10.4391C133.947 9.88867 132.948 9.61362 131.789 9.61362C131.166 9.61362 130.688 9.71498 130.355 9.91772C130.022 10.1204 129.855 10.4536 129.855 10.917C129.855 11.2356 129.942 11.4964 130.116 11.6992C130.29 11.9019 130.522 12.0829 130.811 12.2422C131.116 12.387 131.579 12.5754 132.202 12.8071L132.614 12.9591C133.686 13.3792 134.526 13.7847 135.134 14.1758C135.757 14.5522 136.228 15.023 136.547 15.5879C136.865 16.1381 137.025 16.8333 137.025 17.6734C137.025 18.9624 136.539 19.9907 135.569 20.7582C134.613 21.5259 133.201 21.9096 131.333 21.9096ZM141.64 21.5838C141.423 21.5838 141.257 21.5476 141.141 21.4751C141.025 21.4028 140.938 21.2579 140.88 21.0406L138.077 11.6556C138.049 11.5688 138.034 11.5036 138.034 11.4602C138.034 11.2575 138.179 11.156 138.469 11.156H141.336C141.525 11.156 141.662 11.1922 141.749 11.2645C141.836 11.3226 141.894 11.4238 141.922 11.5688L143.095 16.5003L144.573 12.5246C144.646 12.3509 144.718 12.235 144.79 12.1771C144.877 12.1046 145.023 12.0685 145.226 12.0685H146.593C146.796 12.0685 146.934 12.1046 147.006 12.1771C147.094 12.2349 147.173 12.3509 147.246 12.5246L148.701 16.5003L149.896 11.5688C149.939 11.424 149.996 11.3226 150.07 11.2647C150.142 11.1922 150.273 11.1561 150.46 11.1561H153.35C153.639 11.1561 153.785 11.2575 153.785 11.4602C153.785 11.5036 153.77 11.5688 153.741 11.6556L150.917 21.0406C150.859 21.2579 150.772 21.4028 150.656 21.4751C150.555 21.5476 150.395 21.5838 150.178 21.5838H148.049C147.846 21.5838 147.694 21.5476 147.593 21.4751C147.491 21.3883 147.405 21.2435 147.332 21.0406L145.898 17.1085L144.464 21.0406C144.406 21.2435 144.319 21.3883 144.203 21.4751C144.102 21.5476 143.951 21.5838 143.748 21.5838H141.64ZM159.291 21.9096C157.929 21.9096 156.837 21.4751 156.011 20.6063C155.2 19.7227 154.794 18.4845 154.794 16.8912C154.794 15.6747 155.069 14.6102 155.62 13.6977C156.184 12.7853 156.974 12.0829 157.987 11.5905C159.016 11.0836 160.196 10.8302 161.529 10.8302C162.63 10.8302 163.6 10.9532 164.44 11.1995C165.294 11.4312 166.077 11.7715 166.786 12.2205V20.9104C166.786 21.1856 166.735 21.3666 166.634 21.4534C166.532 21.5404 166.331 21.5838 166.026 21.5838H163.81C163.65 21.5838 163.528 21.5621 163.44 21.5186C163.353 21.4608 163.281 21.3738 163.223 21.2579L162.941 20.6063C162.521 21.0552 162.014 21.3811 161.42 21.5838C160.841 21.8011 160.132 21.9096 159.291 21.9096ZM160.921 18.9551C161.485 18.9551 161.928 18.8175 162.246 18.5424C162.565 18.2672 162.724 17.8761 162.724 17.3692V13.9803C162.448 13.8498 162.101 13.7847 161.681 13.7847C160.913 13.7847 160.298 14.0526 159.834 14.5884C159.386 15.1243 159.16 15.8774 159.16 16.8478C159.16 18.2527 159.748 18.9551 160.921 18.9551ZM169.787 25.9722C169.367 25.9722 169.071 25.8853 168.896 25.7115C168.737 25.5377 168.658 25.2625 168.658 24.8859V12.4378C169.31 11.9744 170.129 11.5905 171.113 11.2864C172.098 10.9823 173.126 10.8302 174.197 10.8302C178.572 10.8302 180.759 12.6841 180.759 16.3916C180.759 18.0717 180.295 19.4113 179.369 20.4107C178.441 21.41 177.131 21.9096 175.437 21.9096C174.959 21.9096 174.495 21.8517 174.045 21.7358C173.611 21.6201 173.249 21.4608 172.96 21.2579V24.8859C172.96 25.2625 172.872 25.5377 172.699 25.7115C172.525 25.8853 172.228 25.9722 171.808 25.9722H169.787ZM174.502 18.9768C175.125 18.9768 175.589 18.7452 175.892 18.2816C176.211 17.8037 176.37 17.1664 176.37 16.3699C176.37 15.4286 176.182 14.7695 175.806 14.3929C175.444 14.002 174.878 13.8064 174.111 13.8064C173.618 13.8064 173.227 13.8716 172.938 14.002V17.4562C172.938 17.9486 173.075 18.3252 173.35 18.5858C173.626 18.8465 174.01 18.9768 174.502 18.9768Z" fill="black"/>
<path fill-rule="evenodd" clip-rule="evenodd" d="M13.9145 28C9.79896 27.9969 6.48363 27.0093 4.1673 25.2355C1.82319 23.4404 0.57959 20.8928 0.57959 18.0102C0.57959 15.2327 1.82037 13.2299 3.22441 11.876C4.32478 10.8151 5.53891 10.1358 6.38438 9.74481C6.19321 9.15805 5.95467 8.38998 5.74122 7.59653C5.45573 6.53494 5.1756 5.28922 5.1756 4.3765C5.1756 3.29616 5.41104 2.21102 6.04616 1.36795C6.71724 0.477224 7.72752 0 8.94278 0C9.89258 0 10.699 0.352314 11.3302 0.960087C11.9336 1.54093 12.3354 2.31253 12.6127 3.11683C13.0999 4.53003 13.2897 6.30556 13.3428 8.07756H14.5069C14.5602 6.30556 14.7498 4.53003 15.2372 3.11683C15.5145 2.31253 15.916 1.54107 16.5196 0.960087C17.1509 0.352455 17.9572 0 18.907 0C20.1224 0 21.1325 0.477224 21.8036 1.36795C22.4387 2.21102 22.6743 3.29616 22.6743 4.3765C22.6743 5.28922 22.394 6.53494 22.1085 7.59653C21.8951 8.38998 21.6565 9.15805 21.4654 9.74481C22.3108 10.1358 23.5251 10.8151 24.6253 11.8762C26.0294 13.2299 27.2702 15.2327 27.2702 18.0102C27.2702 20.8928 26.0267 23.4404 23.6824 25.2355C21.3661 27.0093 18.0508 27.9969 13.9352 28H13.9145Z" fill="#633001"/>
<path d="M8.94285 1.02747C7.16296 1.02747 6.34357 2.36905 6.34357 4.22423C6.34357 5.6989 7.29562 8.65219 7.68614 9.8019C7.77411 10.0606 7.63595 10.3438 7.38416 10.4441C5.95756 11.0124 1.74756 13.093 1.74756 17.858C1.74756 22.8774 6.02594 26.6621 13.9157 26.6681L13.925 26.668L13.9345 26.6681C21.8241 26.6621 26.1025 22.8774 26.1025 17.858C26.1025 13.093 21.8925 11.0124 20.4659 10.4441C20.2141 10.344 20.0761 10.0606 20.1639 9.8019C20.5546 8.65233 21.5066 5.6989 21.5066 4.22423C21.5066 2.36891 20.6872 1.02747 18.9072 1.02747C16.345 1.02747 15.7062 4.69398 15.6606 8.62921C15.6577 8.89186 15.4473 9.10503 15.1874 9.10503H12.6628C12.4027 9.10503 12.1925 8.89186 12.1894 8.62921C12.1438 4.69398 11.5052 1.02747 8.94285 1.02747Z" fill="#D1884F"/>
<path d="M13.9345 25.0603C8.13757 25.0603 1.75757 21.9256 1.74756 17.8677V17.8866C1.74756 22.91 6.0327 26.6967 13.9345 26.6967C21.8362 26.6967 26.1214 22.91 26.1214 17.8866V17.8677C26.1114 21.9256 19.7314 25.0603 13.9345 25.0603Z" fill="#FEDC90"/>
<path d="M10.7136 16.6212C10.7136 17.9912 10.0727 18.7047 9.28212 18.7047C8.49149 18.7047 7.85059 17.9912 7.85059 16.6212C7.85059 15.2511 8.49149 14.5376 9.28212 14.5376C10.0727 14.5376 10.7136 15.2511 10.7136 16.6212ZM20.0186 16.6212C20.0186 17.9912 19.3777 18.7047 18.5871 18.7047C17.7964 18.7047 17.1555 17.9912 17.1555 16.6212C17.1555 15.2511 17.7964 14.5376 18.5871 14.5376C19.3777 14.5376 20.0186 15.2511 20.0186 16.6212Z" fill="#633001"/>
</svg>
