<svg width="160" height="30" viewBox="0 0 160 30" fill="none" xmlns="http://www.w3.org/2000/svg">
<g clip-path="url(#clip0_149_176)">
<path d="M42.8555 8.88252H45.1603V19.3608H54.6281V21.2934H42.8555V8.88252ZM56.9513 8.06689H59.2031V9.76902H56.9513V8.06689ZM56.9513 10.9746H59.2031V21.2934H56.9513V10.9746ZM73.4243 11.5952L72.8215 13.1554C71.3795 12.6708 69.7247 12.4284 67.8572 12.4284C67.5262 12.4284 67.2248 12.4403 66.953 12.4639C66.6811 12.4758 66.4092 12.4994 66.1373 12.5349C65.8773 12.5703 65.6468 12.6235 65.4459 12.6944C65.2568 12.7535 65.0854 12.8362 64.9317 12.9426C64.7899 13.0372 64.6776 13.1554 64.5949 13.2972C64.5239 13.4272 64.4885 13.5809 64.4885 13.7582C64.4885 14.2074 64.7958 14.5206 65.4104 14.6979C65.8241 14.8161 66.7874 14.9579 68.3004 15.1234C68.9032 15.1825 69.3938 15.2357 69.772 15.2829C70.1502 15.3303 70.5698 15.3953 71.0308 15.478C71.5036 15.5607 71.8818 15.6494 72.1655 15.744C72.4492 15.8385 72.7388 15.9626 73.0343 16.1163C73.3416 16.2581 73.5721 16.4236 73.7258 16.6127C73.8794 16.8018 74.0094 17.0323 74.1158 17.3042C74.2222 17.5642 74.2754 17.8597 74.2754 18.1907C74.2754 19.3017 73.7435 20.1351 72.6797 20.6906C71.6277 21.2461 70.1384 21.5239 68.2118 21.5239C65.5523 21.5239 63.3124 20.9861 61.4921 19.9104L62.3963 18.4212C64.0985 19.3549 66.1196 19.8218 68.46 19.8218C70.8476 19.8218 72.0414 19.3136 72.0414 18.297C72.0414 18.167 72.0237 18.0489 71.9882 17.9424C71.9528 17.8361 71.8877 17.7415 71.7932 17.6588C71.6987 17.5761 71.5982 17.5051 71.4918 17.446C71.3972 17.3869 71.2554 17.3337 71.0663 17.2864C70.8771 17.2273 70.6998 17.1801 70.5344 17.1446C70.3807 17.1091 70.1561 17.0737 69.8606 17.0382C69.577 16.9909 69.3228 16.9555 69.0983 16.9318C68.8736 16.9082 68.5664 16.8786 68.1763 16.8432C67.7508 16.7959 67.408 16.7604 67.148 16.7368C66.8879 16.7132 66.5629 16.6777 66.1728 16.6305C65.7946 16.5831 65.4872 16.5359 65.2508 16.4886C65.0145 16.4295 64.7426 16.3586 64.4353 16.2759C64.128 16.1813 63.8798 16.0867 63.6906 15.9921C63.5015 15.8858 63.3006 15.7617 63.0878 15.6198C62.8869 15.478 62.7332 15.3184 62.6269 15.1411C62.5205 14.9638 62.4259 14.7629 62.3432 14.5383C62.2723 14.3019 62.2368 14.0537 62.2368 13.7937C62.2368 11.7488 64.1576 10.7264 67.999 10.7264C69.9374 10.7264 71.7459 11.016 73.4243 11.5952ZM83.8301 12.6944H79.8581V18.6693C79.8581 19.0713 79.9706 19.3549 80.1956 19.5204C80.4199 19.674 80.7626 19.7509 81.2239 19.7509C82.2049 19.7509 83.1679 19.4731 84.1136 18.9176V20.7792C83.0614 21.2284 81.9859 21.453 80.8871 21.453C79.9414 21.453 79.1666 21.2461 78.5644 20.8324C77.9734 20.4069 77.6779 19.7686 77.6779 18.9176V12.6944H75.3905V10.9746H77.6779V8.66974L79.6631 8.31514L79.7524 10.9746H83.8301V12.6944ZM86.8144 11.6838C88.2559 11.0455 90.1121 10.7264 92.3816 10.7264C93.2914 10.7264 94.0834 10.7796 94.7569 10.886C95.4424 10.9923 96.0514 11.1637 96.5831 11.4001C97.1269 11.6247 97.5349 11.9439 97.8064 12.3576C98.0906 12.7713 98.2324 13.2677 98.2324 13.8468V19.0062L98.4979 21.2934H96.4414L96.1751 20.3182C94.8514 21.0865 93.0371 21.4707 90.7324 21.4707C89.0539 21.4707 87.8014 21.2343 86.9734 20.7615C86.1461 20.2887 85.7329 19.5441 85.7329 18.5275V18.3502C85.7329 17.712 85.8979 17.1978 86.2294 16.8078C86.5601 16.4177 87.1511 16.0867 88.0024 15.8148C88.8649 15.543 90.1001 15.3066 91.7074 15.1056C92.7716 14.9638 93.5689 14.8515 94.1014 14.7688C94.6331 14.6861 95.0524 14.5974 95.3599 14.5029C95.6674 14.4083 95.8504 14.3256 95.9096 14.2546C95.9689 14.1837 95.9981 14.0715 95.9981 13.9178V13.6341C95.9981 12.8185 94.7929 12.4107 92.3816 12.4107C90.5021 12.4107 88.8469 12.6885 87.4166 13.2441L86.8144 11.6838ZM95.9981 15.7262C95.8564 15.8562 95.5901 15.9626 95.2001 16.0454C94.8221 16.1163 93.7286 16.2818 91.9204 16.5418C90.7736 16.7073 89.9224 16.8669 89.3674 17.0205C88.8116 17.1741 88.4396 17.3397 88.2499 17.517C88.0609 17.6943 87.9664 17.9424 87.9664 18.2616V18.4034C87.9784 18.9117 88.2266 19.2722 88.7111 19.485C89.2076 19.6859 89.9704 19.7864 90.9986 19.7864C92.8661 19.7864 94.5326 19.4731 95.9981 18.8466V15.7262ZM117.202 8.88252C118.006 8.88252 118.769 9.01842 119.49 9.29029C120.222 9.55032 120.867 9.92262 121.422 10.4073C121.989 10.8918 122.439 11.5183 122.769 12.2866C123.101 13.0549 123.266 13.9059 123.266 14.8397V15.3716C123.266 16.3172 123.095 17.1741 122.752 17.9424C122.421 18.7107 121.971 19.3372 121.404 19.8218C120.849 20.2946 120.222 20.661 119.525 20.9211C118.839 21.1693 118.13 21.2934 117.397 21.2934H107.628V8.88252H117.202ZM120.908 15.3184V14.8752C120.908 14.166 120.801 13.5454 120.589 13.0135C120.376 12.4817 120.075 12.0621 119.685 11.7547C119.307 11.4356 118.869 11.1992 118.373 11.0455C117.876 10.8918 117.327 10.815 116.724 10.815H109.933V19.3608H116.706C117.971 19.3608 118.987 19.0299 119.755 18.368C120.524 17.706 120.908 16.6896 120.908 15.3184ZM138.419 21.2934L136.947 18.6693H127.959L126.486 21.2934H123.987L131.167 8.88252H133.738L140.919 21.2934H138.419ZM135.919 16.8609L132.55 10.8682L132.515 10.7442H132.391L132.355 10.8682L128.969 16.8609H135.919ZM147.371 8.82934C148.162 8.71114 149.037 8.65204 149.994 8.65204C150.964 8.65204 151.845 8.71114 152.637 8.82934C153.429 8.94754 154.185 9.15432 154.905 9.44982C155.627 9.74532 156.23 10.1295 156.714 10.6023C157.211 11.0751 157.601 11.6956 157.884 12.4639C158.18 13.2204 158.328 14.0951 158.328 15.0879C158.328 16.0808 158.18 16.9614 157.884 17.7297C157.601 18.4862 157.211 19.1008 156.714 19.5736C156.23 20.0464 155.627 20.4306 154.905 20.7261C154.185 21.0216 153.429 21.2284 152.637 21.3466C151.845 21.4648 150.964 21.5239 149.994 21.5239C149.037 21.5239 148.162 21.4648 147.371 21.3466C146.59 21.2284 145.834 21.0216 145.101 20.7261C144.38 20.4306 143.772 20.0464 143.275 19.5736C142.791 19.1008 142.401 18.4862 142.105 17.7297C141.821 16.9614 141.679 16.0808 141.679 15.0879C141.679 14.0951 141.821 13.2204 142.105 12.4639C142.401 11.6956 142.791 11.0751 143.275 10.6023C143.772 10.1295 144.38 9.74532 145.101 9.44982C145.834 9.15432 146.59 8.94754 147.371 8.82934ZM152.672 10.815C151.951 10.6732 151.059 10.6023 149.994 10.6023C148.943 10.6023 148.056 10.6732 147.335 10.815C146.626 10.9569 146.017 11.1992 145.509 11.5419C145.001 11.8848 144.628 12.3457 144.392 12.9249C144.168 13.5041 144.055 14.2251 144.055 15.0879C144.055 15.9508 144.168 16.6718 144.392 17.251C144.628 17.8302 145.001 18.2911 145.509 18.6339C146.017 18.9767 146.626 19.219 147.335 19.3608C148.056 19.5027 148.949 19.5736 150.012 19.5736C150.852 19.5736 151.578 19.5322 152.193 19.4495C152.82 19.3549 153.375 19.2072 153.86 19.0062C154.356 18.7935 154.752 18.5157 155.048 18.1729C155.355 17.8183 155.586 17.3928 155.739 16.8964C155.892 16.3881 155.97 15.7853 155.97 15.0879C155.97 14.2251 155.851 13.5041 155.615 12.9249C155.391 12.3457 155.024 11.8848 154.515 11.5419C154.008 11.1992 153.393 10.9569 152.672 10.815Z" fill="black"/>
<path d="M19.115 16.3397C19.6667 9.77915 25.3785 6.98325 28.9341 8.519C32.4896 10.0547 33.6757 15.0293 31.8998 19.7584C29.0492 27.3493 19.1673 32.3124 11.2803 28.9058C18.5297 27.5467 18.6309 22.0974 19.115 16.3397Z" fill="#FFD600"/>
<path d="M14.2479 13.9309C14.3715 20.5146 8.97781 23.9109 5.28463 22.767C1.59143 21.6232 -0.0978463 16.804 1.18362 11.9096C3.24059 4.05343 12.5591 -1.9477 20.7516 0.589578C13.6817 2.72291 14.1394 8.15287 14.2479 13.9309Z" fill="#5B55E0"/>
</g>
<defs>
<clipPath id="clip0_149_176">
<rect width="159" height="30" fill="white" transform="translate(0.758789)"/>
</clipPath>
</defs>
</svg>
