<svg width="109" height="30" viewBox="0 0 109 30" fill="none" xmlns="http://www.w3.org/2000/svg">
<g clip-path="url(#clip0_149_255)">
<path d="M40.8295 21.9577V16.8886H47.3214V14.3043H40.8295V10.6266H48.183V8.04236H37.5835V21.9577H40.8295Z" fill="#0B0E11"/>
<path fill-rule="evenodd" clip-rule="evenodd" d="M60.4956 21.1029C59.3335 21.6728 57.9914 21.9577 56.4682 21.9577H50.0967V8.04236H56.4682C57.9914 8.04236 59.3335 8.33394 60.4956 8.91704C61.6582 9.48694 62.5661 10.2887 63.2208 11.3224C63.8756 12.3561 64.2024 13.582 64.2024 15C64.2024 16.4048 63.8756 17.6307 63.2208 18.6777C62.5661 19.7114 61.6582 20.5198 60.4956 21.1029ZM58.7324 11.223C58.0514 10.8652 57.2429 10.6863 56.3082 10.6863H53.3424V19.3138H56.3082C57.2429 19.3138 58.0514 19.1415 58.7324 18.7969C59.4272 18.4391 59.9614 17.9355 60.3356 17.2861C60.7229 16.6368 60.9166 15.8747 60.9166 15C60.9166 14.1121 60.7229 13.3501 60.3356 12.7139C59.9614 12.0646 59.4272 11.5676 58.7324 11.223Z" fill="#0B0E11"/>
<path d="M67.7662 20.5463C68.8877 21.6463 70.4441 22.1963 72.4346 22.1963C74.4246 22.1963 75.9809 21.6463 77.103 20.5463C78.2251 19.4463 78.7862 17.8759 78.7862 15.8349V8.04236H75.5804V15.7157C75.5804 17.0409 75.3067 17.9951 74.7588 18.5783C74.2109 19.1614 73.443 19.4529 72.4546 19.4529C71.4662 19.4529 70.6977 19.1614 70.1504 18.5783C69.6025 17.9951 69.3288 17.0409 69.3288 15.7157V8.04236H66.083V15.8349C66.083 17.8759 66.6441 19.4463 67.7662 20.5463Z" fill="#0B0E11"/>
<path d="M86.3775 22.1962C85.2554 22.1962 84.1802 22.0504 83.1512 21.7589C82.1228 21.454 81.2944 21.0631 80.667 20.586L81.7686 18.1607C82.3702 18.5848 83.078 18.936 83.8928 19.2143C84.7207 19.4794 85.5559 19.6119 86.3975 19.6119C87.0386 19.6119 87.5528 19.5523 87.9402 19.433C88.3407 19.3004 88.6349 19.1216 88.8217 18.8962C89.0086 18.671 89.1023 18.4126 89.1023 18.121C89.1023 17.7499 88.9554 17.4583 88.6617 17.2463C88.3675 17.021 87.9801 16.8421 87.4996 16.7096C87.0186 16.5638 86.4844 16.4312 85.8965 16.312C85.3223 16.1794 84.7412 16.0204 84.1533 15.8349C83.5786 15.6493 83.0512 15.4108 82.5701 15.1192C82.0896 14.8277 81.6954 14.4433 81.388 13.9662C81.0944 13.4891 80.9475 12.8795 80.9475 12.1374C80.9475 11.3422 81.1612 10.6199 81.5886 9.97055C82.0291 9.30792 82.6838 8.78445 83.5523 8.40013C84.4338 8.00255 85.5359 7.80371 86.858 7.80371C87.7396 7.80371 88.608 7.90976 89.4628 8.12182C90.318 8.32061 91.0728 8.6254 91.727 9.03624L90.7254 11.4813C90.0707 11.1103 89.4165 10.8386 88.7617 10.6663C88.107 10.4808 87.4659 10.388 86.838 10.388C86.2101 10.388 85.6959 10.4609 85.2954 10.6067C84.8944 10.7524 84.6075 10.9446 84.4338 11.1832C84.2601 11.4084 84.1733 11.6736 84.1733 11.9783C84.1733 12.3362 84.3201 12.6277 84.6138 12.853C84.908 13.0651 85.2954 13.2373 85.7759 13.3699C86.257 13.5024 86.7849 13.6349 87.3591 13.7674C87.947 13.9 88.528 14.0524 89.1023 14.2247C89.6901 14.397 90.2244 14.6289 90.7054 14.9204C91.1859 15.212 91.5733 15.5963 91.8675 16.0734C92.1744 16.5506 92.328 17.1535 92.328 17.8824C92.328 18.6643 92.108 19.38 91.667 20.0293C91.2265 20.6788 90.5649 21.2022 89.6833 21.5998C88.8149 21.9974 87.7133 22.1962 86.3775 22.1962Z" fill="#0B0E11"/>
<path fill-rule="evenodd" clip-rule="evenodd" d="M104.945 8.91704C103.783 8.33394 102.441 8.04236 100.918 8.04236H94.5464V21.9577H100.918C102.441 21.9577 103.783 21.6728 104.945 21.1029C106.107 20.5198 107.016 19.7114 107.671 18.6777C108.325 17.6307 108.652 16.4048 108.652 15C108.652 13.582 108.325 12.3561 107.671 11.3224C107.016 10.2887 106.107 9.48694 104.945 8.91704ZM103.182 18.7969C102.501 19.1415 101.693 19.3138 100.757 19.3138H97.7922V10.6863H100.757C101.693 10.6863 102.501 10.8652 103.182 11.223C103.877 11.5676 104.411 12.0646 104.785 12.7139C105.173 13.3501 105.366 14.1121 105.366 15C105.366 15.8747 105.173 16.6367 104.785 17.2861C104.411 17.9355 103.877 18.4391 103.182 18.7969Z" fill="#0B0E11"/>
<path d="M26.9844 0V6.91447H17.0924V11.1524H26.9844V18.0669H10.1231L10.123 2.77608e-05L26.9844 0Z" fill="#0B0E11"/>
<path d="M17.0923 30V22.3048H0.230915V30H17.0923Z" fill="#00E98D"/>
</g>
<defs>
<clipPath id="clip0_149_255">
<rect width="108.421" height="30" fill="white" transform="translate(0.230957)"/>
</clipPath>
</defs>
</svg>
