<svg width="102" height="30" viewBox="0 0 102 30" fill="none" xmlns="http://www.w3.org/2000/svg">
<g clip-path="url(#clip0_149_281)">
<path d="M30.6519 15C30.6519 6.71573 23.9361 0 15.6519 0C7.36758 0 0.651855 6.71573 0.651855 15C0.651855 23.2843 7.36758 30 15.6519 30C23.9361 30 30.6519 23.2843 30.6519 15Z" fill="#1A5AFF"/>
<path fill-rule="evenodd" clip-rule="evenodd" d="M8.15186 8.25146H13.1519C13.1519 11.0129 10.9133 13.2514 8.15186 13.2514V8.25146ZM13.1519 13.2514C13.1519 10.49 15.3904 8.25146 18.1518 8.25146H23.1519V13.2514H18.1518V18.2514V23.2515H13.1519V18.2514V13.2514Z" fill="white"/>
</g>
<path d="M47.4398 22.5V10.572H42.7358V7.79997H55.5458V10.572H50.8418V22.5H47.4398Z" fill="black"/>
<path d="M63.4512 22.752C61.3652 22.752 59.7342 22.171 58.5582 21.009C57.3822 19.847 56.7942 18.188 56.7942 16.032V7.79997H60.1962V15.906C60.1962 17.306 60.4832 18.314 61.0572 18.93C61.6312 19.546 62.4362 19.854 63.4722 19.854C64.5082 19.854 65.3132 19.546 65.8872 18.93C66.4612 18.314 66.7482 17.306 66.7482 15.906V7.79997H70.1082V16.032C70.1082 18.188 69.5202 19.847 68.3442 21.009C67.1682 22.171 65.5372 22.752 63.4512 22.752Z" fill="black"/>
<path d="M78.09 22.752C76.914 22.752 75.787 22.598 74.709 22.29C73.631 21.968 72.763 21.555 72.105 21.051L73.26 18.489C73.89 18.937 74.632 19.308 75.486 19.602C76.354 19.882 77.229 20.022 78.111 20.022C78.783 20.022 79.322 19.959 79.728 19.833C80.148 19.693 80.456 19.504 80.652 19.266C80.848 19.028 80.946 18.755 80.946 18.447C80.946 18.055 80.792 17.747 80.484 17.523C80.176 17.285 79.77 17.096 79.266 16.956C78.762 16.802 78.202 16.662 77.586 16.536C76.984 16.396 76.375 16.228 75.759 16.032C75.157 15.836 74.604 15.584 74.1 15.276C73.596 14.968 73.183 14.562 72.861 14.058C72.553 13.554 72.399 12.91 72.399 12.126C72.399 11.286 72.623 10.523 73.071 9.83697C73.533 9.13697 74.219 8.58397 75.129 8.17797C76.053 7.75797 77.208 7.54797 78.594 7.54797C79.518 7.54797 80.428 7.65997 81.324 7.88397C82.22 8.09397 83.011 8.41597 83.697 8.84997L82.647 11.433C81.961 11.041 81.275 10.754 80.589 10.572C79.903 10.376 79.231 10.278 78.573 10.278C77.915 10.278 77.376 10.355 76.956 10.509C76.536 10.663 76.235 10.866 76.053 11.118C75.871 11.356 75.78 11.636 75.78 11.958C75.78 12.336 75.934 12.644 76.242 12.882C76.55 13.106 76.956 13.288 77.46 13.428C77.964 13.568 78.517 13.708 79.119 13.848C79.735 13.988 80.344 14.149 80.946 14.331C81.562 14.513 82.122 14.758 82.626 15.066C83.13 15.374 83.536 15.78 83.844 16.284C84.166 16.788 84.327 17.425 84.327 18.195C84.327 19.021 84.096 19.777 83.634 20.463C83.172 21.149 82.479 21.702 81.555 22.122C80.645 22.542 79.49 22.752 78.09 22.752Z" fill="black"/>
<path d="M86.4416 22.5V7.79997H93.1196C94.7156 7.79997 96.1226 8.10797 97.3406 8.72397C98.5586 9.32597 99.5106 10.173 100.197 11.265C100.883 12.357 101.226 13.652 101.226 15.15C101.226 16.634 100.883 17.929 100.197 19.035C99.5106 20.127 98.5586 20.981 97.3406 21.597C96.1226 22.199 94.7156 22.5 93.1196 22.5H86.4416ZM89.8436 19.707H92.9516C93.9316 19.707 94.7786 19.525 95.4926 19.161C96.2206 18.783 96.7806 18.251 97.1726 17.565C97.5786 16.879 97.7816 16.074 97.7816 15.15C97.7816 14.212 97.5786 13.407 97.1726 12.735C96.7806 12.049 96.2206 11.524 95.4926 11.16C94.7786 10.782 93.9316 10.593 92.9516 10.593H89.8436V19.707Z" fill="black"/>
<defs>
<clipPath id="clip0_149_281">
<rect width="30" height="30" fill="white" transform="translate(0.651855)"/>
</clipPath>
</defs>
</svg>
