<svg width="111" height="30" viewBox="0 0 111 30" fill="none" xmlns="http://www.w3.org/2000/svg">
<g clip-path="url(#clip0_149_315)">
<mask id="mask0_149_315" style="mask-type:luminance" maskUnits="userSpaceOnUse" x="0" y="0" width="111" height="30">
<path d="M110.006 0H0.530273V29.6498H110.006V0Z" fill="white"/>
</mask>
<g mask="url(#mask0_149_315)">
<path d="M50.2729 7.01062H55.4993V9.93802C57.2116 7.30709 59.1822 7.01062 62.0667 7.01062V12.1839H60.7531C57.2963 12.1839 55.6418 13.8105 55.6418 17.0325V22.5315H50.2729V7.01062Z" fill="black"/>
<path d="M79.504 22.5315H74.1366V21.0519C72.9644 22.412 71.3669 23.0032 69.3974 23.0032C65.6571 23.0032 63.5425 20.7855 63.5425 16.7068V7.01062H68.9102V15.4963C68.9102 17.4166 69.8526 18.5395 71.4509 18.5395C73.0491 18.5395 74.1355 17.4449 74.1355 15.5839V7.01062H79.5032V22.5315H79.504Z" fill="black"/>
<path d="M80.8154 17.7395H85.8427C86.0718 18.8625 86.8428 19.3351 88.6972 19.3351C90.2114 19.3351 91.0964 18.9811 91.0964 18.3307C91.0964 17.8271 90.6678 17.5015 89.4416 17.236L85.3867 16.3192C82.6736 15.6998 81.3026 14.1325 81.3026 11.6184C81.3026 8.30601 83.7292 6.59192 88.4411 6.59192C93.1526 6.59192 95.4652 8.26224 95.8664 11.841H90.8703C90.7856 10.8959 89.8128 10.3175 88.2146 10.3175C86.9302 10.3175 86.1037 10.7308 86.1037 11.3529C86.1037 11.8847 86.6448 12.298 87.7319 12.5662L91.9859 13.6016C94.7838 14.2803 96.1274 15.7007 96.1274 18.0059C96.1274 21.1997 93.3569 23.0917 88.6481 23.0917C83.9388 23.0917 80.8237 21.0519 80.8237 17.7395H80.8181H80.8154Z" fill="black"/>
<path d="M110.422 11.8382V7.01062H97.1724V11.841H101.126V22.5315H106.466V11.8382H110.422Z" fill="black"/>
<path d="M48.7787 11.8382V7.01062H35.5303V11.841H39.4839V22.5315H44.8251V11.8382H48.7787Z" fill="black"/>
<path d="M0.776367 4.28299L13.9538 0V29.6498C4.54118 25.6961 0.776367 18.119 0.776367 13.8369V4.28299Z" fill="black"/>
<path d="M27.1324 4.28299L13.9551 0V29.6498C23.3676 25.6961 27.1324 18.119 27.1324 13.8369V4.28299Z" fill="url(#paint0_linear_149_315)"/>
<path d="M27.1324 4.28299L13.9551 0V29.6498C23.3676 25.6961 27.1324 18.119 27.1324 13.8369V4.28299Z" fill="url(#paint1_linear_149_315)"/>
</g>
</g>
<defs>
<linearGradient id="paint0_linear_149_315" x1="13.3986" y1="33.3763" x2="24.185" y2="-5.63584" gradientUnits="userSpaceOnUse">
<stop offset="0.26" stop-color="#48FF91"/>
<stop offset="0.66" stop-color="#0094FF"/>
<stop offset="0.8" stop-color="#0038FF"/>
<stop offset="0.89" stop-color="#0500FF"/>
</linearGradient>
<linearGradient id="paint1_linear_149_315" x1="23.3861" y1="-1.71363" x2="13.4325" y2="29.6074" gradientUnits="userSpaceOnUse">
<stop offset="0.02" stop-color="#0000FF"/>
<stop offset="0.08" stop-color="#0094FF"/>
<stop offset="0.16" stop-color="#48FF91"/>
<stop offset="0.42" stop-color="#0094FF"/>
<stop offset="0.68" stop-color="#0038FF"/>
<stop offset="0.9" stop-color="#0500FF"/>
</linearGradient>
<clipPath id="clip0_149_315">
<rect width="109.875" height="30" fill="white" transform="translate(0.225586)"/>
</clipPath>
</defs>
</svg>
