<svg width="123" height="31" viewBox="0 0 123 31" fill="none" xmlns="http://www.w3.org/2000/svg">
<g clip-path="url(#clip0_10275_2071)">
<mask id="mask0_10275_2071" style="mask-type:luminance" maskUnits="userSpaceOnUse" x="0" y="0" width="122" height="31">
<path d="M121.855 0.644531H0.736328V30.5627H121.855V0.644531Z" fill="white"/>
</mask>
<g mask="url(#mask0_10275_2071)">
<path d="M31.4675 3.08203H3.22656V28.072H31.4675V3.08203Z" fill="#B7A38E"/>
<path d="M8.20384 23.9062H3.22656V25.5835H8.20384V23.9062Z" fill="#6A5C52"/>
<path d="M31.4675 23.9062H26.4902V25.5835H31.4675V23.9062Z" fill="#6A5C52"/>
<path d="M26.49 26.3984H8.20361V28.0757H26.49V26.3984Z" fill="#6A5C52"/>
<path d="M24 3.08203H10.6909V5.52021H24V3.08203Z" fill="#312A1D"/>
<path d="M28.9773 10.5991H31.4673V3.08271V0.644531H28.9773H24V3.08271H28.9773V10.5991Z" fill="#312A1D"/>
<path d="M33.9573 10.5977H31.4673V25.5813H33.9573V10.5977Z" fill="#312A1D"/>
<path d="M5.71384 3.08271H10.6911V0.644531H5.71384H3.22656V3.08271V10.5991H5.71384V3.08271Z" fill="#312A1D"/>
<path d="M5.71384 25.5859H3.22656V28.0732H5.71384H8.20384V25.5859H5.71384Z" fill="#312A1D"/>
<path d="M26.49 28.0742H8.20361V30.5642H26.49V28.0742Z" fill="#312A1D"/>
<path d="M26.4902 25.5859V28.0732H28.9775H31.4675V25.5859H28.9775H26.4902Z" fill="#312A1D"/>
<path d="M3.22633 10.5977H0.736328V25.5813H3.22633V10.5977Z" fill="#312A1D"/>
<path d="M26.49 3.94531H25.6772V5.61986H26.49V6.43259H28.1645V5.61986V3.94531H26.49Z" fill="#6A5C52"/>
<path d="M9.06812 3.94531H8.2554H6.57812V5.61986V6.43259H8.2554V5.61986H9.06812V3.94531Z" fill="#6A5C52"/>
<path d="M13.23 14.7656H10.6909V17.3047H13.23V14.7656Z" fill="#312A1D"/>
<path d="M15.6709 17.2539H13.9937V18.9312H15.6709V17.2539Z" fill="#312A1D"/>
<path d="M20.6997 17.2539H19.0225V18.9312H20.6997V17.2539Z" fill="#312A1D"/>
<path d="M20.6973 22.2324H19.0228V21.417H15.671V22.2324H13.9937V18.9297H12.3164V24.7197H13.9937V25.5842H15.671V26.397H16.4837V27.2097H18.1582V26.397H19.0228V25.5842H20.6973V24.7197H22.3746V18.9297H20.6973V22.2324Z" fill="#312A1D"/>
<path d="M24 14.7656H21.4609V17.3047H24V14.7656Z" fill="#312A1D"/>
<path d="M42.7361 25.216L38.9834 21.4687V9.29688H43.6661V19.5978L44.6016 20.5332L45.5398 19.5978V9.29688H50.2225V19.6251L51.1579 20.5332L52.0934 19.5978V9.29688H56.7761V21.4687L53.0316 25.216H49.2816L47.877 23.8114L46.4725 25.216H42.7361Z" fill="#352B1B"/>
<path d="M57.9463 25.216V9.29688H69.1908V25.216H57.9463ZM64.4917 20.5332V13.9878H62.6181V20.5332H64.4917Z" fill="#352B1B"/>
<path d="M70.3525 25.216V9.29688H74.0998L77.4925 12.6896L80.888 9.29688H84.6325V25.216H79.9525V16.7887L77.498 19.2432L75.0434 16.7887V25.216H70.3525Z" fill="#352B1B"/>
<path d="M85.8057 25.216V9.29688H95.1684L97.042 11.1705V15.8505L95.1684 17.7241L97.042 19.5978V23.3423L95.1684 25.216H85.8057ZM92.3511 15.8505V13.9796H90.4775V15.8505H92.3511ZM92.3511 20.5332V18.6596H90.4775V20.5332H92.3511Z" fill="#352B1B"/>
<path d="M98.2119 25.216V9.29688H109.448V25.216H104.766V21.9951H102.895V25.216H98.2119ZM104.757 17.7241V13.9796H102.886V17.7241H104.757Z" fill="#352B1B"/>
<path d="M113.427 25.216V13.9796H110.618V9.29688H121.855V13.9796H119.045V25.216H113.427Z" fill="#352B1B"/>
</g>
</g>
<defs>
<clipPath id="clip0_10275_2071">
<rect width="121.364" height="30" fill="white" transform="translate(0.736328 0.644531)"/>
</clipPath>
</defs>
</svg>
