<svg width="132" height="25" viewBox="0 0 132 25" fill="none" xmlns="http://www.w3.org/2000/svg">
<g clip-path="url(#clip0_10271_2198)">
<path fill-rule="evenodd" clip-rule="evenodd" d="M0.100098 24.6445L23.1622 5.44042C23.4447 5.19412 23.6736 4.89241 23.8346 4.554C23.9957 4.21559 24.0855 3.8477 24.0985 3.47315C24.1116 3.09858 24.0474 2.72534 23.9102 2.37658C23.773 2.02781 23.5656 1.71095 23.3009 1.44565C23.0355 1.18037 22.7184 0.972483 22.3693 0.834948C22.0201 0.697415 21.6465 0.633167 21.2715 0.646177C20.8965 0.659186 20.5281 0.749176 20.1894 0.910571C19.8506 1.07197 19.5486 1.30131 19.3023 1.58435L0.100098 24.6445ZM11.2254 4.18953L1.51505 11.4717L8.79785 1.76214C8.94673 1.56362 9.13659 1.3994 9.35447 1.28055C9.57236 1.1617 9.8133 1.09101 10.0608 1.07326C10.3085 1.05551 10.5569 1.0911 10.7895 1.17764C11.0221 1.26419 11.2335 1.39966 11.4092 1.57489C11.5853 1.75043 11.7215 1.96176 11.8086 2.19456C11.8959 2.42737 11.932 2.67621 11.9145 2.9242C11.8971 3.17218 11.8266 3.41351 11.7077 3.63183C11.5888 3.85015 11.4243 4.04034 11.2254 4.18953ZM22.9822 15.9474L13.2718 23.2296L20.5546 13.52C20.7036 13.3215 20.8934 13.1573 21.1113 13.0384C21.3292 12.9196 21.57 12.8489 21.8176 12.8311C22.0651 12.8134 22.3136 12.849 22.5462 12.9355C22.7789 13.022 22.9902 13.1575 23.166 13.3327C23.342 13.5083 23.4783 13.7196 23.5655 13.9524C23.6526 14.1852 23.6887 14.4341 23.6712 14.682C23.6538 14.93 23.5832 15.1714 23.4643 15.3897C23.3454 15.608 23.181 15.7982 22.9822 15.9474Z" fill="black"/>
<path fill-rule="evenodd" clip-rule="evenodd" d="M36.9574 12.6432C36.9574 9.47356 39.6518 6.72891 43.386 6.72891C45.2372 6.72891 46.8907 7.4044 48.0668 8.46593C48.1371 8.52936 48.2454 8.52699 48.3108 8.4585L50.5594 6.10212C50.6248 6.03363 50.6224 5.92501 50.5527 5.86085C48.6954 4.14964 46.1463 3.12891 43.386 3.12891C37.8605 3.12891 33.3574 7.29391 33.3574 12.6432C33.3574 17.9924 37.8605 22.1575 43.386 22.1575C45.8426 22.1575 48.2707 21.3337 50.0692 19.921L50.6918 19.432C50.7332 19.3995 50.7574 19.3498 50.7574 19.2972V18.5054V16.9289V16.745V12.6432V11.2718C50.7574 11.177 50.6807 11.1003 50.586 11.1003H46.0313C45.9842 11.1003 45.9391 11.1198 45.9067 11.1541L42.994 14.2398C42.8908 14.3492 42.9683 14.5289 43.1187 14.5289H46.986C47.0807 14.5289 47.1574 14.6056 47.1574 14.7003V16.745V16.9289V17.4578C47.1574 17.5188 47.1252 17.5752 47.0721 17.6052C46.0275 18.1951 44.7258 18.5575 43.386 18.5575C39.6518 18.5575 36.9574 15.8128 36.9574 12.6432ZM98.1566 3.55756H94.122C93.9814 3.55756 93.9008 3.71837 93.9848 3.83145L100.56 12.6519C100.606 12.7133 100.605 12.7976 100.559 12.8584L93.9908 21.4535C93.9051 21.5663 93.9857 21.729 94.1271 21.729H98.4943C98.5491 21.729 98.5997 21.7034 98.6323 21.66L102.817 16.0471C102.885 15.9551 103.023 15.9551 103.091 16.0471L107.276 21.66C107.308 21.7034 107.359 21.729 107.413 21.729H111.78C111.922 21.729 112.003 21.5663 111.916 21.4535L105.349 12.8584C105.303 12.7976 105.302 12.7133 105.347 12.6519L111.923 3.83145C112.007 3.71837 111.927 3.55756 111.785 3.55756H107.751C107.697 3.55756 107.648 3.58246 107.615 3.6249L103.09 9.54625C103.022 9.63608 102.886 9.63608 102.818 9.54625L98.2928 3.6249C98.2603 3.58246 98.2097 3.55756 98.1566 3.55756ZM66.3316 3.55739H62.4404C62.3726 3.55739 62.3111 3.59735 62.2837 3.65934L54.3785 21.4879C54.3283 21.6013 54.4113 21.7288 54.5353 21.7288H58.2733C58.3417 21.7288 58.4036 21.6882 58.4306 21.6254L59.9415 18.1289H68.8304L70.3413 21.6254C70.3684 21.6882 70.4303 21.7288 70.4987 21.7288H74.2368C74.3607 21.7288 74.4437 21.6013 74.3935 21.4879L66.4884 3.65933C66.4609 3.59735 66.3994 3.55739 66.3316 3.55739ZM67.423 14.8718H61.349L64.2286 8.20737C64.2882 8.06947 64.4838 8.06947 64.5434 8.20737L67.423 14.8718ZM78.6943 3.55748C78.5996 3.55748 78.5228 3.63423 78.5228 3.72891V21.5575C78.5228 21.6522 78.5996 21.7289 78.6943 21.7289H81.5228H82.4657H88.7254C88.7777 21.7289 88.8274 21.7049 88.86 21.6637L91.1606 18.7494C91.2497 18.637 91.1691 18.4718 91.026 18.4718H82.6371V3.72891C82.6371 3.63423 82.5604 3.55748 82.4657 3.55748H78.6943ZM120.186 6.98605C120.186 6.89137 120.263 6.81462 120.357 6.81462H130.986C131.08 6.81462 131.157 6.73787 131.157 6.64319V3.72891C131.157 3.63423 131.08 3.55748 130.986 3.55748H116.243C116.241 3.55748 116.24 3.5575 116.238 3.55756C116.146 3.55756 116.072 3.6319 116.072 3.7236V21.5576C116.072 21.6523 116.149 21.729 116.243 21.729H120.186V21.7289H131.329C131.423 21.7289 131.5 21.6522 131.5 21.5575V18.6432C131.5 18.5485 131.423 18.4718 131.329 18.4718H120.357C120.263 18.4718 120.186 18.395 120.186 18.3003V14.3575C120.186 14.2628 120.263 14.186 120.357 14.186H130.3C130.395 14.186 130.472 14.1093 130.472 14.0146V11.1003C130.472 11.0056 130.395 10.9289 130.3 10.9289H120.357C120.263 10.9289 120.186 10.8522 120.186 10.7575V6.98605Z" fill="black"/>
</g>
<defs>
<clipPath id="clip0_10271_2198">
<rect width="131.4" height="24" fill="white" transform="translate(0.100098 0.644531)"/>
</clipPath>
</defs>
</svg>
