<svg width="140.7" viewBox="0 0 469 111" fill="none" xmlns="http://www.w3.org/2000/svg">
<g clip-path="url(#clip0_32_29)">
<path fill-rule="evenodd" clip-rule="evenodd" d="M10.9933 42.3977C16.7373 24.3251 33.6522 11.2321 53.6247 11.2321C78.3257 11.2321 98.3494 31.2596 98.3494 55.9639C98.3494 78.9135 81.0693 97.8268 58.8126 100.398V86.3112C68.5693 84.6582 76.7643 78.4185 81.1011 69.8887H68.7096C64.9588 73.9452 59.5909 76.4853 53.6292 76.4853C42.2905 76.4853 33.0984 67.2977 33.0984 55.9639C33.0984 44.6306 42.2905 35.4433 53.6292 35.4433C59.7682 35.4433 65.2783 38.1365 69.0407 42.4059H81.284C76.2682 32.2036 65.7692 25.1827 53.6292 25.1827C36.6211 25.1827 22.8333 38.9641 22.8333 55.9639C22.8333 71.2184 33.935 83.8815 48.5037 86.321V100.405C30.9344 98.4026 16.4555 86.2181 11.1112 69.8969H0.414598C6.58283 93.5248 28.068 110.962 53.6247 110.962C83.9944 110.962 108.615 86.3389 108.615 55.9639C108.615 25.5894 83.9944 0.96582 53.6247 0.96582C27.9355 0.965446 6.36058 18.5838 0.320312 42.3977H10.9933ZM159.558 76.2025H147.584V58.5007L151 58.3286H158.17C161.872 58.2713 164.736 59.0806 166.76 60.7579C168.843 62.3776 169.885 64.6334 169.885 67.5259C169.885 70.1869 168.959 72.2978 167.108 73.8595C165.256 75.4212 162.74 76.2025 159.558 76.2025ZM171.101 53.8291C172.731 52.7504 174.09 51.503 175.178 50.0864C177.144 47.5415 178.128 44.6781 178.128 41.4967C178.128 37.7369 177.289 34.6135 175.611 32.1269C173.934 29.5815 171.561 27.6726 168.496 26.4001C165.488 25.0697 161.901 24.4044 157.736 24.4044L147.584 24.5193V24.4912H137.692V85.2254H160.339C164.389 85.2254 167.888 84.5602 170.839 83.2297C173.789 81.8996 176.074 79.9619 177.694 77.4169C179.314 74.872 180.124 71.8062 180.124 68.2196C180.124 64.1133 179.025 60.7579 176.827 58.1557C175.341 56.3965 173.432 54.9541 171.101 53.8291ZM147.584 32.7334H157.215C160.57 32.6761 163.174 33.3994 165.025 34.9027C166.934 36.4068 167.888 38.5469 167.888 41.3231C167.888 44.0417 167.05 46.1818 165.372 47.7435C163.753 49.2476 161.496 50 158.604 50H147.584V32.7334ZM219.384 80.6013L219.63 85.2254H228.741L229.001 61.4527C229.001 56.9408 228.307 53.1526 226.919 50.0864C225.531 47.0206 223.419 44.7077 220.584 43.146C217.808 41.5835 214.308 40.803 210.085 40.803C206.787 40.803 203.924 41.295 201.494 42.2783C199.123 43.2616 197.156 44.5913 195.594 46.2694C194.032 47.9463 192.759 49.7392 191.776 51.6481L200.627 54.7715C201.668 52.979 202.969 51.6481 204.532 50.7805C206.093 49.9128 207.887 49.4792 209.911 49.4792C212.11 49.4792 213.874 50 215.205 51.0409C216.593 52.0821 217.605 53.5862 218.242 55.5528C218.58 56.5993 218.829 57.7849 218.987 59.1102H208.176C202.738 59.1102 198.486 60.2959 195.421 62.6672C192.412 65.0389 190.908 68.48 190.908 72.9922C190.908 77.2141 192.326 80.4831 195.16 82.7961C198.052 85.1098 202.102 86.2667 207.309 86.2667C212.572 86.2667 216.448 84.5894 218.936 81.2344C219.091 81.0271 219.24 80.816 219.384 80.6013ZM219.196 67.2659V66.5718H211.3C207.424 66.5718 204.705 67.1211 203.143 68.22C201.581 69.2612 200.8 70.7657 200.8 72.7318C200.8 74.4092 201.466 75.7396 202.796 76.7229C204.184 77.6482 206.093 78.111 208.523 78.111C210.664 78.111 212.514 77.6197 214.077 76.6357C215.697 75.5952 216.94 74.2647 217.808 72.6447C218.733 70.9677 219.196 69.1748 219.196 67.2659ZM243.187 85.2254V24.4912H252.905V48.1794C254.074 46.355 255.491 44.8502 257.157 43.6653C259.818 41.7564 262.971 40.8023 266.615 40.8023C270.549 40.8023 273.962 41.7564 276.855 43.6653C279.805 45.5162 282.09 48.1483 283.709 51.561C285.387 54.9156 286.226 58.9066 286.226 63.5341C286.226 68.1036 285.387 72.0947 283.709 75.5073C282.09 78.9206 279.805 81.5809 276.855 83.4901C273.962 85.3411 270.549 86.266 266.615 86.266C262.971 86.266 259.818 85.3411 257.157 83.4901C255.442 82.2322 253.991 80.6485 252.803 78.7381L252.385 85.2247H243.187V85.2254ZM254.294 70.7365C253.368 68.6536 252.905 66.2534 252.905 63.5349C252.905 60.8163 253.368 58.4161 254.294 56.3332C255.277 54.2515 256.637 52.6314 258.372 51.4745C260.107 50.3177 262.074 49.7392 264.273 49.7392C266.645 49.7392 268.727 50.3177 270.52 51.4745C272.314 52.6314 273.702 54.2515 274.685 56.3332C275.727 58.4161 276.247 60.8163 276.247 63.5349C276.247 66.2534 275.697 68.6536 274.599 70.7365C273.558 72.8186 272.14 74.4671 270.347 75.6816C268.553 76.8385 266.5 77.4169 264.186 77.4169C261.987 77.4169 260.021 76.8385 258.286 75.6816C256.608 74.4671 255.277 72.8186 254.294 70.7365ZM299.431 102.839C301.167 103.359 302.729 103.62 304.117 103.62C307.01 103.62 309.381 103.041 311.232 101.884C313.083 100.786 314.617 99.1947 315.831 97.1122C317.104 95.03 318.347 92.6007 319.562 89.8241L339.694 41.8443H329.107L316.254 73.9362L302.989 41.8443H292.402L311.691 84.8936L309.323 90.4314C308.745 91.8195 307.964 92.8607 306.98 93.5548C306.055 94.3068 304.898 94.6828 303.51 94.6828C302.931 94.6828 302.179 94.5096 301.253 94.1624C300.328 93.8732 299.315 93.4683 298.216 92.9475L294.571 100.843C296.129 101.651 297.755 102.319 299.431 102.839ZM349.82 85.2254V24.4912H359.538V85.2251H349.82V85.2254ZM382.992 83.4037C386.405 85.3126 390.281 86.2667 394.621 86.2667C398.901 86.2667 402.721 85.3126 406.074 83.4037C409.43 81.4372 412.034 78.7474 413.886 75.3352C415.734 71.9218 416.662 67.9887 416.662 63.5349C416.662 59.081 415.708 55.1479 413.796 51.7353C411.948 48.3223 409.344 45.6617 405.988 43.7528C402.631 41.7863 398.785 40.803 394.449 40.803C390.109 40.803 386.262 41.7863 382.906 43.7528C379.55 45.6617 376.92 48.3223 375.012 51.7353C373.159 55.1479 372.234 59.081 372.234 63.5349C372.234 67.9887 373.189 71.9218 375.098 75.3352C377.006 78.7474 379.64 81.4372 382.992 83.4037ZM400.955 75.5952C399.103 76.7521 396.993 77.3305 394.621 77.3305C392.193 77.3305 390.023 76.7521 388.114 75.5952C386.262 74.3803 384.788 72.761 383.688 70.7365C382.648 68.6536 382.124 66.2534 382.124 63.5349C382.124 60.8163 382.648 58.4161 383.688 56.3332C384.728 54.2515 386.176 52.6314 388.025 51.4745C389.877 50.3177 392.017 49.7392 394.449 49.7392C396.877 49.7392 399.017 50.3468 400.869 51.5617C402.721 52.7186 404.165 54.3379 405.206 56.4204C406.306 58.4449 406.856 60.8163 406.856 63.5349C406.856 66.2534 406.336 68.6536 405.295 70.7365C404.251 72.761 402.807 74.3803 400.955 75.5952ZM429.421 41.8443H438.531L438.991 47.8774C440.14 46.022 441.547 44.5318 443.215 43.406C445.704 41.6707 448.656 40.803 452.068 40.803C457.332 40.803 461.38 42.4227 464.216 45.6617C467.109 48.8431 468.553 53.7595 468.553 60.4115V85.2254H458.836V63.0144C458.836 59.5438 458.432 56.8832 457.62 55.0319C456.868 53.1234 455.768 51.7929 454.324 51.0409C452.936 50.2892 451.286 49.9128 449.378 49.9128C446.138 49.8556 443.623 50.9253 441.827 53.1234C440.035 55.3212 439.137 58.4734 439.137 62.5808V85.2254H429.421V41.8443Z" fill="black"/>
<path d="M64.8848 55.9404C64.8848 62.1711 59.8337 67.2218 53.603 67.2218C47.3723 67.2218 42.3213 62.1711 42.3213 55.9404C42.3213 49.7097 47.3723 44.6587 53.603 44.6587C59.8337 44.6587 64.8848 49.7097 64.8848 55.9404Z" fill="#FF7C2B"/>
</g>
<defs>
<clipPath id="clip0_32_29">
<rect width="468.81" height="110" fill="white" transform="translate(0.0952148 0.961914)"/>
</clipPath>
</defs>
</svg>
