<svg width="118" height="31" viewBox="0 0 118 31" fill="none" xmlns="http://www.w3.org/2000/svg">
<g clip-path="url(#clip0_10275_2010)">
<path fill-rule="evenodd" clip-rule="evenodd" d="M20.2615 1.40625C24.6374 2.88371 28.08 6.3483 29.5753 10.728C30.1745 12.3182 30.5024 14.0423 30.5024 15.8432C30.5024 20.852 27.9663 25.2662 24.113 27.8622C21.6683 29.6129 18.6762 30.6429 15.4445 30.6429C14.4938 30.6429 13.4558 30.4779 12.5547 30.3075L12.558 30.3017C12.6086 30.2112 13.2469 29.071 14.4727 26.8811L20.0103 16.9541L20.7398 15.6856L18.3385 11.5101H14.5055C18.3429 4.77422 20.2615 1.40625 20.2615 1.40625Z" fill="#CBFF01"/>
<path fill-rule="evenodd" clip-rule="evenodd" d="M15.442 0.644531C16.5473 0.644531 17.5325 0.720925 18.5695 0.949509C18.5771 0.951187 16.5084 4.66633 12.3636 12.0949L11.6673 13.3231L10.9921 14.5337L10.2626 15.8021L12.664 19.9777H16.5093L11.0098 29.5731C10.9991 29.5897 10.9898 29.6059 10.9808 29.6215L10.9422 29.689C10.8537 29.8435 10.8095 29.9207 10.8095 29.9207C4.78378 27.9876 0.5 22.335 0.5 15.6445C0.5 7.36027 7.18975 0.644531 15.442 0.644531Z" fill="#00FFA3"/>
<path d="M47.4983 23.4063V8.409H50.5553V23.4063H47.4983ZM42.5 10.7197V8.08203H55.5536V10.7197H42.5Z" fill="white"/>
<path d="M59.1636 23.6209C58.1818 23.6209 57.2967 23.381 56.5083 22.9015C55.7199 22.4219 55.1025 21.768 54.6562 20.9397C54.21 20.1114 53.9868 19.1812 53.9868 18.1494C53.9868 17.1031 54.21 16.1659 54.6562 15.3375C55.1025 14.5092 55.7199 13.8551 56.5083 13.3756C57.2967 12.896 58.1818 12.6562 59.1636 12.6562C59.9372 12.6562 60.6289 12.8088 61.2388 13.114C61.8487 13.4192 62.3322 13.8479 62.6892 14.4001C63.0611 14.9378 63.262 15.5481 63.2917 16.2312V20.0241C63.262 20.7216 63.0611 21.3393 62.6892 21.877C62.3322 22.4147 61.8487 22.8433 61.2388 23.163C60.6289 23.4682 59.9372 23.6209 59.1636 23.6209ZM59.6992 20.9832C60.5174 20.9832 61.1793 20.7217 61.6851 20.1986C62.1909 19.6609 62.4438 18.9706 62.4438 18.1277C62.4438 17.5755 62.3248 17.0886 62.0868 16.6671C61.8636 16.2312 61.5438 15.8969 61.1273 15.6644C60.7256 15.4173 60.2496 15.2938 59.6992 15.2938C59.1636 15.2938 58.6876 15.4173 58.2711 15.6644C57.8694 15.8969 57.5496 16.2312 57.3116 16.6671C57.0885 17.0886 56.9769 17.5755 56.9769 18.1277C56.9769 18.6945 57.0885 19.1957 57.3116 19.6317C57.5496 20.0531 57.8694 20.3874 58.2711 20.6344C58.6876 20.8669 59.1636 20.9832 59.6992 20.9832ZM62.2876 23.4029V20.569L62.7562 17.9969L62.2876 15.4682V12.8742H65.1884V23.4029H62.2876Z" fill="white"/>
<path d="M71.4784 23.6433C70.8685 23.6433 70.2661 23.5634 69.671 23.4035C69.0909 23.2437 68.5553 23.0257 68.0644 22.7496C67.5735 22.4589 67.1496 22.1101 66.7925 21.7032L68.533 19.9812C68.9049 20.3881 69.3363 20.6933 69.8272 20.8967C70.3181 21.1002 70.8611 21.2019 71.4561 21.2019C71.9322 21.2019 72.2892 21.1365 72.5272 21.0057C72.7801 20.8749 72.9065 20.6787 72.9065 20.4171C72.9065 20.1265 72.7727 19.9012 72.5049 19.7414C72.252 19.5815 71.9173 19.4507 71.5008 19.349C71.0842 19.2328 70.6454 19.1092 70.1842 18.9784C69.738 18.8331 69.3066 18.6515 68.89 18.4335C68.4735 18.201 68.1314 17.8885 67.8636 17.4962C67.6107 17.0893 67.4843 16.5661 67.4843 15.9267C67.4843 15.2582 67.6479 14.6769 67.9752 14.1828C68.3173 13.6887 68.8008 13.3036 69.4256 13.0275C70.0504 12.7514 70.7867 12.6133 71.6346 12.6133C72.5272 12.6133 73.3305 12.7659 74.0445 13.0711C74.7735 13.3763 75.3759 13.834 75.852 14.4444L74.0892 16.1665C73.7619 15.7741 73.39 15.4907 72.9735 15.3163C72.5718 15.1419 72.133 15.0547 71.657 15.0547C71.2256 15.0547 70.8909 15.1201 70.6528 15.2509C70.4297 15.3817 70.3181 15.5634 70.3181 15.7959C70.3181 16.0575 70.4446 16.2609 70.6975 16.4062C70.9652 16.5516 71.3074 16.6824 71.7239 16.7986C72.1404 16.9003 72.5718 17.0239 73.0181 17.1692C73.4793 17.3 73.9107 17.4889 74.3123 17.7359C74.7288 17.983 75.0635 18.31 75.3164 18.7169C75.5842 19.1238 75.7181 19.6469 75.7181 20.2864C75.7181 21.3181 75.3387 22.1392 74.5801 22.7496C73.8214 23.3454 72.7875 23.6433 71.4784 23.6433Z" fill="white"/>
<path d="M84.5621 23.4047L80.3895 17.9769L84.5397 12.8761H87.9091L83.0448 18.6309L83.1563 17.2358L88.1324 23.4047H84.5621ZM77.6895 23.4047V7.64453H80.6125V23.4047H77.6895Z" fill="white"/>
<path d="M97.1318 23.6437C95.9864 23.6437 94.9153 23.4402 93.9186 23.0333C92.9368 22.6264 92.074 22.0669 91.3302 21.3549C90.6013 20.6283 90.0286 19.7854 89.612 18.8263C89.1955 17.8526 88.9873 16.8135 88.9873 15.7091C88.9873 14.6046 89.1881 13.5801 89.5897 12.6355C90.0063 11.6764 90.579 10.8408 91.3079 10.1287C92.0517 9.40205 92.9145 8.84256 93.8963 8.45019C94.8781 8.04329 95.9417 7.83984 97.0872 7.83984C98.2475 7.83984 99.3186 8.04329 100.3 8.45019C101.282 8.84256 102.138 9.40205 102.866 10.1287C103.61 10.8408 104.19 11.6764 104.607 12.6355C105.023 13.5947 105.232 14.6264 105.232 15.7309C105.232 16.8353 105.023 17.8671 104.607 18.8263C104.19 19.7854 103.61 20.6283 102.866 21.3549C102.138 22.0669 101.282 22.6264 100.3 23.0333C99.3334 23.4402 98.2773 23.6437 97.1318 23.6437ZM97.0872 20.8753C98.0987 20.8753 98.9764 20.6573 99.7202 20.2214C100.464 19.7854 101.044 19.1823 101.461 18.4121C101.892 17.6419 102.108 16.7409 102.108 15.7091C102.108 14.9534 101.989 14.2631 101.751 13.6383C101.513 13.0134 101.171 12.4757 100.724 12.0252C100.278 11.5601 99.75 11.2041 99.1401 10.9571C98.5301 10.71 97.8459 10.5864 97.0872 10.5864C96.1054 10.5864 95.2351 10.8045 94.4765 11.2404C93.7327 11.6619 93.1451 12.2577 92.7137 13.0279C92.2971 13.7981 92.0889 14.6918 92.0889 15.7091C92.0889 16.4793 92.2079 17.1841 92.4459 17.8235C92.6988 18.463 93.0409 19.0079 93.4723 19.4584C93.9186 19.9089 94.4467 20.2577 95.0566 20.5047C95.6814 20.7518 96.3583 20.8753 97.0872 20.8753Z" fill="white"/>
<path d="M114.577 23.4029V17.3647C114.577 16.7398 114.376 16.2313 113.974 15.8389C113.573 15.4465 113.052 15.2502 112.412 15.2502C111.996 15.2502 111.624 15.3374 111.297 15.5118C110.969 15.6862 110.709 15.9332 110.516 16.253C110.337 16.5727 110.248 16.9432 110.248 17.3647L109.11 16.7979C109.11 15.9696 109.289 15.2502 109.646 14.6399C110.017 14.015 110.523 13.5283 111.163 13.1795C111.817 12.8307 112.554 12.6562 113.372 12.6562C114.16 12.6562 114.867 12.8524 115.492 13.2448C116.117 13.6226 116.607 14.1241 116.964 14.749C117.321 15.3593 117.5 16.0204 117.5 16.7325V23.4029H114.577ZM107.325 23.4029V12.8742H110.248V23.4029H107.325Z" fill="white"/>
</g>
<defs>
<clipPath id="clip0_10275_2010">
<rect width="117" height="30" fill="white" transform="translate(0.5 0.644531)"/>
</clipPath>
</defs>
</svg>
