<svg width="150" height="25" viewBox="0 0 150 25" fill="none" xmlns="http://www.w3.org/2000/svg">
<g clip-path="url(#clip0_10271_2215)">
<path d="M38.6318 21.3092C33.7522 21.3092 30.9214 17.8269 30.9214 12.6034C30.9214 7.35675 33.9365 4.01953 38.7697 4.01953C42.4754 4.01953 45.122 6.13649 45.7895 9.864H42.9775C42.4711 7.60922 40.8373 6.41217 38.6739 6.41217C36.0273 6.41217 33.9322 8.57702 33.9322 12.6034C33.9322 16.6545 35.9809 18.9093 38.6507 18.9093C40.9055 18.9093 42.5175 17.7355 43.0239 15.4575H45.8359C45.1452 19.1923 42.4754 21.3092 38.6318 21.3092Z" fill="#007BFF"/>
<path d="M53.9868 8.35208C56.9787 8.35208 58.1945 10.2848 58.1945 13.2303V21.0103H55.4566V13.9006C55.4566 12.2189 55.2071 10.5852 53.1119 10.5852C51.0167 10.5852 50.2331 12.1957 50.2331 14.4273V21.0103H47.4966V4.32422H50.2331V10.3544C50.9484 9.06452 52.2644 8.35208 53.9868 8.35208Z" fill="#007BFF"/>
<path d="M71.6142 8.6272V21.0097H68.8762V19.376C68.1391 20.5948 66.8449 21.3087 65.1937 21.3087C62.0857 21.3087 59.8076 18.7999 59.8076 14.8185C59.8076 10.837 62.0857 8.35156 65.1937 8.35156C66.8506 8.35156 68.1391 9.064 68.8762 10.2842V8.6272H71.6142ZM62.6617 14.8185C62.6617 17.4418 63.7891 19.0756 65.7914 19.0756C67.5863 19.0756 68.9835 17.6725 68.9835 14.8185C68.9835 11.9644 67.5863 10.5846 65.7914 10.5846C63.7891 10.5846 62.6617 12.1951 62.6617 14.8185Z" fill="#007BFF"/>
<path d="M85.3769 8.375C88.3689 8.375 89.5849 10.3077 89.5849 13.2531V21.0303H86.8496V13.9205C86.8496 12.2403 86.5973 10.6066 84.502 10.6066C82.4067 10.6066 81.6249 12.2171 81.6249 14.4487V21.0303H78.8867V8.65064H81.6249V10.3773C82.3391 9.08882 83.6504 8.375 85.3769 8.375Z" fill="#007BFF"/>
<path d="M96.3051 10.4687C95.108 10.4687 94.004 10.9983 94.004 11.8269C94.004 12.6553 94.6018 13.0921 95.6607 13.2996L97.4105 13.6449C99.9181 14.128 101.829 14.9101 101.829 17.3274C101.829 19.9058 99.3901 21.3321 96.5807 21.3321C93.5443 21.3321 91.5181 19.6055 91.2192 17.2578H93.8891C94.1421 18.5245 95.0629 19.2615 96.6738 19.2615C98.1 19.2615 99.1596 18.6623 99.1596 17.6495C99.1596 16.6367 98.2396 16.1768 97.0192 15.9461L95.1545 15.579C93.0607 15.164 91.4258 14.2209 91.4258 11.9647C91.4258 9.77805 93.7734 8.375 96.4665 8.375C98.8832 8.375 101.092 9.54882 101.598 12.0343H99.0214C98.7225 10.9069 97.6869 10.4687 96.3051 10.4687Z" fill="#007BFF"/>
<path d="M107.18 5.38281V8.65038H109.666V10.6295H107.18V17.3736C107.18 18.6388 107.479 18.9377 108.653 18.9377H109.643V21.03H107.612C104.965 21.03 104.436 20.3161 104.436 17.7842V10.6295H102.6V8.65038H104.442V5.38281H107.18Z" fill="#007BFF"/>
<path d="M122.851 8.65064V21.0303H120.111V19.3994C119.376 20.6182 118.08 21.3321 116.429 21.3321C113.323 21.3321 111.043 18.8234 111.043 14.8419C111.043 10.8605 113.323 8.375 116.429 8.375C118.086 8.375 119.376 9.08882 120.111 10.3077V8.65064H122.851ZM113.899 14.8419C113.899 17.4653 115.026 19.0991 117.028 19.0991C118.823 19.0991 120.22 17.6959 120.22 14.8419C120.22 11.9879 118.818 10.608 117.028 10.608C115.026 10.608 113.899 12.2186 113.899 14.8419Z" fill="#007BFF"/>
<path d="M133.598 12.8865C133.374 11.5733 132.213 10.6535 130.721 10.6535C129.019 10.6535 127.477 11.9202 127.477 14.8424C127.477 17.7879 129.04 19.0502 130.653 19.0502C131.986 19.0502 133.344 18.4509 133.69 16.7939H136.36C135.808 19.6959 133.253 21.3282 130.606 21.3282C127.015 21.3282 124.646 18.5438 124.646 14.8613C124.646 11.1787 127.038 8.37109 130.721 8.37109C133.414 8.37109 135.808 10.1123 136.268 12.8821L133.598 12.8865Z" fill="#007BFF"/>
<path d="M140.714 13.6212L145.294 8.65024H148.585L143.845 13.7373L149.114 21.0299H145.922L142.034 15.6613L140.728 17.0658V21.0299H137.976V4.34375H140.714V13.6212Z" fill="#007BFF"/>
<path d="M76.6693 21.0115H73.9297V8.62891H76.6693V21.0115Z" fill="#007BFF"/>
<path d="M75.3001 7.74952C76.3292 7.74952 77.1633 6.91541 77.1633 5.88648C77.1633 4.85755 76.3292 4.02344 75.3001 4.02344C74.271 4.02344 73.437 4.85755 73.437 5.88648C73.437 6.91541 74.271 7.74952 75.3001 7.74952Z" fill="#007BFF"/>
<path d="M17.5715 17.6794H6.22205C5.82662 17.6802 5.43492 17.6029 5.06941 17.452C4.7039 17.3012 4.37176 17.0797 4.09203 16.8001L1.77049 14.4786C1.2114 13.9149 0.898369 13.1527 0.899908 12.3587V6.32996C0.899114 5.93453 0.976374 5.54283 1.12726 5.17732C1.27815 4.81181 1.49969 4.47967 1.7792 4.19994L4.10074 1.8784C4.66497 1.31922 5.42767 1.00621 6.22205 1.00782H17.5715V4.34504H7.23627C6.44109 4.34581 5.67869 4.66204 5.11641 5.22432C4.55413 5.7866 4.2379 6.549 4.23713 7.34418V11.3431C4.23713 12.1387 4.55302 12.9018 5.11539 13.4648C5.67775 14.0277 6.44059 14.3443 7.23627 14.3451H17.5715V17.6794Z" fill="#007BFF"/>
<path d="M7.57471 7.6836H18.9256C19.7185 7.68282 20.4796 7.99578 21.0426 8.55418L23.3641 10.8757C23.9271 11.4387 24.2434 12.2023 24.2434 12.9985V19.0273C24.2434 19.8234 23.9271 20.587 23.3641 21.15L21.0426 23.4716C20.4796 24.0345 19.716 24.3508 18.9198 24.3508H7.57471V21.0136H17.91C18.7061 21.0136 19.4697 20.6973 20.0327 20.1343C20.5957 19.5713 20.912 18.8078 20.912 18.0116V14.0142C20.912 13.218 20.5957 12.4544 20.0327 11.8914C19.4697 11.3284 18.7061 11.0121 17.91 11.0121H7.57471V7.6836Z" fill="#007BFF"/>
</g>
<defs>
<clipPath id="clip0_10271_2215">
<rect width="148.364" height="24" fill="white" transform="translate(0.899902 0.644531)"/>
</clipPath>
</defs>
</svg>
