<svg width="109.8" viewBox="0 0 366 89" fill="none" xmlns="http://www.w3.org/2000/svg">
<g clip-path="url(#clip0_32_124)">
<path d="M56.4374 45.0624C59.3038 40.7628 60.7371 35.9057 60.7371 30.6506C60.7371 25.8732 59.5426 21.494 57.2337 17.4332C54.8449 13.3724 51.66 10.1875 47.5991 7.79883C43.5385 5.48978 39.0795 4.29541 34.3818 4.29541H0.462402V15.4426H34.3818C38.6017 15.4426 42.1848 16.9555 45.2105 19.9015C48.1566 22.8476 49.6695 26.4307 49.6695 30.7303C49.6695 35.0299 48.1566 38.5333 45.2105 41.5591C42.2644 44.5052 38.6814 46.0178 34.3818 46.0178H0.462402V84.9535H11.6096V57.165H34.3818C34.4614 57.165 34.6206 57.165 34.7799 57.165C34.9393 57.165 35.0984 57.165 35.1781 57.165L49.6695 85.0332H60.8167L45.1309 54.8561C49.749 52.6266 53.4913 49.4417 56.4374 45.0624Z" fill="#C4FF61"/>
<path d="M72.6004 39.0908V50.238H129.372V39.0908H72.6004ZM72.6004 74.1248L66.7881 85.0332H129.451V74.1248H72.6004ZM66.7881 4.29541L72.6004 15.4426H129.372V4.29541H66.7881Z" fill="#C4FF61"/>
<path d="M197.529 4.29483V62.4994L137.812 0.950684V85.1123H148.959V27.7039L208.677 88.775V4.29483H197.529Z" fill="#C4FF61"/>
<path d="M239.57 55.2542L259.396 43.5495C264.493 40.524 268.553 36.4631 271.499 31.2876C274.446 26.1122 275.878 20.5385 275.878 14.5668V4.29541H217.913V15.4426H264.811V15.6019C264.811 19.4238 263.855 23.0068 261.945 26.351C260.033 29.6952 257.405 32.3226 254.142 34.2337L234.554 45.779C229.379 48.8048 225.397 52.8654 222.372 58.041C219.425 63.2163 217.913 68.7901 217.913 74.7617V84.9535H275.878V73.8063H228.98C228.98 69.9845 229.936 66.4015 231.847 63.1369C233.678 59.7927 236.306 57.165 239.57 55.2542Z" fill="#C4FF61"/>
<path d="M365.455 48.1675C365.455 48.2472 365.455 48.3268 365.455 48.4065C363.702 67.8345 348.257 83.0424 329.384 84.9534C329.225 84.9534 329.147 84.9534 328.987 84.9534L365.455 48.1675Z" fill="#C4FF61"/>
<path d="M342.761 7.95776C341.726 7.48004 340.691 7.00232 339.657 6.6042C337.585 5.80797 335.438 5.17097 333.207 4.69322C330.5 4.13585 327.794 3.81738 324.925 3.81738C323.572 3.81738 322.219 3.89699 320.865 3.97662C311.471 4.9321 303.111 8.99288 296.661 15.2035C296.261 15.6016 295.785 16.0793 295.386 16.4774C289.254 22.9269 285.273 31.4465 284.398 40.7624C284.319 41.9568 284.238 43.1512 284.238 44.4251C284.238 47.4509 284.557 50.3967 285.194 53.2632C285.672 55.4132 286.31 57.4834 287.104 59.5535C287.582 60.6682 288.06 61.783 288.538 62.8181C289.494 64.6494 290.529 66.4011 291.723 68.0731L298.411 61.3052L341.407 17.831L348.098 11.0631C346.504 9.94834 344.673 8.91325 342.761 7.95776ZM294.51 52.1487C294.43 51.9096 294.351 51.5912 294.351 51.3524C293.873 49.1229 293.635 46.8137 293.635 44.5048C293.635 36.4628 296.661 28.8986 302.155 23.0862L303.268 21.9714C309.161 16.3182 316.805 13.2129 325.006 13.2129C327.156 13.2129 329.306 13.4518 331.375 13.8499C331.694 13.9295 332.013 14.0091 332.331 14.0887L294.51 52.1487Z" fill="#C4FF61"/>
<path d="M310.912 82.7237C309.877 82.3256 308.921 81.9275 307.967 81.5293C305.977 80.5739 304.064 79.5389 302.233 78.265L358.448 21.4937C359.642 23.2454 360.758 25.0766 361.633 27.0673C362.111 28.1024 362.589 29.1375 362.986 30.1725L310.912 82.7237Z" fill="#C4FF61"/>
</g>
<defs>
<clipPath id="clip0_32_124">
<rect width="365.081" height="88" fill="white" transform="translate(0.459473 0.923828)"/>
</clipPath>
</defs>
</svg>
