<svg width="186.2" viewBox="0 0 532 100" fill="none" xmlns="http://www.w3.org/2000/svg">
<path d="M155.08 58.568C155.08 62.501 153.366 65.6967 149.938 68.1548C146.509 70.613 141.854 71.8421 135.972 71.8421C132.571 71.8421 129.607 71.5516 127.08 70.9706C124.552 70.3895 122.186 69.6521 119.98 68.7582V59.1847H121.138C123.325 60.8831 125.775 62.1882 128.486 63.0999C131.197 64.0117 133.803 64.4676 136.303 64.4676C136.946 64.4676 137.792 64.4139 138.84 64.3067C139.887 64.1994 140.742 64.0206 141.404 63.7703C142.213 63.4485 142.879 63.0463 143.403 62.5636C143.927 62.0809 144.189 61.3658 144.189 60.4183C144.189 59.5423 143.807 58.787 143.044 58.1523C142.282 57.5176 141.165 57.0305 139.694 56.6908C138.15 56.3333 136.519 55.9981 134.8 55.6852C133.082 55.3723 131.469 54.9746 129.961 54.4919C126.506 53.4013 124.019 51.922 122.503 50.0537C120.986 48.1855 120.228 45.8659 120.228 43.0949C120.228 39.3763 121.942 36.3416 125.37 33.9907C128.799 31.6398 133.206 30.4644 138.592 30.4644C141.294 30.4644 143.964 30.7191 146.601 31.2286C149.239 31.7381 151.523 32.3773 153.453 33.146V42.344H152.323C150.668 41.0568 148.642 39.9797 146.243 39.1126C143.844 38.2456 141.395 37.8121 138.895 37.8121C138.012 37.8121 137.135 37.8702 136.262 37.9864C135.388 38.1026 134.548 38.3216 133.739 38.6434C133.022 38.9115 132.406 39.3182 131.891 39.8635C131.377 40.4088 131.119 41.03 131.119 41.7273C131.119 42.782 131.533 43.591 132.36 44.1541C133.187 44.7173 134.75 45.2313 137.047 45.6961C138.555 46 140.002 46.295 141.39 46.581C142.778 46.8671 144.271 47.2604 145.871 47.7609C149.014 48.7621 151.335 50.1253 152.833 51.8504C154.331 53.5756 155.08 55.8148 155.08 58.568Z" fill="#06070A"/>
<path d="M194.454 38.9116H181.632V71.1181H171.044V38.9116H158.223V31.1885H194.454V38.9116Z" fill="#06070A"/>
<path d="M238.763 71.1181H227.817L224.977 63.0464H209.757L206.917 71.1181H196.246L211.411 31.1885H223.598L238.763 71.1181ZM222.413 55.7255L217.367 41.4055L212.321 55.7255H222.413Z" fill="#06070A"/>
<path d="M282.99 71.1181H270.003L257.733 55.1355L255.251 58.0585V71.1181H244.664V31.1885H255.251V49.2627L269.92 31.1885H282.19L266.143 49.665L282.99 71.1181Z" fill="#06070A"/>
<path d="M317.896 71.1181H288.201V31.1885H317.896V38.9116H288.201V45.716L316.518 45.8034V53.5266H288.201V63.395H317.896V71.1181Z" fill="#06070A"/>
<path d="M359.641 58.5678C359.641 62.5009 357.927 65.6965 354.499 68.1547C351.071 70.6128 346.416 71.8419 340.534 71.8419C337.133 71.8419 334.169 71.5514 331.641 70.9704C329.114 70.3894 326.747 69.6519 324.542 68.758V59.1846H325.7C327.887 60.883 330.336 62.188 333.048 63.0998C335.759 64.0115 338.365 64.4674 340.865 64.4674C341.508 64.4674 342.353 64.4138 343.401 64.3065C344.449 64.1993 345.304 64.0205 345.965 63.7702C346.774 63.4484 347.441 63.0461 347.964 62.5634C348.488 62.0808 348.75 61.3656 348.75 60.4181C348.75 59.5421 348.369 58.7868 347.606 58.1521C346.843 57.5175 345.726 57.0303 344.256 56.6907C342.712 56.3331 341.08 55.9979 339.362 55.685C337.643 55.3722 336.03 54.9744 334.523 54.4917C331.067 53.4012 328.581 51.9218 327.064 50.0536C325.548 48.1854 324.79 45.8658 324.79 43.0947C324.79 39.3762 326.504 36.3415 329.932 33.9906C333.36 31.6397 337.767 30.4642 343.153 30.4642C345.855 30.4642 348.525 30.719 351.163 31.2285C353.801 31.738 356.085 32.3771 358.015 33.1458V42.3439H356.884C355.23 41.0567 353.203 39.9796 350.804 39.1125C348.406 38.2454 345.956 37.8119 343.456 37.8119C342.574 37.8119 341.696 37.87 340.823 37.9862C339.95 38.1024 339.109 38.3214 338.3 38.6432C337.583 38.9114 336.968 39.3181 336.453 39.8634C335.938 40.4086 335.681 41.0299 335.681 41.7271C335.681 42.7819 336.094 43.5908 336.922 44.154C337.749 44.7171 339.311 45.2311 341.609 45.6959C343.116 45.9998 344.564 46.2948 345.952 46.5809C347.339 46.8669 348.833 47.2602 350.432 47.7608C353.575 48.7619 355.896 50.1251 357.394 51.8503C358.892 53.5755 359.641 55.8147 359.641 58.5678ZM399.015 38.9114H386.194V71.1179H375.606V38.9114H362.785V31.1882H399.015V38.9114ZM445.31 51.1665C445.31 57.5309 443.435 62.5858 439.685 66.3312C435.935 70.0765 430.751 71.9492 424.134 71.9492C417.535 71.9492 412.36 70.0765 408.61 66.3312C404.861 62.5858 402.986 57.5309 402.986 51.1665C402.986 44.7484 404.861 39.6756 408.61 35.9482C412.36 32.2207 417.535 30.3569 424.134 30.3569C430.715 30.3569 435.889 32.2207 439.657 35.9482C443.425 39.6756 445.31 44.7484 445.31 51.1665ZM431.275 61.2763C432.305 60.0606 433.067 58.6259 433.564 56.9722C434.06 55.3185 434.308 53.3744 434.308 51.1397C434.308 48.7441 434.023 46.706 433.453 45.0255C432.884 43.345 432.139 41.9863 431.22 40.9494C430.283 39.8768 429.203 39.0991 427.98 38.6164C426.758 38.1337 425.485 37.8923 424.161 37.8923C422.82 37.8923 421.556 38.1248 420.37 38.5896C419.185 39.0544 418.095 39.8231 417.103 40.8958C416.184 41.8969 415.435 43.278 414.856 45.0389C414.277 46.7999 413.987 48.8424 413.987 51.1665C413.987 53.5442 414.267 55.5688 414.828 57.2404C415.389 58.9119 416.129 60.2751 417.048 61.3299C417.967 62.3847 419.042 63.1623 420.274 63.6629C421.505 64.1635 422.801 64.4138 424.161 64.4138C425.522 64.4138 426.818 64.159 428.049 63.6495C429.281 63.14 430.356 62.3489 431.275 61.2763ZM490.722 71.1179H480.52L463.094 43.7115V71.1179H453.388V31.1882H466.044L481.016 54.0626V31.1882H490.722V71.1179ZM530.895 71.1179H501.199V31.1882H530.895V38.9114H501.199V45.8032H529.516V53.5263H501.199V63.3948H530.895V71.1179Z" fill="#06070A"/>
<path d="M44.1194 28.1528L39.3945 63.7881" stroke="#06070A" stroke-width="2.04263"/>
<path d="M6.42529 60.5667L23.4192 49.002L37.4066 63.101L68.612 56.2333L85.6196 62.652L45.722 95.238L6.42529 60.5667Z" fill="#06070A"/>
<mask id="mask0_47_25" style="mask-type:luminance" maskUnits="userSpaceOnUse" x="6" y="49" width="80" height="47">
<path d="M6.42529 60.5667L23.4192 49.002L37.4066 63.101L68.612 56.2333L85.6196 62.652L45.722 95.238L6.42529 60.5667Z" fill="white"/>
</mask>
<g mask="url(#mask0_47_25)">
<path d="M39.3945 61.6953L45.7218 95.2379" stroke="#FFF3D1" stroke-width="2.04263"/>
</g>
<path fill-rule="evenodd" clip-rule="evenodd" d="M45.702 4.76172L23.4193 22.3101L5.25244 59.2169L45.702 95.2379L86.2048 62.0779L64.8201 16.8303L45.702 4.76172Z" stroke="#06070A" stroke-width="2.04263"/>
<path d="M23.4194 22.3099L43.6427 28.1526L64.8202 16.8301" stroke="#06070A" stroke-width="2.04263"/>
</svg>
