<svg width="263" height="70" viewBox="0 0 263 70" fill="none" xmlns="http://www.w3.org/2000/svg">
<path d="M0.5 70V0H16.2662V28.6049L28.245 0H43.6589L30.447 31.6296L44.2755 70H28.245L17.9397 39.0617L16.2662 41.8272V70H0.5Z" fill="#EABD3D"/>
<path d="M64.6556 70V0H80.4218V70H64.6556Z" fill="#EABD3D"/>
<path d="M105.153 70V0H116.251L130.872 33.7037V0H143.908V70H133.25L118.629 33.7037V70H105.153Z" fill="#EABD3D"/>
<path d="M165.888 70V60.6667L183.328 10.4568H166.68V0H198.83V8.7284L181.126 59.5432H199.006V70H165.888Z" fill="#EABD3D"/>
<path d="M217.381 70L230.857 0H248.825L262.125 70H247.592L245.214 55.2222H234.732L232.266 70H217.381ZM236.142 45.9753H243.716L239.929 18.6667L236.142 45.9753Z" fill="#EABD3D"/>
</svg>
